%TF.GenerationSoftware,KiCad,Pcbnew,9.0.2*%
%TF.CreationDate,2025-06-25T20:21:35-07:00*%
%TF.ProjectId,led-plate-96-well,6c65642d-706c-4617-9465-2d39362d7765,rev?*%
%TF.SameCoordinates,Original*%
%TF.FileFunction,Soldermask,Top*%
%TF.FilePolarity,Negative*%
%FSLAX46Y46*%
G04 Gerber Fmt 4.6, Leading zero omitted, Abs format (unit mm)*
G04 Created by KiCad (PCBNEW 9.0.2) date 2025-06-25 20:21:35*
%MOMM*%
%LPD*%
G01*
G04 APERTURE LIST*
G04 Aperture macros list*
%AMRoundRect*
0 Rectangle with rounded corners*
0 $1 Rounding radius*
0 $2 $3 $4 $5 $6 $7 $8 $9 X,Y pos of 4 corners*
0 Add a 4 corners polygon primitive as box body*
4,1,4,$2,$3,$4,$5,$6,$7,$8,$9,$2,$3,0*
0 Add four circle primitives for the rounded corners*
1,1,$1+$1,$2,$3*
1,1,$1+$1,$4,$5*
1,1,$1+$1,$6,$7*
1,1,$1+$1,$8,$9*
0 Add four rect primitives between the rounded corners*
20,1,$1+$1,$2,$3,$4,$5,0*
20,1,$1+$1,$4,$5,$6,$7,0*
20,1,$1+$1,$6,$7,$8,$9,0*
20,1,$1+$1,$8,$9,$2,$3,0*%
G04 Aperture macros list end*
%ADD10R,1.600000X2.400000*%
%ADD11R,0.600000X2.400000*%
%ADD12R,0.600000X0.500000*%
%ADD13RoundRect,0.250000X-0.312500X-1.075000X0.312500X-1.075000X0.312500X1.075000X-0.312500X1.075000X0*%
%ADD14RoundRect,0.250000X0.312500X1.075000X-0.312500X1.075000X-0.312500X-1.075000X0.312500X-1.075000X0*%
%ADD15RoundRect,0.265778X-0.647222X0.332222X-0.647222X-0.332222X0.647222X-0.332222X0.647222X0.332222X0*%
%ADD16RoundRect,0.150000X-0.150000X0.587500X-0.150000X-0.587500X0.150000X-0.587500X0.150000X0.587500X0*%
%ADD17O,2.484000X4.764000*%
%ADD18O,4.254000X2.229000*%
%ADD19O,2.229000X4.254000*%
%ADD20RoundRect,0.265778X0.332222X0.647222X-0.332222X0.647222X-0.332222X-0.647222X0.332222X-0.647222X0*%
%ADD21RoundRect,0.265778X-0.332222X-0.647222X0.332222X-0.647222X0.332222X0.647222X-0.332222X0.647222X0*%
%ADD22R,1.500000X2.300000*%
%ADD23O,1.500000X2.300000*%
%ADD24RoundRect,0.150000X0.150000X-0.587500X0.150000X0.587500X-0.150000X0.587500X-0.150000X-0.587500X0*%
%ADD25RoundRect,0.102000X-0.787400X-0.787400X0.787400X-0.787400X0.787400X0.787400X-0.787400X0.787400X0*%
%ADD26C,1.778800*%
G04 APERTURE END LIST*
D10*
%TO.C,D12*%
X171145000Y-51210000D03*
D11*
X169495000Y-51210000D03*
D12*
X169195000Y-51210000D03*
%TD*%
D10*
%TO.C,D77*%
X216145000Y-78210000D03*
D11*
X214495000Y-78210000D03*
D12*
X214195000Y-78210000D03*
%TD*%
D10*
%TO.C,D78*%
X225145000Y-78210000D03*
D11*
X223495000Y-78210000D03*
D12*
X223195000Y-78210000D03*
%TD*%
D10*
%TO.C,D72*%
X171145000Y-105210000D03*
D11*
X169495000Y-105210000D03*
D12*
X169195000Y-105210000D03*
%TD*%
D10*
%TO.C,D15*%
X144145000Y-60210000D03*
D11*
X142495000Y-60210000D03*
D12*
X142195000Y-60210000D03*
%TD*%
D10*
%TO.C,D62*%
X135145000Y-96210000D03*
D11*
X133495000Y-96210000D03*
D12*
X133195000Y-96210000D03*
%TD*%
D10*
%TO.C,D7*%
X126145000Y-51210000D03*
D11*
X124495000Y-51210000D03*
D12*
X124195000Y-51210000D03*
%TD*%
D10*
%TO.C,D36*%
X225145000Y-51210000D03*
D11*
X223495000Y-51210000D03*
D12*
X223195000Y-51210000D03*
%TD*%
D10*
%TO.C,D5*%
X162145000Y-42210000D03*
D11*
X160495000Y-42210000D03*
D12*
X160195000Y-42210000D03*
%TD*%
D10*
%TO.C,D86*%
X189145000Y-96210000D03*
D11*
X187495000Y-96210000D03*
D12*
X187195000Y-96210000D03*
%TD*%
D10*
%TO.C,D56*%
X135145000Y-87210000D03*
D11*
X133495000Y-87210000D03*
D12*
X133195000Y-87210000D03*
%TD*%
D10*
%TO.C,D54*%
X171145000Y-78210000D03*
D11*
X169495000Y-78210000D03*
D12*
X169195000Y-78210000D03*
%TD*%
D10*
%TO.C,D4*%
X153145000Y-42210000D03*
D11*
X151495000Y-42210000D03*
D12*
X151195000Y-42210000D03*
%TD*%
D13*
%TO.C,R2*%
X104570000Y-51210000D03*
X107495000Y-51210000D03*
%TD*%
D10*
%TO.C,D61*%
X126145000Y-96210000D03*
D11*
X124495000Y-96210000D03*
D12*
X124195000Y-96210000D03*
%TD*%
D10*
%TO.C,D19*%
X126145000Y-69210000D03*
D11*
X124495000Y-69210000D03*
D12*
X124195000Y-69210000D03*
%TD*%
D10*
%TO.C,D70*%
X153145000Y-105210000D03*
D11*
X151495000Y-105210000D03*
D12*
X151195000Y-105210000D03*
%TD*%
D14*
%TO.C,R23*%
X245495000Y-96210000D03*
X242570000Y-96210000D03*
%TD*%
D15*
%TO.C,R5*%
X101570000Y-33290000D03*
X101570000Y-36210000D03*
%TD*%
D10*
%TO.C,D53*%
X162145000Y-78210000D03*
D11*
X160495000Y-78210000D03*
D12*
X160195000Y-78210000D03*
%TD*%
D14*
%TO.C,R22*%
X245495000Y-87210000D03*
X242570000Y-87210000D03*
%TD*%
D10*
%TO.C,D10*%
X153145000Y-51210000D03*
D11*
X151495000Y-51210000D03*
D12*
X151195000Y-51210000D03*
%TD*%
D10*
%TO.C,D87*%
X198145000Y-96210000D03*
D11*
X196495000Y-96210000D03*
D12*
X196195000Y-96210000D03*
%TD*%
D14*
%TO.C,R10*%
X245570000Y-51210000D03*
X242645000Y-51210000D03*
%TD*%
D10*
%TO.C,D82*%
X207145000Y-87210000D03*
D11*
X205495000Y-87210000D03*
D12*
X205195000Y-87210000D03*
%TD*%
D10*
%TO.C,D60*%
X171145000Y-87210000D03*
D11*
X169495000Y-87210000D03*
D12*
X169195000Y-87210000D03*
%TD*%
D10*
%TO.C,D35*%
X216145000Y-51210000D03*
D11*
X214495000Y-51210000D03*
D12*
X214195000Y-51210000D03*
%TD*%
D10*
%TO.C,D96*%
X225145000Y-105210000D03*
D11*
X223495000Y-105210000D03*
D12*
X223195000Y-105210000D03*
%TD*%
D10*
%TO.C,D32*%
X189145000Y-51210000D03*
D11*
X187495000Y-51210000D03*
D12*
X187195000Y-51210000D03*
%TD*%
D10*
%TO.C,D24*%
X171145000Y-69210000D03*
D11*
X169495000Y-69210000D03*
D12*
X169195000Y-69210000D03*
%TD*%
D10*
%TO.C,D89*%
X216145000Y-96210000D03*
D11*
X214495000Y-96210000D03*
D12*
X214195000Y-96210000D03*
%TD*%
D10*
%TO.C,D22*%
X153145000Y-69210000D03*
D11*
X151495000Y-69210000D03*
D12*
X151195000Y-69210000D03*
%TD*%
D10*
%TO.C,D74*%
X189145000Y-78210000D03*
D11*
X187495000Y-78210000D03*
D12*
X187195000Y-78210000D03*
%TD*%
D14*
%TO.C,R12*%
X245570000Y-69210000D03*
X242645000Y-69210000D03*
%TD*%
D10*
%TO.C,D80*%
X189145000Y-87210000D03*
D11*
X187495000Y-87210000D03*
D12*
X187195000Y-87210000D03*
%TD*%
D10*
%TO.C,D45*%
X198145000Y-69210000D03*
D11*
X196495000Y-69210000D03*
D12*
X196195000Y-69210000D03*
%TD*%
D10*
%TO.C,D43*%
X180145000Y-69210000D03*
D11*
X178495000Y-69210000D03*
D12*
X178195000Y-69210000D03*
%TD*%
D10*
%TO.C,D59*%
X162145000Y-87210000D03*
D11*
X160495000Y-87210000D03*
D12*
X160195000Y-87210000D03*
%TD*%
D16*
%TO.C,U3*%
X245470000Y-35260000D03*
X243570000Y-35260000D03*
X244520000Y-37135000D03*
%TD*%
D13*
%TO.C,R15*%
X104570000Y-78210000D03*
X107495000Y-78210000D03*
%TD*%
D17*
%TO.C,J2*%
X97350000Y-54113700D03*
D18*
X94350000Y-58913700D03*
D19*
X91100000Y-54113700D03*
%TD*%
D10*
%TO.C,D26*%
X189145000Y-42210000D03*
D11*
X187495000Y-42210000D03*
D12*
X187195000Y-42210000D03*
%TD*%
D10*
%TO.C,D41*%
X216145000Y-60210000D03*
D11*
X214495000Y-60210000D03*
D12*
X214195000Y-60210000D03*
%TD*%
D20*
%TO.C,R19*%
X238570000Y-119210000D03*
X235650000Y-119210000D03*
%TD*%
D10*
%TO.C,D28*%
X207145000Y-42210000D03*
D11*
X205495000Y-42210000D03*
D12*
X205195000Y-42210000D03*
%TD*%
D10*
%TO.C,D42*%
X225145000Y-60210000D03*
D11*
X223495000Y-60210000D03*
D12*
X223195000Y-60210000D03*
%TD*%
D10*
%TO.C,D13*%
X126145000Y-60210000D03*
D11*
X124495000Y-60210000D03*
D12*
X124195000Y-60210000D03*
%TD*%
D10*
%TO.C,D84*%
X225145000Y-87210000D03*
D11*
X223495000Y-87210000D03*
D12*
X223195000Y-87210000D03*
%TD*%
D10*
%TO.C,D46*%
X207145000Y-69210000D03*
D11*
X205495000Y-69210000D03*
D12*
X205195000Y-69210000D03*
%TD*%
D10*
%TO.C,D17*%
X162145000Y-60210000D03*
D11*
X160495000Y-60210000D03*
D12*
X160195000Y-60210000D03*
%TD*%
D10*
%TO.C,D79*%
X180145000Y-87210000D03*
D11*
X178495000Y-87210000D03*
D12*
X178195000Y-87210000D03*
%TD*%
D10*
%TO.C,D92*%
X189145000Y-105210000D03*
D11*
X187495000Y-105210000D03*
D12*
X187195000Y-105210000D03*
%TD*%
D10*
%TO.C,D68*%
X135145000Y-105210000D03*
D11*
X133495000Y-105210000D03*
D12*
X133195000Y-105210000D03*
%TD*%
D10*
%TO.C,D88*%
X207145000Y-96210000D03*
D11*
X205495000Y-96210000D03*
D12*
X205195000Y-96210000D03*
%TD*%
D10*
%TO.C,D73*%
X180145000Y-78210000D03*
D11*
X178495000Y-78210000D03*
D12*
X178195000Y-78210000D03*
%TD*%
D10*
%TO.C,D34*%
X207145000Y-51210000D03*
D11*
X205495000Y-51210000D03*
D12*
X205195000Y-51210000D03*
%TD*%
D10*
%TO.C,D40*%
X207145000Y-60210000D03*
D11*
X205495000Y-60210000D03*
D12*
X205195000Y-60210000D03*
%TD*%
D21*
%TO.C,R14*%
X104650000Y-116210000D03*
X107570000Y-116210000D03*
%TD*%
D10*
%TO.C,D81*%
X198145000Y-87210000D03*
D11*
X196495000Y-87210000D03*
D12*
X196195000Y-87210000D03*
%TD*%
D10*
%TO.C,D25*%
X180145000Y-42210000D03*
D11*
X178495000Y-42210000D03*
D12*
X178195000Y-42210000D03*
%TD*%
D10*
%TO.C,D69*%
X144145000Y-105210000D03*
D11*
X142495000Y-105210000D03*
D12*
X142195000Y-105210000D03*
%TD*%
D13*
%TO.C,R6*%
X104570000Y-69210000D03*
X107495000Y-69210000D03*
%TD*%
%TO.C,R1*%
X104570000Y-42210000D03*
X107495000Y-42210000D03*
%TD*%
D21*
%TO.C,R8*%
X242650000Y-31210000D03*
X245570000Y-31210000D03*
%TD*%
D10*
%TO.C,D90*%
X225145000Y-96210000D03*
D11*
X223495000Y-96210000D03*
D12*
X223195000Y-96210000D03*
%TD*%
D21*
%TO.C,R20*%
X242650000Y-116210000D03*
X245570000Y-116210000D03*
%TD*%
D10*
%TO.C,D50*%
X135145000Y-78210000D03*
D11*
X133495000Y-78210000D03*
D12*
X133195000Y-78210000D03*
%TD*%
D10*
%TO.C,D1*%
X126145000Y-42210000D03*
D11*
X124495000Y-42210000D03*
D12*
X124195000Y-42210000D03*
%TD*%
D10*
%TO.C,D31*%
X180145000Y-51210000D03*
D11*
X178495000Y-51210000D03*
D12*
X178195000Y-51210000D03*
%TD*%
D10*
%TO.C,D71*%
X162145000Y-105210000D03*
D11*
X160495000Y-105210000D03*
D12*
X160195000Y-105210000D03*
%TD*%
D21*
%TO.C,R7*%
X242570000Y-27210000D03*
X245490000Y-27210000D03*
%TD*%
D10*
%TO.C,D63*%
X144145000Y-96210000D03*
D11*
X142495000Y-96210000D03*
D12*
X142195000Y-96210000D03*
%TD*%
D10*
%TO.C,D94*%
X207145000Y-105210000D03*
D11*
X205495000Y-105210000D03*
D12*
X205195000Y-105210000D03*
%TD*%
D22*
%TO.C,U1*%
X95367500Y-64082500D03*
D23*
X92827500Y-64082500D03*
X90287500Y-64082500D03*
%TD*%
D10*
%TO.C,D67*%
X126145000Y-105210000D03*
D11*
X124495000Y-105210000D03*
D12*
X124195000Y-105210000D03*
%TD*%
D14*
%TO.C,R21*%
X245495000Y-78210000D03*
X242570000Y-78210000D03*
%TD*%
D10*
%TO.C,D51*%
X144145000Y-78210000D03*
D11*
X142495000Y-78210000D03*
D12*
X142195000Y-78210000D03*
%TD*%
D10*
%TO.C,D95*%
X216145000Y-105210000D03*
D11*
X214495000Y-105210000D03*
D12*
X214195000Y-105210000D03*
%TD*%
D13*
%TO.C,R16*%
X104570000Y-87210000D03*
X107495000Y-87210000D03*
%TD*%
D10*
%TO.C,D55*%
X126145000Y-87210000D03*
D11*
X124495000Y-87210000D03*
D12*
X124195000Y-87210000D03*
%TD*%
D10*
%TO.C,D20*%
X135145000Y-69210000D03*
D11*
X133495000Y-69210000D03*
D12*
X133195000Y-69210000D03*
%TD*%
D21*
%TO.C,R13*%
X104570000Y-119210000D03*
X107490000Y-119210000D03*
%TD*%
D10*
%TO.C,D64*%
X153145000Y-96210000D03*
D11*
X151495000Y-96210000D03*
D12*
X151195000Y-96210000D03*
%TD*%
D13*
%TO.C,R18*%
X104570000Y-105210000D03*
X107495000Y-105210000D03*
%TD*%
D10*
%TO.C,D2*%
X135145000Y-42210000D03*
D11*
X133495000Y-42210000D03*
D12*
X133195000Y-42210000D03*
%TD*%
D10*
%TO.C,D14*%
X135145000Y-60210000D03*
D11*
X133495000Y-60210000D03*
D12*
X133195000Y-60210000D03*
%TD*%
D10*
%TO.C,D3*%
X144145000Y-42210000D03*
D11*
X142495000Y-42210000D03*
D12*
X142195000Y-42210000D03*
%TD*%
D10*
%TO.C,D48*%
X225145000Y-69210000D03*
D11*
X223495000Y-69210000D03*
D12*
X223195000Y-69210000D03*
%TD*%
D16*
%TO.C,U4*%
X107520000Y-35335000D03*
X105620000Y-35335000D03*
X106570000Y-37210000D03*
%TD*%
D10*
%TO.C,D58*%
X153145000Y-87210000D03*
D11*
X151495000Y-87210000D03*
D12*
X151195000Y-87210000D03*
%TD*%
D10*
%TO.C,D93*%
X198145000Y-105210000D03*
D11*
X196495000Y-105210000D03*
D12*
X196195000Y-105210000D03*
%TD*%
D10*
%TO.C,D75*%
X198145000Y-78210000D03*
D11*
X196495000Y-78210000D03*
D12*
X196195000Y-78210000D03*
%TD*%
D10*
%TO.C,D47*%
X216145000Y-69210000D03*
D11*
X214495000Y-69210000D03*
D12*
X214195000Y-69210000D03*
%TD*%
D10*
%TO.C,D29*%
X216145000Y-42210000D03*
D11*
X214495000Y-42210000D03*
D12*
X214195000Y-42210000D03*
%TD*%
D10*
%TO.C,D16*%
X153145000Y-60210000D03*
D11*
X151495000Y-60210000D03*
D12*
X151195000Y-60210000D03*
%TD*%
D10*
%TO.C,D37*%
X180145000Y-60210000D03*
D11*
X178495000Y-60210000D03*
D12*
X178195000Y-60210000D03*
%TD*%
D10*
%TO.C,D65*%
X162145000Y-96210000D03*
D11*
X160495000Y-96210000D03*
D12*
X160195000Y-96210000D03*
%TD*%
D16*
%TO.C,U6*%
X245470000Y-110272500D03*
X243570000Y-110272500D03*
X244520000Y-112147500D03*
%TD*%
D10*
%TO.C,D85*%
X180145000Y-96210000D03*
D11*
X178495000Y-96210000D03*
D12*
X178195000Y-96210000D03*
%TD*%
D10*
%TO.C,D91*%
X180145000Y-105210000D03*
D11*
X178495000Y-105210000D03*
D12*
X178195000Y-105210000D03*
%TD*%
D14*
%TO.C,R24*%
X245495000Y-105210000D03*
X242570000Y-105210000D03*
%TD*%
D10*
%TO.C,D11*%
X162145000Y-51210000D03*
D11*
X160495000Y-51210000D03*
D12*
X160195000Y-51210000D03*
%TD*%
D10*
%TO.C,D30*%
X225145000Y-42210000D03*
D11*
X223495000Y-42210000D03*
D12*
X223195000Y-42210000D03*
%TD*%
D10*
%TO.C,D49*%
X126145000Y-78210000D03*
D11*
X124495000Y-78210000D03*
D12*
X124195000Y-78210000D03*
%TD*%
D10*
%TO.C,D44*%
X189145000Y-69210000D03*
D11*
X187495000Y-69210000D03*
D12*
X187195000Y-69210000D03*
%TD*%
D10*
%TO.C,D27*%
X198145000Y-42210000D03*
D11*
X196495000Y-42210000D03*
D12*
X196195000Y-42210000D03*
%TD*%
D10*
%TO.C,D8*%
X135145000Y-51210000D03*
D11*
X133495000Y-51210000D03*
D12*
X133195000Y-51210000D03*
%TD*%
D10*
%TO.C,D18*%
X171145000Y-60210000D03*
D11*
X169495000Y-60210000D03*
D12*
X169195000Y-60210000D03*
%TD*%
D10*
%TO.C,D83*%
X216145000Y-87210000D03*
D11*
X214495000Y-87210000D03*
D12*
X214195000Y-87210000D03*
%TD*%
D10*
%TO.C,D9*%
X144145000Y-51210000D03*
D11*
X142495000Y-51210000D03*
D12*
X142195000Y-51210000D03*
%TD*%
D13*
%TO.C,R17*%
X104645000Y-96210000D03*
X107570000Y-96210000D03*
%TD*%
D10*
%TO.C,D6*%
X171145000Y-42210000D03*
D11*
X169495000Y-42210000D03*
D12*
X169195000Y-42210000D03*
%TD*%
D10*
%TO.C,D23*%
X162145000Y-69210000D03*
D11*
X160495000Y-69210000D03*
D12*
X160195000Y-69210000D03*
%TD*%
D14*
%TO.C,R11*%
X245570000Y-60210000D03*
X242645000Y-60210000D03*
%TD*%
D10*
%TO.C,D21*%
X144145000Y-69210000D03*
D11*
X142495000Y-69210000D03*
D12*
X142195000Y-69210000D03*
%TD*%
D24*
%TO.C,U5*%
X104670000Y-111210000D03*
X106570000Y-111210000D03*
X105620000Y-109335000D03*
%TD*%
D10*
%TO.C,D76*%
X207145000Y-78210000D03*
D11*
X205495000Y-78210000D03*
D12*
X205195000Y-78210000D03*
%TD*%
D14*
%TO.C,R9*%
X245570000Y-42210000D03*
X242645000Y-42210000D03*
%TD*%
D10*
%TO.C,D52*%
X153145000Y-78210000D03*
D11*
X151495000Y-78210000D03*
D12*
X151195000Y-78210000D03*
%TD*%
D21*
%TO.C,R4*%
X104650000Y-31210000D03*
X107570000Y-31210000D03*
%TD*%
D25*
%TO.C,U2*%
X85680000Y-77350000D03*
D26*
X85680000Y-79890000D03*
X85680000Y-82430000D03*
X85680000Y-84970000D03*
X85680000Y-87510000D03*
X85680000Y-90050000D03*
X85680000Y-92590000D03*
X85680000Y-95130000D03*
X85680000Y-97670000D03*
X85680000Y-100210000D03*
X85680000Y-102750000D03*
X85680000Y-105290000D03*
X85680000Y-107830000D03*
X85680000Y-110370000D03*
X85680000Y-112910000D03*
X85680000Y-115450000D03*
X85680000Y-117990000D03*
X100920000Y-117990000D03*
X100920000Y-115450000D03*
X100920000Y-112910000D03*
X100920000Y-110370000D03*
X100920000Y-107830000D03*
X100920000Y-105290000D03*
X100920000Y-102750000D03*
X100920000Y-100210000D03*
X100920000Y-97670000D03*
X100920000Y-95130000D03*
X100920000Y-92590000D03*
X100920000Y-90050000D03*
X100920000Y-87510000D03*
X100920000Y-84970000D03*
X100920000Y-82430000D03*
X100920000Y-79890000D03*
X100920000Y-77350000D03*
%TD*%
D10*
%TO.C,D39*%
X198145000Y-60210000D03*
D11*
X196495000Y-60210000D03*
D12*
X196195000Y-60210000D03*
%TD*%
D13*
%TO.C,R3*%
X104570000Y-60210000D03*
X107495000Y-60210000D03*
%TD*%
D10*
%TO.C,D33*%
X198145000Y-51210000D03*
D11*
X196495000Y-51210000D03*
D12*
X196195000Y-51210000D03*
%TD*%
D10*
%TO.C,D57*%
X144145000Y-87210000D03*
D11*
X142495000Y-87210000D03*
D12*
X142195000Y-87210000D03*
%TD*%
D10*
%TO.C,D38*%
X189145000Y-60210000D03*
D11*
X187495000Y-60210000D03*
D12*
X187195000Y-60210000D03*
%TD*%
D10*
%TO.C,D66*%
X171145000Y-96210000D03*
D11*
X169495000Y-96210000D03*
D12*
X169195000Y-96210000D03*
%TD*%
M02*
