%TF.GenerationSoftware,KiCad,Pcbnew,9.0.2*%
%TF.CreationDate,2025-06-25T20:21:35-07:00*%
%TF.ProjectId,led-plate-96-well,6c65642d-706c-4617-9465-2d39362d7765,rev?*%
%TF.SameCoordinates,Original*%
%TF.FileFunction,Copper,L1,Top*%
%TF.FilePolarity,Positive*%
%FSLAX46Y46*%
G04 Gerber Fmt 4.6, Leading zero omitted, Abs format (unit mm)*
G04 Created by KiCad (PCBNEW 9.0.2) date 2025-06-25 20:21:35*
%MOMM*%
%LPD*%
G01*
G04 APERTURE LIST*
G04 Aperture macros list*
%AMRoundRect*
0 Rectangle with rounded corners*
0 $1 Rounding radius*
0 $2 $3 $4 $5 $6 $7 $8 $9 X,Y pos of 4 corners*
0 Add a 4 corners polygon primitive as box body*
4,1,4,$2,$3,$4,$5,$6,$7,$8,$9,$2,$3,0*
0 Add four circle primitives for the rounded corners*
1,1,$1+$1,$2,$3*
1,1,$1+$1,$4,$5*
1,1,$1+$1,$6,$7*
1,1,$1+$1,$8,$9*
0 Add four rect primitives between the rounded corners*
20,1,$1+$1,$2,$3,$4,$5,0*
20,1,$1+$1,$4,$5,$6,$7,0*
20,1,$1+$1,$6,$7,$8,$9,0*
20,1,$1+$1,$8,$9,$2,$3,0*%
G04 Aperture macros list end*
%TA.AperFunction,SMDPad,CuDef*%
%ADD10R,1.600000X2.400000*%
%TD*%
%TA.AperFunction,SMDPad,CuDef*%
%ADD11R,0.600000X2.400000*%
%TD*%
%TA.AperFunction,SMDPad,CuDef*%
%ADD12R,0.600000X0.500000*%
%TD*%
%TA.AperFunction,SMDPad,CuDef*%
%ADD13RoundRect,0.250000X-0.312500X-1.075000X0.312500X-1.075000X0.312500X1.075000X-0.312500X1.075000X0*%
%TD*%
%TA.AperFunction,SMDPad,CuDef*%
%ADD14RoundRect,0.250000X0.312500X1.075000X-0.312500X1.075000X-0.312500X-1.075000X0.312500X-1.075000X0*%
%TD*%
%TA.AperFunction,SMDPad,CuDef*%
%ADD15RoundRect,0.248889X-0.626111X0.311111X-0.626111X-0.311111X0.626111X-0.311111X0.626111X0.311111X0*%
%TD*%
%TA.AperFunction,SMDPad,CuDef*%
%ADD16RoundRect,0.150000X-0.150000X0.587500X-0.150000X-0.587500X0.150000X-0.587500X0.150000X0.587500X0*%
%TD*%
%TA.AperFunction,ComponentPad*%
%ADD17O,2.280000X4.560000*%
%TD*%
%TA.AperFunction,ComponentPad*%
%ADD18O,4.050000X2.025000*%
%TD*%
%TA.AperFunction,ComponentPad*%
%ADD19O,2.025000X4.050000*%
%TD*%
%TA.AperFunction,SMDPad,CuDef*%
%ADD20RoundRect,0.248889X0.311111X0.626111X-0.311111X0.626111X-0.311111X-0.626111X0.311111X-0.626111X0*%
%TD*%
%TA.AperFunction,SMDPad,CuDef*%
%ADD21RoundRect,0.248889X-0.311111X-0.626111X0.311111X-0.626111X0.311111X0.626111X-0.311111X0.626111X0*%
%TD*%
%TA.AperFunction,ComponentPad*%
%ADD22R,1.500000X2.300000*%
%TD*%
%TA.AperFunction,ComponentPad*%
%ADD23O,1.500000X2.300000*%
%TD*%
%TA.AperFunction,SMDPad,CuDef*%
%ADD24RoundRect,0.150000X0.150000X-0.587500X0.150000X0.587500X-0.150000X0.587500X-0.150000X-0.587500X0*%
%TD*%
%TA.AperFunction,ComponentPad*%
%ADD25R,1.574800X1.574800*%
%TD*%
%TA.AperFunction,ComponentPad*%
%ADD26C,1.574800*%
%TD*%
%TA.AperFunction,ViaPad*%
%ADD27C,0.600000*%
%TD*%
%TA.AperFunction,Conductor*%
%ADD28C,0.200000*%
%TD*%
G04 APERTURE END LIST*
D10*
%TO.P,D12,1,K*%
%TO.N,GND*%
X171145000Y-51210000D03*
D11*
%TO.P,D12,2,A*%
%TO.N,Net-(D11-K)*%
X169495000Y-51210000D03*
D12*
X169195000Y-51210000D03*
%TD*%
D10*
%TO.P,D77,1,K*%
%TO.N,Net-(D77-K)*%
X216145000Y-78210000D03*
D11*
%TO.P,D77,2,A*%
%TO.N,Net-(D76-K)*%
X214495000Y-78210000D03*
D12*
X214195000Y-78210000D03*
%TD*%
D10*
%TO.P,D78,1,K*%
%TO.N,GND*%
X225145000Y-78210000D03*
D11*
%TO.P,D78,2,A*%
%TO.N,Net-(D77-K)*%
X223495000Y-78210000D03*
D12*
X223195000Y-78210000D03*
%TD*%
D10*
%TO.P,D72,1,K*%
%TO.N,GND*%
X171145000Y-105210000D03*
D11*
%TO.P,D72,2,A*%
%TO.N,Net-(D71-K)*%
X169495000Y-105210000D03*
D12*
X169195000Y-105210000D03*
%TD*%
D10*
%TO.P,D15,1,K*%
%TO.N,Net-(D15-K)*%
X144145000Y-60210000D03*
D11*
%TO.P,D15,2,A*%
%TO.N,Net-(D14-K)*%
X142495000Y-60210000D03*
D12*
X142195000Y-60210000D03*
%TD*%
D10*
%TO.P,D62,1,K*%
%TO.N,Net-(D62-K)*%
X135145000Y-96210000D03*
D11*
%TO.P,D62,2,A*%
%TO.N,Net-(D61-K)*%
X133495000Y-96210000D03*
D12*
X133195000Y-96210000D03*
%TD*%
D10*
%TO.P,D7,1,K*%
%TO.N,Net-(D7-K)*%
X126145000Y-51210000D03*
D11*
%TO.P,D7,2,A*%
%TO.N,Net-(D7-A)*%
X124495000Y-51210000D03*
D12*
X124195000Y-51210000D03*
%TD*%
D10*
%TO.P,D36,1,K*%
%TO.N,GND*%
X225145000Y-51210000D03*
D11*
%TO.P,D36,2,A*%
%TO.N,Net-(D35-K)*%
X223495000Y-51210000D03*
D12*
X223195000Y-51210000D03*
%TD*%
D10*
%TO.P,D5,1,K*%
%TO.N,Net-(D5-K)*%
X162145000Y-42210000D03*
D11*
%TO.P,D5,2,A*%
%TO.N,Net-(D4-K)*%
X160495000Y-42210000D03*
D12*
X160195000Y-42210000D03*
%TD*%
D10*
%TO.P,D86,1,K*%
%TO.N,Net-(D86-K)*%
X189145000Y-96210000D03*
D11*
%TO.P,D86,2,A*%
%TO.N,Net-(D85-K)*%
X187495000Y-96210000D03*
D12*
X187195000Y-96210000D03*
%TD*%
D10*
%TO.P,D56,1,K*%
%TO.N,Net-(D56-K)*%
X135145000Y-87210000D03*
D11*
%TO.P,D56,2,A*%
%TO.N,Net-(D55-K)*%
X133495000Y-87210000D03*
D12*
X133195000Y-87210000D03*
%TD*%
D10*
%TO.P,D54,1,K*%
%TO.N,GND*%
X171145000Y-78210000D03*
D11*
%TO.P,D54,2,A*%
%TO.N,Net-(D53-K)*%
X169495000Y-78210000D03*
D12*
X169195000Y-78210000D03*
%TD*%
D10*
%TO.P,D4,1,K*%
%TO.N,Net-(D4-K)*%
X153145000Y-42210000D03*
D11*
%TO.P,D4,2,A*%
%TO.N,Net-(D3-K)*%
X151495000Y-42210000D03*
D12*
X151195000Y-42210000D03*
%TD*%
D13*
%TO.P,R2,1*%
%TO.N,Net-(U4-D)*%
X104570000Y-51210000D03*
%TO.P,R2,2*%
%TO.N,Net-(D7-A)*%
X107495000Y-51210000D03*
%TD*%
D10*
%TO.P,D61,1,K*%
%TO.N,Net-(D61-K)*%
X126145000Y-96210000D03*
D11*
%TO.P,D61,2,A*%
%TO.N,Net-(D61-A)*%
X124495000Y-96210000D03*
D12*
X124195000Y-96210000D03*
%TD*%
D10*
%TO.P,D19,1,K*%
%TO.N,Net-(D19-K)*%
X126145000Y-69210000D03*
D11*
%TO.P,D19,2,A*%
%TO.N,Net-(D19-A)*%
X124495000Y-69210000D03*
D12*
X124195000Y-69210000D03*
%TD*%
D10*
%TO.P,D70,1,K*%
%TO.N,Net-(D70-K)*%
X153145000Y-105210000D03*
D11*
%TO.P,D70,2,A*%
%TO.N,Net-(D69-K)*%
X151495000Y-105210000D03*
D12*
X151195000Y-105210000D03*
%TD*%
D14*
%TO.P,R23,1*%
%TO.N,Net-(U6-D)*%
X245495000Y-96210000D03*
%TO.P,R23,2*%
%TO.N,Net-(D85-A)*%
X242570000Y-96210000D03*
%TD*%
D15*
%TO.P,R5,1*%
%TO.N,Net-(U2-3(PWM){slash}SCL)*%
X101570000Y-33290000D03*
%TO.P,R5,2*%
%TO.N,GND*%
X101570000Y-36210000D03*
%TD*%
D10*
%TO.P,D53,1,K*%
%TO.N,Net-(D53-K)*%
X162145000Y-78210000D03*
D11*
%TO.P,D53,2,A*%
%TO.N,Net-(D52-K)*%
X160495000Y-78210000D03*
D12*
X160195000Y-78210000D03*
%TD*%
D14*
%TO.P,R22,1*%
%TO.N,Net-(U6-D)*%
X245495000Y-87210000D03*
%TO.P,R22,2*%
%TO.N,Net-(D79-A)*%
X242570000Y-87210000D03*
%TD*%
D10*
%TO.P,D10,1,K*%
%TO.N,Net-(D10-K)*%
X153145000Y-51210000D03*
D11*
%TO.P,D10,2,A*%
%TO.N,Net-(D10-A)*%
X151495000Y-51210000D03*
D12*
X151195000Y-51210000D03*
%TD*%
D10*
%TO.P,D87,1,K*%
%TO.N,Net-(D87-K)*%
X198145000Y-96210000D03*
D11*
%TO.P,D87,2,A*%
%TO.N,Net-(D86-K)*%
X196495000Y-96210000D03*
D12*
X196195000Y-96210000D03*
%TD*%
D14*
%TO.P,R10,1*%
%TO.N,Net-(U3-D)*%
X245570000Y-51210000D03*
%TO.P,R10,2*%
%TO.N,Net-(D31-A)*%
X242645000Y-51210000D03*
%TD*%
D10*
%TO.P,D82,1,K*%
%TO.N,Net-(D82-K)*%
X207145000Y-87210000D03*
D11*
%TO.P,D82,2,A*%
%TO.N,Net-(D81-K)*%
X205495000Y-87210000D03*
D12*
X205195000Y-87210000D03*
%TD*%
D10*
%TO.P,D60,1,K*%
%TO.N,GND*%
X171145000Y-87210000D03*
D11*
%TO.P,D60,2,A*%
%TO.N,Net-(D59-K)*%
X169495000Y-87210000D03*
D12*
X169195000Y-87210000D03*
%TD*%
D10*
%TO.P,D35,1,K*%
%TO.N,Net-(D35-K)*%
X216145000Y-51210000D03*
D11*
%TO.P,D35,2,A*%
%TO.N,Net-(D34-K)*%
X214495000Y-51210000D03*
D12*
X214195000Y-51210000D03*
%TD*%
D10*
%TO.P,D96,1,K*%
%TO.N,GND*%
X225145000Y-105210000D03*
D11*
%TO.P,D96,2,A*%
%TO.N,Net-(D95-K)*%
X223495000Y-105210000D03*
D12*
X223195000Y-105210000D03*
%TD*%
D10*
%TO.P,D32,1,K*%
%TO.N,Net-(D32-K)*%
X189145000Y-51210000D03*
D11*
%TO.P,D32,2,A*%
%TO.N,Net-(D31-K)*%
X187495000Y-51210000D03*
D12*
X187195000Y-51210000D03*
%TD*%
D10*
%TO.P,D24,1,K*%
%TO.N,GND*%
X171145000Y-69210000D03*
D11*
%TO.P,D24,2,A*%
%TO.N,Net-(D23-K)*%
X169495000Y-69210000D03*
D12*
X169195000Y-69210000D03*
%TD*%
D10*
%TO.P,D89,1,K*%
%TO.N,Net-(D89-K)*%
X216145000Y-96210000D03*
D11*
%TO.P,D89,2,A*%
%TO.N,Net-(D88-K)*%
X214495000Y-96210000D03*
D12*
X214195000Y-96210000D03*
%TD*%
D10*
%TO.P,D22,1,K*%
%TO.N,Net-(D22-K)*%
X153145000Y-69210000D03*
D11*
%TO.P,D22,2,A*%
%TO.N,Net-(D21-K)*%
X151495000Y-69210000D03*
D12*
X151195000Y-69210000D03*
%TD*%
D10*
%TO.P,D74,1,K*%
%TO.N,Net-(D74-K)*%
X189145000Y-78210000D03*
D11*
%TO.P,D74,2,A*%
%TO.N,Net-(D73-K)*%
X187495000Y-78210000D03*
D12*
X187195000Y-78210000D03*
%TD*%
D14*
%TO.P,R12,1*%
%TO.N,Net-(U3-D)*%
X245570000Y-69210000D03*
%TO.P,R12,2*%
%TO.N,Net-(D43-A)*%
X242645000Y-69210000D03*
%TD*%
D10*
%TO.P,D80,1,K*%
%TO.N,Net-(D80-K)*%
X189145000Y-87210000D03*
D11*
%TO.P,D80,2,A*%
%TO.N,Net-(D79-K)*%
X187495000Y-87210000D03*
D12*
X187195000Y-87210000D03*
%TD*%
D10*
%TO.P,D45,1,K*%
%TO.N,Net-(D45-K)*%
X198145000Y-69210000D03*
D11*
%TO.P,D45,2,A*%
%TO.N,Net-(D44-K)*%
X196495000Y-69210000D03*
D12*
X196195000Y-69210000D03*
%TD*%
D10*
%TO.P,D43,1,K*%
%TO.N,Net-(D43-K)*%
X180145000Y-69210000D03*
D11*
%TO.P,D43,2,A*%
%TO.N,Net-(D43-A)*%
X178495000Y-69210000D03*
D12*
X178195000Y-69210000D03*
%TD*%
D10*
%TO.P,D59,1,K*%
%TO.N,Net-(D59-K)*%
X162145000Y-87210000D03*
D11*
%TO.P,D59,2,A*%
%TO.N,Net-(D58-K)*%
X160495000Y-87210000D03*
D12*
X160195000Y-87210000D03*
%TD*%
D16*
%TO.P,U3,1,G*%
%TO.N,Net-(U3-G)*%
X245470000Y-35260000D03*
%TO.P,U3,2,S*%
%TO.N,GND*%
X243570000Y-35260000D03*
%TO.P,U3,3,D*%
%TO.N,Net-(U3-D)*%
X244520000Y-37135000D03*
%TD*%
D13*
%TO.P,R15,1*%
%TO.N,Net-(U5-D)*%
X104570000Y-78210000D03*
%TO.P,R15,2*%
%TO.N,Net-(D49-A)*%
X107495000Y-78210000D03*
%TD*%
D17*
%TO.P,J2,PIN*%
%TO.N,+24V*%
X97350000Y-54113700D03*
D18*
%TO.P,J2,SHUNT*%
%TO.N,unconnected-(J2-PadSHUNT)*%
X94350000Y-58913700D03*
D19*
%TO.P,J2,SLEEVE*%
%TO.N,GND*%
X91100000Y-54113700D03*
%TD*%
D10*
%TO.P,D26,1,K*%
%TO.N,Net-(D26-K)*%
X189145000Y-42210000D03*
D11*
%TO.P,D26,2,A*%
%TO.N,Net-(D25-K)*%
X187495000Y-42210000D03*
D12*
X187195000Y-42210000D03*
%TD*%
D10*
%TO.P,D41,1,K*%
%TO.N,Net-(D41-K)*%
X216145000Y-60210000D03*
D11*
%TO.P,D41,2,A*%
%TO.N,Net-(D40-K)*%
X214495000Y-60210000D03*
D12*
X214195000Y-60210000D03*
%TD*%
D20*
%TO.P,R19,1*%
%TO.N,Net-(U2-6(PWM){slash}A7)*%
X238570000Y-119210000D03*
%TO.P,R19,2*%
%TO.N,GND*%
X235650000Y-119210000D03*
%TD*%
D10*
%TO.P,D28,1,K*%
%TO.N,Net-(D28-K)*%
X207145000Y-42210000D03*
D11*
%TO.P,D28,2,A*%
%TO.N,Net-(D27-K)*%
X205495000Y-42210000D03*
D12*
X205195000Y-42210000D03*
%TD*%
D10*
%TO.P,D42,1,K*%
%TO.N,GND*%
X225145000Y-60210000D03*
D11*
%TO.P,D42,2,A*%
%TO.N,Net-(D41-K)*%
X223495000Y-60210000D03*
D12*
X223195000Y-60210000D03*
%TD*%
D10*
%TO.P,D13,1,K*%
%TO.N,Net-(D13-K)*%
X126145000Y-60210000D03*
D11*
%TO.P,D13,2,A*%
%TO.N,Net-(D13-A)*%
X124495000Y-60210000D03*
D12*
X124195000Y-60210000D03*
%TD*%
D10*
%TO.P,D84,1,K*%
%TO.N,GND*%
X225145000Y-87210000D03*
D11*
%TO.P,D84,2,A*%
%TO.N,Net-(D83-K)*%
X223495000Y-87210000D03*
D12*
X223195000Y-87210000D03*
%TD*%
D10*
%TO.P,D46,1,K*%
%TO.N,Net-(D46-K)*%
X207145000Y-69210000D03*
D11*
%TO.P,D46,2,A*%
%TO.N,Net-(D45-K)*%
X205495000Y-69210000D03*
D12*
X205195000Y-69210000D03*
%TD*%
D10*
%TO.P,D17,1,K*%
%TO.N,Net-(D17-K)*%
X162145000Y-60210000D03*
D11*
%TO.P,D17,2,A*%
%TO.N,Net-(D16-K)*%
X160495000Y-60210000D03*
D12*
X160195000Y-60210000D03*
%TD*%
D10*
%TO.P,D79,1,K*%
%TO.N,Net-(D79-K)*%
X180145000Y-87210000D03*
D11*
%TO.P,D79,2,A*%
%TO.N,Net-(D79-A)*%
X178495000Y-87210000D03*
D12*
X178195000Y-87210000D03*
%TD*%
D10*
%TO.P,D92,1,K*%
%TO.N,Net-(D92-K)*%
X189145000Y-105210000D03*
D11*
%TO.P,D92,2,A*%
%TO.N,Net-(D91-K)*%
X187495000Y-105210000D03*
D12*
X187195000Y-105210000D03*
%TD*%
D10*
%TO.P,D68,1,K*%
%TO.N,Net-(D68-K)*%
X135145000Y-105210000D03*
D11*
%TO.P,D68,2,A*%
%TO.N,Net-(D67-K)*%
X133495000Y-105210000D03*
D12*
X133195000Y-105210000D03*
%TD*%
D10*
%TO.P,D88,1,K*%
%TO.N,Net-(D88-K)*%
X207145000Y-96210000D03*
D11*
%TO.P,D88,2,A*%
%TO.N,Net-(D87-K)*%
X205495000Y-96210000D03*
D12*
X205195000Y-96210000D03*
%TD*%
D10*
%TO.P,D73,1,K*%
%TO.N,Net-(D73-K)*%
X180145000Y-78210000D03*
D11*
%TO.P,D73,2,A*%
%TO.N,Net-(D73-A)*%
X178495000Y-78210000D03*
D12*
X178195000Y-78210000D03*
%TD*%
D10*
%TO.P,D34,1,K*%
%TO.N,Net-(D34-K)*%
X207145000Y-51210000D03*
D11*
%TO.P,D34,2,A*%
%TO.N,Net-(D33-K)*%
X205495000Y-51210000D03*
D12*
X205195000Y-51210000D03*
%TD*%
D10*
%TO.P,D40,1,K*%
%TO.N,Net-(D40-K)*%
X207145000Y-60210000D03*
D11*
%TO.P,D40,2,A*%
%TO.N,Net-(D39-K)*%
X205495000Y-60210000D03*
D12*
X205195000Y-60210000D03*
%TD*%
D21*
%TO.P,R14,1*%
%TO.N,Net-(U2-9(PWM){slash}A9)*%
X104650000Y-116210000D03*
%TO.P,R14,2*%
%TO.N,Net-(U5-G)*%
X107570000Y-116210000D03*
%TD*%
D10*
%TO.P,D81,1,K*%
%TO.N,Net-(D81-K)*%
X198145000Y-87210000D03*
D11*
%TO.P,D81,2,A*%
%TO.N,Net-(D80-K)*%
X196495000Y-87210000D03*
D12*
X196195000Y-87210000D03*
%TD*%
D10*
%TO.P,D25,1,K*%
%TO.N,Net-(D25-K)*%
X180145000Y-42210000D03*
D11*
%TO.P,D25,2,A*%
%TO.N,Net-(D25-A)*%
X178495000Y-42210000D03*
D12*
X178195000Y-42210000D03*
%TD*%
D10*
%TO.P,D69,1,K*%
%TO.N,Net-(D69-K)*%
X144145000Y-105210000D03*
D11*
%TO.P,D69,2,A*%
%TO.N,Net-(D68-K)*%
X142495000Y-105210000D03*
D12*
X142195000Y-105210000D03*
%TD*%
D13*
%TO.P,R6,1*%
%TO.N,Net-(U4-D)*%
X104570000Y-69210000D03*
%TO.P,R6,2*%
%TO.N,Net-(D19-A)*%
X107495000Y-69210000D03*
%TD*%
%TO.P,R1,1*%
%TO.N,Net-(U4-D)*%
X104570000Y-42210000D03*
%TO.P,R1,2*%
%TO.N,Net-(D1-A)*%
X107495000Y-42210000D03*
%TD*%
D21*
%TO.P,R8,1*%
%TO.N,Net-(U2-5(PWM))*%
X242650000Y-31210000D03*
%TO.P,R8,2*%
%TO.N,Net-(U3-G)*%
X245570000Y-31210000D03*
%TD*%
D10*
%TO.P,D90,1,K*%
%TO.N,GND*%
X225145000Y-96210000D03*
D11*
%TO.P,D90,2,A*%
%TO.N,Net-(D89-K)*%
X223495000Y-96210000D03*
D12*
X223195000Y-96210000D03*
%TD*%
D21*
%TO.P,R20,1*%
%TO.N,Net-(U2-6(PWM){slash}A7)*%
X242650000Y-116210000D03*
%TO.P,R20,2*%
%TO.N,Net-(U6-G)*%
X245570000Y-116210000D03*
%TD*%
D10*
%TO.P,D50,1,K*%
%TO.N,Net-(D50-K)*%
X135145000Y-78210000D03*
D11*
%TO.P,D50,2,A*%
%TO.N,Net-(D49-K)*%
X133495000Y-78210000D03*
D12*
X133195000Y-78210000D03*
%TD*%
D10*
%TO.P,D1,1,K*%
%TO.N,Net-(D1-K)*%
X126145000Y-42210000D03*
D11*
%TO.P,D1,2,A*%
%TO.N,Net-(D1-A)*%
X124495000Y-42210000D03*
D12*
X124195000Y-42210000D03*
%TD*%
D10*
%TO.P,D31,1,K*%
%TO.N,Net-(D31-K)*%
X180145000Y-51210000D03*
D11*
%TO.P,D31,2,A*%
%TO.N,Net-(D31-A)*%
X178495000Y-51210000D03*
D12*
X178195000Y-51210000D03*
%TD*%
D10*
%TO.P,D71,1,K*%
%TO.N,Net-(D71-K)*%
X162145000Y-105210000D03*
D11*
%TO.P,D71,2,A*%
%TO.N,Net-(D70-K)*%
X160495000Y-105210000D03*
D12*
X160195000Y-105210000D03*
%TD*%
D21*
%TO.P,R7,1*%
%TO.N,Net-(U2-5(PWM))*%
X242570000Y-27210000D03*
%TO.P,R7,2*%
%TO.N,GND*%
X245490000Y-27210000D03*
%TD*%
D10*
%TO.P,D63,1,K*%
%TO.N,Net-(D63-K)*%
X144145000Y-96210000D03*
D11*
%TO.P,D63,2,A*%
%TO.N,Net-(D62-K)*%
X142495000Y-96210000D03*
D12*
X142195000Y-96210000D03*
%TD*%
D10*
%TO.P,D94,1,K*%
%TO.N,Net-(D94-K)*%
X207145000Y-105210000D03*
D11*
%TO.P,D94,2,A*%
%TO.N,Net-(D93-K)*%
X205495000Y-105210000D03*
D12*
X205195000Y-105210000D03*
%TD*%
D22*
%TO.P,U1,1,IN*%
%TO.N,+24V*%
X95367500Y-64082500D03*
D23*
%TO.P,U1,2,GND*%
%TO.N,GND*%
X92827500Y-64082500D03*
%TO.P,U1,3,OUT*%
%TO.N,Net-(U1-OUT)*%
X90287500Y-64082500D03*
%TD*%
D10*
%TO.P,D67,1,K*%
%TO.N,Net-(D67-K)*%
X126145000Y-105210000D03*
D11*
%TO.P,D67,2,A*%
%TO.N,Net-(D67-A)*%
X124495000Y-105210000D03*
D12*
X124195000Y-105210000D03*
%TD*%
D14*
%TO.P,R21,1*%
%TO.N,Net-(U6-D)*%
X245495000Y-78210000D03*
%TO.P,R21,2*%
%TO.N,Net-(D73-A)*%
X242570000Y-78210000D03*
%TD*%
D10*
%TO.P,D51,1,K*%
%TO.N,Net-(D51-K)*%
X144145000Y-78210000D03*
D11*
%TO.P,D51,2,A*%
%TO.N,Net-(D50-K)*%
X142495000Y-78210000D03*
D12*
X142195000Y-78210000D03*
%TD*%
D10*
%TO.P,D95,1,K*%
%TO.N,Net-(D95-K)*%
X216145000Y-105210000D03*
D11*
%TO.P,D95,2,A*%
%TO.N,Net-(D94-K)*%
X214495000Y-105210000D03*
D12*
X214195000Y-105210000D03*
%TD*%
D13*
%TO.P,R16,1*%
%TO.N,Net-(U5-D)*%
X104570000Y-87210000D03*
%TO.P,R16,2*%
%TO.N,Net-(D55-A)*%
X107495000Y-87210000D03*
%TD*%
D10*
%TO.P,D55,1,K*%
%TO.N,Net-(D55-K)*%
X126145000Y-87210000D03*
D11*
%TO.P,D55,2,A*%
%TO.N,Net-(D55-A)*%
X124495000Y-87210000D03*
D12*
X124195000Y-87210000D03*
%TD*%
D10*
%TO.P,D20,1,K*%
%TO.N,Net-(D20-K)*%
X135145000Y-69210000D03*
D11*
%TO.P,D20,2,A*%
%TO.N,Net-(D19-K)*%
X133495000Y-69210000D03*
D12*
X133195000Y-69210000D03*
%TD*%
D21*
%TO.P,R13,1*%
%TO.N,Net-(U2-9(PWM){slash}A9)*%
X104570000Y-119210000D03*
%TO.P,R13,2*%
%TO.N,GND*%
X107490000Y-119210000D03*
%TD*%
D10*
%TO.P,D64,1,K*%
%TO.N,Net-(D64-K)*%
X153145000Y-96210000D03*
D11*
%TO.P,D64,2,A*%
%TO.N,Net-(D63-K)*%
X151495000Y-96210000D03*
D12*
X151195000Y-96210000D03*
%TD*%
D13*
%TO.P,R18,1*%
%TO.N,Net-(U5-D)*%
X104570000Y-105210000D03*
%TO.P,R18,2*%
%TO.N,Net-(D67-A)*%
X107495000Y-105210000D03*
%TD*%
D10*
%TO.P,D2,1,K*%
%TO.N,Net-(D2-K)*%
X135145000Y-42210000D03*
D11*
%TO.P,D2,2,A*%
%TO.N,Net-(D1-K)*%
X133495000Y-42210000D03*
D12*
X133195000Y-42210000D03*
%TD*%
D10*
%TO.P,D14,1,K*%
%TO.N,Net-(D14-K)*%
X135145000Y-60210000D03*
D11*
%TO.P,D14,2,A*%
%TO.N,Net-(D13-K)*%
X133495000Y-60210000D03*
D12*
X133195000Y-60210000D03*
%TD*%
D10*
%TO.P,D3,1,K*%
%TO.N,Net-(D3-K)*%
X144145000Y-42210000D03*
D11*
%TO.P,D3,2,A*%
%TO.N,Net-(D2-K)*%
X142495000Y-42210000D03*
D12*
X142195000Y-42210000D03*
%TD*%
D10*
%TO.P,D48,1,K*%
%TO.N,GND*%
X225145000Y-69210000D03*
D11*
%TO.P,D48,2,A*%
%TO.N,Net-(D47-K)*%
X223495000Y-69210000D03*
D12*
X223195000Y-69210000D03*
%TD*%
D16*
%TO.P,U4,1,G*%
%TO.N,Net-(U4-G)*%
X107520000Y-35335000D03*
%TO.P,U4,2,S*%
%TO.N,GND*%
X105620000Y-35335000D03*
%TO.P,U4,3,D*%
%TO.N,Net-(U4-D)*%
X106570000Y-37210000D03*
%TD*%
D10*
%TO.P,D58,1,K*%
%TO.N,Net-(D58-K)*%
X153145000Y-87210000D03*
D11*
%TO.P,D58,2,A*%
%TO.N,Net-(D57-K)*%
X151495000Y-87210000D03*
D12*
X151195000Y-87210000D03*
%TD*%
D10*
%TO.P,D93,1,K*%
%TO.N,Net-(D93-K)*%
X198145000Y-105210000D03*
D11*
%TO.P,D93,2,A*%
%TO.N,Net-(D92-K)*%
X196495000Y-105210000D03*
D12*
X196195000Y-105210000D03*
%TD*%
D10*
%TO.P,D75,1,K*%
%TO.N,Net-(D75-K)*%
X198145000Y-78210000D03*
D11*
%TO.P,D75,2,A*%
%TO.N,Net-(D74-K)*%
X196495000Y-78210000D03*
D12*
X196195000Y-78210000D03*
%TD*%
D10*
%TO.P,D47,1,K*%
%TO.N,Net-(D47-K)*%
X216145000Y-69210000D03*
D11*
%TO.P,D47,2,A*%
%TO.N,Net-(D46-K)*%
X214495000Y-69210000D03*
D12*
X214195000Y-69210000D03*
%TD*%
D10*
%TO.P,D29,1,K*%
%TO.N,Net-(D29-K)*%
X216145000Y-42210000D03*
D11*
%TO.P,D29,2,A*%
%TO.N,Net-(D28-K)*%
X214495000Y-42210000D03*
D12*
X214195000Y-42210000D03*
%TD*%
D10*
%TO.P,D16,1,K*%
%TO.N,Net-(D16-K)*%
X153145000Y-60210000D03*
D11*
%TO.P,D16,2,A*%
%TO.N,Net-(D15-K)*%
X151495000Y-60210000D03*
D12*
X151195000Y-60210000D03*
%TD*%
D10*
%TO.P,D37,1,K*%
%TO.N,Net-(D37-K)*%
X180145000Y-60210000D03*
D11*
%TO.P,D37,2,A*%
%TO.N,Net-(D37-A)*%
X178495000Y-60210000D03*
D12*
X178195000Y-60210000D03*
%TD*%
D10*
%TO.P,D65,1,K*%
%TO.N,Net-(D65-K)*%
X162145000Y-96210000D03*
D11*
%TO.P,D65,2,A*%
%TO.N,Net-(D64-K)*%
X160495000Y-96210000D03*
D12*
X160195000Y-96210000D03*
%TD*%
D16*
%TO.P,U6,1,G*%
%TO.N,Net-(U6-G)*%
X245470000Y-110272500D03*
%TO.P,U6,2,S*%
%TO.N,GND*%
X243570000Y-110272500D03*
%TO.P,U6,3,D*%
%TO.N,Net-(U6-D)*%
X244520000Y-112147500D03*
%TD*%
D10*
%TO.P,D85,1,K*%
%TO.N,Net-(D85-K)*%
X180145000Y-96210000D03*
D11*
%TO.P,D85,2,A*%
%TO.N,Net-(D85-A)*%
X178495000Y-96210000D03*
D12*
X178195000Y-96210000D03*
%TD*%
D10*
%TO.P,D91,1,K*%
%TO.N,Net-(D91-K)*%
X180145000Y-105210000D03*
D11*
%TO.P,D91,2,A*%
%TO.N,Net-(D91-A)*%
X178495000Y-105210000D03*
D12*
X178195000Y-105210000D03*
%TD*%
D14*
%TO.P,R24,1*%
%TO.N,Net-(U6-D)*%
X245495000Y-105210000D03*
%TO.P,R24,2*%
%TO.N,Net-(D91-A)*%
X242570000Y-105210000D03*
%TD*%
D10*
%TO.P,D11,1,K*%
%TO.N,Net-(D11-K)*%
X162145000Y-51210000D03*
D11*
%TO.P,D11,2,A*%
%TO.N,Net-(D10-K)*%
X160495000Y-51210000D03*
D12*
X160195000Y-51210000D03*
%TD*%
D10*
%TO.P,D30,1,K*%
%TO.N,GND*%
X225145000Y-42210000D03*
D11*
%TO.P,D30,2,A*%
%TO.N,Net-(D29-K)*%
X223495000Y-42210000D03*
D12*
X223195000Y-42210000D03*
%TD*%
D10*
%TO.P,D49,1,K*%
%TO.N,Net-(D49-K)*%
X126145000Y-78210000D03*
D11*
%TO.P,D49,2,A*%
%TO.N,Net-(D49-A)*%
X124495000Y-78210000D03*
D12*
X124195000Y-78210000D03*
%TD*%
D10*
%TO.P,D44,1,K*%
%TO.N,Net-(D44-K)*%
X189145000Y-69210000D03*
D11*
%TO.P,D44,2,A*%
%TO.N,Net-(D43-K)*%
X187495000Y-69210000D03*
D12*
X187195000Y-69210000D03*
%TD*%
D10*
%TO.P,D27,1,K*%
%TO.N,Net-(D27-K)*%
X198145000Y-42210000D03*
D11*
%TO.P,D27,2,A*%
%TO.N,Net-(D26-K)*%
X196495000Y-42210000D03*
D12*
X196195000Y-42210000D03*
%TD*%
D10*
%TO.P,D8,1,K*%
%TO.N,Net-(D8-K)*%
X135145000Y-51210000D03*
D11*
%TO.P,D8,2,A*%
%TO.N,Net-(D7-K)*%
X133495000Y-51210000D03*
D12*
X133195000Y-51210000D03*
%TD*%
D10*
%TO.P,D18,1,K*%
%TO.N,GND*%
X171145000Y-60210000D03*
D11*
%TO.P,D18,2,A*%
%TO.N,Net-(D17-K)*%
X169495000Y-60210000D03*
D12*
X169195000Y-60210000D03*
%TD*%
D10*
%TO.P,D83,1,K*%
%TO.N,Net-(D83-K)*%
X216145000Y-87210000D03*
D11*
%TO.P,D83,2,A*%
%TO.N,Net-(D82-K)*%
X214495000Y-87210000D03*
D12*
X214195000Y-87210000D03*
%TD*%
D10*
%TO.P,D9,1,K*%
%TO.N,Net-(D10-A)*%
X144145000Y-51210000D03*
D11*
%TO.P,D9,2,A*%
%TO.N,Net-(D8-K)*%
X142495000Y-51210000D03*
D12*
X142195000Y-51210000D03*
%TD*%
D13*
%TO.P,R17,1*%
%TO.N,Net-(U5-D)*%
X104645000Y-96210000D03*
%TO.P,R17,2*%
%TO.N,Net-(D61-A)*%
X107570000Y-96210000D03*
%TD*%
D10*
%TO.P,D6,1,K*%
%TO.N,GND*%
X171145000Y-42210000D03*
D11*
%TO.P,D6,2,A*%
%TO.N,Net-(D5-K)*%
X169495000Y-42210000D03*
D12*
X169195000Y-42210000D03*
%TD*%
D10*
%TO.P,D23,1,K*%
%TO.N,Net-(D23-K)*%
X162145000Y-69210000D03*
D11*
%TO.P,D23,2,A*%
%TO.N,Net-(D22-K)*%
X160495000Y-69210000D03*
D12*
X160195000Y-69210000D03*
%TD*%
D14*
%TO.P,R11,1*%
%TO.N,Net-(U3-D)*%
X245570000Y-60210000D03*
%TO.P,R11,2*%
%TO.N,Net-(D37-A)*%
X242645000Y-60210000D03*
%TD*%
D10*
%TO.P,D21,1,K*%
%TO.N,Net-(D21-K)*%
X144145000Y-69210000D03*
D11*
%TO.P,D21,2,A*%
%TO.N,Net-(D20-K)*%
X142495000Y-69210000D03*
D12*
X142195000Y-69210000D03*
%TD*%
D24*
%TO.P,U5,1,G*%
%TO.N,Net-(U5-G)*%
X104670000Y-111210000D03*
%TO.P,U5,2,S*%
%TO.N,GND*%
X106570000Y-111210000D03*
%TO.P,U5,3,D*%
%TO.N,Net-(U5-D)*%
X105620000Y-109335000D03*
%TD*%
D10*
%TO.P,D76,1,K*%
%TO.N,Net-(D76-K)*%
X207145000Y-78210000D03*
D11*
%TO.P,D76,2,A*%
%TO.N,Net-(D75-K)*%
X205495000Y-78210000D03*
D12*
X205195000Y-78210000D03*
%TD*%
D14*
%TO.P,R9,1*%
%TO.N,Net-(U3-D)*%
X245570000Y-42210000D03*
%TO.P,R9,2*%
%TO.N,Net-(D25-A)*%
X242645000Y-42210000D03*
%TD*%
D10*
%TO.P,D52,1,K*%
%TO.N,Net-(D52-K)*%
X153145000Y-78210000D03*
D11*
%TO.P,D52,2,A*%
%TO.N,Net-(D51-K)*%
X151495000Y-78210000D03*
D12*
X151195000Y-78210000D03*
%TD*%
D21*
%TO.P,R4,1*%
%TO.N,Net-(U2-3(PWM){slash}SCL)*%
X104650000Y-31210000D03*
%TO.P,R4,2*%
%TO.N,Net-(U4-G)*%
X107570000Y-31210000D03*
%TD*%
D25*
%TO.P,U2,1,MOSI*%
%TO.N,unconnected-(U2-MOSI-Pad1)*%
X85680000Y-77350000D03*
D26*
%TO.P,U2,2,RX_LED/SS*%
%TO.N,unconnected-(U2-RX_LED{slash}SS-Pad2)*%
X85680000Y-79890000D03*
%TO.P,U2,3,1/TX*%
%TO.N,unconnected-(U2-1{slash}TX-Pad3)*%
X85680000Y-82430000D03*
%TO.P,U2,4,0/RX*%
%TO.N,unconnected-(U2-0{slash}RX-Pad4)*%
X85680000Y-84970000D03*
%TO.P,U2,5,RESET*%
%TO.N,unconnected-(U2-RESET-Pad30)*%
X85680000Y-87510000D03*
%TO.P,U2,6,GND*%
%TO.N,GND*%
X85680000Y-90050000D03*
%TO.P,U2,7,2/SDA*%
%TO.N,unconnected-(U2-2{slash}SDA-Pad7)*%
X85680000Y-92590000D03*
%TO.P,U2,8,3(PWM)/SCL*%
%TO.N,Net-(U2-3(PWM){slash}SCL)*%
X85680000Y-95130000D03*
%TO.P,U2,9,4/A6*%
%TO.N,unconnected-(U2-4{slash}A6-Pad9)*%
X85680000Y-97670000D03*
%TO.P,U2,10,5(PWM)*%
%TO.N,Net-(U2-5(PWM))*%
X85680000Y-100210000D03*
%TO.P,U2,11,6(PWM)/A7*%
%TO.N,Net-(U2-6(PWM){slash}A7)*%
X85680000Y-102750000D03*
%TO.P,U2,12,7*%
%TO.N,unconnected-(U2-7-Pad12)*%
X85680000Y-105290000D03*
%TO.P,U2,13,8/A8*%
%TO.N,unconnected-(U2-8{slash}A8-Pad13)*%
X85680000Y-107830000D03*
%TO.P,U2,14,9(PWM)/A9*%
%TO.N,Net-(U2-9(PWM){slash}A9)*%
X85680000Y-110370000D03*
%TO.P,U2,15,10(PWM)/A10*%
%TO.N,unconnected-(U2-10(PWM){slash}A10-Pad15)*%
X85680000Y-112910000D03*
%TO.P,U2,16,11(PWM)*%
%TO.N,unconnected-(U2-11(PWM)-Pad16)*%
X85680000Y-115450000D03*
%TO.P,U2,17,12/A11*%
%TO.N,unconnected-(U2-12{slash}A11-Pad17)*%
X85680000Y-117990000D03*
%TO.P,U2,18,13(PWM)*%
%TO.N,unconnected-(U2-13(PWM)-Pad18)*%
X100920000Y-117990000D03*
%TO.P,U2,19,3.3V*%
%TO.N,unconnected-(U2-3.3V-Pad19)*%
X100920000Y-115450000D03*
%TO.P,U2,20,AREF*%
%TO.N,unconnected-(U2-AREF-Pad20)*%
X100920000Y-112910000D03*
%TO.P,U2,21,A0*%
%TO.N,unconnected-(U2-A0-Pad21)*%
X100920000Y-110370000D03*
%TO.P,U2,22,A1*%
%TO.N,unconnected-(U2-A1-Pad22)*%
X100920000Y-107830000D03*
%TO.P,U2,23,A2*%
%TO.N,unconnected-(U2-A2-Pad23)*%
X100920000Y-105290000D03*
%TO.P,U2,24,A3*%
%TO.N,unconnected-(U2-A3-Pad24)*%
X100920000Y-102750000D03*
%TO.P,U2,25,A4*%
%TO.N,unconnected-(U2-A4-Pad25)*%
X100920000Y-100210000D03*
%TO.P,U2,26,A5*%
%TO.N,unconnected-(U2-A5-Pad26)*%
X100920000Y-97670000D03*
%TO.P,U2,27*%
%TO.N,N/C*%
X100920000Y-95130000D03*
%TO.P,U2,28*%
X100920000Y-92590000D03*
%TO.P,U2,29,+5V*%
%TO.N,Net-(U1-OUT)*%
X100920000Y-90050000D03*
%TO.P,U2,30,RESET*%
%TO.N,unconnected-(U2-RESET-Pad30)_1*%
X100920000Y-87510000D03*
%TO.P,U2,31,GND*%
%TO.N,GND*%
X100920000Y-84970000D03*
%TO.P,U2,32,VIN*%
%TO.N,unconnected-(U2-VIN-Pad32)*%
X100920000Y-82430000D03*
%TO.P,U2,33,MISO*%
%TO.N,unconnected-(U2-MISO-Pad33)*%
X100920000Y-79890000D03*
%TO.P,U2,34,SCK*%
%TO.N,unconnected-(U2-SCK-Pad34)*%
X100920000Y-77350000D03*
%TD*%
D10*
%TO.P,D39,1,K*%
%TO.N,Net-(D39-K)*%
X198145000Y-60210000D03*
D11*
%TO.P,D39,2,A*%
%TO.N,Net-(D38-K)*%
X196495000Y-60210000D03*
D12*
X196195000Y-60210000D03*
%TD*%
D13*
%TO.P,R3,1*%
%TO.N,Net-(U4-D)*%
X104570000Y-60210000D03*
%TO.P,R3,2*%
%TO.N,Net-(D13-A)*%
X107495000Y-60210000D03*
%TD*%
D10*
%TO.P,D33,1,K*%
%TO.N,Net-(D33-K)*%
X198145000Y-51210000D03*
D11*
%TO.P,D33,2,A*%
%TO.N,Net-(D32-K)*%
X196495000Y-51210000D03*
D12*
X196195000Y-51210000D03*
%TD*%
D10*
%TO.P,D57,1,K*%
%TO.N,Net-(D57-K)*%
X144145000Y-87210000D03*
D11*
%TO.P,D57,2,A*%
%TO.N,Net-(D56-K)*%
X142495000Y-87210000D03*
D12*
X142195000Y-87210000D03*
%TD*%
D10*
%TO.P,D38,1,K*%
%TO.N,Net-(D38-K)*%
X189145000Y-60210000D03*
D11*
%TO.P,D38,2,A*%
%TO.N,Net-(D37-K)*%
X187495000Y-60210000D03*
D12*
X187195000Y-60210000D03*
%TD*%
D10*
%TO.P,D66,1,K*%
%TO.N,GND*%
X171145000Y-96210000D03*
D11*
%TO.P,D66,2,A*%
%TO.N,Net-(D65-K)*%
X169495000Y-96210000D03*
D12*
X169195000Y-96210000D03*
%TD*%
D27*
%TO.N,GND*%
X99347100Y-37128700D03*
X227400500Y-69207500D03*
X225145000Y-109413700D03*
X227400500Y-95556700D03*
X227766900Y-40500600D03*
X227400500Y-51735700D03*
X105651900Y-110816800D03*
X224395000Y-80949700D03*
%TO.N,Net-(U2-3(PWM){slash}SCL)*%
X90565000Y-34207300D03*
%TO.N,Net-(U2-5(PWM))*%
X97570000Y-31210000D03*
%TO.N,Net-(U2-6(PWM){slash}A7)*%
X87780500Y-118814700D03*
%TD*%
D28*
%TO.N,GND*%
X227766900Y-40500600D02*
X227766900Y-40689800D01*
X100651300Y-37128700D02*
X101570000Y-36210000D01*
X225145000Y-96210000D02*
X226246700Y-96210000D01*
X108467100Y-118232900D02*
X108467100Y-113107100D01*
X227400500Y-95556700D02*
X226900000Y-95556700D01*
X104745000Y-36210000D02*
X105620000Y-35335000D01*
X171145000Y-51210000D02*
X171145000Y-60210000D01*
X171145000Y-78210000D02*
X171145000Y-69210000D01*
X226249200Y-69207500D02*
X226246700Y-69210000D01*
X171145000Y-80949700D02*
X171145000Y-78210000D01*
X101570000Y-36210000D02*
X104745000Y-36210000D01*
X95840000Y-90050000D02*
X100920000Y-84970000D01*
X171145000Y-42210000D02*
X171145000Y-51210000D01*
X226772400Y-51735700D02*
X226246700Y-51210000D01*
X106570000Y-111210000D02*
X106045100Y-111210000D01*
X243570000Y-111290000D02*
X243570000Y-110272500D01*
X108467100Y-113107100D02*
X106570000Y-111210000D01*
X225145000Y-69210000D02*
X226246700Y-69210000D01*
X243570000Y-29130000D02*
X243570000Y-35260000D01*
X225145000Y-51210000D02*
X226246700Y-51210000D01*
X171145000Y-80949700D02*
X224395000Y-80949700D01*
X85680000Y-90050000D02*
X95840000Y-90050000D01*
X238507500Y-105210000D02*
X225145000Y-105210000D01*
X171145000Y-60210000D02*
X171145000Y-69210000D01*
X171145000Y-87210000D02*
X171145000Y-96210000D01*
X235650000Y-119210000D02*
X243570000Y-111290000D01*
X99347100Y-37128700D02*
X100651300Y-37128700D01*
X225145000Y-105210000D02*
X225145000Y-109413700D01*
X106045100Y-111210000D02*
X105651900Y-110816800D01*
X171145000Y-87210000D02*
X171145000Y-80949700D01*
X164749600Y-113107100D02*
X171145000Y-106711700D01*
X171145000Y-105210000D02*
X171145000Y-106711700D01*
X245490000Y-27210000D02*
X243570000Y-29130000D01*
X225145000Y-78210000D02*
X225145000Y-80199700D01*
X225145000Y-80199700D02*
X224395000Y-80949700D01*
X107490000Y-119210000D02*
X108467100Y-118232900D01*
X225145000Y-51210000D02*
X225145000Y-52711700D01*
X225145000Y-96210000D02*
X225145000Y-87210000D01*
X243570000Y-35260000D02*
X238750000Y-40080000D01*
X227400500Y-51735700D02*
X226772400Y-51735700D01*
X227400500Y-69207500D02*
X226249200Y-69207500D01*
X228187500Y-40080000D02*
X227766900Y-40500600D01*
X225145000Y-42210000D02*
X226246700Y-42210000D01*
X227766900Y-40689800D02*
X226246700Y-42210000D01*
X226900000Y-95556700D02*
X226246700Y-96210000D01*
X225145000Y-60210000D02*
X225145000Y-52711700D01*
X171145000Y-105210000D02*
X171145000Y-96210000D01*
X238750000Y-40080000D02*
X228187500Y-40080000D01*
X108467100Y-113107100D02*
X164749600Y-113107100D01*
X243570000Y-110272500D02*
X238507500Y-105210000D01*
%TO.N,Net-(D25-A)*%
X178195000Y-42210000D02*
X178495000Y-42210000D01*
X241143300Y-43711700D02*
X178495000Y-43711700D01*
X178495000Y-42210000D02*
X178495000Y-43711700D01*
X242645000Y-42210000D02*
X241143300Y-43711700D01*
%TO.N,Net-(D25-K)*%
X187495000Y-42210000D02*
X187195000Y-42210000D01*
X180145000Y-42210000D02*
X187195000Y-42210000D01*
%TO.N,Net-(D26-K)*%
X189145000Y-42210000D02*
X196195000Y-42210000D01*
X196495000Y-42210000D02*
X196195000Y-42210000D01*
%TO.N,Net-(U2-3(PWM){slash}SCL)*%
X90565000Y-34207300D02*
X100652700Y-34207300D01*
X101570000Y-33290000D02*
X102570000Y-33290000D01*
X100652700Y-34207300D02*
X101570000Y-33290000D01*
X102570000Y-33290000D02*
X104650000Y-31210000D01*
%TO.N,Net-(D1-A)*%
X107495000Y-42210000D02*
X124195000Y-42210000D01*
X124495000Y-42210000D02*
X124195000Y-42210000D01*
%TO.N,Net-(D1-K)*%
X126145000Y-42210000D02*
X133195000Y-42210000D01*
X133195000Y-42210000D02*
X133495000Y-42210000D01*
%TO.N,Net-(D2-K)*%
X135145000Y-42210000D02*
X142195000Y-42210000D01*
X142495000Y-42210000D02*
X142195000Y-42210000D01*
%TO.N,Net-(D3-K)*%
X144145000Y-42210000D02*
X151195000Y-42210000D01*
X151195000Y-42210000D02*
X151495000Y-42210000D01*
%TO.N,Net-(D4-K)*%
X160195000Y-42210000D02*
X160495000Y-42210000D01*
X153145000Y-42210000D02*
X160195000Y-42210000D01*
%TO.N,Net-(D5-K)*%
X169495000Y-42210000D02*
X169195000Y-42210000D01*
X162145000Y-42210000D02*
X169195000Y-42210000D01*
%TO.N,Net-(D7-K)*%
X126145000Y-51210000D02*
X133195000Y-51210000D01*
X133495000Y-51210000D02*
X133195000Y-51210000D01*
%TO.N,Net-(D7-A)*%
X107495000Y-51210000D02*
X124195000Y-51210000D01*
X124495000Y-51210000D02*
X124195000Y-51210000D01*
%TO.N,Net-(D8-K)*%
X142495000Y-51210000D02*
X142195000Y-51210000D01*
X135145000Y-51210000D02*
X142195000Y-51210000D01*
%TO.N,Net-(D10-A)*%
X144145000Y-51210000D02*
X151195000Y-51210000D01*
X151195000Y-51210000D02*
X151495000Y-51210000D01*
%TO.N,Net-(D10-K)*%
X160495000Y-51210000D02*
X160195000Y-51210000D01*
X153145000Y-51210000D02*
X160195000Y-51210000D01*
%TO.N,Net-(D11-K)*%
X169495000Y-51210000D02*
X169195000Y-51210000D01*
X162145000Y-51210000D02*
X169195000Y-51210000D01*
%TO.N,Net-(D13-A)*%
X107495000Y-60210000D02*
X124195000Y-60210000D01*
X124495000Y-60210000D02*
X124195000Y-60210000D01*
%TO.N,Net-(D13-K)*%
X126145000Y-60210000D02*
X133195000Y-60210000D01*
X133495000Y-60210000D02*
X133195000Y-60210000D01*
%TO.N,Net-(D14-K)*%
X135145000Y-60210000D02*
X142195000Y-60210000D01*
X142495000Y-60210000D02*
X142195000Y-60210000D01*
%TO.N,Net-(D15-K)*%
X151195000Y-60210000D02*
X151495000Y-60210000D01*
X144145000Y-60210000D02*
X151195000Y-60210000D01*
%TO.N,Net-(D16-K)*%
X153145000Y-60210000D02*
X160195000Y-60210000D01*
X160495000Y-60210000D02*
X160195000Y-60210000D01*
%TO.N,Net-(D17-K)*%
X162145000Y-60210000D02*
X169195000Y-60210000D01*
X169195000Y-60210000D02*
X169495000Y-60210000D01*
%TO.N,Net-(D19-K)*%
X133495000Y-69210000D02*
X133195000Y-69210000D01*
X126145000Y-69210000D02*
X133195000Y-69210000D01*
%TO.N,Net-(D19-A)*%
X107495000Y-69210000D02*
X124195000Y-69210000D01*
X124495000Y-69210000D02*
X124195000Y-69210000D01*
%TO.N,Net-(D20-K)*%
X135145000Y-69210000D02*
X142195000Y-69210000D01*
X142495000Y-69210000D02*
X142195000Y-69210000D01*
%TO.N,Net-(D21-K)*%
X151495000Y-69210000D02*
X151195000Y-69210000D01*
X144145000Y-69210000D02*
X151195000Y-69210000D01*
%TO.N,Net-(D22-K)*%
X160495000Y-69210000D02*
X160195000Y-69210000D01*
X153145000Y-69210000D02*
X160195000Y-69210000D01*
%TO.N,Net-(D23-K)*%
X162145000Y-69210000D02*
X169195000Y-69210000D01*
X169195000Y-69210000D02*
X169495000Y-69210000D01*
%TO.N,Net-(U4-D)*%
X104570000Y-60210000D02*
X104570000Y-69210000D01*
X104570000Y-42210000D02*
X104570000Y-51210000D01*
X104570000Y-51210000D02*
X104570000Y-60210000D01*
X106570000Y-40210000D02*
X106570000Y-37210000D01*
X104570000Y-42210000D02*
X106570000Y-40210000D01*
%TO.N,Net-(U4-G)*%
X107520000Y-31260000D02*
X107570000Y-31210000D01*
X107520000Y-35335000D02*
X107520000Y-31260000D01*
%TO.N,Net-(D27-K)*%
X205195000Y-42210000D02*
X205495000Y-42210000D01*
X198145000Y-42210000D02*
X205195000Y-42210000D01*
%TO.N,Net-(D28-K)*%
X214195000Y-42210000D02*
X214495000Y-42210000D01*
X207145000Y-42210000D02*
X214195000Y-42210000D01*
%TO.N,Net-(D29-K)*%
X216145000Y-42210000D02*
X223195000Y-42210000D01*
X223495000Y-42210000D02*
X223195000Y-42210000D01*
%TO.N,Net-(D31-A)*%
X178495000Y-51210000D02*
X178495000Y-50459100D01*
X242645000Y-51210000D02*
X241143300Y-49708300D01*
X179146100Y-49708300D02*
X178495000Y-50359400D01*
X241143300Y-49708300D02*
X179146100Y-49708300D01*
X178495000Y-50359400D02*
X178495000Y-50459100D01*
X178195000Y-51210000D02*
X178195000Y-50658300D01*
X178295800Y-50658300D02*
X178195000Y-50658300D01*
X178495000Y-50459100D02*
X178295800Y-50658300D01*
%TO.N,Net-(D31-K)*%
X180145000Y-51210000D02*
X187195000Y-51210000D01*
X187495000Y-51210000D02*
X187195000Y-51210000D01*
%TO.N,Net-(D32-K)*%
X189145000Y-51210000D02*
X196195000Y-51210000D01*
X196495000Y-51210000D02*
X196195000Y-51210000D01*
%TO.N,Net-(D33-K)*%
X205195000Y-51210000D02*
X205495000Y-51210000D01*
X198145000Y-51210000D02*
X205195000Y-51210000D01*
%TO.N,Net-(D34-K)*%
X207145000Y-51210000D02*
X214195000Y-51210000D01*
X214495000Y-51210000D02*
X214195000Y-51210000D01*
%TO.N,Net-(D35-K)*%
X223495000Y-51210000D02*
X223195000Y-51210000D01*
X216145000Y-51210000D02*
X223195000Y-51210000D01*
%TO.N,Net-(D37-A)*%
X178195000Y-60210000D02*
X178495000Y-60210000D01*
X178495000Y-60210000D02*
X178495000Y-61711700D01*
X242645000Y-60210000D02*
X241143300Y-61711700D01*
X241143300Y-61711700D02*
X178495000Y-61711700D01*
%TO.N,Net-(D37-K)*%
X180145000Y-60210000D02*
X187195000Y-60210000D01*
X187195000Y-60210000D02*
X187495000Y-60210000D01*
%TO.N,Net-(D38-K)*%
X189145000Y-60210000D02*
X196195000Y-60210000D01*
X196195000Y-60210000D02*
X196495000Y-60210000D01*
%TO.N,Net-(D39-K)*%
X198145000Y-60210000D02*
X205195000Y-60210000D01*
X205495000Y-60210000D02*
X205195000Y-60210000D01*
%TO.N,Net-(D40-K)*%
X214195000Y-60210000D02*
X214495000Y-60210000D01*
X207145000Y-60210000D02*
X214195000Y-60210000D01*
%TO.N,Net-(D41-K)*%
X223495000Y-60210000D02*
X223195000Y-60210000D01*
X216145000Y-60210000D02*
X223195000Y-60210000D01*
%TO.N,Net-(D43-A)*%
X241143300Y-70711700D02*
X242645000Y-69210000D01*
X178495000Y-69210000D02*
X178495000Y-70711700D01*
X178495000Y-69210000D02*
X178195000Y-69210000D01*
X178495000Y-70711700D02*
X241143300Y-70711700D01*
%TO.N,Net-(D43-K)*%
X187495000Y-69210000D02*
X187195000Y-69210000D01*
X180145000Y-69210000D02*
X187195000Y-69210000D01*
%TO.N,Net-(D44-K)*%
X189145000Y-69210000D02*
X196195000Y-69210000D01*
X196495000Y-69210000D02*
X196195000Y-69210000D01*
%TO.N,Net-(D45-K)*%
X198145000Y-69210000D02*
X205195000Y-69210000D01*
X205495000Y-69210000D02*
X205195000Y-69210000D01*
%TO.N,Net-(D46-K)*%
X207145000Y-69210000D02*
X214195000Y-69210000D01*
X214195000Y-69210000D02*
X214495000Y-69210000D01*
%TO.N,Net-(D47-K)*%
X223195000Y-69210000D02*
X223495000Y-69210000D01*
X216145000Y-69210000D02*
X223195000Y-69210000D01*
%TO.N,Net-(D49-K)*%
X126145000Y-78210000D02*
X133195000Y-78210000D01*
X133495000Y-78210000D02*
X133195000Y-78210000D01*
%TO.N,Net-(D49-A)*%
X107495000Y-78210000D02*
X124195000Y-78210000D01*
X124195000Y-78210000D02*
X124495000Y-78210000D01*
%TO.N,Net-(D50-K)*%
X135145000Y-78210000D02*
X142195000Y-78210000D01*
X142195000Y-78210000D02*
X142495000Y-78210000D01*
%TO.N,Net-(D51-K)*%
X151495000Y-78210000D02*
X151195000Y-78210000D01*
X144145000Y-78210000D02*
X151195000Y-78210000D01*
%TO.N,Net-(D52-K)*%
X153145000Y-78210000D02*
X160195000Y-78210000D01*
X160495000Y-78210000D02*
X160195000Y-78210000D01*
%TO.N,Net-(D53-K)*%
X169195000Y-78210000D02*
X169495000Y-78210000D01*
X162145000Y-78210000D02*
X169195000Y-78210000D01*
%TO.N,Net-(D55-A)*%
X124195000Y-87210000D02*
X124495000Y-87210000D01*
X107495000Y-87210000D02*
X124195000Y-87210000D01*
%TO.N,Net-(D55-K)*%
X126145000Y-87210000D02*
X133195000Y-87210000D01*
X133195000Y-87210000D02*
X133495000Y-87210000D01*
%TO.N,Net-(D56-K)*%
X142495000Y-87210000D02*
X142195000Y-87210000D01*
X135145000Y-87210000D02*
X142195000Y-87210000D01*
%TO.N,Net-(D57-K)*%
X151495000Y-87210000D02*
X151195000Y-87210000D01*
X144145000Y-87210000D02*
X151195000Y-87210000D01*
%TO.N,Net-(D58-K)*%
X153145000Y-87210000D02*
X160195000Y-87210000D01*
X160495000Y-87210000D02*
X160195000Y-87210000D01*
%TO.N,Net-(D59-K)*%
X169495000Y-87210000D02*
X169195000Y-87210000D01*
X162145000Y-87210000D02*
X169195000Y-87210000D01*
%TO.N,Net-(D61-A)*%
X124195000Y-96210000D02*
X124495000Y-96210000D01*
X107570000Y-96210000D02*
X124195000Y-96210000D01*
%TO.N,Net-(D61-K)*%
X133495000Y-96210000D02*
X133195000Y-96210000D01*
X126145000Y-96210000D02*
X133195000Y-96210000D01*
%TO.N,Net-(D62-K)*%
X135145000Y-96210000D02*
X142195000Y-96210000D01*
X142195000Y-96210000D02*
X142495000Y-96210000D01*
%TO.N,Net-(D63-K)*%
X144145000Y-96210000D02*
X151195000Y-96210000D01*
X151195000Y-96210000D02*
X151495000Y-96210000D01*
%TO.N,Net-(D64-K)*%
X153145000Y-96210000D02*
X160195000Y-96210000D01*
X160195000Y-96210000D02*
X160495000Y-96210000D01*
%TO.N,Net-(D65-K)*%
X169195000Y-96210000D02*
X169495000Y-96210000D01*
X162145000Y-96210000D02*
X169195000Y-96210000D01*
%TO.N,Net-(D67-K)*%
X133495000Y-105210000D02*
X133195000Y-105210000D01*
X126145000Y-105210000D02*
X133195000Y-105210000D01*
%TO.N,Net-(D67-A)*%
X107495000Y-105210000D02*
X124195000Y-105210000D01*
X124195000Y-105210000D02*
X124495000Y-105210000D01*
%TO.N,Net-(D68-K)*%
X142495000Y-105210000D02*
X142195000Y-105210000D01*
X135145000Y-105210000D02*
X142195000Y-105210000D01*
%TO.N,Net-(D69-K)*%
X144145000Y-105210000D02*
X151195000Y-105210000D01*
X151195000Y-105210000D02*
X151495000Y-105210000D01*
%TO.N,Net-(D70-K)*%
X153145000Y-105210000D02*
X160195000Y-105210000D01*
X160495000Y-105210000D02*
X160195000Y-105210000D01*
%TO.N,Net-(D71-K)*%
X162145000Y-105210000D02*
X169195000Y-105210000D01*
X169195000Y-105210000D02*
X169495000Y-105210000D01*
%TO.N,Net-(D73-A)*%
X178195000Y-77647400D02*
X179134100Y-76708300D01*
X178495000Y-78210000D02*
X178195000Y-78210000D01*
X241068300Y-76708300D02*
X242570000Y-78210000D01*
X179134100Y-76708300D02*
X241068300Y-76708300D01*
X178195000Y-78210000D02*
X178195000Y-77647400D01*
%TO.N,Net-(D73-K)*%
X180145000Y-78210000D02*
X187195000Y-78210000D01*
X187195000Y-78210000D02*
X187495000Y-78210000D01*
%TO.N,Net-(D74-K)*%
X189145000Y-78210000D02*
X196195000Y-78210000D01*
X196495000Y-78210000D02*
X196195000Y-78210000D01*
%TO.N,Net-(D75-K)*%
X198145000Y-78210000D02*
X205195000Y-78210000D01*
X205195000Y-78210000D02*
X205495000Y-78210000D01*
%TO.N,Net-(D76-K)*%
X207145000Y-78210000D02*
X214195000Y-78210000D01*
X214495000Y-78210000D02*
X214195000Y-78210000D01*
%TO.N,Net-(D77-K)*%
X216145000Y-78210000D02*
X223195000Y-78210000D01*
X223495000Y-78210000D02*
X223195000Y-78210000D01*
%TO.N,Net-(D79-A)*%
X178495000Y-87210000D02*
X178495000Y-86834500D01*
X178495000Y-86834500D02*
X178495000Y-86658300D01*
X179152100Y-85708300D02*
X241068300Y-85708300D01*
X178495000Y-86658300D02*
X178195000Y-86658300D01*
X178195000Y-87210000D02*
X178195000Y-86658300D01*
X178495000Y-86365400D02*
X179152100Y-85708300D01*
X241068300Y-85708300D02*
X242570000Y-87210000D01*
X178495000Y-86658300D02*
X178495000Y-86365400D01*
%TO.N,Net-(D79-K)*%
X187495000Y-87210000D02*
X187195000Y-87210000D01*
X180145000Y-87210000D02*
X187195000Y-87210000D01*
%TO.N,Net-(D80-K)*%
X196495000Y-87210000D02*
X196195000Y-87210000D01*
X189145000Y-87210000D02*
X196195000Y-87210000D01*
%TO.N,Net-(D81-K)*%
X198145000Y-87210000D02*
X205195000Y-87210000D01*
X205495000Y-87210000D02*
X205195000Y-87210000D01*
%TO.N,Net-(D82-K)*%
X207145000Y-87210000D02*
X214195000Y-87210000D01*
X214495000Y-87210000D02*
X214195000Y-87210000D01*
%TO.N,Net-(D83-K)*%
X216145000Y-87210000D02*
X223195000Y-87210000D01*
X223495000Y-87210000D02*
X223195000Y-87210000D01*
%TO.N,Net-(D85-A)*%
X178495000Y-96210000D02*
X178495000Y-97711700D01*
X178195000Y-96210000D02*
X178495000Y-96210000D01*
X241068300Y-97711700D02*
X178495000Y-97711700D01*
X242570000Y-96210000D02*
X241068300Y-97711700D01*
%TO.N,Net-(D85-K)*%
X180145000Y-96210000D02*
X187195000Y-96210000D01*
X187495000Y-96210000D02*
X187195000Y-96210000D01*
%TO.N,Net-(D86-K)*%
X196495000Y-96210000D02*
X196195000Y-96210000D01*
X189145000Y-96210000D02*
X196195000Y-96210000D01*
%TO.N,Net-(D87-K)*%
X198145000Y-96210000D02*
X205195000Y-96210000D01*
X205495000Y-96210000D02*
X205195000Y-96210000D01*
%TO.N,Net-(D88-K)*%
X207145000Y-96210000D02*
X214195000Y-96210000D01*
X214195000Y-96210000D02*
X214495000Y-96210000D01*
%TO.N,Net-(D89-K)*%
X223195000Y-96210000D02*
X223495000Y-96210000D01*
X216145000Y-96210000D02*
X223195000Y-96210000D01*
%TO.N,Net-(D91-A)*%
X178195000Y-105210000D02*
X178495000Y-105210000D01*
X241068300Y-103708300D02*
X242570000Y-105210000D01*
X178495000Y-105210000D02*
X178495000Y-103708300D01*
X178495000Y-103708300D02*
X241068300Y-103708300D01*
%TO.N,Net-(D91-K)*%
X187495000Y-105210000D02*
X187195000Y-105210000D01*
X180145000Y-105210000D02*
X187195000Y-105210000D01*
%TO.N,Net-(D92-K)*%
X196495000Y-105210000D02*
X196195000Y-105210000D01*
X189145000Y-105210000D02*
X196195000Y-105210000D01*
%TO.N,Net-(D93-K)*%
X205495000Y-105210000D02*
X205195000Y-105210000D01*
X198145000Y-105210000D02*
X205195000Y-105210000D01*
%TO.N,Net-(D94-K)*%
X207145000Y-105210000D02*
X214195000Y-105210000D01*
X214195000Y-105210000D02*
X214495000Y-105210000D01*
%TO.N,Net-(D95-K)*%
X216145000Y-105210000D02*
X223195000Y-105210000D01*
X223495000Y-105210000D02*
X223195000Y-105210000D01*
%TO.N,Net-(U2-5(PWM))*%
X242570000Y-31130000D02*
X242570000Y-29989000D01*
X242650000Y-31210000D02*
X242570000Y-31130000D01*
X242570000Y-29989000D02*
X242570000Y-27210000D01*
X242570000Y-29989000D02*
X98791000Y-29989000D01*
X98791000Y-29989000D02*
X97570000Y-31210000D01*
%TO.N,Net-(U3-G)*%
X245470000Y-35260000D02*
X245470000Y-31310000D01*
X245470000Y-31310000D02*
X245570000Y-31210000D01*
%TO.N,Net-(U3-D)*%
X245570000Y-69210000D02*
X245570000Y-60210000D01*
X245570000Y-42210000D02*
X244520000Y-41160000D01*
X245570000Y-42210000D02*
X245570000Y-51210000D01*
X244520000Y-41160000D02*
X244520000Y-37135000D01*
X245570000Y-51210000D02*
X245570000Y-60210000D01*
%TO.N,Net-(U2-9(PWM){slash}A9)*%
X104650000Y-116210000D02*
X104570000Y-116290000D01*
X102620000Y-114180000D02*
X104650000Y-116210000D01*
X85680000Y-110370000D02*
X89490000Y-114180000D01*
X89490000Y-114180000D02*
X102620000Y-114180000D01*
X104570000Y-116290000D02*
X104570000Y-119210000D01*
%TO.N,Net-(U5-G)*%
X107570000Y-114110000D02*
X107570000Y-116210000D01*
X104670000Y-111210000D02*
X107570000Y-114110000D01*
%TO.N,Net-(U5-D)*%
X104570000Y-87210000D02*
X104645000Y-87285000D01*
X104570000Y-105210000D02*
X104570000Y-108285000D01*
X104645000Y-96210000D02*
X104570000Y-96285000D01*
X104570000Y-96285000D02*
X104570000Y-105210000D01*
X104570000Y-108285000D02*
X105620000Y-109335000D01*
X104645000Y-87285000D02*
X104645000Y-96210000D01*
X104570000Y-87210000D02*
X104570000Y-78210000D01*
%TO.N,Net-(U2-6(PWM){slash}A7)*%
X88181600Y-119215800D02*
X102858500Y-119215800D01*
X237334800Y-120445200D02*
X238570000Y-119210000D01*
X102858500Y-119215800D02*
X104087900Y-120445200D01*
X104087900Y-120445200D02*
X237334800Y-120445200D01*
X239650000Y-119210000D02*
X242650000Y-116210000D01*
X87780500Y-118814700D02*
X88181600Y-119215800D01*
X238570000Y-119210000D02*
X239650000Y-119210000D01*
%TO.N,Net-(U6-G)*%
X245570000Y-116210000D02*
X245570000Y-110372500D01*
X245570000Y-110372500D02*
X245470000Y-110272500D01*
%TO.N,Net-(U6-D)*%
X244520000Y-112147500D02*
X244520000Y-106185000D01*
X244520000Y-106185000D02*
X245495000Y-105210000D01*
X245495000Y-96210000D02*
X245495000Y-87210000D01*
X245495000Y-87210000D02*
X245495000Y-78210000D01*
X245495000Y-96210000D02*
X245495000Y-105210000D01*
%TD*%
M02*
