M48
; DRILL file {KiCad 9.0.2} date 2025-06-25T20:21:35-0700
; FORMAT={-:-/ absolute / inch / decimal}
; #@! TF.CreationDate,2025-06-25T20:21:35-07:00
; #@! TF.GenerationSoftware,Kicad,Pcbnew,9.0.2
; #@! TF.FileFunction,Plated,1,2,PTH
FMAT,2
INCH
; #@! TA.AperFunction,Plated,PTH,ViaDrill
T1C0.0118
; #@! TA.AperFunction,Plated,PTH,ComponentDrill
T2C0.0299
; #@! TA.AperFunction,Plated,PTH,ComponentDrill
T3C0.0360
; #@! TA.AperFunction,Plated,PTH,ComponentDrill
T4C0.0394
; #@! TA.AperFunction,Plated,PTH,ComponentDrill
T5C0.0402
%
G90
G05
T1
X3.4559Y-4.6777
X3.5656Y-1.3467
X3.8413Y-1.2287
X3.9113Y-1.4618
X4.1595Y-4.3629
X8.8344Y-3.187
X8.864Y-4.3076
X8.9528Y-2.0368
X8.9528Y-2.7247
X8.9528Y-3.7621
X8.9672Y-1.5945
T3
X3.3732Y-3.0453
X3.3732Y-3.1453
X3.3732Y-3.2453
X3.3732Y-3.3453
X3.3732Y-3.4453
X3.3732Y-3.5453
X3.3732Y-3.6453
X3.3732Y-3.7453
X3.3732Y-3.8453
X3.3732Y-3.9453
X3.3732Y-4.0453
X3.3732Y-4.1453
X3.3732Y-4.2453
X3.3732Y-4.3453
X3.3732Y-4.4453
X3.3732Y-4.5453
X3.3732Y-4.6453
X3.9732Y-3.0453
X3.9732Y-3.1453
X3.9732Y-3.2453
X3.9732Y-3.3453
X3.9732Y-3.4453
X3.9732Y-3.5453
X3.9732Y-3.6453
X3.9732Y-3.7453
X3.9732Y-3.8453
X3.9732Y-3.9453
X3.9732Y-4.0453
X3.9732Y-4.1453
X3.9732Y-4.2453
X3.9732Y-4.3453
X3.9732Y-4.4453
X3.9732Y-4.5453
X3.9732Y-4.6453
T4
X3.5546Y-2.5229
X3.6546Y-2.5229
X3.7546Y-2.5229
T2
G00X3.5866Y-2.0854
M15
G01X3.5866Y-2.1755
M16
G05
G00X3.7596Y-2.3194
M15
G01X3.6695Y-2.3194
M16
G05
T5
G00X3.8327Y-2.0805
M15
G01X3.8327Y-2.1805
M16
G05
M30
