M48
; DRILL file {KiCad 9.0.2} date 2025-06-26T16:26:35-0700
; FORMAT={-:-/ absolute / inch / decimal}
; #@! TF.CreationDate,2025-06-26T16:26:35-07:00
; #@! TF.GenerationSoftware,Kicad,Pcbnew,9.0.2
; #@! TF.FileFunction,Plated,1,2,PTH
FMAT,2
INCH
; #@! TA.AperFunction,Plated,PTH,ComponentDrill
T1C0.0299
; #@! TA.AperFunction,Plated,PTH,ComponentDrill
T2C0.0360
; #@! TA.AperFunction,Plated,PTH,ComponentDrill
T3C0.0402
%
G90
G05
T2
X4.4343Y-3.2323
X4.4343Y-3.3323
X4.4343Y-3.4323
X4.4343Y-3.5323
X4.4343Y-3.6323
X4.4343Y-3.7323
X4.4343Y-3.8323
X4.4343Y-3.9323
X4.4343Y-4.0323
X4.4343Y-4.1323
X4.4343Y-4.2323
X4.4343Y-4.3323
X4.4343Y-4.4323
X4.4343Y-4.5323
X4.4343Y-4.6323
X4.4343Y-4.7323
X4.4343Y-4.8323
X5.0343Y-3.2323
X5.0343Y-3.3323
X5.0343Y-3.4323
X5.0343Y-3.5323
X5.0343Y-3.6323
X5.0343Y-3.7323
X5.0343Y-3.8323
X5.0343Y-3.9323
X5.0343Y-4.0323
X5.0343Y-4.1323
X5.0343Y-4.2323
X5.0343Y-4.3323
X5.0343Y-4.4323
X5.0343Y-4.5323
X5.0343Y-4.6323
X5.0343Y-4.7323
X5.0343Y-4.8323
T1
G00X4.685Y-2.7502
M15
G01X4.685Y-2.8404
M16
G05
G00X4.8581Y-2.9843
M15
G01X4.7679Y-2.9843
M16
G05
T3
G00X4.9311Y-2.7453
M15
G01X4.9311Y-2.8453
M16
G05
M30
