%TF.GenerationSoftware,KiCad,Pcbnew,9.0.2*%
%TF.CreationDate,2025-06-26T16:26:35-07:00*%
%TF.ProjectId,basic-test,62617369-632d-4746-9573-742e6b696361,rev?*%
%TF.SameCoordinates,Original*%
%TF.FileFunction,Soldermask,Top*%
%TF.FilePolarity,Negative*%
%FSLAX46Y46*%
G04 Gerber Fmt 4.6, Leading zero omitted, Abs format (unit mm)*
G04 Created by KiCad (PCBNEW 9.0.2) date 2025-06-26 16:26:35*
%MOMM*%
%LPD*%
G01*
G04 APERTURE LIST*
G04 Aperture macros list*
%AMRoundRect*
0 Rectangle with rounded corners*
0 $1 Rounding radius*
0 $2 $3 $4 $5 $6 $7 $8 $9 X,Y pos of 4 corners*
0 Add a 4 corners polygon primitive as box body*
4,1,4,$2,$3,$4,$5,$6,$7,$8,$9,$2,$3,0*
0 Add four circle primitives for the rounded corners*
1,1,$1+$1,$2,$3*
1,1,$1+$1,$4,$5*
1,1,$1+$1,$6,$7*
1,1,$1+$1,$8,$9*
0 Add four rect primitives between the rounded corners*
20,1,$1+$1,$2,$3,$4,$5,0*
20,1,$1+$1,$4,$5,$6,$7,0*
20,1,$1+$1,$6,$7,$8,$9,0*
20,1,$1+$1,$8,$9,$2,$3,0*%
G04 Aperture macros list end*
%ADD10RoundRect,0.261500X0.261500X0.476500X-0.261500X0.476500X-0.261500X-0.476500X0.261500X-0.476500X0*%
%ADD11RoundRect,0.219000X-0.219000X-0.294000X0.219000X-0.294000X0.219000X0.294000X-0.219000X0.294000X0*%
%ADD12RoundRect,0.150000X0.150000X-0.590000X0.150000X0.590000X-0.150000X0.590000X-0.150000X-0.590000X0*%
%ADD13RoundRect,0.102000X-0.787400X-0.787400X0.787400X-0.787400X0.787400X0.787400X-0.787400X0.787400X0*%
%ADD14C,1.778800*%
%ADD15O,2.484000X4.764000*%
%ADD16O,4.254000X2.229000*%
%ADD17O,2.229000X4.254000*%
G04 APERTURE END LIST*
D10*
%TO.C,D2*%
X139060000Y-80000000D03*
X140940000Y-80000000D03*
%TD*%
D11*
%TO.C,R12*%
X131180000Y-116000000D03*
X132820000Y-116000000D03*
%TD*%
%TO.C,R11*%
X132820000Y-114000000D03*
X131180000Y-114000000D03*
%TD*%
%TO.C,R10*%
X131180000Y-107000000D03*
X132820000Y-107000000D03*
%TD*%
%TO.C,R9*%
X131180000Y-104000000D03*
X132820000Y-104000000D03*
%TD*%
%TO.C,R8*%
X131180000Y-101000000D03*
X132820000Y-101000000D03*
%TD*%
%TO.C,R7*%
X131180000Y-98000000D03*
X132820000Y-98000000D03*
%TD*%
%TO.C,R6*%
X131180000Y-95000000D03*
X132820000Y-95000000D03*
%TD*%
%TO.C,R5*%
X131180000Y-92000000D03*
X132820000Y-92000000D03*
%TD*%
%TO.C,R4*%
X131180000Y-89000000D03*
X132820000Y-89000000D03*
%TD*%
%TO.C,R3*%
X131180000Y-86000000D03*
X132820000Y-86000000D03*
%TD*%
%TO.C,R2*%
X131180000Y-83000000D03*
X132820000Y-83000000D03*
%TD*%
%TO.C,R1*%
X131180000Y-80000000D03*
X132820000Y-80000000D03*
%TD*%
D12*
%TO.C,Q1*%
X131050000Y-111940000D03*
X132950000Y-111940000D03*
X132000000Y-110060000D03*
%TD*%
D10*
%TO.C,D30*%
X144940000Y-107000000D03*
X143060000Y-107000000D03*
%TD*%
%TO.C,D29*%
X140940000Y-107000000D03*
X139060000Y-107000000D03*
%TD*%
%TO.C,D28*%
X136940000Y-107000000D03*
X135060000Y-107000000D03*
%TD*%
%TO.C,D27*%
X144940000Y-104000000D03*
X143060000Y-104000000D03*
%TD*%
%TO.C,D26*%
X140940000Y-104000000D03*
X139060000Y-104000000D03*
%TD*%
%TO.C,D25*%
X136940000Y-104000000D03*
X135060000Y-104000000D03*
%TD*%
%TO.C,D24*%
X144940000Y-101000000D03*
X143060000Y-101000000D03*
%TD*%
%TO.C,D23*%
X140940000Y-101000000D03*
X139060000Y-101000000D03*
%TD*%
%TO.C,D22*%
X136940000Y-101000000D03*
X135060000Y-101000000D03*
%TD*%
%TO.C,D21*%
X144940000Y-98000000D03*
X143060000Y-98000000D03*
%TD*%
%TO.C,D20*%
X140940000Y-98000000D03*
X139060000Y-98000000D03*
%TD*%
%TO.C,D19*%
X136940000Y-98000000D03*
X135060000Y-98000000D03*
%TD*%
%TO.C,D18*%
X144940000Y-95000000D03*
X143060000Y-95000000D03*
%TD*%
%TO.C,D17*%
X140940000Y-95000000D03*
X139060000Y-95000000D03*
%TD*%
%TO.C,D16*%
X136940000Y-95000000D03*
X135060000Y-95000000D03*
%TD*%
%TO.C,D15*%
X144940000Y-92000000D03*
X143060000Y-92000000D03*
%TD*%
%TO.C,D14*%
X140940000Y-92000000D03*
X139060000Y-92000000D03*
%TD*%
%TO.C,D13*%
X136940000Y-92000000D03*
X135060000Y-92000000D03*
%TD*%
%TO.C,D12*%
X144940000Y-89000000D03*
X143060000Y-89000000D03*
%TD*%
%TO.C,D11*%
X140940000Y-89000000D03*
X139060000Y-89000000D03*
%TD*%
%TO.C,D10*%
X136940000Y-89000000D03*
X135060000Y-89000000D03*
%TD*%
%TO.C,D9*%
X144940000Y-86000000D03*
X143060000Y-86000000D03*
%TD*%
%TO.C,D8*%
X140940000Y-86000000D03*
X139060000Y-86000000D03*
%TD*%
%TO.C,D7*%
X136940000Y-86000000D03*
X135060000Y-86000000D03*
%TD*%
%TO.C,D6*%
X144940000Y-83000000D03*
X143060000Y-83000000D03*
%TD*%
%TO.C,D5*%
X140940000Y-83000000D03*
X139060000Y-83000000D03*
%TD*%
%TO.C,D4*%
X136940000Y-83000000D03*
X135060000Y-83000000D03*
%TD*%
%TO.C,D3*%
X144940000Y-80000000D03*
X143060000Y-80000000D03*
%TD*%
D13*
%TO.C,U1*%
X112630000Y-82100000D03*
D14*
X112630000Y-84640000D03*
X112630000Y-87180000D03*
X112630000Y-89720000D03*
X112630000Y-92260000D03*
X112630000Y-94800000D03*
X112630000Y-97340000D03*
X112630000Y-99880000D03*
X112630000Y-102420000D03*
X112630000Y-104960000D03*
X112630000Y-107500000D03*
X112630000Y-110040000D03*
X112630000Y-112580000D03*
X112630000Y-115120000D03*
X112630000Y-117660000D03*
X112630000Y-120200000D03*
X112630000Y-122740000D03*
X127870000Y-122740000D03*
X127870000Y-120200000D03*
X127870000Y-117660000D03*
X127870000Y-115120000D03*
X127870000Y-112580000D03*
X127870000Y-110040000D03*
X127870000Y-107500000D03*
X127870000Y-104960000D03*
X127870000Y-102420000D03*
X127870000Y-99880000D03*
X127870000Y-97340000D03*
X127870000Y-94800000D03*
X127870000Y-92260000D03*
X127870000Y-89720000D03*
X127870000Y-87180000D03*
X127870000Y-84640000D03*
X127870000Y-82100000D03*
%TD*%
D15*
%TO.C,J1*%
X125250000Y-71000000D03*
D16*
X122250000Y-75800000D03*
D17*
X119000000Y-71000000D03*
%TD*%
D10*
%TO.C,D1*%
X136940000Y-80000000D03*
X135060000Y-80000000D03*
%TD*%
M02*
