%TF.GenerationSoftware,KiCad,Pcbnew,9.0.2*%
%TF.CreationDate,2025-06-26T16:26:35-07:00*%
%TF.ProjectId,basic-test,62617369-632d-4746-9573-742e6b696361,rev?*%
%TF.SameCoordinates,Original*%
%TF.FileFunction,Copper,L1,Top*%
%TF.FilePolarity,Positive*%
%FSLAX46Y46*%
G04 Gerber Fmt 4.6, Leading zero omitted, Abs format (unit mm)*
G04 Created by KiCad (PCBNEW 9.0.2) date 2025-06-26 16:26:35*
%MOMM*%
%LPD*%
G01*
G04 APERTURE LIST*
G04 Aperture macros list*
%AMRoundRect*
0 Rectangle with rounded corners*
0 $1 Rounding radius*
0 $2 $3 $4 $5 $6 $7 $8 $9 X,Y pos of 4 corners*
0 Add a 4 corners polygon primitive as box body*
4,1,4,$2,$3,$4,$5,$6,$7,$8,$9,$2,$3,0*
0 Add four circle primitives for the rounded corners*
1,1,$1+$1,$2,$3*
1,1,$1+$1,$4,$5*
1,1,$1+$1,$6,$7*
1,1,$1+$1,$8,$9*
0 Add four rect primitives between the rounded corners*
20,1,$1+$1,$2,$3,$4,$5,0*
20,1,$1+$1,$4,$5,$6,$7,0*
20,1,$1+$1,$6,$7,$8,$9,0*
20,1,$1+$1,$8,$9,$2,$3,0*%
G04 Aperture macros list end*
%TA.AperFunction,SMDPad,CuDef*%
%ADD10RoundRect,0.242500X0.242500X0.457500X-0.242500X0.457500X-0.242500X-0.457500X0.242500X-0.457500X0*%
%TD*%
%TA.AperFunction,SMDPad,CuDef*%
%ADD11RoundRect,0.200000X-0.200000X-0.275000X0.200000X-0.275000X0.200000X0.275000X-0.200000X0.275000X0*%
%TD*%
%TA.AperFunction,SMDPad,CuDef*%
%ADD12RoundRect,0.150000X0.150000X-0.590000X0.150000X0.590000X-0.150000X0.590000X-0.150000X-0.590000X0*%
%TD*%
%TA.AperFunction,ComponentPad*%
%ADD13R,1.574800X1.574800*%
%TD*%
%TA.AperFunction,ComponentPad*%
%ADD14C,1.574800*%
%TD*%
%TA.AperFunction,ComponentPad*%
%ADD15O,2.280000X4.560000*%
%TD*%
%TA.AperFunction,ComponentPad*%
%ADD16O,4.050000X2.025000*%
%TD*%
%TA.AperFunction,ComponentPad*%
%ADD17O,2.025000X4.050000*%
%TD*%
%TA.AperFunction,Conductor*%
%ADD18C,0.200000*%
%TD*%
G04 APERTURE END LIST*
D10*
%TO.P,D2,2*%
%TO.N,Net-(D1-Pad1)*%
X139060000Y-80000000D03*
%TO.P,D2,1*%
%TO.N,Net-(D2-Pad1)*%
X140940000Y-80000000D03*
%TD*%
D11*
%TO.P,R12,1*%
%TO.N,Net-(U1-5(PWM))*%
X131180000Y-116000000D03*
%TO.P,R12,2*%
%TO.N,GND*%
X132820000Y-116000000D03*
%TD*%
%TO.P,R11,2*%
%TO.N,Net-(U1-5(PWM))*%
X132820000Y-114000000D03*
%TO.P,R11,1*%
%TO.N,Net-(Q1-G)*%
X131180000Y-114000000D03*
%TD*%
%TO.P,R10,1*%
%TO.N,+7.5V*%
X131180000Y-107000000D03*
%TO.P,R10,2*%
%TO.N,Net-(D28-Pad2)*%
X132820000Y-107000000D03*
%TD*%
%TO.P,R9,1*%
%TO.N,+7.5V*%
X131180000Y-104000000D03*
%TO.P,R9,2*%
%TO.N,Net-(D25-Pad2)*%
X132820000Y-104000000D03*
%TD*%
%TO.P,R8,1*%
%TO.N,+7.5V*%
X131180000Y-101000000D03*
%TO.P,R8,2*%
%TO.N,Net-(D22-Pad2)*%
X132820000Y-101000000D03*
%TD*%
%TO.P,R7,1*%
%TO.N,+7.5V*%
X131180000Y-98000000D03*
%TO.P,R7,2*%
%TO.N,Net-(D19-Pad2)*%
X132820000Y-98000000D03*
%TD*%
%TO.P,R6,1*%
%TO.N,+7.5V*%
X131180000Y-95000000D03*
%TO.P,R6,2*%
%TO.N,Net-(D16-Pad2)*%
X132820000Y-95000000D03*
%TD*%
%TO.P,R5,1*%
%TO.N,+7.5V*%
X131180000Y-92000000D03*
%TO.P,R5,2*%
%TO.N,Net-(D13-Pad2)*%
X132820000Y-92000000D03*
%TD*%
%TO.P,R4,1*%
%TO.N,+7.5V*%
X131180000Y-89000000D03*
%TO.P,R4,2*%
%TO.N,Net-(D10-Pad2)*%
X132820000Y-89000000D03*
%TD*%
%TO.P,R3,1*%
%TO.N,+7.5V*%
X131180000Y-86000000D03*
%TO.P,R3,2*%
%TO.N,Net-(D7-Pad2)*%
X132820000Y-86000000D03*
%TD*%
%TO.P,R2,1*%
%TO.N,+7.5V*%
X131180000Y-83000000D03*
%TO.P,R2,2*%
%TO.N,Net-(D4-Pad2)*%
X132820000Y-83000000D03*
%TD*%
%TO.P,R1,1*%
%TO.N,+7.5V*%
X131180000Y-80000000D03*
%TO.P,R1,2*%
%TO.N,Net-(D1-Pad2)*%
X132820000Y-80000000D03*
%TD*%
D12*
%TO.P,Q1,1,G*%
%TO.N,Net-(Q1-G)*%
X131050000Y-111940000D03*
%TO.P,Q1,2,S*%
%TO.N,GND*%
X132950000Y-111940000D03*
%TO.P,Q1,3,D*%
%TO.N,Net-(Q1-D)*%
X132000000Y-110060000D03*
%TD*%
D10*
%TO.P,D30,1*%
%TO.N,Net-(Q1-D)*%
X144940000Y-107000000D03*
%TO.P,D30,2*%
%TO.N,Net-(D29-Pad1)*%
X143060000Y-107000000D03*
%TD*%
%TO.P,D29,1*%
%TO.N,Net-(D29-Pad1)*%
X140940000Y-107000000D03*
%TO.P,D29,2*%
%TO.N,Net-(D28-Pad1)*%
X139060000Y-107000000D03*
%TD*%
%TO.P,D28,1*%
%TO.N,Net-(D28-Pad1)*%
X136940000Y-107000000D03*
%TO.P,D28,2*%
%TO.N,Net-(D28-Pad2)*%
X135060000Y-107000000D03*
%TD*%
%TO.P,D27,1*%
%TO.N,Net-(Q1-D)*%
X144940000Y-104000000D03*
%TO.P,D27,2*%
%TO.N,Net-(D26-Pad1)*%
X143060000Y-104000000D03*
%TD*%
%TO.P,D26,1*%
%TO.N,Net-(D26-Pad1)*%
X140940000Y-104000000D03*
%TO.P,D26,2*%
%TO.N,Net-(D25-Pad1)*%
X139060000Y-104000000D03*
%TD*%
%TO.P,D25,1*%
%TO.N,Net-(D25-Pad1)*%
X136940000Y-104000000D03*
%TO.P,D25,2*%
%TO.N,Net-(D25-Pad2)*%
X135060000Y-104000000D03*
%TD*%
%TO.P,D24,1*%
%TO.N,Net-(Q1-D)*%
X144940000Y-101000000D03*
%TO.P,D24,2*%
%TO.N,Net-(D23-Pad1)*%
X143060000Y-101000000D03*
%TD*%
%TO.P,D23,1*%
%TO.N,Net-(D23-Pad1)*%
X140940000Y-101000000D03*
%TO.P,D23,2*%
%TO.N,Net-(D22-Pad1)*%
X139060000Y-101000000D03*
%TD*%
%TO.P,D22,1*%
%TO.N,Net-(D22-Pad1)*%
X136940000Y-101000000D03*
%TO.P,D22,2*%
%TO.N,Net-(D22-Pad2)*%
X135060000Y-101000000D03*
%TD*%
%TO.P,D21,1*%
%TO.N,Net-(Q1-D)*%
X144940000Y-98000000D03*
%TO.P,D21,2*%
%TO.N,Net-(D20-Pad1)*%
X143060000Y-98000000D03*
%TD*%
%TO.P,D20,1*%
%TO.N,Net-(D20-Pad1)*%
X140940000Y-98000000D03*
%TO.P,D20,2*%
%TO.N,Net-(D19-Pad1)*%
X139060000Y-98000000D03*
%TD*%
%TO.P,D19,1*%
%TO.N,Net-(D19-Pad1)*%
X136940000Y-98000000D03*
%TO.P,D19,2*%
%TO.N,Net-(D19-Pad2)*%
X135060000Y-98000000D03*
%TD*%
%TO.P,D18,1*%
%TO.N,Net-(Q1-D)*%
X144940000Y-95000000D03*
%TO.P,D18,2*%
%TO.N,Net-(D17-Pad1)*%
X143060000Y-95000000D03*
%TD*%
%TO.P,D17,1*%
%TO.N,Net-(D17-Pad1)*%
X140940000Y-95000000D03*
%TO.P,D17,2*%
%TO.N,Net-(D16-Pad1)*%
X139060000Y-95000000D03*
%TD*%
%TO.P,D16,1*%
%TO.N,Net-(D16-Pad1)*%
X136940000Y-95000000D03*
%TO.P,D16,2*%
%TO.N,Net-(D16-Pad2)*%
X135060000Y-95000000D03*
%TD*%
%TO.P,D15,1*%
%TO.N,Net-(Q1-D)*%
X144940000Y-92000000D03*
%TO.P,D15,2*%
%TO.N,Net-(D14-Pad1)*%
X143060000Y-92000000D03*
%TD*%
%TO.P,D14,1*%
%TO.N,Net-(D14-Pad1)*%
X140940000Y-92000000D03*
%TO.P,D14,2*%
%TO.N,Net-(D13-Pad1)*%
X139060000Y-92000000D03*
%TD*%
%TO.P,D13,1*%
%TO.N,Net-(D13-Pad1)*%
X136940000Y-92000000D03*
%TO.P,D13,2*%
%TO.N,Net-(D13-Pad2)*%
X135060000Y-92000000D03*
%TD*%
%TO.P,D12,1*%
%TO.N,Net-(Q1-D)*%
X144940000Y-89000000D03*
%TO.P,D12,2*%
%TO.N,Net-(D11-Pad1)*%
X143060000Y-89000000D03*
%TD*%
%TO.P,D11,1*%
%TO.N,Net-(D11-Pad1)*%
X140940000Y-89000000D03*
%TO.P,D11,2*%
%TO.N,Net-(D10-Pad1)*%
X139060000Y-89000000D03*
%TD*%
%TO.P,D10,1*%
%TO.N,Net-(D10-Pad1)*%
X136940000Y-89000000D03*
%TO.P,D10,2*%
%TO.N,Net-(D10-Pad2)*%
X135060000Y-89000000D03*
%TD*%
%TO.P,D9,1*%
%TO.N,Net-(Q1-D)*%
X144940000Y-86000000D03*
%TO.P,D9,2*%
%TO.N,Net-(D8-Pad1)*%
X143060000Y-86000000D03*
%TD*%
%TO.P,D8,1*%
%TO.N,Net-(D8-Pad1)*%
X140940000Y-86000000D03*
%TO.P,D8,2*%
%TO.N,Net-(D7-Pad1)*%
X139060000Y-86000000D03*
%TD*%
%TO.P,D7,1*%
%TO.N,Net-(D7-Pad1)*%
X136940000Y-86000000D03*
%TO.P,D7,2*%
%TO.N,Net-(D7-Pad2)*%
X135060000Y-86000000D03*
%TD*%
%TO.P,D6,1*%
%TO.N,Net-(Q1-D)*%
X144940000Y-83000000D03*
%TO.P,D6,2*%
%TO.N,Net-(D5-Pad1)*%
X143060000Y-83000000D03*
%TD*%
%TO.P,D5,1*%
%TO.N,Net-(D5-Pad1)*%
X140940000Y-83000000D03*
%TO.P,D5,2*%
%TO.N,Net-(D4-Pad1)*%
X139060000Y-83000000D03*
%TD*%
%TO.P,D4,1*%
%TO.N,Net-(D4-Pad1)*%
X136940000Y-83000000D03*
%TO.P,D4,2*%
%TO.N,Net-(D4-Pad2)*%
X135060000Y-83000000D03*
%TD*%
%TO.P,D3,1*%
%TO.N,Net-(Q1-D)*%
X144940000Y-80000000D03*
%TO.P,D3,2*%
%TO.N,Net-(D2-Pad1)*%
X143060000Y-80000000D03*
%TD*%
D13*
%TO.P,U1,1,MOSI*%
%TO.N,unconnected-(U1-MOSI-Pad1)*%
X112630000Y-82100000D03*
D14*
%TO.P,U1,2,RX_LED/SS*%
%TO.N,unconnected-(U1-RX_LED{slash}SS-Pad2)*%
X112630000Y-84640000D03*
%TO.P,U1,3,1/TX*%
%TO.N,unconnected-(U1-1{slash}TX-Pad3)*%
X112630000Y-87180000D03*
%TO.P,U1,4,0/RX*%
%TO.N,unconnected-(U1-0{slash}RX-Pad4)*%
X112630000Y-89720000D03*
%TO.P,U1,5,RESET*%
%TO.N,unconnected-(U1-RESET-Pad30)*%
X112630000Y-92260000D03*
%TO.P,U1,6,GND*%
%TO.N,GND*%
X112630000Y-94800000D03*
%TO.P,U1,7,2/SDA*%
%TO.N,unconnected-(U1-2{slash}SDA-Pad7)*%
X112630000Y-97340000D03*
%TO.P,U1,8,3(PWM)/SCL*%
%TO.N,unconnected-(U1-3(PWM){slash}SCL-Pad8)*%
X112630000Y-99880000D03*
%TO.P,U1,9,4/A6*%
%TO.N,unconnected-(U1-4{slash}A6-Pad9)*%
X112630000Y-102420000D03*
%TO.P,U1,10,5(PWM)*%
%TO.N,Net-(U1-5(PWM))*%
X112630000Y-104960000D03*
%TO.P,U1,11,6(PWM)/A7*%
%TO.N,unconnected-(U1-6(PWM){slash}A7-Pad11)*%
X112630000Y-107500000D03*
%TO.P,U1,12,7*%
%TO.N,unconnected-(U1-7-Pad12)*%
X112630000Y-110040000D03*
%TO.P,U1,13,8/A8*%
%TO.N,unconnected-(U1-8{slash}A8-Pad13)*%
X112630000Y-112580000D03*
%TO.P,U1,14,9(PWM)/A9*%
%TO.N,unconnected-(U1-9(PWM){slash}A9-Pad14)*%
X112630000Y-115120000D03*
%TO.P,U1,15,10(PWM)/A10*%
%TO.N,unconnected-(U1-10(PWM){slash}A10-Pad15)*%
X112630000Y-117660000D03*
%TO.P,U1,16,11(PWM)*%
%TO.N,unconnected-(U1-11(PWM)-Pad16)*%
X112630000Y-120200000D03*
%TO.P,U1,17,12/A11*%
%TO.N,unconnected-(U1-12{slash}A11-Pad17)*%
X112630000Y-122740000D03*
%TO.P,U1,18,13(PWM)*%
%TO.N,unconnected-(U1-13(PWM)-Pad18)*%
X127870000Y-122740000D03*
%TO.P,U1,19,3.3V*%
%TO.N,unconnected-(U1-3.3V-Pad19)*%
X127870000Y-120200000D03*
%TO.P,U1,20,AREF*%
%TO.N,unconnected-(U1-AREF-Pad20)*%
X127870000Y-117660000D03*
%TO.P,U1,21,A0*%
%TO.N,unconnected-(U1-A0-Pad21)*%
X127870000Y-115120000D03*
%TO.P,U1,22,A1*%
%TO.N,unconnected-(U1-A1-Pad22)*%
X127870000Y-112580000D03*
%TO.P,U1,23,A2*%
%TO.N,unconnected-(U1-A2-Pad23)*%
X127870000Y-110040000D03*
%TO.P,U1,24,A3*%
%TO.N,unconnected-(U1-A3-Pad24)*%
X127870000Y-107500000D03*
%TO.P,U1,25,A4*%
%TO.N,unconnected-(U1-A4-Pad25)*%
X127870000Y-104960000D03*
%TO.P,U1,26,A5*%
%TO.N,unconnected-(U1-A5-Pad26)*%
X127870000Y-102420000D03*
%TO.P,U1,27*%
%TO.N,N/C*%
X127870000Y-99880000D03*
%TO.P,U1,28*%
X127870000Y-97340000D03*
%TO.P,U1,29,+5V*%
%TO.N,unconnected-(U1-+5V-Pad29)*%
X127870000Y-94800000D03*
%TO.P,U1,30,RESET*%
%TO.N,unconnected-(U1-RESET-Pad30)_1*%
X127870000Y-92260000D03*
%TO.P,U1,31,GND*%
%TO.N,GND*%
X127870000Y-89720000D03*
%TO.P,U1,32,VIN*%
%TO.N,+7.5V*%
X127870000Y-87180000D03*
%TO.P,U1,33,MISO*%
%TO.N,unconnected-(U1-MISO-Pad33)*%
X127870000Y-84640000D03*
%TO.P,U1,34,SCK*%
%TO.N,unconnected-(U1-SCK-Pad34)*%
X127870000Y-82100000D03*
%TD*%
D15*
%TO.P,J1,PIN*%
%TO.N,+7.5V*%
X125250000Y-71000000D03*
D16*
%TO.P,J1,SHUNT*%
%TO.N,unconnected-(J1-PadSHUNT)*%
X122250000Y-75800000D03*
D17*
%TO.P,J1,SLEEVE*%
%TO.N,GND*%
X119000000Y-71000000D03*
%TD*%
D10*
%TO.P,D1,1*%
%TO.N,Net-(D1-Pad1)*%
X136940000Y-80000000D03*
%TO.P,D1,2*%
%TO.N,Net-(D1-Pad2)*%
X135060000Y-80000000D03*
%TD*%
D18*
%TO.N,GND*%
X122790000Y-103959231D02*
X122790000Y-94800000D01*
X127419169Y-108588400D02*
X122790000Y-103959231D01*
X132498032Y-111940000D02*
X129146432Y-108588400D01*
X129146432Y-108588400D02*
X127419169Y-108588400D01*
X132950000Y-111940000D02*
X132498032Y-111940000D01*
%TO.N,+7.5V*%
X125250000Y-84560000D02*
X127870000Y-87180000D01*
X125250000Y-71000000D02*
X125250000Y-84560000D01*
X125250000Y-71000000D02*
X125250000Y-74070000D01*
X125250000Y-74070000D02*
X131180000Y-80000000D01*
%TO.N,GND*%
X119000000Y-80850000D02*
X127870000Y-89720000D01*
X119000000Y-71000000D02*
X119000000Y-80850000D01*
X122790000Y-94800000D02*
X127870000Y-89720000D01*
X112630000Y-94800000D02*
X122790000Y-94800000D01*
%TO.N,Net-(U1-5(PWM))*%
X123878400Y-116208400D02*
X112630000Y-104960000D01*
X130971600Y-116208400D02*
X123878400Y-116208400D01*
X131180000Y-116000000D02*
X130971600Y-116208400D01*
%TO.N,Net-(Q1-G)*%
X131180000Y-112070000D02*
X131050000Y-111940000D01*
X131180000Y-114000000D02*
X131180000Y-112070000D01*
%TO.N,Net-(U1-5(PWM))*%
X132820000Y-114360000D02*
X131180000Y-116000000D01*
X132820000Y-114000000D02*
X132820000Y-114360000D01*
%TO.N,GND*%
X133521000Y-112511000D02*
X133521000Y-115299000D01*
X132950000Y-111940000D02*
X133521000Y-112511000D01*
X133521000Y-115299000D02*
X132820000Y-116000000D01*
%TO.N,Net-(Q1-D)*%
X141880000Y-110060000D02*
X144940000Y-107000000D01*
X132000000Y-110060000D02*
X141880000Y-110060000D01*
%TO.N,Net-(D1-Pad2)*%
X135060000Y-80000000D02*
X132820000Y-80000000D01*
%TO.N,Net-(D1-Pad1)*%
X139060000Y-80000000D02*
X136940000Y-80000000D01*
%TO.N,Net-(D2-Pad1)*%
X143060000Y-80000000D02*
X140940000Y-80000000D01*
%TO.N,Net-(D5-Pad1)*%
X140940000Y-83000000D02*
X143060000Y-83000000D01*
%TO.N,Net-(D4-Pad1)*%
X136940000Y-83000000D02*
X139060000Y-83000000D01*
%TO.N,Net-(D4-Pad2)*%
X132820000Y-83000000D02*
X135060000Y-83000000D01*
%TO.N,Net-(D7-Pad2)*%
X135060000Y-86000000D02*
X132820000Y-86000000D01*
%TO.N,Net-(D7-Pad1)*%
X139060000Y-86000000D02*
X136940000Y-86000000D01*
%TO.N,Net-(D8-Pad1)*%
X143060000Y-86000000D02*
X140940000Y-86000000D01*
%TO.N,Net-(D11-Pad1)*%
X140940000Y-89000000D02*
X143060000Y-89000000D01*
%TO.N,Net-(D10-Pad1)*%
X136940000Y-89000000D02*
X139060000Y-89000000D01*
%TO.N,Net-(D10-Pad2)*%
X132820000Y-89000000D02*
X135060000Y-89000000D01*
%TO.N,Net-(D13-Pad2)*%
X135060000Y-92000000D02*
X132820000Y-92000000D01*
%TO.N,Net-(D13-Pad1)*%
X139060000Y-92000000D02*
X136940000Y-92000000D01*
%TO.N,Net-(D14-Pad1)*%
X143060000Y-92000000D02*
X140940000Y-92000000D01*
%TO.N,Net-(D17-Pad1)*%
X140940000Y-95000000D02*
X143060000Y-95000000D01*
%TO.N,Net-(D16-Pad1)*%
X136940000Y-95000000D02*
X139060000Y-95000000D01*
%TO.N,Net-(D16-Pad2)*%
X132820000Y-95000000D02*
X135060000Y-95000000D01*
%TO.N,Net-(D19-Pad2)*%
X135060000Y-98000000D02*
X132820000Y-98000000D01*
%TO.N,Net-(D19-Pad1)*%
X139060000Y-98000000D02*
X136940000Y-98000000D01*
%TO.N,Net-(D20-Pad1)*%
X143060000Y-98000000D02*
X140940000Y-98000000D01*
%TO.N,Net-(D23-Pad1)*%
X140940000Y-101000000D02*
X143060000Y-101000000D01*
%TO.N,Net-(D22-Pad1)*%
X136940000Y-101000000D02*
X139060000Y-101000000D01*
%TO.N,Net-(D22-Pad2)*%
X132820000Y-101000000D02*
X135060000Y-101000000D01*
%TO.N,Net-(D25-Pad2)*%
X135060000Y-104000000D02*
X132820000Y-104000000D01*
%TO.N,Net-(D25-Pad1)*%
X139060000Y-104000000D02*
X136940000Y-104000000D01*
%TO.N,Net-(D26-Pad1)*%
X143060000Y-104000000D02*
X140940000Y-104000000D01*
%TO.N,Net-(D29-Pad1)*%
X140940000Y-107000000D02*
X143060000Y-107000000D01*
%TO.N,Net-(D28-Pad1)*%
X136940000Y-107000000D02*
X139060000Y-107000000D01*
%TO.N,Net-(D28-Pad2)*%
X132820000Y-107000000D02*
X135060000Y-107000000D01*
%TO.N,Net-(Q1-D)*%
X144940000Y-104000000D02*
X144940000Y-107000000D01*
X144940000Y-101000000D02*
X144940000Y-104000000D01*
X144940000Y-101000000D02*
X144940000Y-98000000D01*
X144940000Y-95000000D02*
X144940000Y-98000000D01*
X144940000Y-92000000D02*
X144940000Y-95000000D01*
X144940000Y-89000000D02*
X144940000Y-92000000D01*
X144940000Y-86000000D02*
X144940000Y-89000000D01*
X144940000Y-83000000D02*
X144940000Y-86000000D01*
X144940000Y-80000000D02*
X144940000Y-83000000D01*
%TO.N,+7.5V*%
X131180000Y-92000000D02*
X131180000Y-95000000D01*
X131180000Y-89000000D02*
X131180000Y-92000000D01*
X131180000Y-86000000D02*
X131180000Y-89000000D01*
X131180000Y-83000000D02*
X131180000Y-86000000D01*
X131180000Y-80000000D02*
X131180000Y-83000000D01*
X131180000Y-98000000D02*
X131180000Y-95000000D01*
X131180000Y-98000000D02*
X131180000Y-101000000D01*
X131180000Y-104000000D02*
X131180000Y-101000000D01*
X131180000Y-107000000D02*
X131180000Y-104000000D01*
%TD*%
M02*
