%TF.GenerationSoftware,KiCad,Pcbnew,9.0.2*%
%TF.CreationDate,2025-06-26T16:26:35-07:00*%
%TF.ProjectId,basic-test,62617369-632d-4746-9573-742e6b696361,rev?*%
%TF.SameCoordinates,Original*%
%TF.FileFunction,Soldermask,Bot*%
%TF.FilePolarity,Negative*%
%FSLAX46Y46*%
G04 Gerber Fmt 4.6, Leading zero omitted, Abs format (unit mm)*
G04 Created by KiCad (PCBNEW 9.0.2) date 2025-06-26 16:26:35*
%MOMM*%
%LPD*%
G01*
G04 APERTURE LIST*
G04 Aperture macros list*
%AMRoundRect*
0 Rectangle with rounded corners*
0 $1 Rounding radius*
0 $2 $3 $4 $5 $6 $7 $8 $9 X,Y pos of 4 corners*
0 Add a 4 corners polygon primitive as box body*
4,1,4,$2,$3,$4,$5,$6,$7,$8,$9,$2,$3,0*
0 Add four circle primitives for the rounded corners*
1,1,$1+$1,$2,$3*
1,1,$1+$1,$4,$5*
1,1,$1+$1,$6,$7*
1,1,$1+$1,$8,$9*
0 Add four rect primitives between the rounded corners*
20,1,$1+$1,$2,$3,$4,$5,0*
20,1,$1+$1,$4,$5,$6,$7,0*
20,1,$1+$1,$6,$7,$8,$9,0*
20,1,$1+$1,$8,$9,$2,$3,0*%
G04 Aperture macros list end*
%ADD10C,1.200000*%
%ADD11RoundRect,0.102000X-0.787400X-0.787400X0.787400X-0.787400X0.787400X0.787400X-0.787400X0.787400X0*%
%ADD12C,1.778800*%
%ADD13O,2.484000X4.764000*%
%ADD14O,4.254000X2.229000*%
%ADD15O,2.229000X4.254000*%
G04 APERTURE END LIST*
D10*
%TO.C,U1*%
X112630000Y-79560000D03*
X112630000Y-125280000D03*
X127870000Y-79560000D03*
X127870000Y-125280000D03*
D11*
X112630000Y-82100000D03*
D12*
X112630000Y-84640000D03*
X112630000Y-87180000D03*
X112630000Y-89720000D03*
X112630000Y-92260000D03*
X112630000Y-94800000D03*
X112630000Y-97340000D03*
X112630000Y-99880000D03*
X112630000Y-102420000D03*
X112630000Y-104960000D03*
X112630000Y-107500000D03*
X112630000Y-110040000D03*
X112630000Y-112580000D03*
X112630000Y-115120000D03*
X112630000Y-117660000D03*
X112630000Y-120200000D03*
X112630000Y-122740000D03*
X127870000Y-122740000D03*
X127870000Y-120200000D03*
X127870000Y-117660000D03*
X127870000Y-115120000D03*
X127870000Y-112580000D03*
X127870000Y-110040000D03*
X127870000Y-107500000D03*
X127870000Y-104960000D03*
X127870000Y-102420000D03*
X127870000Y-99880000D03*
X127870000Y-97340000D03*
X127870000Y-94800000D03*
X127870000Y-92260000D03*
X127870000Y-89720000D03*
X127870000Y-87180000D03*
X127870000Y-84640000D03*
X127870000Y-82100000D03*
%TD*%
D13*
%TO.C,J1*%
X125250000Y-71000000D03*
D14*
X122250000Y-75800000D03*
D15*
X119000000Y-71000000D03*
%TD*%
M02*
