M48
; DRILL file {KiCad 9.0.3} date 2025-07-10T19:44:43-0700
; FORMAT={-:-/ absolute / inch / decimal}
; #@! TF.CreationDate,2025-07-10T19:44:43-07:00
; #@! TF.GenerationSoftware,Kicad,Pcbnew,9.0.3
; #@! TF.FileFunction,Plated,1,4,PTH
FMAT,2
INCH
; #@! TA.AperFunction,Plated,PTH,ViaDrill
T1C0.0118
; #@! TA.AperFunction,Plated,PTH,ComponentDrill
T2C0.0299
; #@! TA.AperFunction,Plated,PTH,ComponentDrill
T3C0.0360
; #@! TA.AperFunction,Plated,PTH,ComponentDrill
T4C0.0402
%
G90
G05
T1
X2.1122Y-1.7528
X2.4272Y-1.7528
X2.7028Y-4.5087
X3.3327Y-2.1858
X3.3327Y-2.5402
X3.3327Y-2.8945
X3.3327Y-3.2488
X3.3327Y-3.6031
X3.3327Y-3.9575
X3.3327Y-4.3118
X3.3327Y-4.6661
X3.6083Y-5.3748
X3.6476Y-1.3984
X3.6476Y-1.4378
X3.687Y-1.2063
X3.687Y-1.5559
X3.687Y-1.5953
X3.687Y-1.6346
X3.687Y-2.1858
X3.687Y-2.5402
X3.687Y-2.8945
X3.687Y-3.2488
X3.687Y-3.6031
X3.687Y-3.9575
X3.687Y-4.3118
X3.687Y-4.6661
X3.7264Y-1.5559
X3.7264Y-1.5953
X3.7264Y-1.6346
X3.7657Y-1.2063
X3.7657Y-1.5559
X3.7657Y-1.5953
X3.7657Y-1.6346
X3.8445Y-1.2803
X3.8445Y-5.3748
X3.8839Y-1.3591
X4.0413Y-2.1858
X4.0413Y-2.5402
X4.0413Y-2.8945
X4.0413Y-3.2488
X4.0413Y-3.6031
X4.0413Y-3.9575
X4.0413Y-4.3118
X4.0413Y-4.6661
X4.3957Y-2.1858
X4.3957Y-2.5402
X4.3957Y-2.8945
X4.3957Y-3.2488
X4.3957Y-3.6031
X4.3957Y-3.9575
X4.3957Y-4.3118
X4.3957Y-4.6661
X4.6713Y-5.3748
X4.7106Y-1.3984
X4.7106Y-1.4378
X4.75Y-1.2016
X4.75Y-1.5559
X4.75Y-1.5953
X4.75Y-1.6346
X4.75Y-2.1858
X4.75Y-2.5402
X4.75Y-2.8945
X4.75Y-3.2488
X4.75Y-3.6031
X4.75Y-3.9575
X4.75Y-4.3118
X4.75Y-4.6661
X4.7894Y-1.5559
X4.7894Y-1.5953
X4.7894Y-1.6346
X4.8287Y-1.2016
X4.8287Y-1.5559
X4.8287Y-1.5953
X4.8287Y-1.6346
X4.9075Y-1.2409
X4.9075Y-5.3748
X4.9469Y-1.3591
X5.1043Y-2.1858
X5.1043Y-2.5402
X5.1043Y-2.8945
X5.1043Y-3.2488
X5.1043Y-3.6031
X5.1043Y-3.9575
X5.1043Y-4.3118
X5.1043Y-4.6661
X5.4587Y-2.1858
X5.4587Y-2.5402
X5.4587Y-2.8945
X5.4587Y-3.2488
X5.4587Y-3.6031
X5.4587Y-3.9575
X5.4587Y-4.3118
X5.4587Y-4.6661
X5.7343Y-5.3748
X5.7736Y-1.3984
X5.7736Y-1.4378
X5.813Y-1.2016
X5.813Y-1.5559
X5.813Y-1.5953
X5.813Y-1.6346
X5.813Y-2.1858
X5.813Y-2.5402
X5.813Y-2.8945
X5.813Y-3.2488
X5.813Y-3.6031
X5.813Y-3.9575
X5.813Y-4.3118
X5.813Y-4.6661
X5.8524Y-1.5559
X5.8524Y-1.5953
X5.8524Y-1.6346
X5.8917Y-1.2016
X5.8917Y-1.5559
X5.8917Y-1.5953
X5.8917Y-1.6346
X5.9705Y-1.2409
X5.9705Y-5.3748
X6.0098Y-1.3591
X6.1673Y-2.1858
X6.1673Y-2.5402
X6.1673Y-2.8945
X6.1673Y-3.2488
X6.1673Y-3.6031
X6.1673Y-3.9575
X6.1673Y-4.3118
X6.1673Y-4.6661
X6.5217Y-2.1858
X6.5217Y-2.5402
X6.5217Y-2.8945
X6.5217Y-3.2488
X6.5217Y-3.6031
X6.5217Y-3.9575
X6.5217Y-4.3118
X6.5217Y-4.6661
X6.7972Y-5.3748
X6.8366Y-1.3984
X6.8366Y-1.4378
X6.876Y-1.2016
X6.876Y-1.5559
X6.876Y-1.5953
X6.876Y-1.6346
X6.876Y-2.1858
X6.876Y-2.5402
X6.876Y-2.8945
X6.876Y-3.2488
X6.876Y-3.6031
X6.876Y-3.9575
X6.876Y-4.3118
X6.876Y-4.6661
X6.9154Y-1.5559
X6.9154Y-1.5953
X6.9154Y-1.6346
X6.9547Y-1.2016
X6.9547Y-1.5559
X6.9547Y-1.5953
X6.9547Y-1.6346
X7.0335Y-1.2409
X7.0335Y-5.3748
X7.0728Y-1.3591
X7.2303Y-2.1858
X7.2303Y-2.5402
X7.2303Y-2.8945
X7.2303Y-3.2488
X7.2303Y-3.6031
X7.2303Y-3.9575
X7.2303Y-4.3118
X7.2303Y-4.6661
T3
X1.9453Y-3.7055
X1.9453Y-3.8055
X1.9453Y-3.9055
X1.9453Y-4.0055
X1.9453Y-4.1055
X1.9453Y-4.2055
X1.9453Y-4.3055
X1.9453Y-4.4055
X1.9453Y-4.5055
X1.9453Y-4.6055
X1.9453Y-4.7055
X1.9453Y-4.8055
X1.9453Y-4.9055
X1.9453Y-5.0055
X1.9453Y-5.1055
X1.9453Y-5.2055
X1.9453Y-5.3055
X2.5453Y-3.7055
X2.5453Y-3.8055
X2.5453Y-3.9055
X2.5453Y-4.0055
X2.5453Y-4.1055
X2.5453Y-4.2055
X2.5453Y-4.3055
X2.5453Y-4.4055
X2.5453Y-4.5055
X2.5453Y-4.6055
X2.5453Y-4.7055
X2.5453Y-4.8055
X2.5453Y-4.9055
X2.5453Y-5.0055
X2.5453Y-5.1055
X2.5453Y-5.2055
X2.5453Y-5.3055
T2
G00X2.1516Y-1.3444
M15
G01X2.1516Y-1.4346
M16
G05
G00X2.3246Y-1.5785
M15
G01X2.2344Y-1.5785
M16
G05
T4
G00X2.3976Y-1.3395
M15
G01X2.3976Y-1.4395
M16
G05
M30
