%TF.GenerationSoftware,KiCad,Pcbnew,9.0.3*%
%TF.CreationDate,2025-07-10T19:11:07-07:00*%
%TF.ProjectId,led-plate-96-well,6c65642d-706c-4617-9465-2d39362d7765,rev?*%
%TF.SameCoordinates,Original*%
%TF.FileFunction,Soldermask,Top*%
%TF.FilePolarity,Negative*%
%FSLAX46Y46*%
G04 Gerber Fmt 4.6, Leading zero omitted, Abs format (unit mm)*
G04 Created by KiCad (PCBNEW 9.0.3) date 2025-07-10 19:11:07*
%MOMM*%
%LPD*%
G01*
G04 APERTURE LIST*
G04 Aperture macros list*
%AMRoundRect*
0 Rectangle with rounded corners*
0 $1 Rounding radius*
0 $2 $3 $4 $5 $6 $7 $8 $9 X,Y pos of 4 corners*
0 Add a 4 corners polygon primitive as box body*
4,1,4,$2,$3,$4,$5,$6,$7,$8,$9,$2,$3,0*
0 Add four circle primitives for the rounded corners*
1,1,$1+$1,$2,$3*
1,1,$1+$1,$4,$5*
1,1,$1+$1,$6,$7*
1,1,$1+$1,$8,$9*
0 Add four rect primitives between the rounded corners*
20,1,$1+$1,$2,$3,$4,$5,0*
20,1,$1+$1,$4,$5,$6,$7,0*
20,1,$1+$1,$6,$7,$8,$9,0*
20,1,$1+$1,$8,$9,$2,$3,0*%
G04 Aperture macros list end*
%ADD10C,1.778800*%
%ADD11RoundRect,0.102000X-0.787400X-0.787400X0.787400X-0.787400X0.787400X0.787400X-0.787400X0.787400X0*%
%ADD12RoundRect,0.062500X-0.375000X-0.062500X0.375000X-0.062500X0.375000X0.062500X-0.375000X0.062500X0*%
%ADD13RoundRect,0.062500X-0.062500X-0.375000X0.062500X-0.375000X0.062500X0.375000X-0.062500X0.375000X0*%
%ADD14R,3.450000X3.450000*%
%ADD15R,1.250000X2.200000*%
%ADD16R,2.200000X2.200000*%
%ADD17RoundRect,0.135000X-0.185000X0.135000X-0.185000X-0.135000X0.185000X-0.135000X0.185000X0.135000X0*%
%ADD18RoundRect,0.200000X-0.275000X0.200000X-0.275000X-0.200000X0.275000X-0.200000X0.275000X0.200000X0*%
%ADD19O,2.484000X4.764000*%
%ADD20O,4.254000X2.229000*%
%ADD21O,2.229000X4.254000*%
%ADD22RoundRect,0.250000X-0.250000X-0.475000X0.250000X-0.475000X0.250000X0.475000X-0.250000X0.475000X0*%
%ADD23RoundRect,0.225000X-0.225000X-0.250000X0.225000X-0.250000X0.225000X0.250000X-0.225000X0.250000X0*%
%ADD24RoundRect,0.250000X0.325000X0.650000X-0.325000X0.650000X-0.325000X-0.650000X0.325000X-0.650000X0*%
G04 APERTURE END LIST*
D10*
%TO.C,U1*%
X64650000Y-94120000D03*
X64650000Y-96660000D03*
X64650000Y-99200000D03*
X64650000Y-101740000D03*
X64650000Y-104280000D03*
X64650000Y-106820000D03*
X64650000Y-109360000D03*
X64650000Y-111900000D03*
X64650000Y-114440000D03*
X64650000Y-116980000D03*
X64650000Y-119520000D03*
X64650000Y-122060000D03*
X64650000Y-124600000D03*
X64650000Y-127140000D03*
X64650000Y-129680000D03*
X64650000Y-132220000D03*
X64650000Y-134760000D03*
X49410000Y-134760000D03*
X49410000Y-132220000D03*
X49410000Y-129680000D03*
X49410000Y-127140000D03*
X49410000Y-124600000D03*
X49410000Y-122060000D03*
X49410000Y-119520000D03*
X49410000Y-116980000D03*
X49410000Y-114440000D03*
X49410000Y-111900000D03*
X49410000Y-109360000D03*
X49410000Y-106820000D03*
X49410000Y-104280000D03*
X49410000Y-101740000D03*
X49410000Y-99200000D03*
X49410000Y-96660000D03*
D11*
X49410000Y-94120000D03*
%TD*%
D12*
%TO.C,U2*%
X92212500Y-38770000D03*
X92212500Y-39270000D03*
X92212500Y-39770000D03*
X92212500Y-40270000D03*
X92212500Y-40770000D03*
X92212500Y-41270000D03*
X92212500Y-41770000D03*
X92212500Y-42270000D03*
D13*
X92900000Y-42957500D03*
X93400000Y-42957500D03*
X93900000Y-42957500D03*
X94400000Y-42957500D03*
X94900000Y-42957500D03*
X95400000Y-42957500D03*
X95900000Y-42957500D03*
X96400000Y-42957500D03*
D12*
X97087500Y-42270000D03*
X97087500Y-41770000D03*
X97087500Y-41270000D03*
X97087500Y-40770000D03*
X97087500Y-40270000D03*
X97087500Y-39770000D03*
X97087500Y-39270000D03*
X97087500Y-38770000D03*
D13*
X96400000Y-38082500D03*
X95900000Y-38082500D03*
X95400000Y-38082500D03*
X94900000Y-38082500D03*
X94400000Y-38082500D03*
X93900000Y-38082500D03*
X93400000Y-38082500D03*
X92900000Y-38082500D03*
D14*
X94650000Y-40520000D03*
%TD*%
D15*
%TO.C,D3*%
X84275000Y-76520000D03*
D16*
X86550000Y-76520000D03*
%TD*%
D15*
%TO.C,D1*%
X84275000Y-58520000D03*
D16*
X86550000Y-58520000D03*
%TD*%
D15*
%TO.C,D2*%
X84275000Y-67520000D03*
D16*
X86550000Y-67520000D03*
%TD*%
D15*
%TO.C,D8*%
X84275000Y-121520000D03*
D16*
X86550000Y-121520000D03*
%TD*%
D15*
%TO.C,D11*%
X93275000Y-76520000D03*
D16*
X95550000Y-76520000D03*
%TD*%
D15*
%TO.C,D13*%
X93275000Y-94520000D03*
D16*
X95550000Y-94520000D03*
%TD*%
D15*
%TO.C,D4*%
X84275000Y-85520000D03*
D16*
X86550000Y-85520000D03*
%TD*%
D15*
%TO.C,D6*%
X84275000Y-103520000D03*
D16*
X86550000Y-103520000D03*
%TD*%
D15*
%TO.C,D7*%
X84275000Y-112520000D03*
D16*
X86550000Y-112520000D03*
%TD*%
D15*
%TO.C,D9*%
X93275000Y-58520000D03*
D16*
X95550000Y-58520000D03*
%TD*%
D15*
%TO.C,D5*%
X84275000Y-94520000D03*
D16*
X86550000Y-94520000D03*
%TD*%
D15*
%TO.C,D10*%
X93275000Y-67520000D03*
D16*
X95550000Y-67520000D03*
%TD*%
D15*
%TO.C,D12*%
X93275000Y-85520000D03*
D16*
X95550000Y-85520000D03*
%TD*%
D15*
%TO.C,D15*%
X93275000Y-112520000D03*
D16*
X95550000Y-112520000D03*
%TD*%
D15*
%TO.C,D17*%
X102275000Y-58520000D03*
D16*
X104550000Y-58520000D03*
%TD*%
D15*
%TO.C,D16*%
X93275000Y-121520000D03*
D16*
X95550000Y-121520000D03*
%TD*%
D15*
%TO.C,D18*%
X102275000Y-67520000D03*
D16*
X104550000Y-67520000D03*
%TD*%
D15*
%TO.C,D14*%
X93275000Y-103520000D03*
D16*
X95550000Y-103520000D03*
%TD*%
D15*
%TO.C,D25*%
X111275000Y-58520000D03*
D16*
X113550000Y-58520000D03*
%TD*%
D15*
%TO.C,D26*%
X111275000Y-67520000D03*
D16*
X113550000Y-67520000D03*
%TD*%
D15*
%TO.C,D20*%
X102275000Y-85520000D03*
D16*
X104550000Y-85520000D03*
%TD*%
D15*
%TO.C,D19*%
X102275000Y-76520000D03*
D16*
X104550000Y-76520000D03*
%TD*%
D15*
%TO.C,D21*%
X102275000Y-94520000D03*
D16*
X104550000Y-94520000D03*
%TD*%
D15*
%TO.C,D22*%
X102275000Y-103520000D03*
D16*
X104550000Y-103520000D03*
%TD*%
D15*
%TO.C,D23*%
X102275000Y-112520000D03*
D16*
X104550000Y-112520000D03*
%TD*%
D15*
%TO.C,D24*%
X102275000Y-121520000D03*
D16*
X104550000Y-121520000D03*
%TD*%
D15*
%TO.C,D34*%
X120275000Y-67520000D03*
D16*
X122550000Y-67520000D03*
%TD*%
D15*
%TO.C,D27*%
X111275000Y-76520000D03*
D16*
X113550000Y-76520000D03*
%TD*%
D15*
%TO.C,D37*%
X120275000Y-94520000D03*
D16*
X122550000Y-94520000D03*
%TD*%
D15*
%TO.C,D32*%
X111275000Y-121520000D03*
D16*
X113550000Y-121520000D03*
%TD*%
D15*
%TO.C,D28*%
X111275000Y-85520000D03*
D16*
X113550000Y-85520000D03*
%TD*%
D15*
%TO.C,D29*%
X111275000Y-94520000D03*
D16*
X113550000Y-94520000D03*
%TD*%
D15*
%TO.C,D31*%
X111275000Y-112520000D03*
D16*
X113550000Y-112520000D03*
%TD*%
D15*
%TO.C,D30*%
X111275000Y-103520000D03*
D16*
X113550000Y-103520000D03*
%TD*%
D15*
%TO.C,D33*%
X120275000Y-58520000D03*
D16*
X122550000Y-58520000D03*
%TD*%
D15*
%TO.C,D35*%
X120275000Y-76520000D03*
D16*
X122550000Y-76520000D03*
%TD*%
D15*
%TO.C,D36*%
X120275000Y-85520000D03*
D16*
X122550000Y-85520000D03*
%TD*%
D15*
%TO.C,D41*%
X129275000Y-58520000D03*
D16*
X131550000Y-58520000D03*
%TD*%
D15*
%TO.C,D44*%
X129275000Y-85520000D03*
D16*
X131550000Y-85520000D03*
%TD*%
D15*
%TO.C,D40*%
X120275000Y-121520000D03*
D16*
X122550000Y-121520000D03*
%TD*%
D15*
%TO.C,D42*%
X129275000Y-67520000D03*
D16*
X131550000Y-67520000D03*
%TD*%
D15*
%TO.C,D38*%
X120275000Y-103520000D03*
D16*
X122550000Y-103520000D03*
%TD*%
D15*
%TO.C,D43*%
X129275000Y-76520000D03*
D16*
X131550000Y-76520000D03*
%TD*%
D15*
%TO.C,D49*%
X138275000Y-58520000D03*
D16*
X140550000Y-58520000D03*
%TD*%
D15*
%TO.C,D39*%
X120275000Y-112520000D03*
D16*
X122550000Y-112520000D03*
%TD*%
D15*
%TO.C,D54*%
X138275000Y-103520000D03*
D16*
X140550000Y-103520000D03*
%TD*%
D15*
%TO.C,D46*%
X129275000Y-103520000D03*
D16*
X131550000Y-103520000D03*
%TD*%
D15*
%TO.C,D47*%
X129275000Y-112520000D03*
D16*
X131550000Y-112520000D03*
%TD*%
D15*
%TO.C,D45*%
X129275000Y-94520000D03*
D16*
X131550000Y-94520000D03*
%TD*%
D15*
%TO.C,D50*%
X138275000Y-67520000D03*
D16*
X140550000Y-67520000D03*
%TD*%
D15*
%TO.C,D51*%
X138275000Y-76520000D03*
D16*
X140550000Y-76520000D03*
%TD*%
D15*
%TO.C,D48*%
X129275000Y-121520000D03*
D16*
X131550000Y-121520000D03*
%TD*%
D15*
%TO.C,D52*%
X138275000Y-85520000D03*
D16*
X140550000Y-85520000D03*
%TD*%
D15*
%TO.C,D53*%
X138275000Y-94520000D03*
D16*
X140550000Y-94520000D03*
%TD*%
D15*
%TO.C,D55*%
X138275000Y-112520000D03*
D16*
X140550000Y-112520000D03*
%TD*%
D15*
%TO.C,D61*%
X147275000Y-94520000D03*
D16*
X149550000Y-94520000D03*
%TD*%
D15*
%TO.C,D64*%
X147275000Y-121520000D03*
D16*
X149550000Y-121520000D03*
%TD*%
D15*
%TO.C,D66*%
X156275000Y-67520000D03*
D16*
X158550000Y-67520000D03*
%TD*%
D15*
%TO.C,D58*%
X147275000Y-67520000D03*
D16*
X149550000Y-67520000D03*
%TD*%
D15*
%TO.C,D60*%
X147275000Y-85520000D03*
D16*
X149550000Y-85520000D03*
%TD*%
D15*
%TO.C,D59*%
X147275000Y-76520000D03*
D16*
X149550000Y-76520000D03*
%TD*%
D15*
%TO.C,D63*%
X147275000Y-112520000D03*
D16*
X149550000Y-112520000D03*
%TD*%
D15*
%TO.C,D57*%
X147275000Y-58520000D03*
D16*
X149550000Y-58520000D03*
%TD*%
D15*
%TO.C,D56*%
X138275000Y-121520000D03*
D16*
X140550000Y-121520000D03*
%TD*%
D15*
%TO.C,D62*%
X147275000Y-103520000D03*
D16*
X149550000Y-103520000D03*
%TD*%
D15*
%TO.C,D65*%
X156275000Y-58520000D03*
D16*
X158550000Y-58520000D03*
%TD*%
D15*
%TO.C,D68*%
X156275000Y-85520000D03*
D16*
X158550000Y-85520000D03*
%TD*%
D15*
%TO.C,D70*%
X156275000Y-103520000D03*
D16*
X158550000Y-103520000D03*
%TD*%
D15*
%TO.C,D76*%
X165275000Y-85520000D03*
D16*
X167550000Y-85520000D03*
%TD*%
D15*
%TO.C,D71*%
X156275000Y-112520000D03*
D16*
X158550000Y-112520000D03*
%TD*%
D15*
%TO.C,D79*%
X165275000Y-112520000D03*
D16*
X167550000Y-112520000D03*
%TD*%
D15*
%TO.C,D74*%
X165275000Y-67520000D03*
D16*
X167550000Y-67520000D03*
%TD*%
D15*
%TO.C,D69*%
X156275000Y-94520000D03*
D16*
X158550000Y-94520000D03*
%TD*%
D15*
%TO.C,D67*%
X156275000Y-76520000D03*
D16*
X158550000Y-76520000D03*
%TD*%
D15*
%TO.C,D72*%
X156275000Y-121520000D03*
D16*
X158550000Y-121520000D03*
%TD*%
D15*
%TO.C,D73*%
X165275000Y-58520000D03*
D16*
X167550000Y-58520000D03*
%TD*%
D15*
%TO.C,D75*%
X165275000Y-76520000D03*
D16*
X167550000Y-76520000D03*
%TD*%
D15*
%TO.C,D77*%
X165275000Y-94520000D03*
D16*
X167550000Y-94520000D03*
%TD*%
D15*
%TO.C,D78*%
X165275000Y-103520000D03*
D16*
X167550000Y-103520000D03*
%TD*%
D15*
%TO.C,D83*%
X174275000Y-76520000D03*
D16*
X176550000Y-76520000D03*
%TD*%
D15*
%TO.C,D88*%
X174275000Y-121520000D03*
D16*
X176550000Y-121520000D03*
%TD*%
D15*
%TO.C,D84*%
X174275000Y-85520000D03*
D16*
X176550000Y-85520000D03*
%TD*%
D15*
%TO.C,D86*%
X174275000Y-103520000D03*
D16*
X176550000Y-103520000D03*
%TD*%
D15*
%TO.C,D87*%
X174275000Y-112520000D03*
D16*
X176550000Y-112520000D03*
%TD*%
D15*
%TO.C,D89*%
X183275000Y-58520000D03*
D16*
X185550000Y-58520000D03*
%TD*%
D15*
%TO.C,D80*%
X165275000Y-121520000D03*
D16*
X167550000Y-121520000D03*
%TD*%
D15*
%TO.C,D81*%
X174275000Y-58520000D03*
D16*
X176550000Y-58520000D03*
%TD*%
D15*
%TO.C,D82*%
X174275000Y-67520000D03*
D16*
X176550000Y-67520000D03*
%TD*%
D15*
%TO.C,D85*%
X174275000Y-94520000D03*
D16*
X176550000Y-94520000D03*
%TD*%
D15*
%TO.C,D90*%
X183275000Y-67520000D03*
D16*
X185550000Y-67520000D03*
%TD*%
D15*
%TO.C,D94*%
X183275000Y-103520000D03*
D16*
X185550000Y-103520000D03*
%TD*%
D15*
%TO.C,D96*%
X183275000Y-121520000D03*
D16*
X185550000Y-121520000D03*
%TD*%
D15*
%TO.C,D92*%
X183275000Y-85520000D03*
D16*
X185550000Y-85520000D03*
%TD*%
D15*
%TO.C,D93*%
X183275000Y-94520000D03*
D16*
X185550000Y-94520000D03*
%TD*%
D15*
%TO.C,D95*%
X183275000Y-112520000D03*
D16*
X185550000Y-112520000D03*
%TD*%
D15*
%TO.C,D91*%
X183275000Y-76520000D03*
D16*
X185550000Y-76520000D03*
%TD*%
D12*
%TO.C,U5*%
X173212500Y-38770000D03*
X173212500Y-39270000D03*
X173212500Y-39770000D03*
X173212500Y-40270000D03*
X173212500Y-40770000D03*
X173212500Y-41270000D03*
X173212500Y-41770000D03*
X173212500Y-42270000D03*
D13*
X173900000Y-42957500D03*
X174400000Y-42957500D03*
X174900000Y-42957500D03*
X175400000Y-42957500D03*
X175900000Y-42957500D03*
X176400000Y-42957500D03*
X176900000Y-42957500D03*
X177400000Y-42957500D03*
D12*
X178087500Y-42270000D03*
X178087500Y-41770000D03*
X178087500Y-41270000D03*
X178087500Y-40770000D03*
X178087500Y-40270000D03*
X178087500Y-39770000D03*
X178087500Y-39270000D03*
X178087500Y-38770000D03*
D13*
X177400000Y-38082500D03*
X176900000Y-38082500D03*
X176400000Y-38082500D03*
X175900000Y-38082500D03*
X175400000Y-38082500D03*
X174900000Y-38082500D03*
X174400000Y-38082500D03*
X173900000Y-38082500D03*
D14*
X175650000Y-40520000D03*
%TD*%
%TO.C,U4*%
X148650000Y-40520000D03*
D13*
X146900000Y-38082500D03*
X147400000Y-38082500D03*
X147900000Y-38082500D03*
X148400000Y-38082500D03*
X148900000Y-38082500D03*
X149400000Y-38082500D03*
X149900000Y-38082500D03*
X150400000Y-38082500D03*
D12*
X151087500Y-38770000D03*
X151087500Y-39270000D03*
X151087500Y-39770000D03*
X151087500Y-40270000D03*
X151087500Y-40770000D03*
X151087500Y-41270000D03*
X151087500Y-41770000D03*
X151087500Y-42270000D03*
D13*
X150400000Y-42957500D03*
X149900000Y-42957500D03*
X149400000Y-42957500D03*
X148900000Y-42957500D03*
X148400000Y-42957500D03*
X147900000Y-42957500D03*
X147400000Y-42957500D03*
X146900000Y-42957500D03*
D12*
X146212500Y-42270000D03*
X146212500Y-41770000D03*
X146212500Y-41270000D03*
X146212500Y-40770000D03*
X146212500Y-40270000D03*
X146212500Y-39770000D03*
X146212500Y-39270000D03*
X146212500Y-38770000D03*
%TD*%
%TO.C,U3*%
X119212500Y-38770000D03*
X119212500Y-39270000D03*
X119212500Y-39770000D03*
X119212500Y-40270000D03*
X119212500Y-40770000D03*
X119212500Y-41270000D03*
X119212500Y-41770000D03*
X119212500Y-42270000D03*
D13*
X119900000Y-42957500D03*
X120400000Y-42957500D03*
X120900000Y-42957500D03*
X121400000Y-42957500D03*
X121900000Y-42957500D03*
X122400000Y-42957500D03*
X122900000Y-42957500D03*
X123400000Y-42957500D03*
D12*
X124087500Y-42270000D03*
X124087500Y-41770000D03*
X124087500Y-41270000D03*
X124087500Y-40770000D03*
X124087500Y-40270000D03*
X124087500Y-39770000D03*
X124087500Y-39270000D03*
X124087500Y-38770000D03*
D13*
X123400000Y-38082500D03*
X122900000Y-38082500D03*
X122400000Y-38082500D03*
X121900000Y-38082500D03*
X121400000Y-38082500D03*
X120900000Y-38082500D03*
X120400000Y-38082500D03*
X119900000Y-38082500D03*
D14*
X121650000Y-40520000D03*
%TD*%
D17*
%TO.C,R8*%
X178650000Y-33010000D03*
X178650000Y-34030000D03*
%TD*%
%TO.C,R6*%
X151650000Y-33010000D03*
X151650000Y-34030000D03*
%TD*%
%TO.C,R4*%
X124650000Y-33010000D03*
X124650000Y-34030000D03*
%TD*%
D18*
%TO.C,R2*%
X68150000Y-116870000D03*
X68150000Y-118520000D03*
%TD*%
D17*
%TO.C,R1*%
X97650000Y-33520000D03*
X97650000Y-34540000D03*
%TD*%
D19*
%TO.C,J1*%
X60900000Y-35293750D03*
D20*
X57900000Y-40093750D03*
D21*
X54650000Y-35293750D03*
%TD*%
D22*
%TO.C,C13*%
X174700000Y-136520000D03*
X176600000Y-136520000D03*
%TD*%
D23*
%TO.C,C12*%
X174875000Y-34520000D03*
X176425000Y-34520000D03*
%TD*%
D22*
%TO.C,C11*%
X174700000Y-32520000D03*
X176600000Y-32520000D03*
%TD*%
%TO.C,C10*%
X147700000Y-136520000D03*
X149600000Y-136520000D03*
%TD*%
D23*
%TO.C,C9*%
X147875000Y-34520000D03*
X149425000Y-34520000D03*
%TD*%
D22*
%TO.C,C8*%
X147700000Y-32520000D03*
X149600000Y-32520000D03*
%TD*%
%TO.C,C7*%
X120700000Y-136520000D03*
X122600000Y-136520000D03*
%TD*%
D23*
%TO.C,C6*%
X120875000Y-34520000D03*
X122425000Y-34520000D03*
%TD*%
D22*
%TO.C,C5*%
X120700000Y-32520000D03*
X122600000Y-32520000D03*
%TD*%
%TO.C,C4*%
X95600000Y-136520000D03*
X93700000Y-136520000D03*
%TD*%
D24*
%TO.C,C3*%
X59125000Y-44520000D03*
X56175000Y-44520000D03*
%TD*%
D22*
%TO.C,C2*%
X93700000Y-32520000D03*
X95600000Y-32520000D03*
%TD*%
D23*
%TO.C,C1*%
X93875000Y-34520000D03*
X95425000Y-34520000D03*
%TD*%
M02*
