%TF.GenerationSoftware,KiCad,Pcbnew,9.0.3*%
%TF.CreationDate,2025-07-10T19:44:43-07:00*%
%TF.ProjectId,led-plate-96-well,6c65642d-706c-4617-9465-2d39362d7765,rev?*%
%TF.SameCoordinates,Original*%
%TF.FileFunction,Copper,L1,Top*%
%TF.FilePolarity,Positive*%
%FSLAX46Y46*%
G04 Gerber Fmt 4.6, Leading zero omitted, Abs format (unit mm)*
G04 Created by KiCad (PCBNEW 9.0.3) date 2025-07-10 19:44:43*
%MOMM*%
%LPD*%
G01*
G04 APERTURE LIST*
G04 Aperture macros list*
%AMRoundRect*
0 Rectangle with rounded corners*
0 $1 Rounding radius*
0 $2 $3 $4 $5 $6 $7 $8 $9 X,Y pos of 4 corners*
0 Add a 4 corners polygon primitive as box body*
4,1,4,$2,$3,$4,$5,$6,$7,$8,$9,$2,$3,0*
0 Add four circle primitives for the rounded corners*
1,1,$1+$1,$2,$3*
1,1,$1+$1,$4,$5*
1,1,$1+$1,$6,$7*
1,1,$1+$1,$8,$9*
0 Add four rect primitives between the rounded corners*
20,1,$1+$1,$2,$3,$4,$5,0*
20,1,$1+$1,$4,$5,$6,$7,0*
20,1,$1+$1,$6,$7,$8,$9,0*
20,1,$1+$1,$8,$9,$2,$3,0*%
G04 Aperture macros list end*
%TA.AperFunction,SMDPad,CuDef*%
%ADD10RoundRect,0.062500X-0.375000X-0.062500X0.375000X-0.062500X0.375000X0.062500X-0.375000X0.062500X0*%
%TD*%
%TA.AperFunction,SMDPad,CuDef*%
%ADD11RoundRect,0.062500X-0.062500X-0.375000X0.062500X-0.375000X0.062500X0.375000X-0.062500X0.375000X0*%
%TD*%
%TA.AperFunction,HeatsinkPad*%
%ADD12R,3.450000X3.450000*%
%TD*%
%TA.AperFunction,SMDPad,CuDef*%
%ADD13R,2.200000X2.200000*%
%TD*%
%TA.AperFunction,SMDPad,CuDef*%
%ADD14R,1.250000X2.200000*%
%TD*%
%TA.AperFunction,SMDPad,CuDef*%
%ADD15RoundRect,0.225000X-0.225000X-0.250000X0.225000X-0.250000X0.225000X0.250000X-0.225000X0.250000X0*%
%TD*%
%TA.AperFunction,ComponentPad*%
%ADD16R,1.574800X1.574800*%
%TD*%
%TA.AperFunction,ComponentPad*%
%ADD17C,1.574800*%
%TD*%
%TA.AperFunction,SMDPad,CuDef*%
%ADD18RoundRect,0.135000X-0.185000X0.135000X-0.185000X-0.135000X0.185000X-0.135000X0.185000X0.135000X0*%
%TD*%
%TA.AperFunction,SMDPad,CuDef*%
%ADD19RoundRect,0.250000X-0.250000X-0.475000X0.250000X-0.475000X0.250000X0.475000X-0.250000X0.475000X0*%
%TD*%
%TA.AperFunction,SMDPad,CuDef*%
%ADD20RoundRect,0.250000X0.325000X0.650000X-0.325000X0.650000X-0.325000X-0.650000X0.325000X-0.650000X0*%
%TD*%
%TA.AperFunction,SMDPad,CuDef*%
%ADD21RoundRect,0.200000X-0.275000X0.200000X-0.275000X-0.200000X0.275000X-0.200000X0.275000X0.200000X0*%
%TD*%
%TA.AperFunction,ComponentPad*%
%ADD22O,2.280000X4.560000*%
%TD*%
%TA.AperFunction,ComponentPad*%
%ADD23O,4.050000X2.025000*%
%TD*%
%TA.AperFunction,ComponentPad*%
%ADD24O,2.025000X4.050000*%
%TD*%
%TA.AperFunction,ViaPad*%
%ADD25C,0.600000*%
%TD*%
%TA.AperFunction,Conductor*%
%ADD26C,0.200000*%
%TD*%
G04 APERTURE END LIST*
D10*
%TO.P,U2,1,OUT0*%
%TO.N,Net-(D1-K)*%
X92212500Y-38770000D03*
%TO.P,U2,2,OUT1*%
%TO.N,Net-(D2-K)*%
X92212500Y-39270000D03*
%TO.P,U2,3,OUT2*%
%TO.N,Net-(D3-K)*%
X92212500Y-39770000D03*
%TO.P,U2,4,OUT3*%
%TO.N,Net-(D4-K)*%
X92212500Y-40270000D03*
%TO.P,U2,5,OUT4*%
%TO.N,Net-(D5-K)*%
X92212500Y-40770000D03*
%TO.P,U2,6,OUT5*%
%TO.N,Net-(D6-K)*%
X92212500Y-41270000D03*
%TO.P,U2,7,OUT6*%
%TO.N,Net-(D7-K)*%
X92212500Y-41770000D03*
%TO.P,U2,8,OUT7*%
%TO.N,Net-(D8-K)*%
X92212500Y-42270000D03*
D11*
%TO.P,U2,9,OUT8*%
%TO.N,Net-(D9-K)*%
X92900000Y-42957500D03*
%TO.P,U2,10,OUT9*%
%TO.N,Net-(D10-K)*%
X93400000Y-42957500D03*
%TO.P,U2,11,OUT10*%
%TO.N,Net-(D11-K)*%
X93900000Y-42957500D03*
%TO.P,U2,12,OUT11*%
%TO.N,Net-(D12-K)*%
X94400000Y-42957500D03*
%TO.P,U2,13,OUT12*%
%TO.N,Net-(D13-K)*%
X94900000Y-42957500D03*
%TO.P,U2,14,OUT13*%
%TO.N,Net-(D14-K)*%
X95400000Y-42957500D03*
%TO.P,U2,15,OUT14*%
%TO.N,Net-(D15-K)*%
X95900000Y-42957500D03*
%TO.P,U2,16,OUT15*%
%TO.N,Net-(D16-K)*%
X96400000Y-42957500D03*
D10*
%TO.P,U2,17,OUT16*%
%TO.N,Net-(D17-K)*%
X97087500Y-42270000D03*
%TO.P,U2,18,OUT17*%
%TO.N,Net-(D18-K)*%
X97087500Y-41770000D03*
%TO.P,U2,19,OUT18*%
%TO.N,Net-(D19-K)*%
X97087500Y-41270000D03*
%TO.P,U2,20,OUT19*%
%TO.N,Net-(D20-K)*%
X97087500Y-40770000D03*
%TO.P,U2,21,OUT20*%
%TO.N,Net-(D21-K)*%
X97087500Y-40270000D03*
%TO.P,U2,22,OUT21*%
%TO.N,Net-(D22-K)*%
X97087500Y-39770000D03*
%TO.P,U2,23,OUT22*%
%TO.N,Net-(D23-K)*%
X97087500Y-39270000D03*
%TO.P,U2,24,OUT23*%
%TO.N,Net-(D24-K)*%
X97087500Y-38770000D03*
D11*
%TO.P,U2,25,SOUT*%
%TO.N,Net-(U2-SOUT)*%
X96400000Y-38082500D03*
%TO.P,U2,26,XLAT*%
%TO.N,Net-(U1-9(PWM){slash}A9)*%
X95900000Y-38082500D03*
%TO.P,U2,27,IREF*%
%TO.N,Net-(U2-IREF)*%
X95400000Y-38082500D03*
%TO.P,U2,28,VCC*%
%TO.N,+5V*%
X94900000Y-38082500D03*
%TO.P,U2,29,GND*%
%TO.N,GND*%
X94400000Y-38082500D03*
%TO.P,U2,30,BLANK*%
%TO.N,Net-(U1-6(PWM){slash}A7)*%
X93900000Y-38082500D03*
%TO.P,U2,31,SCLK*%
%TO.N,Net-(U1-5(PWM))*%
X93400000Y-38082500D03*
%TO.P,U2,32,SIN*%
%TO.N,Net-(U1-3(PWM){slash}SCL)*%
X92900000Y-38082500D03*
D12*
%TO.P,U2,33,PowerPAD*%
%TO.N,GND*%
X94650000Y-40520000D03*
%TD*%
D13*
%TO.P,D49,1,K*%
%TO.N,Net-(D49-K)*%
X140550000Y-58520000D03*
D14*
%TO.P,D49,2,A*%
%TO.N,+5V*%
X138275000Y-58520000D03*
%TD*%
D13*
%TO.P,D64,1,K*%
%TO.N,Net-(D64-K)*%
X149550000Y-121520000D03*
D14*
%TO.P,D64,2,A*%
%TO.N,+5V*%
X147275000Y-121520000D03*
%TD*%
D15*
%TO.P,C6,1*%
%TO.N,GND*%
X120875000Y-34520000D03*
%TO.P,C6,2*%
%TO.N,+5V*%
X122425000Y-34520000D03*
%TD*%
D13*
%TO.P,D57,1,K*%
%TO.N,Net-(D57-K)*%
X149550000Y-58520000D03*
D14*
%TO.P,D57,2,A*%
%TO.N,+5V*%
X147275000Y-58520000D03*
%TD*%
D13*
%TO.P,D3,1,K*%
%TO.N,Net-(D3-K)*%
X86550000Y-76520000D03*
D14*
%TO.P,D3,2,A*%
%TO.N,+5V*%
X84275000Y-76520000D03*
%TD*%
D13*
%TO.P,D58,1,K*%
%TO.N,Net-(D58-K)*%
X149550000Y-67520000D03*
D14*
%TO.P,D58,2,A*%
%TO.N,+5V*%
X147275000Y-67520000D03*
%TD*%
D13*
%TO.P,D2,1,K*%
%TO.N,Net-(D2-K)*%
X86550000Y-67520000D03*
D14*
%TO.P,D2,2,A*%
%TO.N,+5V*%
X84275000Y-67520000D03*
%TD*%
D13*
%TO.P,D19,1,K*%
%TO.N,Net-(D19-K)*%
X104550000Y-76520000D03*
D14*
%TO.P,D19,2,A*%
%TO.N,+5V*%
X102275000Y-76520000D03*
%TD*%
D13*
%TO.P,D73,1,K*%
%TO.N,Net-(D73-K)*%
X167550000Y-58520000D03*
D14*
%TO.P,D73,2,A*%
%TO.N,+5V*%
X165275000Y-58520000D03*
%TD*%
D16*
%TO.P,U1,1,MOSI*%
%TO.N,unconnected-(U1-MOSI-Pad1)*%
X49410000Y-94120000D03*
D17*
%TO.P,U1,2,RX_LED/SS*%
%TO.N,unconnected-(U1-RX_LED{slash}SS-Pad2)*%
X49410000Y-96660000D03*
%TO.P,U1,3,1/TX*%
%TO.N,unconnected-(U1-1{slash}TX-Pad3)*%
X49410000Y-99200000D03*
%TO.P,U1,4,0/RX*%
%TO.N,unconnected-(U1-0{slash}RX-Pad4)*%
X49410000Y-101740000D03*
%TO.P,U1,5,RESET*%
%TO.N,unconnected-(U1-RESET-Pad30)*%
X49410000Y-104280000D03*
%TO.P,U1,6,GND*%
%TO.N,GND*%
X49410000Y-106820000D03*
%TO.P,U1,7,2/SDA*%
%TO.N,unconnected-(U1-2{slash}SDA-Pad7)*%
X49410000Y-109360000D03*
%TO.P,U1,8,3(PWM)/SCL*%
%TO.N,Net-(U1-3(PWM){slash}SCL)*%
X49410000Y-111900000D03*
%TO.P,U1,9,4/A6*%
%TO.N,unconnected-(U1-4{slash}A6-Pad9)*%
X49410000Y-114440000D03*
%TO.P,U1,10,5(PWM)*%
%TO.N,Net-(U1-5(PWM))*%
X49410000Y-116980000D03*
%TO.P,U1,11,6(PWM)/A7*%
%TO.N,Net-(U1-6(PWM){slash}A7)*%
X49410000Y-119520000D03*
%TO.P,U1,12,7*%
%TO.N,unconnected-(U1-7-Pad12)*%
X49410000Y-122060000D03*
%TO.P,U1,13,8/A8*%
%TO.N,unconnected-(U1-8{slash}A8-Pad13)*%
X49410000Y-124600000D03*
%TO.P,U1,14,9(PWM)/A9*%
%TO.N,Net-(U1-9(PWM){slash}A9)*%
X49410000Y-127140000D03*
%TO.P,U1,15,10(PWM)/A10*%
%TO.N,unconnected-(U1-10(PWM){slash}A10-Pad15)*%
X49410000Y-129680000D03*
%TO.P,U1,16,11(PWM)*%
%TO.N,unconnected-(U1-11(PWM)-Pad16)*%
X49410000Y-132220000D03*
%TO.P,U1,17,12/A11*%
%TO.N,unconnected-(U1-12{slash}A11-Pad17)*%
X49410000Y-134760000D03*
%TO.P,U1,18,13(PWM)*%
%TO.N,unconnected-(U1-13(PWM)-Pad18)*%
X64650000Y-134760000D03*
%TO.P,U1,19,3.3V*%
%TO.N,unconnected-(U1-3.3V-Pad19)*%
X64650000Y-132220000D03*
%TO.P,U1,20,AREF*%
%TO.N,unconnected-(U1-AREF-Pad20)*%
X64650000Y-129680000D03*
%TO.P,U1,21,A0*%
%TO.N,unconnected-(U1-A0-Pad21)*%
X64650000Y-127140000D03*
%TO.P,U1,22,A1*%
%TO.N,unconnected-(U1-A1-Pad22)*%
X64650000Y-124600000D03*
%TO.P,U1,23,A2*%
%TO.N,unconnected-(U1-A2-Pad23)*%
X64650000Y-122060000D03*
%TO.P,U1,24,A3*%
%TO.N,unconnected-(U1-A3-Pad24)*%
X64650000Y-119520000D03*
%TO.P,U1,25,A4*%
%TO.N,unconnected-(U1-A4-Pad25)*%
X64650000Y-116980000D03*
%TO.P,U1,26,A5*%
%TO.N,unconnected-(U1-A5-Pad26)*%
X64650000Y-114440000D03*
%TO.P,U1,27*%
%TO.N,N/C*%
X64650000Y-111900000D03*
%TO.P,U1,28*%
X64650000Y-109360000D03*
%TO.P,U1,29,+5V*%
%TO.N,+5V*%
X64650000Y-106820000D03*
%TO.P,U1,30,RESET*%
%TO.N,unconnected-(U1-RESET-Pad30)_1*%
X64650000Y-104280000D03*
%TO.P,U1,31,GND*%
%TO.N,GND*%
X64650000Y-101740000D03*
%TO.P,U1,32,VIN*%
%TO.N,unconnected-(U1-VIN-Pad32)*%
X64650000Y-99200000D03*
%TO.P,U1,33,MISO*%
%TO.N,unconnected-(U1-MISO-Pad33)*%
X64650000Y-96660000D03*
%TO.P,U1,34,SCK*%
%TO.N,unconnected-(U1-SCK-Pad34)*%
X64650000Y-94120000D03*
%TD*%
D13*
%TO.P,D24,1,K*%
%TO.N,Net-(D24-K)*%
X104550000Y-121520000D03*
D14*
%TO.P,D24,2,A*%
%TO.N,+5V*%
X102275000Y-121520000D03*
%TD*%
D13*
%TO.P,D26,1,K*%
%TO.N,Net-(D26-K)*%
X113550000Y-67520000D03*
D14*
%TO.P,D26,2,A*%
%TO.N,+5V*%
X111275000Y-67520000D03*
%TD*%
D13*
%TO.P,D52,1,K*%
%TO.N,Net-(D52-K)*%
X140550000Y-85520000D03*
D14*
%TO.P,D52,2,A*%
%TO.N,+5V*%
X138275000Y-85520000D03*
%TD*%
D18*
%TO.P,R6,1*%
%TO.N,GND*%
X151650000Y-33010000D03*
%TO.P,R6,2*%
%TO.N,Net-(U4-IREF)*%
X151650000Y-34030000D03*
%TD*%
D13*
%TO.P,D4,1,K*%
%TO.N,Net-(D4-K)*%
X86550000Y-85520000D03*
D14*
%TO.P,D4,2,A*%
%TO.N,+5V*%
X84275000Y-85520000D03*
%TD*%
D13*
%TO.P,D84,1,K*%
%TO.N,Net-(D84-K)*%
X176550000Y-85520000D03*
D14*
%TO.P,D84,2,A*%
%TO.N,+5V*%
X174275000Y-85520000D03*
%TD*%
D19*
%TO.P,C4,1*%
%TO.N,GND*%
X93700000Y-136520000D03*
%TO.P,C4,2*%
%TO.N,+5V*%
X95600000Y-136520000D03*
%TD*%
D13*
%TO.P,D16,1,K*%
%TO.N,Net-(D16-K)*%
X95550000Y-121520000D03*
D14*
%TO.P,D16,2,A*%
%TO.N,+5V*%
X93275000Y-121520000D03*
%TD*%
D13*
%TO.P,D18,1,K*%
%TO.N,Net-(D18-K)*%
X104550000Y-67520000D03*
D14*
%TO.P,D18,2,A*%
%TO.N,+5V*%
X102275000Y-67520000D03*
%TD*%
D13*
%TO.P,D1,1,K*%
%TO.N,Net-(D1-K)*%
X86550000Y-58520000D03*
D14*
%TO.P,D1,2,A*%
%TO.N,+5V*%
X84275000Y-58520000D03*
%TD*%
D13*
%TO.P,D50,1,K*%
%TO.N,Net-(D50-K)*%
X140550000Y-67520000D03*
D14*
%TO.P,D50,2,A*%
%TO.N,+5V*%
X138275000Y-67520000D03*
%TD*%
D13*
%TO.P,D63,1,K*%
%TO.N,Net-(D63-K)*%
X149550000Y-112520000D03*
D14*
%TO.P,D63,2,A*%
%TO.N,+5V*%
X147275000Y-112520000D03*
%TD*%
D13*
%TO.P,D91,1,K*%
%TO.N,Net-(D91-K)*%
X185550000Y-76520000D03*
D14*
%TO.P,D91,2,A*%
%TO.N,+5V*%
X183275000Y-76520000D03*
%TD*%
D19*
%TO.P,C8,1*%
%TO.N,GND*%
X147700000Y-32520000D03*
%TO.P,C8,2*%
%TO.N,+5V*%
X149600000Y-32520000D03*
%TD*%
D13*
%TO.P,D82,1,K*%
%TO.N,Net-(D82-K)*%
X176550000Y-67520000D03*
D14*
%TO.P,D82,2,A*%
%TO.N,+5V*%
X174275000Y-67520000D03*
%TD*%
D13*
%TO.P,D36,1,K*%
%TO.N,Net-(D36-K)*%
X122550000Y-85520000D03*
D14*
%TO.P,D36,2,A*%
%TO.N,+5V*%
X120275000Y-85520000D03*
%TD*%
D13*
%TO.P,D5,1,K*%
%TO.N,Net-(D5-K)*%
X86550000Y-94520000D03*
D14*
%TO.P,D5,2,A*%
%TO.N,+5V*%
X84275000Y-94520000D03*
%TD*%
D13*
%TO.P,D71,1,K*%
%TO.N,Net-(D71-K)*%
X158550000Y-112520000D03*
D14*
%TO.P,D71,2,A*%
%TO.N,+5V*%
X156275000Y-112520000D03*
%TD*%
D13*
%TO.P,D92,1,K*%
%TO.N,Net-(D92-K)*%
X185550000Y-85520000D03*
D14*
%TO.P,D92,2,A*%
%TO.N,+5V*%
X183275000Y-85520000D03*
%TD*%
D13*
%TO.P,D78,1,K*%
%TO.N,Net-(D78-K)*%
X167550000Y-103520000D03*
D14*
%TO.P,D78,2,A*%
%TO.N,+5V*%
X165275000Y-103520000D03*
%TD*%
D13*
%TO.P,D59,1,K*%
%TO.N,Net-(D59-K)*%
X149550000Y-76520000D03*
D14*
%TO.P,D59,2,A*%
%TO.N,+5V*%
X147275000Y-76520000D03*
%TD*%
D13*
%TO.P,D37,1,K*%
%TO.N,Net-(D37-K)*%
X122550000Y-94520000D03*
D14*
%TO.P,D37,2,A*%
%TO.N,+5V*%
X120275000Y-94520000D03*
%TD*%
D13*
%TO.P,D96,1,K*%
%TO.N,Net-(D96-K)*%
X185550000Y-121520000D03*
D14*
%TO.P,D96,2,A*%
%TO.N,+5V*%
X183275000Y-121520000D03*
%TD*%
D13*
%TO.P,D95,1,K*%
%TO.N,Net-(D95-K)*%
X185550000Y-112520000D03*
D14*
%TO.P,D95,2,A*%
%TO.N,+5V*%
X183275000Y-112520000D03*
%TD*%
D19*
%TO.P,C2,1*%
%TO.N,GND*%
X93700000Y-32520000D03*
%TO.P,C2,2*%
%TO.N,+5V*%
X95600000Y-32520000D03*
%TD*%
D18*
%TO.P,R4,1*%
%TO.N,GND*%
X124650000Y-33010000D03*
%TO.P,R4,2*%
%TO.N,Net-(U3-IREF)*%
X124650000Y-34030000D03*
%TD*%
D19*
%TO.P,C13,1*%
%TO.N,GND*%
X174700000Y-136520000D03*
%TO.P,C13,2*%
%TO.N,+5V*%
X176600000Y-136520000D03*
%TD*%
D13*
%TO.P,D17,1,K*%
%TO.N,Net-(D17-K)*%
X104550000Y-58520000D03*
D14*
%TO.P,D17,2,A*%
%TO.N,+5V*%
X102275000Y-58520000D03*
%TD*%
D13*
%TO.P,D85,1,K*%
%TO.N,Net-(D85-K)*%
X176550000Y-94520000D03*
D14*
%TO.P,D85,2,A*%
%TO.N,+5V*%
X174275000Y-94520000D03*
%TD*%
D13*
%TO.P,D47,1,K*%
%TO.N,Net-(D47-K)*%
X131550000Y-112520000D03*
D14*
%TO.P,D47,2,A*%
%TO.N,+5V*%
X129275000Y-112520000D03*
%TD*%
D10*
%TO.P,U4,1,OUT0*%
%TO.N,Net-(D49-K)*%
X146212500Y-38770000D03*
%TO.P,U4,2,OUT1*%
%TO.N,Net-(D50-K)*%
X146212500Y-39270000D03*
%TO.P,U4,3,OUT2*%
%TO.N,Net-(D51-K)*%
X146212500Y-39770000D03*
%TO.P,U4,4,OUT3*%
%TO.N,Net-(D52-K)*%
X146212500Y-40270000D03*
%TO.P,U4,5,OUT4*%
%TO.N,Net-(D53-K)*%
X146212500Y-40770000D03*
%TO.P,U4,6,OUT5*%
%TO.N,Net-(D54-K)*%
X146212500Y-41270000D03*
%TO.P,U4,7,OUT6*%
%TO.N,Net-(D55-K)*%
X146212500Y-41770000D03*
%TO.P,U4,8,OUT7*%
%TO.N,Net-(D56-K)*%
X146212500Y-42270000D03*
D11*
%TO.P,U4,9,OUT8*%
%TO.N,Net-(D57-K)*%
X146900000Y-42957500D03*
%TO.P,U4,10,OUT9*%
%TO.N,Net-(D58-K)*%
X147400000Y-42957500D03*
%TO.P,U4,11,OUT10*%
%TO.N,Net-(D59-K)*%
X147900000Y-42957500D03*
%TO.P,U4,12,OUT11*%
%TO.N,Net-(D60-K)*%
X148400000Y-42957500D03*
%TO.P,U4,13,OUT12*%
%TO.N,Net-(D61-K)*%
X148900000Y-42957500D03*
%TO.P,U4,14,OUT13*%
%TO.N,Net-(D62-K)*%
X149400000Y-42957500D03*
%TO.P,U4,15,OUT14*%
%TO.N,Net-(D63-K)*%
X149900000Y-42957500D03*
%TO.P,U4,16,OUT15*%
%TO.N,Net-(D64-K)*%
X150400000Y-42957500D03*
D10*
%TO.P,U4,17,OUT16*%
%TO.N,Net-(D65-K)*%
X151087500Y-42270000D03*
%TO.P,U4,18,OUT17*%
%TO.N,Net-(D66-K)*%
X151087500Y-41770000D03*
%TO.P,U4,19,OUT18*%
%TO.N,Net-(D67-K)*%
X151087500Y-41270000D03*
%TO.P,U4,20,OUT19*%
%TO.N,Net-(D68-K)*%
X151087500Y-40770000D03*
%TO.P,U4,21,OUT20*%
%TO.N,Net-(D69-K)*%
X151087500Y-40270000D03*
%TO.P,U4,22,OUT21*%
%TO.N,Net-(D70-K)*%
X151087500Y-39770000D03*
%TO.P,U4,23,OUT22*%
%TO.N,Net-(D71-K)*%
X151087500Y-39270000D03*
%TO.P,U4,24,OUT23*%
%TO.N,Net-(D72-K)*%
X151087500Y-38770000D03*
D11*
%TO.P,U4,25,SOUT*%
%TO.N,Net-(U4-SOUT)*%
X150400000Y-38082500D03*
%TO.P,U4,26,XLAT*%
%TO.N,Net-(U1-9(PWM){slash}A9)*%
X149900000Y-38082500D03*
%TO.P,U4,27,IREF*%
%TO.N,Net-(U4-IREF)*%
X149400000Y-38082500D03*
%TO.P,U4,28,VCC*%
%TO.N,+5V*%
X148900000Y-38082500D03*
%TO.P,U4,29,GND*%
%TO.N,GND*%
X148400000Y-38082500D03*
%TO.P,U4,30,BLANK*%
%TO.N,Net-(U1-6(PWM){slash}A7)*%
X147900000Y-38082500D03*
%TO.P,U4,31,SCLK*%
%TO.N,Net-(U1-5(PWM))*%
X147400000Y-38082500D03*
%TO.P,U4,32,SIN*%
%TO.N,Net-(U3-SOUT)*%
X146900000Y-38082500D03*
D12*
%TO.P,U4,33,PowerPAD*%
%TO.N,GND*%
X148650000Y-40520000D03*
%TD*%
D13*
%TO.P,D43,1,K*%
%TO.N,Net-(D43-K)*%
X131550000Y-76520000D03*
D14*
%TO.P,D43,2,A*%
%TO.N,+5V*%
X129275000Y-76520000D03*
%TD*%
D13*
%TO.P,D29,1,K*%
%TO.N,Net-(D29-K)*%
X113550000Y-94520000D03*
D14*
%TO.P,D29,2,A*%
%TO.N,+5V*%
X111275000Y-94520000D03*
%TD*%
D19*
%TO.P,C11,1*%
%TO.N,GND*%
X174700000Y-32520000D03*
%TO.P,C11,2*%
%TO.N,+5V*%
X176600000Y-32520000D03*
%TD*%
D13*
%TO.P,D65,1,K*%
%TO.N,Net-(D65-K)*%
X158550000Y-58520000D03*
D14*
%TO.P,D65,2,A*%
%TO.N,+5V*%
X156275000Y-58520000D03*
%TD*%
D15*
%TO.P,C9,1*%
%TO.N,GND*%
X147875000Y-34520000D03*
%TO.P,C9,2*%
%TO.N,+5V*%
X149425000Y-34520000D03*
%TD*%
D19*
%TO.P,C7,1*%
%TO.N,GND*%
X120700000Y-136520000D03*
%TO.P,C7,2*%
%TO.N,+5V*%
X122600000Y-136520000D03*
%TD*%
D13*
%TO.P,D55,1,K*%
%TO.N,Net-(D55-K)*%
X140550000Y-112520000D03*
D14*
%TO.P,D55,2,A*%
%TO.N,+5V*%
X138275000Y-112520000D03*
%TD*%
D13*
%TO.P,D72,1,K*%
%TO.N,Net-(D72-K)*%
X158550000Y-121520000D03*
D14*
%TO.P,D72,2,A*%
%TO.N,+5V*%
X156275000Y-121520000D03*
%TD*%
D13*
%TO.P,D25,1,K*%
%TO.N,Net-(D25-K)*%
X113550000Y-58520000D03*
D14*
%TO.P,D25,2,A*%
%TO.N,+5V*%
X111275000Y-58520000D03*
%TD*%
D13*
%TO.P,D75,1,K*%
%TO.N,Net-(D75-K)*%
X167550000Y-76520000D03*
D14*
%TO.P,D75,2,A*%
%TO.N,+5V*%
X165275000Y-76520000D03*
%TD*%
D13*
%TO.P,D10,1,K*%
%TO.N,Net-(D10-K)*%
X95550000Y-67520000D03*
D14*
%TO.P,D10,2,A*%
%TO.N,+5V*%
X93275000Y-67520000D03*
%TD*%
D13*
%TO.P,D51,1,K*%
%TO.N,Net-(D51-K)*%
X140550000Y-76520000D03*
D14*
%TO.P,D51,2,A*%
%TO.N,+5V*%
X138275000Y-76520000D03*
%TD*%
D10*
%TO.P,U5,1,OUT0*%
%TO.N,Net-(D73-K)*%
X173212500Y-38770000D03*
%TO.P,U5,2,OUT1*%
%TO.N,Net-(D74-K)*%
X173212500Y-39270000D03*
%TO.P,U5,3,OUT2*%
%TO.N,Net-(D75-K)*%
X173212500Y-39770000D03*
%TO.P,U5,4,OUT3*%
%TO.N,Net-(D76-K)*%
X173212500Y-40270000D03*
%TO.P,U5,5,OUT4*%
%TO.N,Net-(D77-K)*%
X173212500Y-40770000D03*
%TO.P,U5,6,OUT5*%
%TO.N,Net-(D78-K)*%
X173212500Y-41270000D03*
%TO.P,U5,7,OUT6*%
%TO.N,Net-(D79-K)*%
X173212500Y-41770000D03*
%TO.P,U5,8,OUT7*%
%TO.N,Net-(D80-K)*%
X173212500Y-42270000D03*
D11*
%TO.P,U5,9,OUT8*%
%TO.N,Net-(D81-K)*%
X173900000Y-42957500D03*
%TO.P,U5,10,OUT9*%
%TO.N,Net-(D82-K)*%
X174400000Y-42957500D03*
%TO.P,U5,11,OUT10*%
%TO.N,Net-(D83-K)*%
X174900000Y-42957500D03*
%TO.P,U5,12,OUT11*%
%TO.N,Net-(D84-K)*%
X175400000Y-42957500D03*
%TO.P,U5,13,OUT12*%
%TO.N,Net-(D85-K)*%
X175900000Y-42957500D03*
%TO.P,U5,14,OUT13*%
%TO.N,Net-(D86-K)*%
X176400000Y-42957500D03*
%TO.P,U5,15,OUT14*%
%TO.N,Net-(D87-K)*%
X176900000Y-42957500D03*
%TO.P,U5,16,OUT15*%
%TO.N,Net-(D88-K)*%
X177400000Y-42957500D03*
D10*
%TO.P,U5,17,OUT16*%
%TO.N,Net-(D89-K)*%
X178087500Y-42270000D03*
%TO.P,U5,18,OUT17*%
%TO.N,Net-(D90-K)*%
X178087500Y-41770000D03*
%TO.P,U5,19,OUT18*%
%TO.N,Net-(D91-K)*%
X178087500Y-41270000D03*
%TO.P,U5,20,OUT19*%
%TO.N,Net-(D92-K)*%
X178087500Y-40770000D03*
%TO.P,U5,21,OUT20*%
%TO.N,Net-(D93-K)*%
X178087500Y-40270000D03*
%TO.P,U5,22,OUT21*%
%TO.N,Net-(D94-K)*%
X178087500Y-39770000D03*
%TO.P,U5,23,OUT22*%
%TO.N,Net-(D95-K)*%
X178087500Y-39270000D03*
%TO.P,U5,24,OUT23*%
%TO.N,Net-(D96-K)*%
X178087500Y-38770000D03*
D11*
%TO.P,U5,25,SOUT*%
%TO.N,unconnected-(U5-SOUT-Pad25)*%
X177400000Y-38082500D03*
%TO.P,U5,26,XLAT*%
%TO.N,Net-(U1-9(PWM){slash}A9)*%
X176900000Y-38082500D03*
%TO.P,U5,27,IREF*%
%TO.N,Net-(U5-IREF)*%
X176400000Y-38082500D03*
%TO.P,U5,28,VCC*%
%TO.N,+5V*%
X175900000Y-38082500D03*
%TO.P,U5,29,GND*%
%TO.N,GND*%
X175400000Y-38082500D03*
%TO.P,U5,30,BLANK*%
%TO.N,Net-(U1-6(PWM){slash}A7)*%
X174900000Y-38082500D03*
%TO.P,U5,31,SCLK*%
%TO.N,Net-(U1-5(PWM))*%
X174400000Y-38082500D03*
%TO.P,U5,32,SIN*%
%TO.N,Net-(U4-SOUT)*%
X173900000Y-38082500D03*
D12*
%TO.P,U5,33,PowerPAD*%
%TO.N,GND*%
X175650000Y-40520000D03*
%TD*%
D13*
%TO.P,D32,1,K*%
%TO.N,Net-(D32-K)*%
X113550000Y-121520000D03*
D14*
%TO.P,D32,2,A*%
%TO.N,+5V*%
X111275000Y-121520000D03*
%TD*%
D13*
%TO.P,D79,1,K*%
%TO.N,Net-(D79-K)*%
X167550000Y-112520000D03*
D14*
%TO.P,D79,2,A*%
%TO.N,+5V*%
X165275000Y-112520000D03*
%TD*%
D18*
%TO.P,R8,1*%
%TO.N,GND*%
X178650000Y-33010000D03*
%TO.P,R8,2*%
%TO.N,Net-(U5-IREF)*%
X178650000Y-34030000D03*
%TD*%
D13*
%TO.P,D69,1,K*%
%TO.N,Net-(D69-K)*%
X158550000Y-94520000D03*
D14*
%TO.P,D69,2,A*%
%TO.N,+5V*%
X156275000Y-94520000D03*
%TD*%
D13*
%TO.P,D62,1,K*%
%TO.N,Net-(D62-K)*%
X149550000Y-103520000D03*
D14*
%TO.P,D62,2,A*%
%TO.N,+5V*%
X147275000Y-103520000D03*
%TD*%
D20*
%TO.P,C3,1*%
%TO.N,+5V*%
X59125000Y-44520000D03*
%TO.P,C3,2*%
%TO.N,GND*%
X56175000Y-44520000D03*
%TD*%
D13*
%TO.P,D70,1,K*%
%TO.N,Net-(D70-K)*%
X158550000Y-103520000D03*
D14*
%TO.P,D70,2,A*%
%TO.N,+5V*%
X156275000Y-103520000D03*
%TD*%
D13*
%TO.P,D45,1,K*%
%TO.N,Net-(D45-K)*%
X131550000Y-94520000D03*
D14*
%TO.P,D45,2,A*%
%TO.N,+5V*%
X129275000Y-94520000D03*
%TD*%
D13*
%TO.P,D44,1,K*%
%TO.N,Net-(D44-K)*%
X131550000Y-85520000D03*
D14*
%TO.P,D44,2,A*%
%TO.N,+5V*%
X129275000Y-85520000D03*
%TD*%
D13*
%TO.P,D83,1,K*%
%TO.N,Net-(D83-K)*%
X176550000Y-76520000D03*
D14*
%TO.P,D83,2,A*%
%TO.N,+5V*%
X174275000Y-76520000D03*
%TD*%
D13*
%TO.P,D87,1,K*%
%TO.N,Net-(D87-K)*%
X176550000Y-112520000D03*
D14*
%TO.P,D87,2,A*%
%TO.N,+5V*%
X174275000Y-112520000D03*
%TD*%
D13*
%TO.P,D7,1,K*%
%TO.N,Net-(D7-K)*%
X86550000Y-112520000D03*
D14*
%TO.P,D7,2,A*%
%TO.N,+5V*%
X84275000Y-112520000D03*
%TD*%
D13*
%TO.P,D89,1,K*%
%TO.N,Net-(D89-K)*%
X185550000Y-58520000D03*
D14*
%TO.P,D89,2,A*%
%TO.N,+5V*%
X183275000Y-58520000D03*
%TD*%
D13*
%TO.P,D27,1,K*%
%TO.N,Net-(D27-K)*%
X113550000Y-76520000D03*
D14*
%TO.P,D27,2,A*%
%TO.N,+5V*%
X111275000Y-76520000D03*
%TD*%
D13*
%TO.P,D94,1,K*%
%TO.N,Net-(D94-K)*%
X185550000Y-103520000D03*
D14*
%TO.P,D94,2,A*%
%TO.N,+5V*%
X183275000Y-103520000D03*
%TD*%
D13*
%TO.P,D56,1,K*%
%TO.N,Net-(D56-K)*%
X140550000Y-121520000D03*
D14*
%TO.P,D56,2,A*%
%TO.N,+5V*%
X138275000Y-121520000D03*
%TD*%
D13*
%TO.P,D46,1,K*%
%TO.N,Net-(D46-K)*%
X131550000Y-103520000D03*
D14*
%TO.P,D46,2,A*%
%TO.N,+5V*%
X129275000Y-103520000D03*
%TD*%
D13*
%TO.P,D23,1,K*%
%TO.N,Net-(D23-K)*%
X104550000Y-112520000D03*
D14*
%TO.P,D23,2,A*%
%TO.N,+5V*%
X102275000Y-112520000D03*
%TD*%
D19*
%TO.P,C10,1*%
%TO.N,GND*%
X147700000Y-136520000D03*
%TO.P,C10,2*%
%TO.N,+5V*%
X149600000Y-136520000D03*
%TD*%
D13*
%TO.P,D61,1,K*%
%TO.N,Net-(D61-K)*%
X149550000Y-94520000D03*
D14*
%TO.P,D61,2,A*%
%TO.N,+5V*%
X147275000Y-94520000D03*
%TD*%
D13*
%TO.P,D90,1,K*%
%TO.N,Net-(D90-K)*%
X185550000Y-67520000D03*
D14*
%TO.P,D90,2,A*%
%TO.N,+5V*%
X183275000Y-67520000D03*
%TD*%
D13*
%TO.P,D11,1,K*%
%TO.N,Net-(D11-K)*%
X95550000Y-76520000D03*
D14*
%TO.P,D11,2,A*%
%TO.N,+5V*%
X93275000Y-76520000D03*
%TD*%
D13*
%TO.P,D81,1,K*%
%TO.N,Net-(D81-K)*%
X176550000Y-58520000D03*
D14*
%TO.P,D81,2,A*%
%TO.N,+5V*%
X174275000Y-58520000D03*
%TD*%
D13*
%TO.P,D34,1,K*%
%TO.N,Net-(D34-K)*%
X122550000Y-67520000D03*
D14*
%TO.P,D34,2,A*%
%TO.N,+5V*%
X120275000Y-67520000D03*
%TD*%
D13*
%TO.P,D42,1,K*%
%TO.N,Net-(D42-K)*%
X131550000Y-67520000D03*
D14*
%TO.P,D42,2,A*%
%TO.N,+5V*%
X129275000Y-67520000D03*
%TD*%
D15*
%TO.P,C1,1*%
%TO.N,GND*%
X93875000Y-34520000D03*
%TO.P,C1,2*%
%TO.N,+5V*%
X95425000Y-34520000D03*
%TD*%
D13*
%TO.P,D60,1,K*%
%TO.N,Net-(D60-K)*%
X149550000Y-85520000D03*
D14*
%TO.P,D60,2,A*%
%TO.N,+5V*%
X147275000Y-85520000D03*
%TD*%
D13*
%TO.P,D53,1,K*%
%TO.N,Net-(D53-K)*%
X140550000Y-94520000D03*
D14*
%TO.P,D53,2,A*%
%TO.N,+5V*%
X138275000Y-94520000D03*
%TD*%
D13*
%TO.P,D6,1,K*%
%TO.N,Net-(D6-K)*%
X86550000Y-103520000D03*
D14*
%TO.P,D6,2,A*%
%TO.N,+5V*%
X84275000Y-103520000D03*
%TD*%
D19*
%TO.P,C5,1*%
%TO.N,GND*%
X120700000Y-32520000D03*
%TO.P,C5,2*%
%TO.N,+5V*%
X122600000Y-32520000D03*
%TD*%
D13*
%TO.P,D40,1,K*%
%TO.N,Net-(D40-K)*%
X122550000Y-121520000D03*
D14*
%TO.P,D40,2,A*%
%TO.N,+5V*%
X120275000Y-121520000D03*
%TD*%
D13*
%TO.P,D30,1,K*%
%TO.N,Net-(D30-K)*%
X113550000Y-103520000D03*
D14*
%TO.P,D30,2,A*%
%TO.N,+5V*%
X111275000Y-103520000D03*
%TD*%
D13*
%TO.P,D77,1,K*%
%TO.N,Net-(D77-K)*%
X167550000Y-94520000D03*
D14*
%TO.P,D77,2,A*%
%TO.N,+5V*%
X165275000Y-94520000D03*
%TD*%
D13*
%TO.P,D38,1,K*%
%TO.N,Net-(D38-K)*%
X122550000Y-103520000D03*
D14*
%TO.P,D38,2,A*%
%TO.N,+5V*%
X120275000Y-103520000D03*
%TD*%
D13*
%TO.P,D93,1,K*%
%TO.N,Net-(D93-K)*%
X185550000Y-94520000D03*
D14*
%TO.P,D93,2,A*%
%TO.N,+5V*%
X183275000Y-94520000D03*
%TD*%
D13*
%TO.P,D12,1,K*%
%TO.N,Net-(D12-K)*%
X95550000Y-85520000D03*
D14*
%TO.P,D12,2,A*%
%TO.N,+5V*%
X93275000Y-85520000D03*
%TD*%
D13*
%TO.P,D21,1,K*%
%TO.N,Net-(D21-K)*%
X104550000Y-94520000D03*
D14*
%TO.P,D21,2,A*%
%TO.N,+5V*%
X102275000Y-94520000D03*
%TD*%
D13*
%TO.P,D33,1,K*%
%TO.N,Net-(D33-K)*%
X122550000Y-58520000D03*
D14*
%TO.P,D33,2,A*%
%TO.N,+5V*%
X120275000Y-58520000D03*
%TD*%
D13*
%TO.P,D9,1,K*%
%TO.N,Net-(D9-K)*%
X95550000Y-58520000D03*
D14*
%TO.P,D9,2,A*%
%TO.N,+5V*%
X93275000Y-58520000D03*
%TD*%
D13*
%TO.P,D8,1,K*%
%TO.N,Net-(D8-K)*%
X86550000Y-121520000D03*
D14*
%TO.P,D8,2,A*%
%TO.N,+5V*%
X84275000Y-121520000D03*
%TD*%
D21*
%TO.P,R2,1*%
%TO.N,+5V*%
X68150000Y-116870000D03*
%TO.P,R2,2*%
%TO.N,Net-(U1-6(PWM){slash}A7)*%
X68150000Y-118520000D03*
%TD*%
D18*
%TO.P,R1,1*%
%TO.N,GND*%
X97650000Y-33520000D03*
%TO.P,R1,2*%
%TO.N,Net-(U2-IREF)*%
X97650000Y-34540000D03*
%TD*%
D22*
%TO.P,J1,PIN*%
%TO.N,+5V*%
X60900000Y-35293750D03*
D23*
%TO.P,J1,SHUNT*%
%TO.N,unconnected-(J1-PadSHUNT)*%
X57900000Y-40093750D03*
D24*
%TO.P,J1,SLEEVE*%
%TO.N,GND*%
X54650000Y-35293750D03*
%TD*%
D13*
%TO.P,D14,1,K*%
%TO.N,Net-(D14-K)*%
X95550000Y-103520000D03*
D14*
%TO.P,D14,2,A*%
%TO.N,+5V*%
X93275000Y-103520000D03*
%TD*%
D15*
%TO.P,C12,1*%
%TO.N,GND*%
X174875000Y-34520000D03*
%TO.P,C12,2*%
%TO.N,+5V*%
X176425000Y-34520000D03*
%TD*%
D13*
%TO.P,D76,1,K*%
%TO.N,Net-(D76-K)*%
X167550000Y-85520000D03*
D14*
%TO.P,D76,2,A*%
%TO.N,+5V*%
X165275000Y-85520000D03*
%TD*%
D13*
%TO.P,D20,1,K*%
%TO.N,Net-(D20-K)*%
X104550000Y-85520000D03*
D14*
%TO.P,D20,2,A*%
%TO.N,+5V*%
X102275000Y-85520000D03*
%TD*%
D13*
%TO.P,D66,1,K*%
%TO.N,Net-(D66-K)*%
X158550000Y-67520000D03*
D14*
%TO.P,D66,2,A*%
%TO.N,+5V*%
X156275000Y-67520000D03*
%TD*%
D13*
%TO.P,D80,1,K*%
%TO.N,Net-(D80-K)*%
X167550000Y-121520000D03*
D14*
%TO.P,D80,2,A*%
%TO.N,+5V*%
X165275000Y-121520000D03*
%TD*%
D13*
%TO.P,D68,1,K*%
%TO.N,Net-(D68-K)*%
X158550000Y-85520000D03*
D14*
%TO.P,D68,2,A*%
%TO.N,+5V*%
X156275000Y-85520000D03*
%TD*%
D13*
%TO.P,D41,1,K*%
%TO.N,Net-(D41-K)*%
X131550000Y-58520000D03*
D14*
%TO.P,D41,2,A*%
%TO.N,+5V*%
X129275000Y-58520000D03*
%TD*%
D10*
%TO.P,U3,1,OUT0*%
%TO.N,Net-(D25-K)*%
X119212500Y-38770000D03*
%TO.P,U3,2,OUT1*%
%TO.N,Net-(D26-K)*%
X119212500Y-39270000D03*
%TO.P,U3,3,OUT2*%
%TO.N,Net-(D27-K)*%
X119212500Y-39770000D03*
%TO.P,U3,4,OUT3*%
%TO.N,Net-(D28-K)*%
X119212500Y-40270000D03*
%TO.P,U3,5,OUT4*%
%TO.N,Net-(D29-K)*%
X119212500Y-40770000D03*
%TO.P,U3,6,OUT5*%
%TO.N,Net-(D30-K)*%
X119212500Y-41270000D03*
%TO.P,U3,7,OUT6*%
%TO.N,Net-(D31-K)*%
X119212500Y-41770000D03*
%TO.P,U3,8,OUT7*%
%TO.N,Net-(D32-K)*%
X119212500Y-42270000D03*
D11*
%TO.P,U3,9,OUT8*%
%TO.N,Net-(D33-K)*%
X119900000Y-42957500D03*
%TO.P,U3,10,OUT9*%
%TO.N,Net-(D34-K)*%
X120400000Y-42957500D03*
%TO.P,U3,11,OUT10*%
%TO.N,Net-(D35-K)*%
X120900000Y-42957500D03*
%TO.P,U3,12,OUT11*%
%TO.N,Net-(D36-K)*%
X121400000Y-42957500D03*
%TO.P,U3,13,OUT12*%
%TO.N,Net-(D37-K)*%
X121900000Y-42957500D03*
%TO.P,U3,14,OUT13*%
%TO.N,Net-(D38-K)*%
X122400000Y-42957500D03*
%TO.P,U3,15,OUT14*%
%TO.N,Net-(D39-K)*%
X122900000Y-42957500D03*
%TO.P,U3,16,OUT15*%
%TO.N,Net-(D40-K)*%
X123400000Y-42957500D03*
D10*
%TO.P,U3,17,OUT16*%
%TO.N,Net-(D41-K)*%
X124087500Y-42270000D03*
%TO.P,U3,18,OUT17*%
%TO.N,Net-(D42-K)*%
X124087500Y-41770000D03*
%TO.P,U3,19,OUT18*%
%TO.N,Net-(D43-K)*%
X124087500Y-41270000D03*
%TO.P,U3,20,OUT19*%
%TO.N,Net-(D44-K)*%
X124087500Y-40770000D03*
%TO.P,U3,21,OUT20*%
%TO.N,Net-(D45-K)*%
X124087500Y-40270000D03*
%TO.P,U3,22,OUT21*%
%TO.N,Net-(D46-K)*%
X124087500Y-39770000D03*
%TO.P,U3,23,OUT22*%
%TO.N,Net-(D47-K)*%
X124087500Y-39270000D03*
%TO.P,U3,24,OUT23*%
%TO.N,Net-(D48-K)*%
X124087500Y-38770000D03*
D11*
%TO.P,U3,25,SOUT*%
%TO.N,Net-(U3-SOUT)*%
X123400000Y-38082500D03*
%TO.P,U3,26,XLAT*%
%TO.N,Net-(U1-9(PWM){slash}A9)*%
X122900000Y-38082500D03*
%TO.P,U3,27,IREF*%
%TO.N,Net-(U3-IREF)*%
X122400000Y-38082500D03*
%TO.P,U3,28,VCC*%
%TO.N,+5V*%
X121900000Y-38082500D03*
%TO.P,U3,29,GND*%
%TO.N,GND*%
X121400000Y-38082500D03*
%TO.P,U3,30,BLANK*%
%TO.N,Net-(U1-6(PWM){slash}A7)*%
X120900000Y-38082500D03*
%TO.P,U3,31,SCLK*%
%TO.N,Net-(U1-5(PWM))*%
X120400000Y-38082500D03*
%TO.P,U3,32,SIN*%
%TO.N,Net-(U2-SOUT)*%
X119900000Y-38082500D03*
D12*
%TO.P,U3,33,PowerPAD*%
%TO.N,GND*%
X121650000Y-40520000D03*
%TD*%
D13*
%TO.P,D88,1,K*%
%TO.N,Net-(D88-K)*%
X176550000Y-121520000D03*
D14*
%TO.P,D88,2,A*%
%TO.N,+5V*%
X174275000Y-121520000D03*
%TD*%
D13*
%TO.P,D86,1,K*%
%TO.N,Net-(D86-K)*%
X176550000Y-103520000D03*
D14*
%TO.P,D86,2,A*%
%TO.N,+5V*%
X174275000Y-103520000D03*
%TD*%
D13*
%TO.P,D48,1,K*%
%TO.N,Net-(D48-K)*%
X131550000Y-121520000D03*
D14*
%TO.P,D48,2,A*%
%TO.N,+5V*%
X129275000Y-121520000D03*
%TD*%
D13*
%TO.P,D28,1,K*%
%TO.N,Net-(D28-K)*%
X113550000Y-85520000D03*
D14*
%TO.P,D28,2,A*%
%TO.N,+5V*%
X111275000Y-85520000D03*
%TD*%
D13*
%TO.P,D22,1,K*%
%TO.N,Net-(D22-K)*%
X104550000Y-103520000D03*
D14*
%TO.P,D22,2,A*%
%TO.N,+5V*%
X102275000Y-103520000D03*
%TD*%
D13*
%TO.P,D67,1,K*%
%TO.N,Net-(D67-K)*%
X158550000Y-76520000D03*
D14*
%TO.P,D67,2,A*%
%TO.N,+5V*%
X156275000Y-76520000D03*
%TD*%
D13*
%TO.P,D54,1,K*%
%TO.N,Net-(D54-K)*%
X140550000Y-103520000D03*
D14*
%TO.P,D54,2,A*%
%TO.N,+5V*%
X138275000Y-103520000D03*
%TD*%
D13*
%TO.P,D39,1,K*%
%TO.N,Net-(D39-K)*%
X122550000Y-112520000D03*
D14*
%TO.P,D39,2,A*%
%TO.N,+5V*%
X120275000Y-112520000D03*
%TD*%
D13*
%TO.P,D13,1,K*%
%TO.N,Net-(D13-K)*%
X95550000Y-94520000D03*
D14*
%TO.P,D13,2,A*%
%TO.N,+5V*%
X93275000Y-94520000D03*
%TD*%
D13*
%TO.P,D31,1,K*%
%TO.N,Net-(D31-K)*%
X113550000Y-112520000D03*
D14*
%TO.P,D31,2,A*%
%TO.N,+5V*%
X111275000Y-112520000D03*
%TD*%
D13*
%TO.P,D74,1,K*%
%TO.N,Net-(D74-K)*%
X167550000Y-67520000D03*
D14*
%TO.P,D74,2,A*%
%TO.N,+5V*%
X165275000Y-67520000D03*
%TD*%
D13*
%TO.P,D35,1,K*%
%TO.N,Net-(D35-K)*%
X122550000Y-76520000D03*
D14*
%TO.P,D35,2,A*%
%TO.N,+5V*%
X120275000Y-76520000D03*
%TD*%
D13*
%TO.P,D15,1,K*%
%TO.N,Net-(D15-K)*%
X95550000Y-112520000D03*
D14*
%TO.P,D15,2,A*%
%TO.N,+5V*%
X93275000Y-112520000D03*
%TD*%
D25*
%TO.N,GND*%
X175650000Y-40520000D03*
X174650000Y-40520000D03*
X174650000Y-41520000D03*
X175650000Y-41520000D03*
X176650000Y-41520000D03*
X176650000Y-40520000D03*
X176650000Y-39520000D03*
X175650000Y-39520000D03*
X174650000Y-39520000D03*
X148650000Y-40520000D03*
X147650000Y-40520000D03*
X147650000Y-41520000D03*
X148650000Y-41520000D03*
X149650000Y-41520000D03*
X149650000Y-40520000D03*
X149650000Y-39520000D03*
X148650000Y-39520000D03*
X147650000Y-39520000D03*
X121650000Y-40520000D03*
X121650000Y-39520000D03*
X120650000Y-40520000D03*
X120650000Y-41520000D03*
X121650000Y-41520000D03*
X122650000Y-41520000D03*
X122650000Y-40520000D03*
X122650000Y-39520000D03*
X120650000Y-39520000D03*
%TO.N,+5V*%
X165650000Y-82520000D03*
X122650000Y-30520000D03*
X174650000Y-73520000D03*
X111650000Y-118520000D03*
X129650000Y-100520000D03*
X84650000Y-82520000D03*
X102650000Y-82520000D03*
X165650000Y-73520000D03*
X111650000Y-55520000D03*
X138650000Y-55520000D03*
X68650000Y-114520000D03*
X174650000Y-64520000D03*
X84650000Y-64520000D03*
X120650000Y-64520000D03*
X138650000Y-109520000D03*
X120650000Y-118520000D03*
X183650000Y-73520000D03*
X129650000Y-91520000D03*
X120650000Y-82520000D03*
X156650000Y-55520000D03*
X84650000Y-118520000D03*
X165650000Y-55520000D03*
X178650000Y-136520000D03*
X129650000Y-55520000D03*
X165650000Y-109520000D03*
X165650000Y-100520000D03*
X183650000Y-100520000D03*
X138650000Y-100520000D03*
X147650000Y-64520000D03*
X174650000Y-109520000D03*
X93650000Y-100520000D03*
X93650000Y-82520000D03*
X84650000Y-100520000D03*
X102650000Y-73520000D03*
X183650000Y-64520000D03*
X61650000Y-44520000D03*
X84650000Y-73520000D03*
X93650000Y-64520000D03*
X102650000Y-91520000D03*
X156650000Y-82520000D03*
X95650000Y-30640000D03*
X97650000Y-136520000D03*
X93650000Y-55520000D03*
X102650000Y-64520000D03*
X174650000Y-82520000D03*
X183650000Y-91520000D03*
X176650000Y-30520000D03*
X174650000Y-91520000D03*
X147650000Y-118520000D03*
X147650000Y-109520000D03*
X120650000Y-73520000D03*
X111650000Y-73520000D03*
X120650000Y-91520000D03*
X129650000Y-73520000D03*
X111650000Y-100520000D03*
X93650000Y-109520000D03*
X183650000Y-109520000D03*
X165650000Y-118520000D03*
X111650000Y-82520000D03*
X102650000Y-118520000D03*
X138650000Y-91520000D03*
X120650000Y-55520000D03*
X93650000Y-91520000D03*
X84650000Y-55520000D03*
X138650000Y-73520000D03*
X156650000Y-64520000D03*
X111650000Y-64520000D03*
X183650000Y-55520000D03*
X102650000Y-109520000D03*
X138650000Y-64520000D03*
X111650000Y-91520000D03*
X156650000Y-100520000D03*
X84650000Y-91520000D03*
X120650000Y-109520000D03*
X129650000Y-109520000D03*
X129650000Y-118520000D03*
X138650000Y-118520000D03*
X156650000Y-118520000D03*
X165650000Y-64520000D03*
X102650000Y-55520000D03*
X93650000Y-73520000D03*
X165650000Y-91520000D03*
X156650000Y-109520000D03*
X147650000Y-73520000D03*
X147650000Y-100520000D03*
X151650000Y-136520000D03*
X149650000Y-30520000D03*
X147650000Y-82520000D03*
X93650000Y-118520000D03*
X156650000Y-73520000D03*
X147650000Y-55520000D03*
X129650000Y-82520000D03*
X156650000Y-91520000D03*
X174650000Y-55520000D03*
X174650000Y-118520000D03*
X84650000Y-109520000D03*
X147650000Y-91520000D03*
X174650000Y-100520000D03*
X183650000Y-82520000D03*
X111650000Y-109520000D03*
X129650000Y-64520000D03*
X183650000Y-118520000D03*
X138650000Y-82520000D03*
X102650000Y-100520000D03*
X120650000Y-100520000D03*
X124650000Y-136520000D03*
%TO.N,GND*%
X124650000Y-31520000D03*
X178650000Y-31520000D03*
X145650000Y-136520000D03*
X94650000Y-39520000D03*
X53650000Y-44520000D03*
X95650000Y-39520000D03*
X95650000Y-41520000D03*
X147650000Y-30520000D03*
X174650000Y-30520000D03*
X93650000Y-30640000D03*
X120650000Y-30520000D03*
X118650000Y-136520000D03*
X151650000Y-31520000D03*
X93650000Y-41520000D03*
X93650000Y-40520000D03*
X95650000Y-40520000D03*
X91650000Y-136520000D03*
X94650000Y-41520000D03*
X97650000Y-32520000D03*
X94650000Y-40520000D03*
X93650000Y-39520000D03*
X172650000Y-136520000D03*
%TO.N,Net-(U1-9(PWM){slash}A9)*%
X179650000Y-34520000D03*
X98650000Y-34520000D03*
X152650000Y-34520000D03*
X125650000Y-34520000D03*
%TO.N,Net-(U1-6(PWM){slash}A7)*%
X92650000Y-35520000D03*
X119650000Y-35520000D03*
X173650000Y-35520000D03*
X146650000Y-35520000D03*
%TO.N,Net-(U1-5(PWM))*%
X173650000Y-36520000D03*
X146650000Y-36520000D03*
X119650000Y-36520000D03*
X92650000Y-36520000D03*
%TD*%
D26*
%TO.N,GND*%
X176650000Y-39520000D02*
X176650000Y-40520000D01*
X176650000Y-41520000D02*
X176650000Y-40520000D01*
X175650000Y-40520000D02*
X175650000Y-41520000D01*
X175650000Y-40520000D02*
X175650000Y-39520000D01*
X174650000Y-39520000D02*
X174650000Y-40520000D01*
X174650000Y-41520000D02*
X174650000Y-40520000D01*
X176650000Y-41520000D02*
X175650000Y-41520000D01*
X174650000Y-41520000D02*
X175650000Y-41520000D01*
X176650000Y-40520000D02*
X175650000Y-40520000D01*
X174650000Y-40520000D02*
X175650000Y-40520000D01*
X176650000Y-39520000D02*
X175650000Y-39520000D01*
X174650000Y-39520000D02*
X175650000Y-39520000D01*
X175400000Y-39520000D02*
X175400000Y-40270000D01*
X149650000Y-41520000D02*
X149650000Y-40520000D01*
X149650000Y-39520000D02*
X149650000Y-40520000D01*
X148650000Y-41520000D02*
X148650000Y-40520000D01*
X148650000Y-39520000D02*
X148650000Y-40520000D01*
X147650000Y-39520000D02*
X147650000Y-40520000D01*
X147650000Y-41520000D02*
X147650000Y-40520000D01*
X149650000Y-41520000D02*
X148650000Y-41520000D01*
X147650000Y-41520000D02*
X148650000Y-41520000D01*
X149650000Y-40520000D02*
X148650000Y-40520000D01*
X147650000Y-40520000D02*
X148650000Y-40520000D01*
X149650000Y-39520000D02*
X148650000Y-39520000D01*
X147650000Y-39520000D02*
X148650000Y-39520000D01*
X148400000Y-39520000D02*
X148400000Y-38082500D01*
X122650000Y-41520000D02*
X122650000Y-40520000D01*
X122650000Y-39520000D02*
X122650000Y-40520000D01*
X121650000Y-41520000D02*
X121650000Y-40520000D01*
X121650000Y-40520000D02*
X121650000Y-39520000D01*
X120650000Y-39520000D02*
X120650000Y-40520000D01*
X120650000Y-41520000D02*
X120650000Y-40520000D01*
X122650000Y-41520000D02*
X121650000Y-41520000D01*
X120650000Y-41520000D02*
X121650000Y-41520000D01*
X122650000Y-40520000D02*
X121650000Y-40520000D01*
X120650000Y-40520000D02*
X121650000Y-40520000D01*
X122650000Y-39520000D02*
X121650000Y-39520000D01*
X120650000Y-39520000D02*
X121650000Y-39520000D01*
X121400000Y-39520000D02*
X121400000Y-38082500D01*
X121400000Y-40270000D02*
X121400000Y-39520000D01*
%TO.N,+5V*%
X138275000Y-118895000D02*
X138650000Y-118520000D01*
X174275000Y-94520000D02*
X174275000Y-91895000D01*
X93275000Y-118895000D02*
X93650000Y-118520000D01*
X149425000Y-32695000D02*
X149600000Y-32520000D01*
X129275000Y-85520000D02*
X129275000Y-82895000D01*
X129275000Y-73895000D02*
X129650000Y-73520000D01*
X84275000Y-64895000D02*
X84650000Y-64520000D01*
X174275000Y-112520000D02*
X174275000Y-109895000D01*
X165275000Y-85520000D02*
X165275000Y-82895000D01*
X156275000Y-112520000D02*
X156275000Y-109895000D01*
X183275000Y-67520000D02*
X183275000Y-64895000D01*
X93275000Y-58520000D02*
X93275000Y-55895000D01*
X129275000Y-112520000D02*
X129275000Y-109895000D01*
X102275000Y-82895000D02*
X102650000Y-82520000D01*
X147275000Y-58520000D02*
X147275000Y-55895000D01*
X129275000Y-55895000D02*
X129650000Y-55520000D01*
X122425000Y-34520000D02*
X122425000Y-32695000D01*
X183275000Y-94520000D02*
X183275000Y-91895000D01*
X121900000Y-35045000D02*
X121900000Y-38082500D01*
X183275000Y-100895000D02*
X183650000Y-100520000D01*
X165275000Y-67520000D02*
X165275000Y-64895000D01*
X138275000Y-67520000D02*
X138275000Y-64895000D01*
X122600000Y-30570000D02*
X122650000Y-30520000D01*
X165275000Y-64895000D02*
X165650000Y-64520000D01*
X138275000Y-82895000D02*
X138650000Y-82520000D01*
X129275000Y-94520000D02*
X129275000Y-91895000D01*
X95425000Y-32695000D02*
X95600000Y-32520000D01*
X111275000Y-91895000D02*
X111650000Y-91520000D01*
X84275000Y-73895000D02*
X84650000Y-73520000D01*
X147275000Y-109895000D02*
X147650000Y-109520000D01*
X174275000Y-118895000D02*
X174650000Y-118520000D01*
X84275000Y-112520000D02*
X84275000Y-109895000D01*
X165275000Y-103520000D02*
X165275000Y-100895000D01*
X84275000Y-82895000D02*
X84650000Y-82520000D01*
X95425000Y-34520000D02*
X95425000Y-32695000D01*
X165275000Y-109895000D02*
X165650000Y-109520000D01*
X102275000Y-67520000D02*
X102275000Y-64895000D01*
X174275000Y-76520000D02*
X174275000Y-73895000D01*
X149425000Y-34520000D02*
X149425000Y-32695000D01*
X129275000Y-58520000D02*
X129275000Y-55895000D01*
X102275000Y-58520000D02*
X102275000Y-55895000D01*
X102275000Y-109895000D02*
X102650000Y-109520000D01*
X120275000Y-64895000D02*
X120650000Y-64520000D01*
X174275000Y-82895000D02*
X174650000Y-82520000D01*
X174275000Y-91895000D02*
X174650000Y-91520000D01*
X165275000Y-73895000D02*
X165650000Y-73520000D01*
X147275000Y-55895000D02*
X147650000Y-55520000D01*
X174275000Y-100895000D02*
X174650000Y-100520000D01*
X147275000Y-118895000D02*
X147650000Y-118520000D01*
X147275000Y-85520000D02*
X147275000Y-82895000D01*
X129275000Y-121520000D02*
X129275000Y-118895000D01*
X111275000Y-73895000D02*
X111650000Y-73520000D01*
X156275000Y-73895000D02*
X156650000Y-73520000D01*
X147275000Y-103520000D02*
X147275000Y-100895000D01*
X102275000Y-100895000D02*
X102650000Y-100520000D01*
X165275000Y-91895000D02*
X165650000Y-91520000D01*
X93275000Y-55895000D02*
X93650000Y-55520000D01*
X120275000Y-76520000D02*
X120275000Y-73895000D01*
X174275000Y-109895000D02*
X174650000Y-109520000D01*
X174275000Y-64895000D02*
X174650000Y-64520000D01*
X176600000Y-136520000D02*
X178650000Y-136520000D01*
X93275000Y-94520000D02*
X93275000Y-91895000D01*
X147275000Y-100895000D02*
X147650000Y-100520000D01*
X84275000Y-85520000D02*
X84275000Y-82895000D01*
X84275000Y-67520000D02*
X84275000Y-64895000D01*
X120275000Y-85520000D02*
X120275000Y-82895000D01*
X147275000Y-112520000D02*
X147275000Y-109895000D01*
X138275000Y-58520000D02*
X138275000Y-55895000D01*
X93275000Y-112520000D02*
X93275000Y-109895000D01*
X165275000Y-94520000D02*
X165275000Y-91895000D01*
X120275000Y-109895000D02*
X120650000Y-109520000D01*
X84275000Y-76520000D02*
X84275000Y-73895000D01*
X138275000Y-112520000D02*
X138275000Y-109895000D01*
X129275000Y-64895000D02*
X129650000Y-64520000D01*
X175900000Y-35045000D02*
X175900000Y-38082500D01*
X156275000Y-58520000D02*
X156275000Y-55895000D01*
X111275000Y-76520000D02*
X111275000Y-73895000D01*
X102275000Y-112520000D02*
X102275000Y-109895000D01*
X174275000Y-121520000D02*
X174275000Y-118895000D01*
X156275000Y-67520000D02*
X156275000Y-64895000D01*
X84275000Y-103520000D02*
X84275000Y-100895000D01*
X102275000Y-103520000D02*
X102275000Y-100895000D01*
X165275000Y-76520000D02*
X165275000Y-73895000D01*
X102275000Y-94520000D02*
X102275000Y-91895000D01*
X183275000Y-76520000D02*
X183275000Y-73895000D01*
X102275000Y-85520000D02*
X102275000Y-82895000D01*
X183275000Y-109895000D02*
X183650000Y-109520000D01*
X174275000Y-73895000D02*
X174650000Y-73520000D01*
X174275000Y-85520000D02*
X174275000Y-82895000D01*
X129275000Y-91895000D02*
X129650000Y-91520000D01*
X95425000Y-34520000D02*
X94900000Y-35045000D01*
X120275000Y-94520000D02*
X120275000Y-91895000D01*
X93275000Y-82895000D02*
X93650000Y-82520000D01*
X183275000Y-118895000D02*
X183650000Y-118520000D01*
X176600000Y-30570000D02*
X176650000Y-30520000D01*
X176600000Y-32520000D02*
X176600000Y-30570000D01*
X111275000Y-112520000D02*
X111275000Y-109895000D01*
X95600000Y-32520000D02*
X95600000Y-30690000D01*
X68150000Y-116870000D02*
X68150000Y-115020000D01*
X84275000Y-55895000D02*
X84650000Y-55520000D01*
X93275000Y-64895000D02*
X93650000Y-64520000D01*
X183275000Y-91895000D02*
X183650000Y-91520000D01*
X147275000Y-91895000D02*
X147650000Y-91520000D01*
X93275000Y-67520000D02*
X93275000Y-64895000D01*
X129275000Y-103520000D02*
X129275000Y-100895000D01*
X102275000Y-91895000D02*
X102650000Y-91520000D01*
X165275000Y-58520000D02*
X165275000Y-55895000D01*
X111275000Y-55895000D02*
X111650000Y-55520000D01*
X149600000Y-30570000D02*
X149650000Y-30520000D01*
X165275000Y-55895000D02*
X165650000Y-55520000D01*
X129275000Y-118895000D02*
X129650000Y-118520000D01*
X183275000Y-112520000D02*
X183275000Y-109895000D01*
X156275000Y-118895000D02*
X156650000Y-118520000D01*
X122425000Y-32695000D02*
X122600000Y-32520000D01*
X174275000Y-55895000D02*
X174650000Y-55520000D01*
X84275000Y-58520000D02*
X84275000Y-55895000D01*
X129275000Y-109895000D02*
X129650000Y-109520000D01*
X122600000Y-136520000D02*
X124650000Y-136520000D01*
X94900000Y-35045000D02*
X94900000Y-38082500D01*
X183275000Y-85520000D02*
X183275000Y-82895000D01*
X147275000Y-64895000D02*
X147650000Y-64520000D01*
X156275000Y-76520000D02*
X156275000Y-73895000D01*
X120275000Y-100895000D02*
X120650000Y-100520000D01*
X93275000Y-76520000D02*
X93275000Y-73895000D01*
X129275000Y-76520000D02*
X129275000Y-73895000D01*
X147275000Y-94520000D02*
X147275000Y-91895000D01*
X120275000Y-67520000D02*
X120275000Y-64895000D01*
X147275000Y-73895000D02*
X147650000Y-73520000D01*
X111275000Y-58520000D02*
X111275000Y-55895000D01*
X84275000Y-118895000D02*
X84650000Y-118520000D01*
X122425000Y-34520000D02*
X121900000Y-35045000D01*
X174275000Y-67520000D02*
X174275000Y-64895000D01*
X111275000Y-100895000D02*
X111650000Y-100520000D01*
X174275000Y-58520000D02*
X174275000Y-55895000D01*
X165275000Y-112520000D02*
X165275000Y-109895000D01*
X138275000Y-109895000D02*
X138650000Y-109520000D01*
X93275000Y-100895000D02*
X93650000Y-100520000D01*
X120275000Y-103520000D02*
X120275000Y-100895000D01*
X120275000Y-121520000D02*
X120275000Y-118895000D01*
X156275000Y-103520000D02*
X156275000Y-100895000D01*
X102275000Y-118895000D02*
X102650000Y-118520000D01*
X149600000Y-136520000D02*
X151650000Y-136520000D01*
X176425000Y-32695000D02*
X176600000Y-32520000D01*
X148900000Y-35045000D02*
X148900000Y-38082500D01*
X138275000Y-73895000D02*
X138650000Y-73520000D01*
X93275000Y-73895000D02*
X93650000Y-73520000D01*
X93275000Y-85520000D02*
X93275000Y-82895000D01*
X156275000Y-109895000D02*
X156650000Y-109520000D01*
X111275000Y-103520000D02*
X111275000Y-100895000D01*
X156275000Y-64895000D02*
X156650000Y-64520000D01*
X156275000Y-82895000D02*
X156650000Y-82520000D01*
X84275000Y-121520000D02*
X84275000Y-118895000D01*
X120275000Y-91895000D02*
X120650000Y-91520000D01*
X138275000Y-55895000D02*
X138650000Y-55520000D01*
X111275000Y-85520000D02*
X111275000Y-82895000D01*
X95600000Y-30690000D02*
X95650000Y-30640000D01*
X183275000Y-82895000D02*
X183650000Y-82520000D01*
X183275000Y-73895000D02*
X183650000Y-73520000D01*
X156275000Y-121520000D02*
X156275000Y-118895000D01*
X183275000Y-121520000D02*
X183275000Y-118895000D01*
X129275000Y-100895000D02*
X129650000Y-100520000D01*
X95600000Y-136520000D02*
X97650000Y-136520000D01*
X138275000Y-103520000D02*
X138275000Y-100895000D01*
X138275000Y-100895000D02*
X138650000Y-100520000D01*
X156275000Y-100895000D02*
X156650000Y-100520000D01*
X156275000Y-91895000D02*
X156650000Y-91520000D01*
X183275000Y-58520000D02*
X183275000Y-55895000D01*
X120275000Y-73895000D02*
X120650000Y-73520000D01*
X93275000Y-121520000D02*
X93275000Y-118895000D01*
X165275000Y-118895000D02*
X165650000Y-118520000D01*
X138275000Y-91895000D02*
X138650000Y-91520000D01*
X111275000Y-121520000D02*
X111275000Y-118895000D01*
X93275000Y-109895000D02*
X93650000Y-109520000D01*
X111275000Y-64895000D02*
X111650000Y-64520000D01*
X176425000Y-34520000D02*
X175900000Y-35045000D01*
X102275000Y-76520000D02*
X102275000Y-73895000D01*
X138275000Y-94520000D02*
X138275000Y-91895000D01*
X156275000Y-94520000D02*
X156275000Y-91895000D01*
X120275000Y-55895000D02*
X120650000Y-55520000D01*
X156275000Y-55895000D02*
X156650000Y-55520000D01*
X111275000Y-94520000D02*
X111275000Y-91895000D01*
X149600000Y-32520000D02*
X149600000Y-30570000D01*
X84275000Y-100895000D02*
X84650000Y-100520000D01*
X174275000Y-103520000D02*
X174275000Y-100895000D01*
X120275000Y-112520000D02*
X120275000Y-109895000D01*
X84275000Y-109895000D02*
X84650000Y-109520000D01*
X138275000Y-121520000D02*
X138275000Y-118895000D01*
X138275000Y-64895000D02*
X138650000Y-64520000D01*
X102275000Y-55895000D02*
X102650000Y-55520000D01*
X111275000Y-67520000D02*
X111275000Y-64895000D01*
X102275000Y-121520000D02*
X102275000Y-118895000D01*
X68150000Y-115020000D02*
X68650000Y-114520000D01*
X147275000Y-82895000D02*
X147650000Y-82520000D01*
X165275000Y-100895000D02*
X165650000Y-100520000D01*
X59125000Y-44520000D02*
X61650000Y-44520000D01*
X84275000Y-91895000D02*
X84650000Y-91520000D01*
X165275000Y-82895000D02*
X165650000Y-82520000D01*
X111275000Y-109895000D02*
X111650000Y-109520000D01*
X122600000Y-32520000D02*
X122600000Y-30570000D01*
X147275000Y-76520000D02*
X147275000Y-73895000D01*
X183275000Y-55895000D02*
X183650000Y-55520000D01*
X93275000Y-91895000D02*
X93650000Y-91520000D01*
X84275000Y-94520000D02*
X84275000Y-91895000D01*
X138275000Y-85520000D02*
X138275000Y-82895000D01*
X102275000Y-64895000D02*
X102650000Y-64520000D01*
X93275000Y-103520000D02*
X93275000Y-100895000D01*
X120275000Y-58520000D02*
X120275000Y-55895000D01*
X120275000Y-82895000D02*
X120650000Y-82520000D01*
X165275000Y-121520000D02*
X165275000Y-118895000D01*
X147275000Y-121520000D02*
X147275000Y-118895000D01*
X138275000Y-76520000D02*
X138275000Y-73895000D01*
X147275000Y-67520000D02*
X147275000Y-64895000D01*
X129275000Y-82895000D02*
X129650000Y-82520000D01*
X156275000Y-85520000D02*
X156275000Y-82895000D01*
X183275000Y-64895000D02*
X183650000Y-64520000D01*
X120275000Y-118895000D02*
X120650000Y-118520000D01*
X176425000Y-34520000D02*
X176425000Y-32695000D01*
X129275000Y-67520000D02*
X129275000Y-64895000D01*
X102275000Y-73895000D02*
X102650000Y-73520000D01*
X149425000Y-34520000D02*
X148900000Y-35045000D01*
X111275000Y-118895000D02*
X111650000Y-118520000D01*
X111275000Y-82895000D02*
X111650000Y-82520000D01*
X183275000Y-103520000D02*
X183275000Y-100895000D01*
%TO.N,GND*%
X120700000Y-136520000D02*
X118650000Y-136520000D01*
X121400000Y-35045000D02*
X121400000Y-38082500D01*
X93875000Y-34520000D02*
X94400000Y-35045000D01*
X97650000Y-33520000D02*
X97650000Y-32520000D01*
X148650000Y-40520000D02*
X148400000Y-40270000D01*
X178650000Y-33010000D02*
X178650000Y-31520000D01*
X94400000Y-38082500D02*
X94400000Y-40270000D01*
X120700000Y-32520000D02*
X120700000Y-30570000D01*
X95650000Y-40520000D02*
X94650000Y-40520000D01*
X174700000Y-30570000D02*
X174650000Y-30520000D01*
X93650000Y-40520000D02*
X93650000Y-41520000D01*
X56175000Y-44520000D02*
X53650000Y-44520000D01*
X94650000Y-39520000D02*
X94650000Y-40520000D01*
X93700000Y-30690000D02*
X93650000Y-30640000D01*
X93650000Y-39520000D02*
X94650000Y-39520000D01*
X147700000Y-30570000D02*
X147650000Y-30520000D01*
X148400000Y-40270000D02*
X148400000Y-39520000D01*
X93650000Y-40520000D02*
X94650000Y-40520000D01*
X174875000Y-32695000D02*
X174700000Y-32520000D01*
X93650000Y-41520000D02*
X94650000Y-41520000D01*
X120875000Y-34520000D02*
X120875000Y-32695000D01*
X93650000Y-39520000D02*
X93650000Y-40520000D01*
X174875000Y-34520000D02*
X174875000Y-32695000D01*
X94650000Y-40520000D02*
X94650000Y-41520000D01*
X93875000Y-34520000D02*
X93875000Y-32695000D01*
X95650000Y-41520000D02*
X94650000Y-41520000D01*
X94400000Y-35045000D02*
X94400000Y-38082500D01*
X174700000Y-32520000D02*
X174700000Y-30570000D01*
X151650000Y-33010000D02*
X151650000Y-31520000D01*
X147700000Y-136520000D02*
X145650000Y-136520000D01*
X120875000Y-32695000D02*
X120700000Y-32520000D01*
X174700000Y-136520000D02*
X172650000Y-136520000D01*
X120875000Y-34520000D02*
X121400000Y-35045000D01*
X95650000Y-41520000D02*
X95650000Y-40520000D01*
X124650000Y-33010000D02*
X124650000Y-31520000D01*
X120700000Y-30570000D02*
X120650000Y-30520000D01*
X94400000Y-40270000D02*
X94650000Y-40520000D01*
X147875000Y-34520000D02*
X148400000Y-35045000D01*
X148400000Y-35045000D02*
X148400000Y-38082500D01*
X121650000Y-40520000D02*
X121400000Y-40270000D01*
X175400000Y-35045000D02*
X175400000Y-38082500D01*
X93875000Y-32695000D02*
X93700000Y-32520000D01*
X175400000Y-40270000D02*
X175650000Y-40520000D01*
X175400000Y-38082500D02*
X175400000Y-39520000D01*
X147875000Y-34520000D02*
X147875000Y-32695000D01*
X147700000Y-32520000D02*
X147700000Y-30570000D01*
X95650000Y-39520000D02*
X95650000Y-40520000D01*
X147875000Y-32695000D02*
X147700000Y-32520000D01*
X174875000Y-34520000D02*
X175400000Y-35045000D01*
X93700000Y-32520000D02*
X93700000Y-30690000D01*
X93700000Y-136520000D02*
X91650000Y-136520000D01*
X95650000Y-39520000D02*
X94650000Y-39520000D01*
%TO.N,Net-(U2-IREF)*%
X95400000Y-36790000D02*
X97650000Y-34540000D01*
X95400000Y-38082500D02*
X95400000Y-36790000D01*
%TO.N,Net-(U1-9(PWM){slash}A9)*%
X95900000Y-37270000D02*
X98650000Y-34520000D01*
X176900000Y-37270000D02*
X179650000Y-34520000D01*
X176900000Y-38082500D02*
X176900000Y-37270000D01*
X149900000Y-37270000D02*
X152650000Y-34520000D01*
X122900000Y-38082500D02*
X122900000Y-37270000D01*
X149900000Y-38082500D02*
X149900000Y-37270000D01*
X95900000Y-38082500D02*
X95900000Y-37270000D01*
X122900000Y-37270000D02*
X125650000Y-34520000D01*
%TO.N,Net-(U1-6(PWM){slash}A7)*%
X174900000Y-36770000D02*
X173650000Y-35520000D01*
X120900000Y-38082500D02*
X120900000Y-36770000D01*
X68061600Y-118431600D02*
X50498400Y-118431600D01*
X174900000Y-38082500D02*
X174900000Y-36770000D01*
X93900000Y-38082500D02*
X93900000Y-36770000D01*
X120900000Y-36770000D02*
X119650000Y-35520000D01*
X68150000Y-118520000D02*
X68061600Y-118431600D01*
X147900000Y-36770000D02*
X146650000Y-35520000D01*
X147900000Y-38082500D02*
X147900000Y-36770000D01*
X50498400Y-118431600D02*
X49410000Y-119520000D01*
X93900000Y-36770000D02*
X92650000Y-35520000D01*
%TO.N,Net-(U1-3(PWM){slash}SCL)*%
X51650000Y-109660000D02*
X49410000Y-111900000D01*
X85547315Y-41520000D02*
X51650000Y-75417315D01*
X92900000Y-38082500D02*
X89087500Y-38082500D01*
X51650000Y-75417315D02*
X51650000Y-109660000D01*
X89087500Y-38082500D02*
X85650000Y-41520000D01*
X85650000Y-41520000D02*
X85547315Y-41520000D01*
%TO.N,Net-(U1-5(PWM))*%
X93400000Y-37270000D02*
X92650000Y-36520000D01*
X147400000Y-38082500D02*
X147400000Y-37270000D01*
X120400000Y-38082500D02*
X120400000Y-37270000D01*
X147400000Y-37270000D02*
X146650000Y-36520000D01*
X93400000Y-38082500D02*
X93400000Y-37270000D01*
X174400000Y-38082500D02*
X174400000Y-37270000D01*
X174400000Y-37270000D02*
X173650000Y-36520000D01*
X120400000Y-37270000D02*
X119650000Y-36520000D01*
%TO.N,Net-(D25-K)*%
X119212500Y-38770000D02*
X118356602Y-38770000D01*
X115843000Y-54520000D02*
X113550000Y-56813000D01*
X113550000Y-56813000D02*
X113550000Y-58520000D01*
X118356602Y-38770000D02*
X115843000Y-41283602D01*
X115843000Y-41283602D02*
X115843000Y-54520000D01*
%TO.N,Net-(D1-K)*%
X92212500Y-38770000D02*
X91356602Y-38770000D01*
X88843000Y-41283602D02*
X88843000Y-55327000D01*
X86550000Y-57620000D02*
X86550000Y-58520000D01*
X91356602Y-38770000D02*
X88843000Y-41283602D01*
X88843000Y-55327000D02*
X86550000Y-57620000D01*
%TO.N,Net-(D2-K)*%
X89244000Y-41449702D02*
X89244000Y-64826000D01*
X89244000Y-64826000D02*
X86550000Y-67520000D01*
X92212500Y-39270000D02*
X91423702Y-39270000D01*
X91423702Y-39270000D02*
X89244000Y-41449702D01*
%TO.N,Net-(D3-K)*%
X89645000Y-73425000D02*
X86550000Y-76520000D01*
X92212500Y-39770000D02*
X91490802Y-39770000D01*
X91490802Y-39770000D02*
X89645000Y-41615802D01*
X89645000Y-41615802D02*
X89645000Y-73425000D01*
%TO.N,Net-(D4-K)*%
X91557902Y-40270000D02*
X90046000Y-41781902D01*
X92212500Y-40270000D02*
X91557902Y-40270000D01*
X90046000Y-82024000D02*
X86550000Y-85520000D01*
X90046000Y-41781902D02*
X90046000Y-82024000D01*
%TO.N,Net-(D5-K)*%
X90447000Y-41948002D02*
X90447000Y-90623000D01*
X92212500Y-40770000D02*
X91625002Y-40770000D01*
X91625002Y-40770000D02*
X90447000Y-41948002D01*
X90447000Y-90623000D02*
X86550000Y-94520000D01*
%TO.N,Net-(D6-K)*%
X90848000Y-99222000D02*
X86550000Y-103520000D01*
X90848000Y-42114102D02*
X90848000Y-99222000D01*
X91692102Y-41270000D02*
X90848000Y-42114102D01*
X92212500Y-41270000D02*
X91692102Y-41270000D01*
%TO.N,Net-(D7-K)*%
X91759202Y-41770000D02*
X91249000Y-42280202D01*
X91249000Y-42280202D02*
X91249000Y-107821000D01*
X92212500Y-41770000D02*
X91759202Y-41770000D01*
X91249000Y-107821000D02*
X86550000Y-112520000D01*
%TO.N,Net-(D8-K)*%
X92212500Y-42270000D02*
X91650000Y-42832500D01*
X91650000Y-116420000D02*
X86550000Y-121520000D01*
X91650000Y-42832500D02*
X91650000Y-116420000D01*
%TO.N,Net-(D9-K)*%
X97843000Y-54520000D02*
X95550000Y-56813000D01*
X92900000Y-44904200D02*
X97843000Y-49847200D01*
X95550000Y-56813000D02*
X95550000Y-58520000D01*
X92900000Y-42957500D02*
X92900000Y-44904200D01*
X97843000Y-49847200D02*
X97843000Y-54520000D01*
%TO.N,Net-(D10-K)*%
X98244000Y-64826000D02*
X95550000Y-67520000D01*
X98244000Y-49681100D02*
X98244000Y-64826000D01*
X93400000Y-42957500D02*
X93400000Y-44837100D01*
X93400000Y-44837100D02*
X98244000Y-49681100D01*
%TO.N,Net-(D11-K)*%
X98645000Y-73425000D02*
X95550000Y-76520000D01*
X98645000Y-49515000D02*
X98645000Y-73425000D01*
X93900000Y-44770000D02*
X98645000Y-49515000D01*
X93900000Y-42957500D02*
X93900000Y-44770000D01*
%TO.N,Net-(D12-K)*%
X99046000Y-82024000D02*
X95550000Y-85520000D01*
X99046000Y-49184400D02*
X99046000Y-82024000D01*
X94400000Y-44538400D02*
X99046000Y-49184400D01*
X94400000Y-42957500D02*
X94400000Y-44538400D01*
%TO.N,Net-(D13-K)*%
X94900000Y-44471300D02*
X99447000Y-49018300D01*
X99447000Y-49018300D02*
X99447000Y-90623000D01*
X99447000Y-90623000D02*
X95550000Y-94520000D01*
X94900000Y-42957500D02*
X94900000Y-44471300D01*
%TO.N,Net-(D14-K)*%
X95400000Y-42957500D02*
X95400000Y-44404200D01*
X99848000Y-48852200D02*
X99848000Y-99222000D01*
X99848000Y-99222000D02*
X95550000Y-103520000D01*
X95400000Y-44404200D02*
X99848000Y-48852200D01*
%TO.N,Net-(D15-K)*%
X100249000Y-48686100D02*
X100249000Y-107821000D01*
X95900000Y-44337100D02*
X100249000Y-48686100D01*
X95900000Y-42957500D02*
X95900000Y-44337100D01*
X100249000Y-107821000D02*
X95550000Y-112520000D01*
%TO.N,Net-(D16-K)*%
X100650000Y-48520000D02*
X100650000Y-116420000D01*
X100650000Y-116420000D02*
X95550000Y-121520000D01*
X96400000Y-42957500D02*
X96400000Y-44270000D01*
X96400000Y-44270000D02*
X100650000Y-48520000D01*
%TO.N,Net-(D17-K)*%
X105550000Y-54520000D02*
X104550000Y-55520000D01*
X104550000Y-55520000D02*
X104550000Y-58520000D01*
X105550000Y-49987100D02*
X105550000Y-54520000D01*
X97087500Y-42270000D02*
X97832900Y-42270000D01*
X97832900Y-42270000D02*
X105550000Y-49987100D01*
%TO.N,Net-(D18-K)*%
X105951000Y-49821000D02*
X105951000Y-66119000D01*
X97087500Y-41770000D02*
X97900000Y-41770000D01*
X105951000Y-66119000D02*
X104550000Y-67520000D01*
X97900000Y-41770000D02*
X105951000Y-49821000D01*
%TO.N,Net-(D19-K)*%
X106352000Y-49654900D02*
X106352000Y-74718000D01*
X106352000Y-74718000D02*
X104550000Y-76520000D01*
X97087500Y-41270000D02*
X97967100Y-41270000D01*
X97967100Y-41270000D02*
X106352000Y-49654900D01*
%TO.N,Net-(D20-K)*%
X98034200Y-40770000D02*
X106753000Y-49488800D01*
X97087500Y-40770000D02*
X98034200Y-40770000D01*
X106753000Y-83317000D02*
X104550000Y-85520000D01*
X106753000Y-49488800D02*
X106753000Y-83317000D01*
%TO.N,Net-(D21-K)*%
X98101300Y-40270000D02*
X107154000Y-49322700D01*
X107154000Y-91916000D02*
X104550000Y-94520000D01*
X97087500Y-40270000D02*
X98101300Y-40270000D01*
X107154000Y-49322700D02*
X107154000Y-91916000D01*
%TO.N,Net-(D22-K)*%
X97087500Y-39770000D02*
X98168400Y-39770000D01*
X107555000Y-100515000D02*
X104550000Y-103520000D01*
X98168400Y-39770000D02*
X107555000Y-49156600D01*
X107555000Y-49156600D02*
X107555000Y-100515000D01*
%TO.N,Net-(D23-K)*%
X107956000Y-48990500D02*
X107956000Y-109114000D01*
X107956000Y-109114000D02*
X104550000Y-112520000D01*
X98235500Y-39270000D02*
X107956000Y-48990500D01*
X97087500Y-39270000D02*
X98235500Y-39270000D01*
%TO.N,Net-(D24-K)*%
X108357000Y-117713000D02*
X104550000Y-121520000D01*
X108357000Y-48824400D02*
X108357000Y-117713000D01*
X97087500Y-38770000D02*
X98302600Y-38770000D01*
X98302600Y-38770000D02*
X108357000Y-48824400D01*
%TO.N,Net-(D26-K)*%
X118423702Y-39270000D02*
X116244000Y-41449702D01*
X119212500Y-39270000D02*
X118423702Y-39270000D01*
X116244000Y-64826000D02*
X113550000Y-67520000D01*
X116244000Y-41449702D02*
X116244000Y-64826000D01*
%TO.N,Net-(D27-K)*%
X118490802Y-39770000D02*
X116645000Y-41615802D01*
X119212500Y-39770000D02*
X118490802Y-39770000D01*
X116645000Y-41615802D02*
X116645000Y-73425000D01*
X116645000Y-73425000D02*
X113550000Y-76520000D01*
%TO.N,Net-(D28-K)*%
X118557902Y-40270000D02*
X117046000Y-41781902D01*
X119212500Y-40270000D02*
X118557902Y-40270000D01*
X117046000Y-82024000D02*
X113550000Y-85520000D01*
X117046000Y-41781902D02*
X117046000Y-82024000D01*
%TO.N,Net-(D29-K)*%
X117447000Y-90623000D02*
X113550000Y-94520000D01*
X117447000Y-41948002D02*
X117447000Y-90623000D01*
X118625002Y-40770000D02*
X117447000Y-41948002D01*
X119212500Y-40770000D02*
X118625002Y-40770000D01*
%TO.N,Net-(D30-K)*%
X119212500Y-41270000D02*
X118692102Y-41270000D01*
X118692102Y-41270000D02*
X117848000Y-42114102D01*
X117848000Y-99222000D02*
X113550000Y-103520000D01*
X117848000Y-42114102D02*
X117848000Y-99222000D01*
%TO.N,Net-(D31-K)*%
X118759202Y-41770000D02*
X118249000Y-42280202D01*
X118249000Y-107821000D02*
X113550000Y-112520000D01*
X119212500Y-41770000D02*
X118759202Y-41770000D01*
X118249000Y-42280202D02*
X118249000Y-107821000D01*
%TO.N,Net-(D32-K)*%
X118650000Y-42832500D02*
X118650000Y-116420000D01*
X119212500Y-42270000D02*
X118650000Y-42832500D01*
X118650000Y-116420000D02*
X113550000Y-121520000D01*
%TO.N,Net-(D33-K)*%
X124843000Y-49847200D02*
X124843000Y-54520000D01*
X119900000Y-42957500D02*
X119900000Y-44904200D01*
X122550000Y-56813000D02*
X122550000Y-58520000D01*
X119900000Y-44904200D02*
X124843000Y-49847200D01*
X124843000Y-54520000D02*
X122550000Y-56813000D01*
%TO.N,Net-(D34-K)*%
X120400000Y-42957500D02*
X120400000Y-44837100D01*
X125244000Y-64826000D02*
X122550000Y-67520000D01*
X120400000Y-44837100D02*
X125244000Y-49681100D01*
X125244000Y-49681100D02*
X125244000Y-64826000D01*
%TO.N,Net-(D35-K)*%
X122650000Y-46520000D02*
X122814500Y-46520000D01*
X125645000Y-49350500D02*
X125645000Y-73425000D01*
X125645000Y-73425000D02*
X122550000Y-76520000D01*
X120900000Y-44770000D02*
X122650000Y-46520000D01*
X122814500Y-46520000D02*
X125645000Y-49350500D01*
X120900000Y-42957500D02*
X120900000Y-44770000D01*
%TO.N,Net-(D36-K)*%
X121400000Y-42957500D02*
X121400000Y-44538400D01*
X126046000Y-82024000D02*
X122550000Y-85520000D01*
X126046000Y-49184400D02*
X126046000Y-82024000D01*
X121400000Y-44538400D02*
X126046000Y-49184400D01*
%TO.N,Net-(D37-K)*%
X126447000Y-90623000D02*
X122550000Y-94520000D01*
X126447000Y-49018300D02*
X126447000Y-90623000D01*
X121900000Y-44471300D02*
X126447000Y-49018300D01*
X121900000Y-42957500D02*
X121900000Y-44471300D01*
%TO.N,Net-(D38-K)*%
X122400000Y-42957500D02*
X122400000Y-44404200D01*
X126848000Y-48852200D02*
X126848000Y-99222000D01*
X126848000Y-99222000D02*
X122550000Y-103520000D01*
X122400000Y-44404200D02*
X126848000Y-48852200D01*
%TO.N,Net-(D39-K)*%
X127249000Y-48686100D02*
X127249000Y-107821000D01*
X122900000Y-44337100D02*
X127249000Y-48686100D01*
X127249000Y-107821000D02*
X122550000Y-112520000D01*
X122900000Y-42957500D02*
X122900000Y-44337100D01*
%TO.N,Net-(D40-K)*%
X127650000Y-48520000D02*
X127650000Y-116420000D01*
X127650000Y-116420000D02*
X122550000Y-121520000D01*
X123400000Y-44270000D02*
X127650000Y-48520000D01*
X123400000Y-42957500D02*
X123400000Y-44270000D01*
%TO.N,Net-(D41-K)*%
X131550000Y-56813000D02*
X131550000Y-58520000D01*
X133843000Y-54520000D02*
X131550000Y-56813000D01*
X133843000Y-50847200D02*
X133843000Y-54520000D01*
X125265800Y-42270000D02*
X133843000Y-50847200D01*
X124087500Y-42270000D02*
X125265800Y-42270000D01*
%TO.N,Net-(D42-K)*%
X124087500Y-41770000D02*
X125332900Y-41770000D01*
X134244000Y-50681100D02*
X134244000Y-64826000D01*
X125332900Y-41770000D02*
X134244000Y-50681100D01*
X134244000Y-64826000D02*
X131550000Y-67520000D01*
%TO.N,Net-(D43-K)*%
X125400000Y-41270000D02*
X134645000Y-50515000D01*
X124087500Y-41270000D02*
X125400000Y-41270000D01*
X134645000Y-73425000D02*
X131550000Y-76520000D01*
X134645000Y-50515000D02*
X134645000Y-73425000D01*
%TO.N,Net-(D44-K)*%
X124087500Y-40770000D02*
X125631600Y-40770000D01*
X135046000Y-82024000D02*
X131550000Y-85520000D01*
X125631600Y-40770000D02*
X135046000Y-50184400D01*
X135046000Y-50184400D02*
X135046000Y-82024000D01*
%TO.N,Net-(D45-K)*%
X135447000Y-50018300D02*
X135447000Y-90623000D01*
X135447000Y-90623000D02*
X131550000Y-94520000D01*
X125698700Y-40270000D02*
X135447000Y-50018300D01*
X124087500Y-40270000D02*
X125698700Y-40270000D01*
%TO.N,Net-(D46-K)*%
X135848000Y-99222000D02*
X131550000Y-103520000D01*
X125765800Y-39770000D02*
X135848000Y-49852200D01*
X135848000Y-49852200D02*
X135848000Y-99222000D01*
X124087500Y-39770000D02*
X125765800Y-39770000D01*
%TO.N,Net-(D47-K)*%
X136249000Y-49686100D02*
X136249000Y-107821000D01*
X124087500Y-39270000D02*
X125832900Y-39270000D01*
X125832900Y-39270000D02*
X136249000Y-49686100D01*
X136249000Y-107821000D02*
X131550000Y-112520000D01*
%TO.N,Net-(D48-K)*%
X136650000Y-116420000D02*
X131550000Y-121520000D01*
X125900000Y-38770000D02*
X136650000Y-49520000D01*
X136650000Y-49520000D02*
X136650000Y-116420000D01*
X124087500Y-38770000D02*
X125900000Y-38770000D01*
%TO.N,Net-(D49-K)*%
X145356602Y-38770000D02*
X142843000Y-41283602D01*
X140550000Y-56813000D02*
X140550000Y-58520000D01*
X142843000Y-41283602D02*
X142843000Y-54520000D01*
X142843000Y-54520000D02*
X140550000Y-56813000D01*
X146212500Y-38770000D02*
X145356602Y-38770000D01*
%TO.N,Net-(D50-K)*%
X146212500Y-39270000D02*
X145423702Y-39270000D01*
X145423702Y-39270000D02*
X143244000Y-41449702D01*
X143244000Y-64826000D02*
X140550000Y-67520000D01*
X143244000Y-41449702D02*
X143244000Y-64826000D01*
%TO.N,Net-(D51-K)*%
X146212500Y-39770000D02*
X145490802Y-39770000D01*
X143645000Y-73425000D02*
X140550000Y-76520000D01*
X145490802Y-39770000D02*
X143645000Y-41615802D01*
X143645000Y-41615802D02*
X143645000Y-73425000D01*
%TO.N,Net-(D52-K)*%
X144046000Y-41781902D02*
X144046000Y-82024000D01*
X146212500Y-40270000D02*
X145557902Y-40270000D01*
X145557902Y-40270000D02*
X144046000Y-41781902D01*
X144046000Y-82024000D02*
X140550000Y-85520000D01*
%TO.N,Net-(D53-K)*%
X144447000Y-90623000D02*
X140550000Y-94520000D01*
X146212500Y-40770000D02*
X145625002Y-40770000D01*
X144447000Y-41948002D02*
X144447000Y-90623000D01*
X145625002Y-40770000D02*
X144447000Y-41948002D01*
%TO.N,Net-(D54-K)*%
X144848000Y-99222000D02*
X140550000Y-103520000D01*
X146212500Y-41270000D02*
X145692102Y-41270000D01*
X145692102Y-41270000D02*
X144848000Y-42114102D01*
X144848000Y-42114102D02*
X144848000Y-99222000D01*
%TO.N,Net-(D55-K)*%
X146212500Y-41770000D02*
X145759202Y-41770000D01*
X145249000Y-42280202D02*
X145249000Y-107821000D01*
X145759202Y-41770000D02*
X145249000Y-42280202D01*
X145249000Y-107821000D02*
X140550000Y-112520000D01*
%TO.N,Net-(D56-K)*%
X146212500Y-42270000D02*
X145650000Y-42832500D01*
X145650000Y-116420000D02*
X140550000Y-121520000D01*
X145650000Y-42832500D02*
X145650000Y-116420000D01*
%TO.N,Net-(D57-K)*%
X146900000Y-44770000D02*
X151843000Y-49713000D01*
X151843000Y-56227000D02*
X149550000Y-58520000D01*
X151843000Y-49713000D02*
X151843000Y-56227000D01*
X146900000Y-42957500D02*
X146900000Y-44770000D01*
%TO.N,Net-(D58-K)*%
X147400000Y-42957500D02*
X147400000Y-44672600D01*
X147400000Y-44672600D02*
X152244000Y-49516600D01*
X152244000Y-49516600D02*
X152244000Y-64826000D01*
X152244000Y-64826000D02*
X149550000Y-67520000D01*
%TO.N,Net-(D59-K)*%
X147900000Y-44605500D02*
X152645000Y-49350500D01*
X147900000Y-42957500D02*
X147900000Y-44605500D01*
X152645000Y-49350500D02*
X152645000Y-73425000D01*
X152645000Y-73425000D02*
X149550000Y-76520000D01*
%TO.N,Net-(D60-K)*%
X153046000Y-82024000D02*
X149550000Y-85520000D01*
X148400000Y-42957500D02*
X148400000Y-44538400D01*
X148400000Y-44538400D02*
X153046000Y-49184400D01*
X153046000Y-49184400D02*
X153046000Y-82024000D01*
%TO.N,Net-(D61-K)*%
X148900000Y-44471300D02*
X153447000Y-49018300D01*
X153447000Y-90623000D02*
X149550000Y-94520000D01*
X153447000Y-49018300D02*
X153447000Y-90623000D01*
X148900000Y-42957500D02*
X148900000Y-44471300D01*
%TO.N,Net-(D62-K)*%
X153848000Y-99222000D02*
X149550000Y-103520000D01*
X149400000Y-42957500D02*
X149400000Y-44404200D01*
X149400000Y-44404200D02*
X153848000Y-48852200D01*
X153848000Y-48852200D02*
X153848000Y-99222000D01*
%TO.N,Net-(D63-K)*%
X154249000Y-107821000D02*
X149550000Y-112520000D01*
X154249000Y-48686100D02*
X154249000Y-107821000D01*
X149900000Y-44337100D02*
X154249000Y-48686100D01*
X149900000Y-42957500D02*
X149900000Y-44337100D01*
%TO.N,Net-(D64-K)*%
X150400000Y-42957500D02*
X150400000Y-44270000D01*
X154650000Y-48520000D02*
X154650000Y-116420000D01*
X154650000Y-116420000D02*
X149550000Y-121520000D01*
X150400000Y-44270000D02*
X154650000Y-48520000D01*
%TO.N,Net-(D65-K)*%
X153680300Y-43520000D02*
X160843000Y-50682700D01*
X160843000Y-54520000D02*
X158550000Y-56813000D01*
X153650000Y-43520000D02*
X153680300Y-43520000D01*
X151087500Y-42270000D02*
X152400000Y-42270000D01*
X152400000Y-42270000D02*
X153650000Y-43520000D01*
X158550000Y-56813000D02*
X158550000Y-58520000D01*
X160843000Y-50682700D02*
X160843000Y-54520000D01*
%TO.N,Net-(D66-K)*%
X161244000Y-64826000D02*
X158550000Y-67520000D01*
X151087500Y-41770000D02*
X152497400Y-41770000D01*
X161244000Y-50516600D02*
X161244000Y-64826000D01*
X152497400Y-41770000D02*
X161244000Y-50516600D01*
%TO.N,Net-(D67-K)*%
X161645000Y-50350500D02*
X161645000Y-73425000D01*
X152564500Y-41270000D02*
X161645000Y-50350500D01*
X151087500Y-41270000D02*
X152564500Y-41270000D01*
X161645000Y-73425000D02*
X158550000Y-76520000D01*
%TO.N,Net-(D68-K)*%
X162046000Y-82024000D02*
X158550000Y-85520000D01*
X151087500Y-40770000D02*
X152631600Y-40770000D01*
X152631600Y-40770000D02*
X162046000Y-50184400D01*
X162046000Y-50184400D02*
X162046000Y-82024000D01*
%TO.N,Net-(D69-K)*%
X152698700Y-40270000D02*
X162447000Y-50018300D01*
X151087500Y-40270000D02*
X152698700Y-40270000D01*
X162447000Y-50018300D02*
X162447000Y-90623000D01*
X162447000Y-90623000D02*
X158550000Y-94520000D01*
%TO.N,Net-(D70-K)*%
X162848000Y-99222000D02*
X158550000Y-103520000D01*
X152765800Y-39770000D02*
X162848000Y-49852200D01*
X162848000Y-49852200D02*
X162848000Y-99222000D01*
X151087500Y-39770000D02*
X152765800Y-39770000D01*
%TO.N,Net-(D71-K)*%
X163249000Y-107821000D02*
X158550000Y-112520000D01*
X152832900Y-39270000D02*
X163249000Y-49686100D01*
X163249000Y-49686100D02*
X163249000Y-107821000D01*
X151087500Y-39270000D02*
X152832900Y-39270000D01*
%TO.N,Net-(D72-K)*%
X163650000Y-116420000D02*
X158550000Y-121520000D01*
X151087500Y-38770000D02*
X152900000Y-38770000D01*
X163650000Y-49520000D02*
X163650000Y-116420000D01*
X152900000Y-38770000D02*
X163650000Y-49520000D01*
%TO.N,Net-(D73-K)*%
X173212500Y-38770000D02*
X172356602Y-38770000D01*
X169843000Y-54520000D02*
X167550000Y-56813000D01*
X172356602Y-38770000D02*
X169843000Y-41283602D01*
X167550000Y-56813000D02*
X167550000Y-58520000D01*
X169843000Y-41283602D02*
X169843000Y-54520000D01*
%TO.N,Net-(D74-K)*%
X172423702Y-39270000D02*
X170244000Y-41449702D01*
X170244000Y-64826000D02*
X167550000Y-67520000D01*
X170244000Y-41449702D02*
X170244000Y-64826000D01*
X173212500Y-39270000D02*
X172423702Y-39270000D01*
%TO.N,Net-(D75-K)*%
X173212500Y-39770000D02*
X172490802Y-39770000D01*
X170645000Y-41615802D02*
X170645000Y-73425000D01*
X170645000Y-73425000D02*
X167550000Y-76520000D01*
X172490802Y-39770000D02*
X170645000Y-41615802D01*
%TO.N,Net-(D76-K)*%
X172557902Y-40270000D02*
X171046000Y-41781902D01*
X171046000Y-82024000D02*
X167550000Y-85520000D01*
X173212500Y-40270000D02*
X172557902Y-40270000D01*
X171046000Y-41781902D02*
X171046000Y-82024000D01*
%TO.N,Net-(D77-K)*%
X173212500Y-40770000D02*
X172625002Y-40770000D01*
X172625002Y-40770000D02*
X171447000Y-41948002D01*
X171447000Y-41948002D02*
X171447000Y-90623000D01*
X171447000Y-90623000D02*
X167550000Y-94520000D01*
%TO.N,Net-(D78-K)*%
X172692102Y-41270000D02*
X171848000Y-42114102D01*
X171848000Y-99222000D02*
X167550000Y-103520000D01*
X173212500Y-41270000D02*
X172692102Y-41270000D01*
X171848000Y-42114102D02*
X171848000Y-99222000D01*
%TO.N,Net-(D79-K)*%
X173212500Y-41770000D02*
X172759202Y-41770000D01*
X167550000Y-111219000D02*
X167550000Y-112520000D01*
X172759202Y-41770000D02*
X172249000Y-42280202D01*
X172249000Y-106520000D02*
X167550000Y-111219000D01*
X172249000Y-42280202D02*
X172249000Y-106520000D01*
%TO.N,Net-(D80-K)*%
X172650000Y-116420000D02*
X167550000Y-121520000D01*
X173212500Y-42270000D02*
X172650000Y-42832500D01*
X172650000Y-42832500D02*
X172650000Y-116420000D01*
%TO.N,Net-(D81-K)*%
X173900000Y-44904200D02*
X178843000Y-49847200D01*
X176550000Y-56813000D02*
X176550000Y-58520000D01*
X173900000Y-42957500D02*
X173900000Y-44904200D01*
X178843000Y-49847200D02*
X178843000Y-54520000D01*
X178843000Y-54520000D02*
X176550000Y-56813000D01*
%TO.N,Net-(D82-K)*%
X174400000Y-44837100D02*
X179244000Y-49681100D01*
X179244000Y-64826000D02*
X176550000Y-67520000D01*
X179244000Y-49681100D02*
X179244000Y-64826000D01*
X174400000Y-42957500D02*
X174400000Y-44837100D01*
%TO.N,Net-(D83-K)*%
X179645000Y-73425000D02*
X176550000Y-76520000D01*
X174900000Y-42957500D02*
X174900000Y-44770000D01*
X174900000Y-44770000D02*
X179645000Y-49515000D01*
X179645000Y-49515000D02*
X179645000Y-73425000D01*
%TO.N,Net-(D84-K)*%
X180046000Y-82024000D02*
X176550000Y-85520000D01*
X175400000Y-44538400D02*
X180046000Y-49184400D01*
X180046000Y-49184400D02*
X180046000Y-82024000D01*
X175400000Y-42957500D02*
X175400000Y-44538400D01*
%TO.N,Net-(D85-K)*%
X180447000Y-90623000D02*
X176550000Y-94520000D01*
X175900000Y-42957500D02*
X175900000Y-44471300D01*
X175900000Y-44471300D02*
X180447000Y-49018300D01*
X180447000Y-49018300D02*
X180447000Y-90623000D01*
%TO.N,Net-(D86-K)*%
X180848000Y-48852200D02*
X180848000Y-99222000D01*
X176400000Y-44404200D02*
X180848000Y-48852200D01*
X176400000Y-42957500D02*
X176400000Y-44404200D01*
X180848000Y-99222000D02*
X176550000Y-103520000D01*
%TO.N,Net-(D87-K)*%
X176900000Y-44337100D02*
X181249000Y-48686100D01*
X176900000Y-42957500D02*
X176900000Y-44337100D01*
X181249000Y-48686100D02*
X181249000Y-107821000D01*
X181249000Y-107821000D02*
X176550000Y-112520000D01*
%TO.N,Net-(D88-K)*%
X181650000Y-116420000D02*
X176550000Y-121520000D01*
X177400000Y-42957500D02*
X177400000Y-44270000D01*
X177400000Y-44270000D02*
X181650000Y-48520000D01*
X181650000Y-48520000D02*
X181650000Y-116420000D01*
%TO.N,Net-(D89-K)*%
X178087500Y-42270000D02*
X179430300Y-42270000D01*
X179430300Y-42270000D02*
X187843000Y-50682700D01*
X185550000Y-56813000D02*
X185550000Y-58520000D01*
X187843000Y-50682700D02*
X187843000Y-54520000D01*
X187843000Y-54520000D02*
X185550000Y-56813000D01*
%TO.N,Net-(D90-K)*%
X179497400Y-41770000D02*
X188244000Y-50516600D01*
X178087500Y-41770000D02*
X179497400Y-41770000D01*
X188244000Y-50516600D02*
X188244000Y-64826000D01*
X188244000Y-64826000D02*
X185550000Y-67520000D01*
%TO.N,Net-(D91-K)*%
X188645000Y-50350500D02*
X188645000Y-73425000D01*
X188645000Y-73425000D02*
X185550000Y-76520000D01*
X179564500Y-41270000D02*
X188645000Y-50350500D01*
X178087500Y-41270000D02*
X179564500Y-41270000D01*
%TO.N,Net-(D92-K)*%
X178087500Y-40770000D02*
X179631600Y-40770000D01*
X189046000Y-82024000D02*
X185550000Y-85520000D01*
X179631600Y-40770000D02*
X189046000Y-50184400D01*
X189046000Y-50184400D02*
X189046000Y-82024000D01*
%TO.N,Net-(D93-K)*%
X189447000Y-50018300D02*
X189447000Y-90623000D01*
X179698700Y-40270000D02*
X189447000Y-50018300D01*
X178087500Y-40270000D02*
X179698700Y-40270000D01*
X189447000Y-90623000D02*
X185550000Y-94520000D01*
%TO.N,Net-(D94-K)*%
X189848000Y-99222000D02*
X185550000Y-103520000D01*
X179765800Y-39770000D02*
X189848000Y-49852200D01*
X178087500Y-39770000D02*
X179765800Y-39770000D01*
X189848000Y-49852200D02*
X189848000Y-99222000D01*
%TO.N,Net-(D95-K)*%
X190249000Y-107821000D02*
X185550000Y-112520000D01*
X179832900Y-39270000D02*
X190249000Y-49686100D01*
X190249000Y-49686100D02*
X190249000Y-107821000D01*
X178087500Y-39270000D02*
X179832900Y-39270000D01*
%TO.N,Net-(D96-K)*%
X179900000Y-38770000D02*
X190650000Y-49520000D01*
X190650000Y-116420000D02*
X185550000Y-121520000D01*
X178087500Y-38770000D02*
X179900000Y-38770000D01*
X190650000Y-49520000D02*
X190650000Y-116420000D01*
%TO.N,Net-(U3-IREF)*%
X124650000Y-34030000D02*
X122400000Y-36280000D01*
X122400000Y-36280000D02*
X122400000Y-38082500D01*
%TO.N,Net-(U4-IREF)*%
X151650000Y-34030000D02*
X149400000Y-36280000D01*
X149400000Y-36280000D02*
X149400000Y-38082500D01*
%TO.N,Net-(U5-IREF)*%
X176400000Y-38082500D02*
X176400000Y-36200340D01*
X176400000Y-36200340D02*
X178570340Y-34030000D01*
X178570340Y-34030000D02*
X178650000Y-34030000D01*
%TO.N,Net-(U2-SOUT)*%
X96400000Y-38082500D02*
X119900000Y-38082500D01*
%TO.N,Net-(U3-SOUT)*%
X123400000Y-38082500D02*
X146900000Y-38082500D01*
%TO.N,Net-(U4-SOUT)*%
X150400000Y-38082500D02*
X173900000Y-38082500D01*
%TD*%
M02*
