%TF.GenerationSoftware,KiCad,Pcbnew,9.0.3*%
%TF.CreationDate,2025-07-10T19:11:07-07:00*%
%TF.ProjectId,led-plate-96-well,6c65642d-706c-4617-9465-2d39362d7765,rev?*%
%TF.SameCoordinates,Original*%
%TF.FileFunction,Legend,Bot*%
%TF.FilePolarity,Positive*%
%FSLAX46Y46*%
G04 Gerber Fmt 4.6, Leading zero omitted, Abs format (unit mm)*
G04 Created by KiCad (PCBNEW 9.0.3) date 2025-07-10 19:11:07*
%MOMM*%
%LPD*%
G01*
G04 APERTURE LIST*
G04 Aperture macros list*
%AMRoundRect*
0 Rectangle with rounded corners*
0 $1 Rounding radius*
0 $2 $3 $4 $5 $6 $7 $8 $9 X,Y pos of 4 corners*
0 Add a 4 corners polygon primitive as box body*
4,1,4,$2,$3,$4,$5,$6,$7,$8,$9,$2,$3,0*
0 Add four circle primitives for the rounded corners*
1,1,$1+$1,$2,$3*
1,1,$1+$1,$4,$5*
1,1,$1+$1,$6,$7*
1,1,$1+$1,$8,$9*
0 Add four rect primitives between the rounded corners*
20,1,$1+$1,$2,$3,$4,$5,0*
20,1,$1+$1,$4,$5,$6,$7,0*
20,1,$1+$1,$6,$7,$8,$9,0*
20,1,$1+$1,$8,$9,$2,$3,0*%
G04 Aperture macros list end*
%ADD10C,1.778800*%
%ADD11RoundRect,0.102000X-0.787400X-0.787400X0.787400X-0.787400X0.787400X0.787400X-0.787400X0.787400X0*%
%ADD12C,1.200000*%
%ADD13O,2.484000X4.764000*%
%ADD14O,4.254000X2.229000*%
%ADD15O,2.229000X4.254000*%
G04 APERTURE END LIST*
%LPC*%
D10*
%TO.C,U1*%
X64650000Y-94120000D03*
X64650000Y-96660000D03*
X64650000Y-99200000D03*
X64650000Y-101740000D03*
X64650000Y-104280000D03*
X64650000Y-106820000D03*
X64650000Y-109360000D03*
X64650000Y-111900000D03*
X64650000Y-114440000D03*
X64650000Y-116980000D03*
X64650000Y-119520000D03*
X64650000Y-122060000D03*
X64650000Y-124600000D03*
X64650000Y-127140000D03*
X64650000Y-129680000D03*
X64650000Y-132220000D03*
X64650000Y-134760000D03*
X49410000Y-134760000D03*
X49410000Y-132220000D03*
X49410000Y-129680000D03*
X49410000Y-127140000D03*
X49410000Y-124600000D03*
X49410000Y-122060000D03*
X49410000Y-119520000D03*
X49410000Y-116980000D03*
X49410000Y-114440000D03*
X49410000Y-111900000D03*
X49410000Y-109360000D03*
X49410000Y-106820000D03*
X49410000Y-104280000D03*
X49410000Y-101740000D03*
X49410000Y-99200000D03*
X49410000Y-96660000D03*
D11*
X49410000Y-94120000D03*
D12*
X64650000Y-137300000D03*
X64650000Y-91580000D03*
X49410000Y-137300000D03*
X49410000Y-91580000D03*
%TD*%
D13*
%TO.C,J1*%
X60900000Y-35293750D03*
D14*
X57900000Y-40093750D03*
D15*
X54650000Y-35293750D03*
%TD*%
%LPD*%
M02*
