%TF.GenerationSoftware,KiCad,Pcbnew,9.0.3*%
%TF.CreationDate,2025-07-10T19:11:07-07:00*%
%TF.ProjectId,led-plate-96-well,6c65642d-706c-4617-9465-2d39362d7765,rev?*%
%TF.SameCoordinates,Original*%
%TF.FileFunction,Copper,L3,Inr*%
%TF.FilePolarity,Positive*%
%FSLAX46Y46*%
G04 Gerber Fmt 4.6, Leading zero omitted, Abs format (unit mm)*
G04 Created by KiCad (PCBNEW 9.0.3) date 2025-07-10 19:11:07*
%MOMM*%
%LPD*%
G01*
G04 APERTURE LIST*
%TA.AperFunction,ComponentPad*%
%ADD10C,1.574800*%
%TD*%
%TA.AperFunction,ComponentPad*%
%ADD11R,1.574800X1.574800*%
%TD*%
%TA.AperFunction,ComponentPad*%
%ADD12O,2.280000X4.560000*%
%TD*%
%TA.AperFunction,ComponentPad*%
%ADD13O,4.050000X2.025000*%
%TD*%
%TA.AperFunction,ComponentPad*%
%ADD14O,2.025000X4.050000*%
%TD*%
%TA.AperFunction,ViaPad*%
%ADD15C,0.600000*%
%TD*%
G04 APERTURE END LIST*
D10*
%TO.N,unconnected-(U1-SCK-Pad34)*%
%TO.C,U1*%
X64650000Y-94120000D03*
%TO.N,unconnected-(U1-MISO-Pad33)*%
X64650000Y-96660000D03*
%TO.N,unconnected-(U1-VIN-Pad32)*%
X64650000Y-99200000D03*
%TO.N,GND*%
X64650000Y-101740000D03*
%TO.N,unconnected-(U1-RESET-Pad30)_1*%
X64650000Y-104280000D03*
%TO.N,+5V*%
X64650000Y-106820000D03*
%TO.N,N/C*%
X64650000Y-109360000D03*
X64650000Y-111900000D03*
%TO.N,unconnected-(U1-A5-Pad26)*%
X64650000Y-114440000D03*
%TO.N,unconnected-(U1-A4-Pad25)*%
X64650000Y-116980000D03*
%TO.N,unconnected-(U1-A3-Pad24)*%
X64650000Y-119520000D03*
%TO.N,unconnected-(U1-A2-Pad23)*%
X64650000Y-122060000D03*
%TO.N,unconnected-(U1-A1-Pad22)*%
X64650000Y-124600000D03*
%TO.N,unconnected-(U1-A0-Pad21)*%
X64650000Y-127140000D03*
%TO.N,unconnected-(U1-AREF-Pad20)*%
X64650000Y-129680000D03*
%TO.N,unconnected-(U1-3.3V-Pad19)*%
X64650000Y-132220000D03*
%TO.N,unconnected-(U1-13(PWM)-Pad18)*%
X64650000Y-134760000D03*
%TO.N,unconnected-(U1-12{slash}A11-Pad17)*%
X49410000Y-134760000D03*
%TO.N,unconnected-(U1-11(PWM)-Pad16)*%
X49410000Y-132220000D03*
%TO.N,unconnected-(U1-10(PWM){slash}A10-Pad15)*%
X49410000Y-129680000D03*
%TO.N,Net-(U1-9(PWM){slash}A9)*%
X49410000Y-127140000D03*
%TO.N,unconnected-(U1-8{slash}A8-Pad13)*%
X49410000Y-124600000D03*
%TO.N,unconnected-(U1-7-Pad12)*%
X49410000Y-122060000D03*
%TO.N,Net-(U1-6(PWM){slash}A7)*%
X49410000Y-119520000D03*
%TO.N,Net-(U1-5(PWM))*%
X49410000Y-116980000D03*
%TO.N,unconnected-(U1-4{slash}A6-Pad9)*%
X49410000Y-114440000D03*
%TO.N,Net-(U1-3(PWM){slash}SCL)*%
X49410000Y-111900000D03*
%TO.N,unconnected-(U1-2{slash}SDA-Pad7)*%
X49410000Y-109360000D03*
%TO.N,GND*%
X49410000Y-106820000D03*
%TO.N,unconnected-(U1-RESET-Pad30)*%
X49410000Y-104280000D03*
%TO.N,unconnected-(U1-0{slash}RX-Pad4)*%
X49410000Y-101740000D03*
%TO.N,unconnected-(U1-1{slash}TX-Pad3)*%
X49410000Y-99200000D03*
%TO.N,unconnected-(U1-RX_LED{slash}SS-Pad2)*%
X49410000Y-96660000D03*
D11*
%TO.N,unconnected-(U1-MOSI-Pad1)*%
X49410000Y-94120000D03*
%TD*%
D12*
%TO.N,+5V*%
%TO.C,J1*%
X60900000Y-35293750D03*
D13*
%TO.N,unconnected-(J1-PadSHUNT)*%
X57900000Y-40093750D03*
D14*
%TO.N,GND*%
X54650000Y-35293750D03*
%TD*%
D15*
%TO.N,+5V*%
X68650000Y-114520000D03*
X61650000Y-44520000D03*
%TO.N,GND*%
X53650000Y-44520000D03*
%TO.N,Net-(U1-9(PWM){slash}A9)*%
X179650000Y-34520000D03*
%TO.N,Net-(U1-6(PWM){slash}A7)*%
X173650000Y-35520000D03*
%TO.N,Net-(U1-5(PWM))*%
X173650000Y-36520000D03*
%TO.N,GND*%
X178650000Y-31520000D03*
%TO.N,+5V*%
X176650000Y-30520000D03*
%TO.N,GND*%
X174650000Y-30520000D03*
%TO.N,Net-(U1-9(PWM){slash}A9)*%
X152650000Y-34520000D03*
%TO.N,GND*%
X151650000Y-31520000D03*
%TO.N,+5V*%
X149650000Y-30520000D03*
%TO.N,GND*%
X147650000Y-30520000D03*
%TO.N,Net-(U1-6(PWM){slash}A7)*%
X146650000Y-35520000D03*
%TO.N,Net-(U1-5(PWM))*%
X146650000Y-36520000D03*
%TO.N,Net-(U1-9(PWM){slash}A9)*%
X125650000Y-34520000D03*
%TO.N,Net-(U1-6(PWM){slash}A7)*%
X119650000Y-35520000D03*
%TO.N,Net-(U1-5(PWM))*%
X119650000Y-36520000D03*
%TO.N,GND*%
X124650000Y-31520000D03*
%TO.N,+5V*%
X122650000Y-30520000D03*
%TO.N,GND*%
X120650000Y-30520000D03*
X94650000Y-40520000D03*
X95650000Y-41520000D03*
X94650000Y-41520000D03*
X93650000Y-41520000D03*
X95650000Y-40520000D03*
X93650000Y-40520000D03*
X95650000Y-39520000D03*
X94650000Y-39520000D03*
X93650000Y-39520000D03*
%TO.N,+5V*%
X183650000Y-118520000D03*
X183650000Y-109520000D03*
X183650000Y-100520000D03*
X183650000Y-91520000D03*
X183650000Y-82520000D03*
X183650000Y-73520000D03*
X183650000Y-64520000D03*
X183650000Y-55520000D03*
X174650000Y-55520000D03*
X174650000Y-64520000D03*
X174650000Y-73520000D03*
X174650000Y-82520000D03*
X174650000Y-91520000D03*
X174650000Y-100520000D03*
X174650000Y-118520000D03*
X165650000Y-118520000D03*
X174650000Y-109520000D03*
X165650000Y-109520000D03*
X165650000Y-100520000D03*
X165650000Y-91520000D03*
X165650000Y-82520000D03*
X165650000Y-73520000D03*
X165650000Y-64520000D03*
X165650000Y-55520000D03*
X156650000Y-55520000D03*
X156650000Y-64520000D03*
X156650000Y-73520000D03*
X156650000Y-82520000D03*
X156650000Y-91520000D03*
X156650000Y-100520000D03*
X156650000Y-109520000D03*
X156650000Y-118520000D03*
X147650000Y-118520000D03*
X147650000Y-109520000D03*
X147650000Y-100520000D03*
X147650000Y-91520000D03*
X147650000Y-82520000D03*
X147650000Y-73520000D03*
X147650000Y-64520000D03*
X147650000Y-55520000D03*
X138650000Y-55520000D03*
X138650000Y-64520000D03*
X138650000Y-73520000D03*
X138650000Y-82520000D03*
X138650000Y-91520000D03*
X138650000Y-100520000D03*
X138650000Y-109520000D03*
X138650000Y-118520000D03*
X129650000Y-118520000D03*
X129650000Y-109520000D03*
X129650000Y-100520000D03*
X129650000Y-91520000D03*
X129650000Y-82520000D03*
X129650000Y-73520000D03*
X129650000Y-64520000D03*
X129650000Y-55520000D03*
X120650000Y-55520000D03*
X120650000Y-64520000D03*
X120650000Y-73520000D03*
X120650000Y-82520000D03*
X120650000Y-91520000D03*
X120650000Y-100520000D03*
X120650000Y-109520000D03*
X120650000Y-118520000D03*
X111650000Y-118520000D03*
X111650000Y-109520000D03*
X111650000Y-100520000D03*
X111650000Y-91520000D03*
X111650000Y-82520000D03*
X111650000Y-73520000D03*
X111650000Y-64520000D03*
X111650000Y-55520000D03*
%TO.N,Net-(U1-9(PWM){slash}A9)*%
X98650000Y-34520000D03*
%TO.N,Net-(U1-6(PWM){slash}A7)*%
X92650000Y-35520000D03*
%TO.N,Net-(U1-5(PWM))*%
X92650000Y-36520000D03*
%TO.N,GND*%
X97650000Y-32520000D03*
X93650000Y-30640000D03*
%TO.N,+5V*%
X95650000Y-30640000D03*
X178650000Y-136520000D03*
%TO.N,GND*%
X172650000Y-136520000D03*
%TO.N,+5V*%
X151650000Y-136520000D03*
%TO.N,GND*%
X145650000Y-136520000D03*
%TO.N,+5V*%
X124650000Y-136520000D03*
%TO.N,GND*%
X118650000Y-136520000D03*
%TO.N,+5V*%
X97650000Y-136520000D03*
%TO.N,GND*%
X91650000Y-136520000D03*
%TO.N,+5V*%
X84650000Y-118520000D03*
X84650000Y-109520000D03*
X84650000Y-100520000D03*
X84650000Y-91520000D03*
X84650000Y-82520000D03*
X84650000Y-73520000D03*
X84650000Y-64520000D03*
X84650000Y-55520000D03*
X93650000Y-55520000D03*
X93650000Y-64520000D03*
X93650000Y-73520000D03*
X93650000Y-82520000D03*
X93650000Y-91520000D03*
X93650000Y-100520000D03*
X93650000Y-109520000D03*
X93650000Y-118520000D03*
X102650000Y-118520000D03*
X102650000Y-109520000D03*
X102650000Y-100520000D03*
X102650000Y-91520000D03*
X102650000Y-82520000D03*
X102650000Y-73520000D03*
X102650000Y-64520000D03*
X102650000Y-55520000D03*
%TD*%
%TA.AperFunction,Conductor*%
%TO.N,+5V*%
G36*
X201652539Y-29360185D02*
G01*
X201698294Y-29412989D01*
X201709500Y-29464500D01*
X201709500Y-138935500D01*
X201689815Y-139002539D01*
X201637011Y-139048294D01*
X201585500Y-139059500D01*
X46064500Y-139059500D01*
X45997461Y-139039815D01*
X45951706Y-138987011D01*
X45940500Y-138935500D01*
X45940500Y-137216228D01*
X48559500Y-137216228D01*
X48559500Y-137383771D01*
X48592182Y-137548074D01*
X48592184Y-137548082D01*
X48656295Y-137702860D01*
X48749373Y-137842162D01*
X48867837Y-137960626D01*
X48960494Y-138022537D01*
X49007137Y-138053703D01*
X49161918Y-138117816D01*
X49326228Y-138150499D01*
X49326232Y-138150500D01*
X49326233Y-138150500D01*
X49493768Y-138150500D01*
X49493769Y-138150499D01*
X49658082Y-138117816D01*
X49812863Y-138053703D01*
X49952162Y-137960626D01*
X50070626Y-137842162D01*
X50163703Y-137702863D01*
X50227816Y-137548082D01*
X50260500Y-137383767D01*
X50260500Y-137216233D01*
X50260499Y-137216228D01*
X63799500Y-137216228D01*
X63799500Y-137383771D01*
X63832182Y-137548074D01*
X63832184Y-137548082D01*
X63896295Y-137702860D01*
X63989373Y-137842162D01*
X64107837Y-137960626D01*
X64200494Y-138022537D01*
X64247137Y-138053703D01*
X64401918Y-138117816D01*
X64566228Y-138150499D01*
X64566232Y-138150500D01*
X64566233Y-138150500D01*
X64733768Y-138150500D01*
X64733769Y-138150499D01*
X64898082Y-138117816D01*
X65052863Y-138053703D01*
X65192162Y-137960626D01*
X65310626Y-137842162D01*
X65403703Y-137702863D01*
X65467816Y-137548082D01*
X65500500Y-137383767D01*
X65500500Y-137216233D01*
X65467816Y-137051918D01*
X65403703Y-136897137D01*
X65372537Y-136850494D01*
X65310626Y-136757837D01*
X65192162Y-136639373D01*
X65052863Y-136546297D01*
X65052857Y-136546294D01*
X64898082Y-136482184D01*
X64898074Y-136482182D01*
X64733771Y-136449500D01*
X64733767Y-136449500D01*
X64566233Y-136449500D01*
X64566228Y-136449500D01*
X64401925Y-136482182D01*
X64401917Y-136482184D01*
X64247139Y-136546295D01*
X64107837Y-136639373D01*
X63989373Y-136757837D01*
X63896295Y-136897139D01*
X63832184Y-137051917D01*
X63832182Y-137051925D01*
X63799500Y-137216228D01*
X50260499Y-137216228D01*
X50227816Y-137051918D01*
X50163703Y-136897137D01*
X50132537Y-136850494D01*
X50070626Y-136757837D01*
X49952162Y-136639373D01*
X49812860Y-136546295D01*
X49658082Y-136482184D01*
X49658074Y-136482182D01*
X49493771Y-136449500D01*
X49493767Y-136449500D01*
X49326233Y-136449500D01*
X49326228Y-136449500D01*
X49161925Y-136482182D01*
X49161917Y-136482184D01*
X49007139Y-136546295D01*
X48867837Y-136639373D01*
X48749373Y-136757837D01*
X48656295Y-136897139D01*
X48592184Y-137051917D01*
X48592182Y-137051925D01*
X48559500Y-137216228D01*
X45940500Y-137216228D01*
X45940500Y-136441153D01*
X90849500Y-136441153D01*
X90849500Y-136598846D01*
X90880261Y-136753489D01*
X90880264Y-136753501D01*
X90940602Y-136899172D01*
X90940609Y-136899185D01*
X91028210Y-137030288D01*
X91028213Y-137030292D01*
X91139707Y-137141786D01*
X91139711Y-137141789D01*
X91270814Y-137229390D01*
X91270827Y-137229397D01*
X91416498Y-137289735D01*
X91416503Y-137289737D01*
X91571153Y-137320499D01*
X91571156Y-137320500D01*
X91571158Y-137320500D01*
X91728844Y-137320500D01*
X91728845Y-137320499D01*
X91883497Y-137289737D01*
X92029179Y-137229394D01*
X92160289Y-137141789D01*
X92271789Y-137030289D01*
X92359394Y-136899179D01*
X92419737Y-136753497D01*
X92450500Y-136598842D01*
X92450500Y-136441158D01*
X92450500Y-136441155D01*
X92450499Y-136441153D01*
X117849500Y-136441153D01*
X117849500Y-136598846D01*
X117880261Y-136753489D01*
X117880264Y-136753501D01*
X117940602Y-136899172D01*
X117940609Y-136899185D01*
X118028210Y-137030288D01*
X118028213Y-137030292D01*
X118139707Y-137141786D01*
X118139711Y-137141789D01*
X118270814Y-137229390D01*
X118270827Y-137229397D01*
X118416498Y-137289735D01*
X118416503Y-137289737D01*
X118571153Y-137320499D01*
X118571156Y-137320500D01*
X118571158Y-137320500D01*
X118728844Y-137320500D01*
X118728845Y-137320499D01*
X118883497Y-137289737D01*
X119029179Y-137229394D01*
X119160289Y-137141789D01*
X119271789Y-137030289D01*
X119359394Y-136899179D01*
X119419737Y-136753497D01*
X119450500Y-136598842D01*
X119450500Y-136441158D01*
X119450500Y-136441155D01*
X119450499Y-136441153D01*
X144849500Y-136441153D01*
X144849500Y-136598846D01*
X144880261Y-136753489D01*
X144880264Y-136753501D01*
X144940602Y-136899172D01*
X144940609Y-136899185D01*
X145028210Y-137030288D01*
X145028213Y-137030292D01*
X145139707Y-137141786D01*
X145139711Y-137141789D01*
X145270814Y-137229390D01*
X145270827Y-137229397D01*
X145416498Y-137289735D01*
X145416503Y-137289737D01*
X145571153Y-137320499D01*
X145571156Y-137320500D01*
X145571158Y-137320500D01*
X145728844Y-137320500D01*
X145728845Y-137320499D01*
X145883497Y-137289737D01*
X146029179Y-137229394D01*
X146160289Y-137141789D01*
X146271789Y-137030289D01*
X146359394Y-136899179D01*
X146419737Y-136753497D01*
X146450500Y-136598842D01*
X146450500Y-136441158D01*
X146450500Y-136441155D01*
X146450499Y-136441153D01*
X171849500Y-136441153D01*
X171849500Y-136598846D01*
X171880261Y-136753489D01*
X171880264Y-136753501D01*
X171940602Y-136899172D01*
X171940609Y-136899185D01*
X172028210Y-137030288D01*
X172028213Y-137030292D01*
X172139707Y-137141786D01*
X172139711Y-137141789D01*
X172270814Y-137229390D01*
X172270827Y-137229397D01*
X172416498Y-137289735D01*
X172416503Y-137289737D01*
X172571153Y-137320499D01*
X172571156Y-137320500D01*
X172571158Y-137320500D01*
X172728844Y-137320500D01*
X172728845Y-137320499D01*
X172883497Y-137289737D01*
X173029179Y-137229394D01*
X173160289Y-137141789D01*
X173271789Y-137030289D01*
X173359394Y-136899179D01*
X173419737Y-136753497D01*
X173450500Y-136598842D01*
X173450500Y-136441158D01*
X173450500Y-136441155D01*
X173450499Y-136441153D01*
X173419738Y-136286510D01*
X173419737Y-136286503D01*
X173419735Y-136286498D01*
X173359397Y-136140827D01*
X173359390Y-136140814D01*
X173271789Y-136009711D01*
X173271786Y-136009707D01*
X173160292Y-135898213D01*
X173160288Y-135898210D01*
X173029185Y-135810609D01*
X173029172Y-135810602D01*
X172883501Y-135750264D01*
X172883489Y-135750261D01*
X172728845Y-135719500D01*
X172728842Y-135719500D01*
X172571158Y-135719500D01*
X172571155Y-135719500D01*
X172416510Y-135750261D01*
X172416498Y-135750264D01*
X172270827Y-135810602D01*
X172270814Y-135810609D01*
X172139711Y-135898210D01*
X172139707Y-135898213D01*
X172028213Y-136009707D01*
X172028210Y-136009711D01*
X171940609Y-136140814D01*
X171940602Y-136140827D01*
X171880264Y-136286498D01*
X171880261Y-136286510D01*
X171849500Y-136441153D01*
X146450499Y-136441153D01*
X146419738Y-136286510D01*
X146419737Y-136286503D01*
X146419735Y-136286498D01*
X146359397Y-136140827D01*
X146359390Y-136140814D01*
X146271789Y-136009711D01*
X146271786Y-136009707D01*
X146160292Y-135898213D01*
X146160288Y-135898210D01*
X146029185Y-135810609D01*
X146029172Y-135810602D01*
X145883501Y-135750264D01*
X145883489Y-135750261D01*
X145728845Y-135719500D01*
X145728842Y-135719500D01*
X145571158Y-135719500D01*
X145571155Y-135719500D01*
X145416510Y-135750261D01*
X145416498Y-135750264D01*
X145270827Y-135810602D01*
X145270814Y-135810609D01*
X145139711Y-135898210D01*
X145139707Y-135898213D01*
X145028213Y-136009707D01*
X145028210Y-136009711D01*
X144940609Y-136140814D01*
X144940602Y-136140827D01*
X144880264Y-136286498D01*
X144880261Y-136286510D01*
X144849500Y-136441153D01*
X119450499Y-136441153D01*
X119419738Y-136286510D01*
X119419737Y-136286503D01*
X119419735Y-136286498D01*
X119359397Y-136140827D01*
X119359390Y-136140814D01*
X119271789Y-136009711D01*
X119271786Y-136009707D01*
X119160292Y-135898213D01*
X119160288Y-135898210D01*
X119029185Y-135810609D01*
X119029172Y-135810602D01*
X118883501Y-135750264D01*
X118883489Y-135750261D01*
X118728845Y-135719500D01*
X118728842Y-135719500D01*
X118571158Y-135719500D01*
X118571155Y-135719500D01*
X118416510Y-135750261D01*
X118416498Y-135750264D01*
X118270827Y-135810602D01*
X118270814Y-135810609D01*
X118139711Y-135898210D01*
X118139707Y-135898213D01*
X118028213Y-136009707D01*
X118028210Y-136009711D01*
X117940609Y-136140814D01*
X117940602Y-136140827D01*
X117880264Y-136286498D01*
X117880261Y-136286510D01*
X117849500Y-136441153D01*
X92450499Y-136441153D01*
X92419738Y-136286510D01*
X92419737Y-136286503D01*
X92419735Y-136286498D01*
X92359397Y-136140827D01*
X92359390Y-136140814D01*
X92271789Y-136009711D01*
X92271786Y-136009707D01*
X92160292Y-135898213D01*
X92160288Y-135898210D01*
X92029185Y-135810609D01*
X92029172Y-135810602D01*
X91883501Y-135750264D01*
X91883489Y-135750261D01*
X91728845Y-135719500D01*
X91728842Y-135719500D01*
X91571158Y-135719500D01*
X91571155Y-135719500D01*
X91416510Y-135750261D01*
X91416498Y-135750264D01*
X91270827Y-135810602D01*
X91270814Y-135810609D01*
X91139711Y-135898210D01*
X91139707Y-135898213D01*
X91028213Y-136009707D01*
X91028210Y-136009711D01*
X90940609Y-136140814D01*
X90940602Y-136140827D01*
X90880264Y-136286498D01*
X90880261Y-136286510D01*
X90849500Y-136441153D01*
X45940500Y-136441153D01*
X45940500Y-93284735D01*
X48122100Y-93284735D01*
X48122100Y-94955270D01*
X48122101Y-94955276D01*
X48128508Y-95014883D01*
X48178802Y-95149728D01*
X48178806Y-95149735D01*
X48265052Y-95264944D01*
X48265055Y-95264947D01*
X48380264Y-95351193D01*
X48380271Y-95351197D01*
X48425218Y-95367961D01*
X48515117Y-95401491D01*
X48574727Y-95407900D01*
X48574741Y-95407899D01*
X48574844Y-95407911D01*
X48639395Y-95434649D01*
X48679244Y-95492041D01*
X48681739Y-95561866D01*
X48646087Y-95621955D01*
X48634476Y-95631519D01*
X48570991Y-95677643D01*
X48427639Y-95820995D01*
X48308492Y-95984990D01*
X48216458Y-96165615D01*
X48153812Y-96358419D01*
X48122100Y-96558640D01*
X48122100Y-96761359D01*
X48153812Y-96961580D01*
X48216458Y-97154384D01*
X48308492Y-97335009D01*
X48427639Y-97499004D01*
X48570995Y-97642360D01*
X48724456Y-97753854D01*
X48734994Y-97761510D01*
X48820194Y-97804921D01*
X48848834Y-97819515D01*
X48899630Y-97867490D01*
X48916425Y-97935311D01*
X48893887Y-98001446D01*
X48848834Y-98040485D01*
X48734990Y-98098492D01*
X48570995Y-98217639D01*
X48427639Y-98360995D01*
X48308492Y-98524990D01*
X48216458Y-98705615D01*
X48153812Y-98898419D01*
X48122100Y-99098640D01*
X48122100Y-99301359D01*
X48153812Y-99501580D01*
X48216458Y-99694384D01*
X48308492Y-99875009D01*
X48427639Y-100039004D01*
X48570995Y-100182360D01*
X48724456Y-100293854D01*
X48734994Y-100301510D01*
X48820194Y-100344921D01*
X48848834Y-100359515D01*
X48899630Y-100407490D01*
X48916425Y-100475311D01*
X48893887Y-100541446D01*
X48848834Y-100580485D01*
X48734990Y-100638492D01*
X48570995Y-100757639D01*
X48427639Y-100900995D01*
X48308492Y-101064990D01*
X48216458Y-101245615D01*
X48153812Y-101438419D01*
X48122100Y-101638640D01*
X48122100Y-101841359D01*
X48153812Y-102041580D01*
X48216458Y-102234384D01*
X48308492Y-102415009D01*
X48427639Y-102579004D01*
X48570995Y-102722360D01*
X48724456Y-102833854D01*
X48734994Y-102841510D01*
X48820194Y-102884921D01*
X48848834Y-102899515D01*
X48899630Y-102947490D01*
X48916425Y-103015311D01*
X48893887Y-103081446D01*
X48848834Y-103120485D01*
X48734990Y-103178492D01*
X48570995Y-103297639D01*
X48427639Y-103440995D01*
X48308492Y-103604990D01*
X48216458Y-103785615D01*
X48153812Y-103978419D01*
X48122100Y-104178640D01*
X48122100Y-104381359D01*
X48153812Y-104581580D01*
X48216458Y-104774384D01*
X48308492Y-104955009D01*
X48427639Y-105119004D01*
X48570995Y-105262360D01*
X48724456Y-105373854D01*
X48734994Y-105381510D01*
X48820194Y-105424921D01*
X48848834Y-105439515D01*
X48899630Y-105487490D01*
X48916425Y-105555311D01*
X48893887Y-105621446D01*
X48848834Y-105660485D01*
X48734990Y-105718492D01*
X48570995Y-105837639D01*
X48427639Y-105980995D01*
X48308492Y-106144990D01*
X48216458Y-106325615D01*
X48153812Y-106518419D01*
X48122100Y-106718640D01*
X48122100Y-106921359D01*
X48153793Y-107121463D01*
X48153813Y-107121584D01*
X48216457Y-107314382D01*
X48308360Y-107494751D01*
X48308492Y-107495009D01*
X48427639Y-107659004D01*
X48570995Y-107802360D01*
X48724456Y-107913854D01*
X48734994Y-107921510D01*
X48820194Y-107964921D01*
X48848834Y-107979515D01*
X48899630Y-108027490D01*
X48916425Y-108095311D01*
X48893887Y-108161446D01*
X48848834Y-108200485D01*
X48734990Y-108258492D01*
X48570995Y-108377639D01*
X48427639Y-108520995D01*
X48308492Y-108684990D01*
X48216458Y-108865615D01*
X48153812Y-109058419D01*
X48122100Y-109258640D01*
X48122100Y-109461359D01*
X48153812Y-109661580D01*
X48216458Y-109854384D01*
X48308492Y-110035009D01*
X48427639Y-110199004D01*
X48570995Y-110342360D01*
X48724456Y-110453854D01*
X48734994Y-110461510D01*
X48820194Y-110504921D01*
X48848834Y-110519515D01*
X48899630Y-110567490D01*
X48916425Y-110635311D01*
X48893887Y-110701446D01*
X48848834Y-110740485D01*
X48734990Y-110798492D01*
X48570995Y-110917639D01*
X48427639Y-111060995D01*
X48308492Y-111224990D01*
X48216458Y-111405615D01*
X48153812Y-111598419D01*
X48122100Y-111798640D01*
X48122100Y-112001359D01*
X48153812Y-112201580D01*
X48216458Y-112394384D01*
X48308492Y-112575009D01*
X48427639Y-112739004D01*
X48570995Y-112882360D01*
X48724456Y-112993854D01*
X48734994Y-113001510D01*
X48820194Y-113044921D01*
X48848834Y-113059515D01*
X48899630Y-113107490D01*
X48916425Y-113175311D01*
X48893887Y-113241446D01*
X48848834Y-113280485D01*
X48734990Y-113338492D01*
X48570995Y-113457639D01*
X48427639Y-113600995D01*
X48308492Y-113764990D01*
X48216458Y-113945615D01*
X48153812Y-114138419D01*
X48122100Y-114338640D01*
X48122100Y-114541359D01*
X48153812Y-114741580D01*
X48216458Y-114934384D01*
X48308492Y-115115009D01*
X48427639Y-115279004D01*
X48570995Y-115422360D01*
X48724456Y-115533854D01*
X48734994Y-115541510D01*
X48820194Y-115584921D01*
X48848834Y-115599515D01*
X48899630Y-115647490D01*
X48916425Y-115715311D01*
X48893887Y-115781446D01*
X48848834Y-115820485D01*
X48734990Y-115878492D01*
X48570995Y-115997639D01*
X48427639Y-116140995D01*
X48308492Y-116304990D01*
X48216458Y-116485615D01*
X48153812Y-116678419D01*
X48122100Y-116878640D01*
X48122100Y-117081359D01*
X48153812Y-117281580D01*
X48216458Y-117474384D01*
X48308492Y-117655009D01*
X48427639Y-117819004D01*
X48570995Y-117962360D01*
X48724456Y-118073854D01*
X48734994Y-118081510D01*
X48820194Y-118124921D01*
X48848834Y-118139515D01*
X48899630Y-118187490D01*
X48916425Y-118255311D01*
X48893887Y-118321446D01*
X48848834Y-118360485D01*
X48734990Y-118418492D01*
X48570995Y-118537639D01*
X48427639Y-118680995D01*
X48308492Y-118844990D01*
X48216458Y-119025615D01*
X48153812Y-119218419D01*
X48122100Y-119418640D01*
X48122100Y-119621359D01*
X48153812Y-119821580D01*
X48216458Y-120014384D01*
X48308492Y-120195009D01*
X48427639Y-120359004D01*
X48570995Y-120502360D01*
X48724456Y-120613854D01*
X48734994Y-120621510D01*
X48820194Y-120664921D01*
X48848834Y-120679515D01*
X48899630Y-120727490D01*
X48916425Y-120795311D01*
X48893887Y-120861446D01*
X48848834Y-120900485D01*
X48734990Y-120958492D01*
X48570995Y-121077639D01*
X48427639Y-121220995D01*
X48308492Y-121384990D01*
X48216458Y-121565615D01*
X48153812Y-121758419D01*
X48122100Y-121958640D01*
X48122100Y-122161359D01*
X48153812Y-122361580D01*
X48216458Y-122554384D01*
X48308492Y-122735009D01*
X48427639Y-122899004D01*
X48570995Y-123042360D01*
X48724456Y-123153854D01*
X48734994Y-123161510D01*
X48820194Y-123204921D01*
X48848834Y-123219515D01*
X48899630Y-123267490D01*
X48916425Y-123335311D01*
X48893887Y-123401446D01*
X48848834Y-123440485D01*
X48734990Y-123498492D01*
X48570995Y-123617639D01*
X48427639Y-123760995D01*
X48308492Y-123924990D01*
X48216458Y-124105615D01*
X48153812Y-124298419D01*
X48122100Y-124498640D01*
X48122100Y-124701359D01*
X48151562Y-124887376D01*
X48153813Y-124901584D01*
X48212457Y-125082072D01*
X48216458Y-125094384D01*
X48308492Y-125275009D01*
X48427639Y-125439004D01*
X48570995Y-125582360D01*
X48724456Y-125693854D01*
X48734994Y-125701510D01*
X48820194Y-125744921D01*
X48848834Y-125759515D01*
X48899630Y-125807490D01*
X48916425Y-125875311D01*
X48893887Y-125941446D01*
X48848834Y-125980485D01*
X48734990Y-126038492D01*
X48570995Y-126157639D01*
X48427639Y-126300995D01*
X48308492Y-126464990D01*
X48216458Y-126645615D01*
X48153812Y-126838419D01*
X48122100Y-127038640D01*
X48122100Y-127241359D01*
X48147387Y-127401017D01*
X48153813Y-127441584D01*
X48194274Y-127566111D01*
X48216458Y-127634384D01*
X48308492Y-127815009D01*
X48427639Y-127979004D01*
X48570995Y-128122360D01*
X48724456Y-128233854D01*
X48734994Y-128241510D01*
X48820194Y-128284921D01*
X48848834Y-128299515D01*
X48899630Y-128347490D01*
X48916425Y-128415311D01*
X48893887Y-128481446D01*
X48848834Y-128520485D01*
X48734990Y-128578492D01*
X48570995Y-128697639D01*
X48427639Y-128840995D01*
X48308492Y-129004990D01*
X48216458Y-129185615D01*
X48153812Y-129378419D01*
X48122100Y-129578640D01*
X48122100Y-129781359D01*
X48153812Y-129981580D01*
X48216458Y-130174384D01*
X48308492Y-130355009D01*
X48427639Y-130519004D01*
X48570995Y-130662360D01*
X48724456Y-130773854D01*
X48734994Y-130781510D01*
X48820194Y-130824921D01*
X48848834Y-130839515D01*
X48899630Y-130887490D01*
X48916425Y-130955311D01*
X48893887Y-131021446D01*
X48848834Y-131060485D01*
X48734990Y-131118492D01*
X48570995Y-131237639D01*
X48427639Y-131380995D01*
X48308492Y-131544990D01*
X48216458Y-131725615D01*
X48153812Y-131918419D01*
X48122100Y-132118640D01*
X48122100Y-132321359D01*
X48153812Y-132521580D01*
X48216458Y-132714384D01*
X48308492Y-132895009D01*
X48427639Y-133059004D01*
X48570995Y-133202360D01*
X48724456Y-133313854D01*
X48734994Y-133321510D01*
X48820194Y-133364921D01*
X48848834Y-133379515D01*
X48899630Y-133427490D01*
X48916425Y-133495311D01*
X48893887Y-133561446D01*
X48848834Y-133600485D01*
X48734990Y-133658492D01*
X48570995Y-133777639D01*
X48427639Y-133920995D01*
X48308492Y-134084990D01*
X48216458Y-134265615D01*
X48153812Y-134458419D01*
X48122100Y-134658640D01*
X48122100Y-134861359D01*
X48153812Y-135061580D01*
X48216458Y-135254384D01*
X48308492Y-135435009D01*
X48427639Y-135599004D01*
X48570995Y-135742360D01*
X48664934Y-135810609D01*
X48734994Y-135861510D01*
X48915618Y-135953543D01*
X49108416Y-136016187D01*
X49308640Y-136047900D01*
X49308641Y-136047900D01*
X49511359Y-136047900D01*
X49511360Y-136047900D01*
X49711584Y-136016187D01*
X49904382Y-135953543D01*
X50085006Y-135861510D01*
X50177085Y-135794610D01*
X50249004Y-135742360D01*
X50249006Y-135742357D01*
X50249010Y-135742355D01*
X50392355Y-135599010D01*
X50392357Y-135599006D01*
X50392360Y-135599004D01*
X50444610Y-135527085D01*
X50511510Y-135435006D01*
X50603543Y-135254382D01*
X50666187Y-135061584D01*
X50697900Y-134861360D01*
X50697900Y-134658640D01*
X50666187Y-134458416D01*
X50603543Y-134265618D01*
X50511510Y-134084994D01*
X50503854Y-134074456D01*
X50392360Y-133920995D01*
X50249004Y-133777639D01*
X50085009Y-133658492D01*
X50085008Y-133658491D01*
X50085006Y-133658490D01*
X49971164Y-133600484D01*
X49920369Y-133552510D01*
X49903574Y-133484689D01*
X49926111Y-133418554D01*
X49971165Y-133379515D01*
X50085006Y-133321510D01*
X50177085Y-133254610D01*
X50249004Y-133202360D01*
X50249006Y-133202357D01*
X50249010Y-133202355D01*
X50392355Y-133059010D01*
X50392357Y-133059006D01*
X50392360Y-133059004D01*
X50444610Y-132987085D01*
X50511510Y-132895006D01*
X50603543Y-132714382D01*
X50666187Y-132521584D01*
X50697900Y-132321360D01*
X50697900Y-132118640D01*
X50666187Y-131918416D01*
X50603543Y-131725618D01*
X50511510Y-131544994D01*
X50503854Y-131534456D01*
X50392360Y-131380995D01*
X50249004Y-131237639D01*
X50085009Y-131118492D01*
X50085008Y-131118491D01*
X50085006Y-131118490D01*
X49971164Y-131060484D01*
X49920369Y-131012510D01*
X49903574Y-130944689D01*
X49926111Y-130878554D01*
X49971165Y-130839515D01*
X50085006Y-130781510D01*
X50177085Y-130714610D01*
X50249004Y-130662360D01*
X50249006Y-130662357D01*
X50249010Y-130662355D01*
X50392355Y-130519010D01*
X50392357Y-130519006D01*
X50392360Y-130519004D01*
X50444610Y-130447085D01*
X50511510Y-130355006D01*
X50603543Y-130174382D01*
X50666187Y-129981584D01*
X50697900Y-129781360D01*
X50697900Y-129578640D01*
X50666187Y-129378416D01*
X50603543Y-129185618D01*
X50511510Y-129004994D01*
X50503854Y-128994456D01*
X50392360Y-128840995D01*
X50249004Y-128697639D01*
X50085009Y-128578492D01*
X50085008Y-128578491D01*
X50085006Y-128578490D01*
X49971164Y-128520484D01*
X49920369Y-128472510D01*
X49903574Y-128404689D01*
X49926111Y-128338554D01*
X49971165Y-128299515D01*
X50085006Y-128241510D01*
X50177085Y-128174610D01*
X50249004Y-128122360D01*
X50249006Y-128122357D01*
X50249010Y-128122355D01*
X50392355Y-127979010D01*
X50392357Y-127979006D01*
X50392360Y-127979004D01*
X50480322Y-127857933D01*
X50511510Y-127815006D01*
X50603543Y-127634382D01*
X50666187Y-127441584D01*
X50697900Y-127241360D01*
X50697900Y-127038640D01*
X50666187Y-126838416D01*
X50603543Y-126645618D01*
X50511510Y-126464994D01*
X50465129Y-126401155D01*
X50392360Y-126300995D01*
X50249004Y-126157639D01*
X50085009Y-126038492D01*
X50085008Y-126038491D01*
X50085006Y-126038490D01*
X49971164Y-125980484D01*
X49920369Y-125932510D01*
X49903574Y-125864689D01*
X49926111Y-125798554D01*
X49971165Y-125759515D01*
X49978197Y-125755932D01*
X50085006Y-125701510D01*
X50178017Y-125633934D01*
X50249004Y-125582360D01*
X50249006Y-125582357D01*
X50249010Y-125582355D01*
X50392355Y-125439010D01*
X50392357Y-125439006D01*
X50392360Y-125439004D01*
X50492972Y-125300521D01*
X50511510Y-125275006D01*
X50603543Y-125094382D01*
X50666187Y-124901584D01*
X50697900Y-124701360D01*
X50697900Y-124498640D01*
X50666187Y-124298416D01*
X50603543Y-124105618D01*
X50511510Y-123924994D01*
X50503854Y-123914456D01*
X50392360Y-123760995D01*
X50249004Y-123617639D01*
X50085009Y-123498492D01*
X50085008Y-123498491D01*
X50085006Y-123498490D01*
X49971164Y-123440484D01*
X49920369Y-123392510D01*
X49903574Y-123324689D01*
X49926111Y-123258554D01*
X49971165Y-123219515D01*
X50085006Y-123161510D01*
X50177085Y-123094610D01*
X50249004Y-123042360D01*
X50249006Y-123042357D01*
X50249010Y-123042355D01*
X50392355Y-122899010D01*
X50392357Y-122899006D01*
X50392360Y-122899004D01*
X50444610Y-122827085D01*
X50511510Y-122735006D01*
X50603543Y-122554382D01*
X50666187Y-122361584D01*
X50697900Y-122161360D01*
X50697900Y-121958640D01*
X50666187Y-121758416D01*
X50603543Y-121565618D01*
X50511510Y-121384994D01*
X50503854Y-121374456D01*
X50392360Y-121220995D01*
X50249004Y-121077639D01*
X50085009Y-120958492D01*
X50085008Y-120958491D01*
X50085006Y-120958490D01*
X49971164Y-120900484D01*
X49920369Y-120852510D01*
X49903574Y-120784689D01*
X49926111Y-120718554D01*
X49971165Y-120679515D01*
X50085006Y-120621510D01*
X50177085Y-120554610D01*
X50249004Y-120502360D01*
X50249006Y-120502357D01*
X50249010Y-120502355D01*
X50392355Y-120359010D01*
X50392357Y-120359006D01*
X50392360Y-120359004D01*
X50444610Y-120287085D01*
X50511510Y-120195006D01*
X50603543Y-120014382D01*
X50666187Y-119821584D01*
X50697900Y-119621360D01*
X50697900Y-119418640D01*
X50666187Y-119218416D01*
X50603543Y-119025618D01*
X50511510Y-118844994D01*
X50503854Y-118834456D01*
X50392360Y-118680995D01*
X50249004Y-118537639D01*
X50085009Y-118418492D01*
X50085008Y-118418491D01*
X50085006Y-118418490D01*
X49971164Y-118360484D01*
X49920369Y-118312510D01*
X49903574Y-118244689D01*
X49926111Y-118178554D01*
X49971165Y-118139515D01*
X50085006Y-118081510D01*
X50177085Y-118014610D01*
X50249004Y-117962360D01*
X50249006Y-117962357D01*
X50249010Y-117962355D01*
X50392355Y-117819010D01*
X50392357Y-117819006D01*
X50392360Y-117819004D01*
X50444610Y-117747085D01*
X50511510Y-117655006D01*
X50603543Y-117474382D01*
X50666187Y-117281584D01*
X50697900Y-117081360D01*
X50697900Y-116878640D01*
X50666187Y-116678416D01*
X50603543Y-116485618D01*
X50511510Y-116304994D01*
X50503854Y-116294456D01*
X50392360Y-116140995D01*
X50249004Y-115997639D01*
X50085009Y-115878492D01*
X50085008Y-115878491D01*
X50085006Y-115878490D01*
X49971164Y-115820484D01*
X49920369Y-115772510D01*
X49903574Y-115704689D01*
X49926111Y-115638554D01*
X49971165Y-115599515D01*
X50085006Y-115541510D01*
X50177085Y-115474610D01*
X50249004Y-115422360D01*
X50249006Y-115422357D01*
X50249010Y-115422355D01*
X50392355Y-115279010D01*
X50392357Y-115279006D01*
X50392360Y-115279004D01*
X50444610Y-115207085D01*
X50511510Y-115115006D01*
X50603543Y-114934382D01*
X50666187Y-114741584D01*
X50697900Y-114541360D01*
X50697900Y-114338640D01*
X50666187Y-114138416D01*
X50603543Y-113945618D01*
X50511510Y-113764994D01*
X50503854Y-113754456D01*
X50392360Y-113600995D01*
X50249004Y-113457639D01*
X50085009Y-113338492D01*
X50085008Y-113338491D01*
X50085006Y-113338490D01*
X49971164Y-113280484D01*
X49920369Y-113232510D01*
X49903574Y-113164689D01*
X49926111Y-113098554D01*
X49971165Y-113059515D01*
X50085006Y-113001510D01*
X50177085Y-112934610D01*
X50249004Y-112882360D01*
X50249006Y-112882357D01*
X50249010Y-112882355D01*
X50392355Y-112739010D01*
X50392357Y-112739006D01*
X50392360Y-112739004D01*
X50444610Y-112667085D01*
X50511510Y-112575006D01*
X50603543Y-112394382D01*
X50666187Y-112201584D01*
X50697900Y-112001360D01*
X50697900Y-111798640D01*
X50666187Y-111598416D01*
X50603543Y-111405618D01*
X50511510Y-111224994D01*
X50503854Y-111214456D01*
X50392360Y-111060995D01*
X50249004Y-110917639D01*
X50085009Y-110798492D01*
X50085008Y-110798491D01*
X50085006Y-110798490D01*
X49971164Y-110740484D01*
X49920369Y-110692510D01*
X49903574Y-110624689D01*
X49926111Y-110558554D01*
X49971165Y-110519515D01*
X50085006Y-110461510D01*
X50177085Y-110394610D01*
X50249004Y-110342360D01*
X50249006Y-110342357D01*
X50249010Y-110342355D01*
X50392355Y-110199010D01*
X50392357Y-110199006D01*
X50392360Y-110199004D01*
X50444610Y-110127085D01*
X50511510Y-110035006D01*
X50603543Y-109854382D01*
X50666187Y-109661584D01*
X50697900Y-109461360D01*
X50697900Y-109258640D01*
X50666187Y-109058416D01*
X50603543Y-108865618D01*
X50511510Y-108684994D01*
X50503854Y-108674456D01*
X50392360Y-108520995D01*
X50249004Y-108377639D01*
X50085009Y-108258492D01*
X50085008Y-108258491D01*
X50085006Y-108258490D01*
X49971164Y-108200484D01*
X49920369Y-108152510D01*
X49903574Y-108084689D01*
X49926111Y-108018554D01*
X49971165Y-107979515D01*
X50085006Y-107921510D01*
X50177085Y-107854610D01*
X50249004Y-107802360D01*
X50249006Y-107802357D01*
X50249010Y-107802355D01*
X50392355Y-107659010D01*
X50392357Y-107659006D01*
X50392360Y-107659004D01*
X50481073Y-107536899D01*
X50511510Y-107495006D01*
X50603543Y-107314382D01*
X50666187Y-107121584D01*
X50697900Y-106921360D01*
X50697900Y-106718640D01*
X50666187Y-106518416D01*
X50603543Y-106325618D01*
X50511510Y-106144994D01*
X50481071Y-106103098D01*
X50392360Y-105980995D01*
X50249004Y-105837639D01*
X50085009Y-105718492D01*
X50085008Y-105718491D01*
X50085006Y-105718490D01*
X49971164Y-105660484D01*
X49920369Y-105612510D01*
X49903574Y-105544689D01*
X49926111Y-105478554D01*
X49971165Y-105439515D01*
X50085006Y-105381510D01*
X50177085Y-105314610D01*
X50249004Y-105262360D01*
X50249006Y-105262357D01*
X50249010Y-105262355D01*
X50392355Y-105119010D01*
X50392357Y-105119006D01*
X50392360Y-105119004D01*
X50444610Y-105047085D01*
X50511510Y-104955006D01*
X50603543Y-104774382D01*
X50666187Y-104581584D01*
X50697900Y-104381360D01*
X50697900Y-104178640D01*
X50666187Y-103978416D01*
X50603543Y-103785618D01*
X50511510Y-103604994D01*
X50503854Y-103594456D01*
X50392360Y-103440995D01*
X50249004Y-103297639D01*
X50085009Y-103178492D01*
X50085008Y-103178491D01*
X50085006Y-103178490D01*
X49971164Y-103120484D01*
X49920369Y-103072510D01*
X49903574Y-103004689D01*
X49926111Y-102938554D01*
X49971165Y-102899515D01*
X50085006Y-102841510D01*
X50177085Y-102774610D01*
X50249004Y-102722360D01*
X50249006Y-102722357D01*
X50249010Y-102722355D01*
X50392355Y-102579010D01*
X50392357Y-102579006D01*
X50392360Y-102579004D01*
X50444610Y-102507085D01*
X50511510Y-102415006D01*
X50603543Y-102234382D01*
X50666187Y-102041584D01*
X50697900Y-101841360D01*
X50697900Y-101638640D01*
X50666187Y-101438416D01*
X50603543Y-101245618D01*
X50511510Y-101064994D01*
X50503854Y-101054456D01*
X50392360Y-100900995D01*
X50249004Y-100757639D01*
X50085009Y-100638492D01*
X50085008Y-100638491D01*
X50085006Y-100638490D01*
X49971164Y-100580484D01*
X49920369Y-100532510D01*
X49903574Y-100464689D01*
X49926111Y-100398554D01*
X49971165Y-100359515D01*
X50085006Y-100301510D01*
X50177085Y-100234610D01*
X50249004Y-100182360D01*
X50249006Y-100182357D01*
X50249010Y-100182355D01*
X50392355Y-100039010D01*
X50392357Y-100039006D01*
X50392360Y-100039004D01*
X50444610Y-99967085D01*
X50511510Y-99875006D01*
X50603543Y-99694382D01*
X50666187Y-99501584D01*
X50697900Y-99301360D01*
X50697900Y-99098640D01*
X50666187Y-98898416D01*
X50603543Y-98705618D01*
X50511510Y-98524994D01*
X50503854Y-98514456D01*
X50392360Y-98360995D01*
X50249004Y-98217639D01*
X50085009Y-98098492D01*
X50085008Y-98098491D01*
X50085006Y-98098490D01*
X49971164Y-98040484D01*
X49920369Y-97992510D01*
X49903574Y-97924689D01*
X49926111Y-97858554D01*
X49971165Y-97819515D01*
X50085006Y-97761510D01*
X50177085Y-97694610D01*
X50249004Y-97642360D01*
X50249006Y-97642357D01*
X50249010Y-97642355D01*
X50392355Y-97499010D01*
X50392357Y-97499006D01*
X50392360Y-97499004D01*
X50444610Y-97427085D01*
X50511510Y-97335006D01*
X50603543Y-97154382D01*
X50666187Y-96961584D01*
X50697900Y-96761360D01*
X50697900Y-96558640D01*
X50666187Y-96358416D01*
X50603543Y-96165618D01*
X50511510Y-95984994D01*
X50503854Y-95974456D01*
X50392360Y-95820995D01*
X50249008Y-95677643D01*
X50249003Y-95677639D01*
X50185524Y-95631519D01*
X50142858Y-95576190D01*
X50136879Y-95506576D01*
X50169484Y-95444781D01*
X50230323Y-95410424D01*
X50245157Y-95407911D01*
X50245269Y-95407899D01*
X50245272Y-95407899D01*
X50304883Y-95401491D01*
X50439731Y-95351196D01*
X50554946Y-95264946D01*
X50641196Y-95149731D01*
X50691491Y-95014883D01*
X50697900Y-94955273D01*
X50697899Y-94018640D01*
X63362100Y-94018640D01*
X63362100Y-94221359D01*
X63393812Y-94421580D01*
X63456458Y-94614384D01*
X63548492Y-94795009D01*
X63667639Y-94959004D01*
X63810995Y-95102360D01*
X63964456Y-95213854D01*
X63974994Y-95221510D01*
X64060194Y-95264921D01*
X64088834Y-95279515D01*
X64139630Y-95327490D01*
X64156425Y-95395311D01*
X64133887Y-95461446D01*
X64088834Y-95500485D01*
X63974990Y-95558492D01*
X63810995Y-95677639D01*
X63667639Y-95820995D01*
X63548492Y-95984990D01*
X63456458Y-96165615D01*
X63393812Y-96358419D01*
X63362100Y-96558640D01*
X63362100Y-96761359D01*
X63393812Y-96961580D01*
X63456458Y-97154384D01*
X63548492Y-97335009D01*
X63667639Y-97499004D01*
X63810995Y-97642360D01*
X63964456Y-97753854D01*
X63974994Y-97761510D01*
X64060194Y-97804921D01*
X64088834Y-97819515D01*
X64139630Y-97867490D01*
X64156425Y-97935311D01*
X64133887Y-98001446D01*
X64088834Y-98040485D01*
X63974990Y-98098492D01*
X63810995Y-98217639D01*
X63667639Y-98360995D01*
X63548492Y-98524990D01*
X63456458Y-98705615D01*
X63393812Y-98898419D01*
X63362100Y-99098640D01*
X63362100Y-99301359D01*
X63393812Y-99501580D01*
X63456458Y-99694384D01*
X63548492Y-99875009D01*
X63667639Y-100039004D01*
X63810995Y-100182360D01*
X63964456Y-100293854D01*
X63974994Y-100301510D01*
X64060194Y-100344921D01*
X64088834Y-100359515D01*
X64139630Y-100407490D01*
X64156425Y-100475311D01*
X64133887Y-100541446D01*
X64088834Y-100580485D01*
X63974990Y-100638492D01*
X63810995Y-100757639D01*
X63667639Y-100900995D01*
X63548492Y-101064990D01*
X63456458Y-101245615D01*
X63393812Y-101438419D01*
X63362100Y-101638640D01*
X63362100Y-101841359D01*
X63393812Y-102041580D01*
X63456458Y-102234384D01*
X63548492Y-102415009D01*
X63667639Y-102579004D01*
X63810995Y-102722360D01*
X63964456Y-102833854D01*
X63974994Y-102841510D01*
X64060194Y-102884921D01*
X64088834Y-102899515D01*
X64139630Y-102947490D01*
X64156425Y-103015311D01*
X64133887Y-103081446D01*
X64088834Y-103120485D01*
X63974990Y-103178492D01*
X63810995Y-103297639D01*
X63667639Y-103440995D01*
X63548492Y-103604990D01*
X63456458Y-103785615D01*
X63393812Y-103978419D01*
X63362100Y-104178640D01*
X63362100Y-104381359D01*
X63393812Y-104581580D01*
X63456458Y-104774384D01*
X63548492Y-104955009D01*
X63667639Y-105119004D01*
X63810995Y-105262360D01*
X63964456Y-105373854D01*
X63974994Y-105381510D01*
X64080309Y-105435171D01*
X64089384Y-105439795D01*
X64140180Y-105487770D01*
X64156975Y-105555591D01*
X64134437Y-105621726D01*
X64089384Y-105660765D01*
X63975251Y-105718919D01*
X63933099Y-105749544D01*
X63933098Y-105749545D01*
X64555536Y-106371983D01*
X64473527Y-106393958D01*
X64369273Y-106454149D01*
X64284149Y-106539273D01*
X64223958Y-106643527D01*
X64201983Y-106725536D01*
X63579545Y-106103098D01*
X63579544Y-106103099D01*
X63548919Y-106145250D01*
X63456921Y-106325807D01*
X63394299Y-106518536D01*
X63362600Y-106718679D01*
X63362600Y-106921320D01*
X63394299Y-107121463D01*
X63456921Y-107314192D01*
X63548916Y-107494744D01*
X63579545Y-107536899D01*
X63579546Y-107536900D01*
X64201983Y-106914462D01*
X64223958Y-106996473D01*
X64284149Y-107100727D01*
X64369273Y-107185851D01*
X64473527Y-107246042D01*
X64555536Y-107268016D01*
X63933099Y-107890453D01*
X63933099Y-107890454D01*
X63975257Y-107921084D01*
X64089383Y-107979234D01*
X64140180Y-108027208D01*
X64156975Y-108095029D01*
X64134438Y-108161164D01*
X64089385Y-108200203D01*
X63974992Y-108258490D01*
X63810995Y-108377639D01*
X63667639Y-108520995D01*
X63548492Y-108684990D01*
X63456458Y-108865615D01*
X63393812Y-109058419D01*
X63362100Y-109258640D01*
X63362100Y-109461359D01*
X63393812Y-109661580D01*
X63456458Y-109854384D01*
X63548492Y-110035009D01*
X63667639Y-110199004D01*
X63810995Y-110342360D01*
X63964456Y-110453854D01*
X63974994Y-110461510D01*
X64060194Y-110504921D01*
X64088834Y-110519515D01*
X64139630Y-110567490D01*
X64156425Y-110635311D01*
X64133887Y-110701446D01*
X64088834Y-110740485D01*
X63974990Y-110798492D01*
X63810995Y-110917639D01*
X63667639Y-111060995D01*
X63548492Y-111224990D01*
X63456458Y-111405615D01*
X63393812Y-111598419D01*
X63362100Y-111798640D01*
X63362100Y-112001359D01*
X63393812Y-112201580D01*
X63456458Y-112394384D01*
X63548492Y-112575009D01*
X63667639Y-112739004D01*
X63810995Y-112882360D01*
X63964456Y-112993854D01*
X63974994Y-113001510D01*
X64060194Y-113044921D01*
X64088834Y-113059515D01*
X64139630Y-113107490D01*
X64156425Y-113175311D01*
X64133887Y-113241446D01*
X64088834Y-113280485D01*
X63974990Y-113338492D01*
X63810995Y-113457639D01*
X63667639Y-113600995D01*
X63548492Y-113764990D01*
X63456458Y-113945615D01*
X63393812Y-114138419D01*
X63362100Y-114338640D01*
X63362100Y-114541359D01*
X63393812Y-114741580D01*
X63456458Y-114934384D01*
X63548492Y-115115009D01*
X63667639Y-115279004D01*
X63810995Y-115422360D01*
X63964456Y-115533854D01*
X63974994Y-115541510D01*
X64060194Y-115584921D01*
X64088834Y-115599515D01*
X64139630Y-115647490D01*
X64156425Y-115715311D01*
X64133887Y-115781446D01*
X64088834Y-115820485D01*
X63974990Y-115878492D01*
X63810995Y-115997639D01*
X63667639Y-116140995D01*
X63548492Y-116304990D01*
X63456458Y-116485615D01*
X63393812Y-116678419D01*
X63362100Y-116878640D01*
X63362100Y-117081359D01*
X63393812Y-117281580D01*
X63456458Y-117474384D01*
X63548492Y-117655009D01*
X63667639Y-117819004D01*
X63810995Y-117962360D01*
X63964456Y-118073854D01*
X63974994Y-118081510D01*
X64060194Y-118124921D01*
X64088834Y-118139515D01*
X64139630Y-118187490D01*
X64156425Y-118255311D01*
X64133887Y-118321446D01*
X64088834Y-118360485D01*
X63974990Y-118418492D01*
X63810995Y-118537639D01*
X63667639Y-118680995D01*
X63548492Y-118844990D01*
X63456458Y-119025615D01*
X63393812Y-119218419D01*
X63362100Y-119418640D01*
X63362100Y-119621359D01*
X63393812Y-119821580D01*
X63456458Y-120014384D01*
X63548492Y-120195009D01*
X63667639Y-120359004D01*
X63810995Y-120502360D01*
X63964456Y-120613854D01*
X63974994Y-120621510D01*
X64060194Y-120664921D01*
X64088834Y-120679515D01*
X64139630Y-120727490D01*
X64156425Y-120795311D01*
X64133887Y-120861446D01*
X64088834Y-120900485D01*
X63974990Y-120958492D01*
X63810995Y-121077639D01*
X63667639Y-121220995D01*
X63548492Y-121384990D01*
X63456458Y-121565615D01*
X63393812Y-121758419D01*
X63362100Y-121958640D01*
X63362100Y-122161359D01*
X63393812Y-122361580D01*
X63456458Y-122554384D01*
X63548492Y-122735009D01*
X63667639Y-122899004D01*
X63810995Y-123042360D01*
X63964456Y-123153854D01*
X63974994Y-123161510D01*
X64060194Y-123204921D01*
X64088834Y-123219515D01*
X64139630Y-123267490D01*
X64156425Y-123335311D01*
X64133887Y-123401446D01*
X64088834Y-123440485D01*
X63974990Y-123498492D01*
X63810995Y-123617639D01*
X63667639Y-123760995D01*
X63548492Y-123924990D01*
X63456458Y-124105615D01*
X63393812Y-124298419D01*
X63362100Y-124498640D01*
X63362100Y-124701359D01*
X63391562Y-124887376D01*
X63393813Y-124901584D01*
X63452457Y-125082072D01*
X63456458Y-125094384D01*
X63548492Y-125275009D01*
X63667639Y-125439004D01*
X63810995Y-125582360D01*
X63964456Y-125693854D01*
X63974994Y-125701510D01*
X64060194Y-125744921D01*
X64088834Y-125759515D01*
X64139630Y-125807490D01*
X64156425Y-125875311D01*
X64133887Y-125941446D01*
X64088834Y-125980485D01*
X63974990Y-126038492D01*
X63810995Y-126157639D01*
X63667639Y-126300995D01*
X63548492Y-126464990D01*
X63456458Y-126645615D01*
X63393812Y-126838419D01*
X63362100Y-127038640D01*
X63362100Y-127241359D01*
X63387387Y-127401017D01*
X63393813Y-127441584D01*
X63434274Y-127566111D01*
X63456458Y-127634384D01*
X63548492Y-127815009D01*
X63667639Y-127979004D01*
X63810995Y-128122360D01*
X63964456Y-128233854D01*
X63974994Y-128241510D01*
X64060194Y-128284921D01*
X64088834Y-128299515D01*
X64139630Y-128347490D01*
X64156425Y-128415311D01*
X64133887Y-128481446D01*
X64088834Y-128520485D01*
X63974990Y-128578492D01*
X63810995Y-128697639D01*
X63667639Y-128840995D01*
X63548492Y-129004990D01*
X63456458Y-129185615D01*
X63393812Y-129378419D01*
X63362100Y-129578640D01*
X63362100Y-129781359D01*
X63393812Y-129981580D01*
X63456458Y-130174384D01*
X63548492Y-130355009D01*
X63667639Y-130519004D01*
X63810995Y-130662360D01*
X63964456Y-130773854D01*
X63974994Y-130781510D01*
X64060194Y-130824921D01*
X64088834Y-130839515D01*
X64139630Y-130887490D01*
X64156425Y-130955311D01*
X64133887Y-131021446D01*
X64088834Y-131060485D01*
X63974990Y-131118492D01*
X63810995Y-131237639D01*
X63667639Y-131380995D01*
X63548492Y-131544990D01*
X63456458Y-131725615D01*
X63393812Y-131918419D01*
X63362100Y-132118640D01*
X63362100Y-132321359D01*
X63393812Y-132521580D01*
X63456458Y-132714384D01*
X63548492Y-132895009D01*
X63667639Y-133059004D01*
X63810995Y-133202360D01*
X63964456Y-133313854D01*
X63974994Y-133321510D01*
X64060194Y-133364921D01*
X64088834Y-133379515D01*
X64139630Y-133427490D01*
X64156425Y-133495311D01*
X64133887Y-133561446D01*
X64088834Y-133600485D01*
X63974990Y-133658492D01*
X63810995Y-133777639D01*
X63667639Y-133920995D01*
X63548492Y-134084990D01*
X63456458Y-134265615D01*
X63393812Y-134458419D01*
X63362100Y-134658640D01*
X63362100Y-134861359D01*
X63393812Y-135061580D01*
X63456458Y-135254384D01*
X63548492Y-135435009D01*
X63667639Y-135599004D01*
X63810995Y-135742360D01*
X63904934Y-135810609D01*
X63974994Y-135861510D01*
X64155618Y-135953543D01*
X64348416Y-136016187D01*
X64548640Y-136047900D01*
X64548641Y-136047900D01*
X64751359Y-136047900D01*
X64751360Y-136047900D01*
X64951584Y-136016187D01*
X65144382Y-135953543D01*
X65325006Y-135861510D01*
X65417085Y-135794610D01*
X65489004Y-135742360D01*
X65489006Y-135742357D01*
X65489010Y-135742355D01*
X65632355Y-135599010D01*
X65632357Y-135599006D01*
X65632360Y-135599004D01*
X65684610Y-135527085D01*
X65751510Y-135435006D01*
X65843543Y-135254382D01*
X65906187Y-135061584D01*
X65937900Y-134861360D01*
X65937900Y-134658640D01*
X65906187Y-134458416D01*
X65843543Y-134265618D01*
X65751510Y-134084994D01*
X65743854Y-134074456D01*
X65632360Y-133920995D01*
X65489004Y-133777639D01*
X65325009Y-133658492D01*
X65325008Y-133658491D01*
X65325006Y-133658490D01*
X65211164Y-133600484D01*
X65160369Y-133552510D01*
X65143574Y-133484689D01*
X65166111Y-133418554D01*
X65211165Y-133379515D01*
X65325006Y-133321510D01*
X65417085Y-133254610D01*
X65489004Y-133202360D01*
X65489006Y-133202357D01*
X65489010Y-133202355D01*
X65632355Y-133059010D01*
X65632357Y-133059006D01*
X65632360Y-133059004D01*
X65684610Y-132987085D01*
X65751510Y-132895006D01*
X65843543Y-132714382D01*
X65906187Y-132521584D01*
X65937900Y-132321360D01*
X65937900Y-132118640D01*
X65906187Y-131918416D01*
X65843543Y-131725618D01*
X65751510Y-131544994D01*
X65743854Y-131534456D01*
X65632360Y-131380995D01*
X65489004Y-131237639D01*
X65325009Y-131118492D01*
X65325008Y-131118491D01*
X65325006Y-131118490D01*
X65211164Y-131060484D01*
X65160369Y-131012510D01*
X65143574Y-130944689D01*
X65166111Y-130878554D01*
X65211165Y-130839515D01*
X65325006Y-130781510D01*
X65417085Y-130714610D01*
X65489004Y-130662360D01*
X65489006Y-130662357D01*
X65489010Y-130662355D01*
X65632355Y-130519010D01*
X65632357Y-130519006D01*
X65632360Y-130519004D01*
X65684610Y-130447085D01*
X65751510Y-130355006D01*
X65843543Y-130174382D01*
X65906187Y-129981584D01*
X65937900Y-129781360D01*
X65937900Y-129578640D01*
X65906187Y-129378416D01*
X65843543Y-129185618D01*
X65751510Y-129004994D01*
X65743854Y-128994456D01*
X65632360Y-128840995D01*
X65489004Y-128697639D01*
X65325009Y-128578492D01*
X65325008Y-128578491D01*
X65325006Y-128578490D01*
X65211164Y-128520484D01*
X65160369Y-128472510D01*
X65143574Y-128404689D01*
X65166111Y-128338554D01*
X65211165Y-128299515D01*
X65325006Y-128241510D01*
X65417085Y-128174610D01*
X65489004Y-128122360D01*
X65489006Y-128122357D01*
X65489010Y-128122355D01*
X65632355Y-127979010D01*
X65632357Y-127979006D01*
X65632360Y-127979004D01*
X65720322Y-127857933D01*
X65751510Y-127815006D01*
X65843543Y-127634382D01*
X65906187Y-127441584D01*
X65937900Y-127241360D01*
X65937900Y-127038640D01*
X65906187Y-126838416D01*
X65843543Y-126645618D01*
X65751510Y-126464994D01*
X65655126Y-126332332D01*
X74599500Y-126332332D01*
X74599500Y-126607667D01*
X74599501Y-126607684D01*
X74635438Y-126880655D01*
X74635439Y-126880660D01*
X74635440Y-126880666D01*
X74635441Y-126880668D01*
X74706704Y-127146630D01*
X74812075Y-127401017D01*
X74812080Y-127401028D01*
X74891809Y-127539121D01*
X74949751Y-127639479D01*
X74949753Y-127639482D01*
X74949754Y-127639483D01*
X75117370Y-127857926D01*
X75117376Y-127857933D01*
X75312066Y-128052623D01*
X75312072Y-128052628D01*
X75530521Y-128220249D01*
X75667814Y-128299515D01*
X75768971Y-128357919D01*
X75768976Y-128357921D01*
X75768979Y-128357923D01*
X76023368Y-128463295D01*
X76289334Y-128534560D01*
X76562326Y-128570500D01*
X76562333Y-128570500D01*
X76837667Y-128570500D01*
X76837674Y-128570500D01*
X77110666Y-128534560D01*
X77376632Y-128463295D01*
X77631021Y-128357923D01*
X77869479Y-128220249D01*
X78087928Y-128052628D01*
X78282628Y-127857928D01*
X78450249Y-127639479D01*
X78587923Y-127401021D01*
X78693295Y-127146632D01*
X78764560Y-126880666D01*
X78800500Y-126607674D01*
X78800500Y-126332332D01*
X191979500Y-126332332D01*
X191979500Y-126607667D01*
X191979501Y-126607684D01*
X192015438Y-126880655D01*
X192015439Y-126880660D01*
X192015440Y-126880666D01*
X192015441Y-126880668D01*
X192086704Y-127146630D01*
X192192075Y-127401017D01*
X192192080Y-127401028D01*
X192271809Y-127539121D01*
X192329751Y-127639479D01*
X192329753Y-127639482D01*
X192329754Y-127639483D01*
X192497370Y-127857926D01*
X192497376Y-127857933D01*
X192692066Y-128052623D01*
X192692072Y-128052628D01*
X192910521Y-128220249D01*
X193047814Y-128299515D01*
X193148971Y-128357919D01*
X193148976Y-128357921D01*
X193148979Y-128357923D01*
X193403368Y-128463295D01*
X193669334Y-128534560D01*
X193942326Y-128570500D01*
X193942333Y-128570500D01*
X194217667Y-128570500D01*
X194217674Y-128570500D01*
X194490666Y-128534560D01*
X194756632Y-128463295D01*
X195011021Y-128357923D01*
X195249479Y-128220249D01*
X195467928Y-128052628D01*
X195662628Y-127857928D01*
X195830249Y-127639479D01*
X195967923Y-127401021D01*
X196073295Y-127146632D01*
X196144560Y-126880666D01*
X196180500Y-126607674D01*
X196180500Y-126332326D01*
X196144560Y-126059334D01*
X196073295Y-125793368D01*
X195967923Y-125538979D01*
X195967921Y-125538976D01*
X195967919Y-125538971D01*
X195910202Y-125439004D01*
X195830249Y-125300521D01*
X195662628Y-125082072D01*
X195662623Y-125082066D01*
X195467933Y-124887376D01*
X195467926Y-124887370D01*
X195249483Y-124719754D01*
X195249482Y-124719753D01*
X195249479Y-124719751D01*
X195154407Y-124664861D01*
X195011028Y-124582080D01*
X195011017Y-124582075D01*
X194756630Y-124476704D01*
X194623649Y-124441072D01*
X194490666Y-124405440D01*
X194490660Y-124405439D01*
X194490655Y-124405438D01*
X194217684Y-124369501D01*
X194217679Y-124369500D01*
X194217674Y-124369500D01*
X193942326Y-124369500D01*
X193942320Y-124369500D01*
X193942315Y-124369501D01*
X193669344Y-124405438D01*
X193669337Y-124405439D01*
X193669334Y-124405440D01*
X193613125Y-124420500D01*
X193403369Y-124476704D01*
X193148982Y-124582075D01*
X193148971Y-124582080D01*
X192910516Y-124719754D01*
X192692073Y-124887370D01*
X192692066Y-124887376D01*
X192497376Y-125082066D01*
X192497370Y-125082073D01*
X192329754Y-125300516D01*
X192192080Y-125538971D01*
X192192075Y-125538982D01*
X192086704Y-125793369D01*
X192015441Y-126059331D01*
X192015438Y-126059344D01*
X191979501Y-126332315D01*
X191979500Y-126332332D01*
X78800500Y-126332332D01*
X78800500Y-126332326D01*
X78764560Y-126059334D01*
X78693295Y-125793368D01*
X78587923Y-125538979D01*
X78587921Y-125538976D01*
X78587919Y-125538971D01*
X78530202Y-125439004D01*
X78450249Y-125300521D01*
X78282628Y-125082072D01*
X78282623Y-125082066D01*
X78087933Y-124887376D01*
X78087926Y-124887370D01*
X77869483Y-124719754D01*
X77869482Y-124719753D01*
X77869479Y-124719751D01*
X77774407Y-124664861D01*
X77631028Y-124582080D01*
X77631017Y-124582075D01*
X77376630Y-124476704D01*
X77243649Y-124441072D01*
X77110666Y-124405440D01*
X77110660Y-124405439D01*
X77110655Y-124405438D01*
X76837684Y-124369501D01*
X76837679Y-124369500D01*
X76837674Y-124369500D01*
X76562326Y-124369500D01*
X76562320Y-124369500D01*
X76562315Y-124369501D01*
X76289344Y-124405438D01*
X76289337Y-124405439D01*
X76289334Y-124405440D01*
X76233125Y-124420500D01*
X76023369Y-124476704D01*
X75768982Y-124582075D01*
X75768971Y-124582080D01*
X75530516Y-124719754D01*
X75312073Y-124887370D01*
X75312066Y-124887376D01*
X75117376Y-125082066D01*
X75117370Y-125082073D01*
X74949754Y-125300516D01*
X74812080Y-125538971D01*
X74812075Y-125538982D01*
X74706704Y-125793369D01*
X74635441Y-126059331D01*
X74635438Y-126059344D01*
X74599501Y-126332315D01*
X74599500Y-126332332D01*
X65655126Y-126332332D01*
X65632355Y-126300990D01*
X65489010Y-126157645D01*
X65489004Y-126157639D01*
X65325009Y-126038492D01*
X65325008Y-126038491D01*
X65325006Y-126038490D01*
X65211164Y-125980484D01*
X65160369Y-125932510D01*
X65143574Y-125864689D01*
X65166111Y-125798554D01*
X65211165Y-125759515D01*
X65218197Y-125755932D01*
X65325006Y-125701510D01*
X65418017Y-125633934D01*
X65489004Y-125582360D01*
X65489006Y-125582357D01*
X65489010Y-125582355D01*
X65632355Y-125439010D01*
X65632357Y-125439006D01*
X65632360Y-125439004D01*
X65732972Y-125300521D01*
X65751510Y-125275006D01*
X65843543Y-125094382D01*
X65906187Y-124901584D01*
X65937900Y-124701360D01*
X65937900Y-124498640D01*
X65906187Y-124298416D01*
X65843543Y-124105618D01*
X65751510Y-123924994D01*
X65743854Y-123914456D01*
X65632360Y-123760995D01*
X65489004Y-123617639D01*
X65325009Y-123498492D01*
X65325008Y-123498491D01*
X65325006Y-123498490D01*
X65211164Y-123440484D01*
X65160369Y-123392510D01*
X65143574Y-123324689D01*
X65166111Y-123258554D01*
X65211165Y-123219515D01*
X65325006Y-123161510D01*
X65417085Y-123094610D01*
X65489004Y-123042360D01*
X65489006Y-123042357D01*
X65489010Y-123042355D01*
X65632355Y-122899010D01*
X65632357Y-122899006D01*
X65632360Y-122899004D01*
X65684610Y-122827085D01*
X65751510Y-122735006D01*
X65843543Y-122554382D01*
X65906187Y-122361584D01*
X65937900Y-122161360D01*
X65937900Y-121958640D01*
X65906187Y-121758416D01*
X65843543Y-121565618D01*
X65751510Y-121384994D01*
X65743854Y-121374456D01*
X65632360Y-121220995D01*
X65489004Y-121077639D01*
X65325009Y-120958492D01*
X65325008Y-120958491D01*
X65325006Y-120958490D01*
X65211164Y-120900484D01*
X65160369Y-120852510D01*
X65143574Y-120784689D01*
X65166111Y-120718554D01*
X65211165Y-120679515D01*
X65325006Y-120621510D01*
X65417085Y-120554610D01*
X65489004Y-120502360D01*
X65489006Y-120502357D01*
X65489010Y-120502355D01*
X65632355Y-120359010D01*
X65632357Y-120359006D01*
X65632360Y-120359004D01*
X65684610Y-120287085D01*
X65751510Y-120195006D01*
X65843543Y-120014382D01*
X65906187Y-119821584D01*
X65937900Y-119621360D01*
X65937900Y-119418640D01*
X65906187Y-119218416D01*
X65843543Y-119025618D01*
X65751510Y-118844994D01*
X65743854Y-118834456D01*
X65632360Y-118680995D01*
X65489004Y-118537639D01*
X65325009Y-118418492D01*
X65325008Y-118418491D01*
X65325006Y-118418490D01*
X65211164Y-118360484D01*
X65160369Y-118312510D01*
X65143574Y-118244689D01*
X65166111Y-118178554D01*
X65211165Y-118139515D01*
X65325006Y-118081510D01*
X65417085Y-118014610D01*
X65489004Y-117962360D01*
X65489006Y-117962357D01*
X65489010Y-117962355D01*
X65632355Y-117819010D01*
X65632357Y-117819006D01*
X65632360Y-117819004D01*
X65684610Y-117747085D01*
X65751510Y-117655006D01*
X65843543Y-117474382D01*
X65906187Y-117281584D01*
X65937900Y-117081360D01*
X65937900Y-116878640D01*
X65906187Y-116678416D01*
X65843543Y-116485618D01*
X65751510Y-116304994D01*
X65743854Y-116294456D01*
X65632360Y-116140995D01*
X65489004Y-115997639D01*
X65325009Y-115878492D01*
X65325008Y-115878491D01*
X65325006Y-115878490D01*
X65211164Y-115820484D01*
X65160369Y-115772510D01*
X65143574Y-115704689D01*
X65166111Y-115638554D01*
X65211165Y-115599515D01*
X65325006Y-115541510D01*
X65417085Y-115474610D01*
X65489004Y-115422360D01*
X65489006Y-115422357D01*
X65489010Y-115422355D01*
X65632355Y-115279010D01*
X65632357Y-115279006D01*
X65632360Y-115279004D01*
X65684610Y-115207085D01*
X65751510Y-115115006D01*
X65843543Y-114934382D01*
X65906187Y-114741584D01*
X65937900Y-114541360D01*
X65937900Y-114338640D01*
X65906187Y-114138416D01*
X65843543Y-113945618D01*
X65751510Y-113764994D01*
X65743854Y-113754456D01*
X65632360Y-113600995D01*
X65489004Y-113457639D01*
X65325009Y-113338492D01*
X65325008Y-113338491D01*
X65325006Y-113338490D01*
X65211164Y-113280484D01*
X65160369Y-113232510D01*
X65143574Y-113164689D01*
X65166111Y-113098554D01*
X65211165Y-113059515D01*
X65325006Y-113001510D01*
X65417085Y-112934610D01*
X65489004Y-112882360D01*
X65489006Y-112882357D01*
X65489010Y-112882355D01*
X65632355Y-112739010D01*
X65632357Y-112739006D01*
X65632360Y-112739004D01*
X65684610Y-112667085D01*
X65751510Y-112575006D01*
X65843543Y-112394382D01*
X65906187Y-112201584D01*
X65937900Y-112001360D01*
X65937900Y-111798640D01*
X65906187Y-111598416D01*
X65843543Y-111405618D01*
X65751510Y-111224994D01*
X65743854Y-111214456D01*
X65632360Y-111060995D01*
X65489004Y-110917639D01*
X65325009Y-110798492D01*
X65325008Y-110798491D01*
X65325006Y-110798490D01*
X65211164Y-110740484D01*
X65160369Y-110692510D01*
X65143574Y-110624689D01*
X65166111Y-110558554D01*
X65211165Y-110519515D01*
X65325006Y-110461510D01*
X65417085Y-110394610D01*
X65489004Y-110342360D01*
X65489006Y-110342357D01*
X65489010Y-110342355D01*
X65632355Y-110199010D01*
X65632357Y-110199006D01*
X65632360Y-110199004D01*
X65684610Y-110127085D01*
X65751510Y-110035006D01*
X65843543Y-109854382D01*
X65906187Y-109661584D01*
X65937900Y-109461360D01*
X65937900Y-109258640D01*
X65906187Y-109058416D01*
X65843543Y-108865618D01*
X65751510Y-108684994D01*
X65743854Y-108674456D01*
X65632360Y-108520995D01*
X65489004Y-108377639D01*
X65325007Y-108258490D01*
X65210614Y-108200203D01*
X65159819Y-108152229D01*
X65143024Y-108084408D01*
X65165562Y-108018273D01*
X65210616Y-107979234D01*
X65324742Y-107921084D01*
X65324751Y-107921079D01*
X65366899Y-107890454D01*
X65366900Y-107890454D01*
X64744462Y-107268016D01*
X64826473Y-107246042D01*
X64930727Y-107185851D01*
X65015851Y-107100727D01*
X65076042Y-106996473D01*
X65098016Y-106914463D01*
X65720453Y-107536900D01*
X65720454Y-107536899D01*
X65751079Y-107494751D01*
X65751081Y-107494747D01*
X65843078Y-107314192D01*
X65905700Y-107121463D01*
X65937400Y-106921320D01*
X65937400Y-106718679D01*
X65905700Y-106518536D01*
X65843078Y-106325807D01*
X65751082Y-106145254D01*
X65720453Y-106103099D01*
X65098016Y-106725536D01*
X65076042Y-106643527D01*
X65015851Y-106539273D01*
X64930727Y-106454149D01*
X64826473Y-106393958D01*
X64744463Y-106371983D01*
X65366900Y-105749546D01*
X65366899Y-105749545D01*
X65324744Y-105718916D01*
X65210615Y-105660765D01*
X65159819Y-105612790D01*
X65143024Y-105544969D01*
X65165561Y-105478835D01*
X65210613Y-105439796D01*
X65325006Y-105381510D01*
X65345960Y-105366285D01*
X65489004Y-105262360D01*
X65489006Y-105262357D01*
X65489010Y-105262355D01*
X65632355Y-105119010D01*
X65632357Y-105119006D01*
X65632360Y-105119004D01*
X65684610Y-105047085D01*
X65751510Y-104955006D01*
X65843543Y-104774382D01*
X65906187Y-104581584D01*
X65937900Y-104381360D01*
X65937900Y-104178640D01*
X65906187Y-103978416D01*
X65843543Y-103785618D01*
X65751510Y-103604994D01*
X65743854Y-103594456D01*
X65632360Y-103440995D01*
X65489004Y-103297639D01*
X65325009Y-103178492D01*
X65325008Y-103178491D01*
X65325006Y-103178490D01*
X65211164Y-103120484D01*
X65160369Y-103072510D01*
X65143574Y-103004689D01*
X65166111Y-102938554D01*
X65211165Y-102899515D01*
X65325006Y-102841510D01*
X65417085Y-102774610D01*
X65489004Y-102722360D01*
X65489006Y-102722357D01*
X65489010Y-102722355D01*
X65632355Y-102579010D01*
X65632357Y-102579006D01*
X65632360Y-102579004D01*
X65684610Y-102507085D01*
X65751510Y-102415006D01*
X65843543Y-102234382D01*
X65906187Y-102041584D01*
X65937900Y-101841360D01*
X65937900Y-101638640D01*
X65906187Y-101438416D01*
X65843543Y-101245618D01*
X65751510Y-101064994D01*
X65743854Y-101054456D01*
X65632360Y-100900995D01*
X65489004Y-100757639D01*
X65325009Y-100638492D01*
X65325008Y-100638491D01*
X65325006Y-100638490D01*
X65211164Y-100580484D01*
X65160369Y-100532510D01*
X65143574Y-100464689D01*
X65166111Y-100398554D01*
X65211165Y-100359515D01*
X65325006Y-100301510D01*
X65417085Y-100234610D01*
X65489004Y-100182360D01*
X65489006Y-100182357D01*
X65489010Y-100182355D01*
X65632355Y-100039010D01*
X65632357Y-100039006D01*
X65632360Y-100039004D01*
X65684610Y-99967085D01*
X65751510Y-99875006D01*
X65843543Y-99694382D01*
X65906187Y-99501584D01*
X65937900Y-99301360D01*
X65937900Y-99098640D01*
X65906187Y-98898416D01*
X65843543Y-98705618D01*
X65751510Y-98524994D01*
X65743854Y-98514456D01*
X65632360Y-98360995D01*
X65489004Y-98217639D01*
X65325009Y-98098492D01*
X65325008Y-98098491D01*
X65325006Y-98098490D01*
X65211164Y-98040484D01*
X65160369Y-97992510D01*
X65143574Y-97924689D01*
X65166111Y-97858554D01*
X65211165Y-97819515D01*
X65325006Y-97761510D01*
X65417085Y-97694610D01*
X65489004Y-97642360D01*
X65489006Y-97642357D01*
X65489010Y-97642355D01*
X65632355Y-97499010D01*
X65632357Y-97499006D01*
X65632360Y-97499004D01*
X65684610Y-97427085D01*
X65751510Y-97335006D01*
X65843543Y-97154382D01*
X65906187Y-96961584D01*
X65937900Y-96761360D01*
X65937900Y-96558640D01*
X65906187Y-96358416D01*
X65843543Y-96165618D01*
X65751510Y-95984994D01*
X65743854Y-95974456D01*
X65632360Y-95820995D01*
X65489004Y-95677639D01*
X65325009Y-95558492D01*
X65325008Y-95558491D01*
X65325006Y-95558490D01*
X65211164Y-95500484D01*
X65160369Y-95452510D01*
X65143574Y-95384689D01*
X65166111Y-95318554D01*
X65211165Y-95279515D01*
X65325006Y-95221510D01*
X65423806Y-95149728D01*
X65489004Y-95102360D01*
X65489006Y-95102357D01*
X65489010Y-95102355D01*
X65632355Y-94959010D01*
X65632357Y-94959006D01*
X65632360Y-94959004D01*
X65684610Y-94887085D01*
X65751510Y-94795006D01*
X65843543Y-94614382D01*
X65906187Y-94421584D01*
X65937900Y-94221360D01*
X65937900Y-94018640D01*
X65906187Y-93818416D01*
X65843543Y-93625618D01*
X65751510Y-93444994D01*
X65743854Y-93434456D01*
X65632360Y-93280995D01*
X65489004Y-93137639D01*
X65325009Y-93018492D01*
X65325008Y-93018491D01*
X65325006Y-93018490D01*
X65144382Y-92926457D01*
X64951584Y-92863813D01*
X64951582Y-92863812D01*
X64951580Y-92863812D01*
X64791824Y-92838509D01*
X64751360Y-92832100D01*
X64548640Y-92832100D01*
X64508182Y-92838508D01*
X64348419Y-92863812D01*
X64155615Y-92926458D01*
X63974990Y-93018492D01*
X63810995Y-93137639D01*
X63667639Y-93280995D01*
X63548492Y-93444990D01*
X63456458Y-93625615D01*
X63393812Y-93818419D01*
X63362100Y-94018640D01*
X50697899Y-94018640D01*
X50697899Y-93284728D01*
X50691491Y-93225117D01*
X50641196Y-93090269D01*
X50641195Y-93090268D01*
X50641193Y-93090264D01*
X50554947Y-92975055D01*
X50554944Y-92975052D01*
X50439735Y-92888806D01*
X50439728Y-92888802D01*
X50304882Y-92838508D01*
X50304883Y-92838508D01*
X50245283Y-92832101D01*
X50245281Y-92832100D01*
X50245273Y-92832100D01*
X50245264Y-92832100D01*
X48574729Y-92832100D01*
X48574723Y-92832101D01*
X48515116Y-92838508D01*
X48380271Y-92888802D01*
X48380264Y-92888806D01*
X48265055Y-92975052D01*
X48265052Y-92975055D01*
X48178806Y-93090264D01*
X48178802Y-93090271D01*
X48128508Y-93225117D01*
X48122102Y-93284703D01*
X48122101Y-93284715D01*
X48122101Y-93284723D01*
X48122100Y-93284735D01*
X45940500Y-93284735D01*
X45940500Y-91496228D01*
X48559500Y-91496228D01*
X48559500Y-91663771D01*
X48592182Y-91828074D01*
X48592184Y-91828082D01*
X48656295Y-91982860D01*
X48749373Y-92122162D01*
X48867837Y-92240626D01*
X48960494Y-92302537D01*
X49007137Y-92333703D01*
X49161918Y-92397816D01*
X49326228Y-92430499D01*
X49326232Y-92430500D01*
X49326233Y-92430500D01*
X49493768Y-92430500D01*
X49493769Y-92430499D01*
X49658082Y-92397816D01*
X49812863Y-92333703D01*
X49952162Y-92240626D01*
X50070626Y-92122162D01*
X50163703Y-91982863D01*
X50227816Y-91828082D01*
X50260500Y-91663767D01*
X50260500Y-91496233D01*
X50260499Y-91496228D01*
X63799500Y-91496228D01*
X63799500Y-91663771D01*
X63832182Y-91828074D01*
X63832184Y-91828082D01*
X63896295Y-91982860D01*
X63989373Y-92122162D01*
X64107837Y-92240626D01*
X64200494Y-92302537D01*
X64247137Y-92333703D01*
X64401918Y-92397816D01*
X64566228Y-92430499D01*
X64566232Y-92430500D01*
X64566233Y-92430500D01*
X64733768Y-92430500D01*
X64733769Y-92430499D01*
X64898082Y-92397816D01*
X65052863Y-92333703D01*
X65192162Y-92240626D01*
X65310626Y-92122162D01*
X65403703Y-91982863D01*
X65467816Y-91828082D01*
X65500500Y-91663767D01*
X65500500Y-91496233D01*
X65467816Y-91331918D01*
X65403703Y-91177137D01*
X65372537Y-91130494D01*
X65310626Y-91037837D01*
X65192162Y-90919373D01*
X65052860Y-90826295D01*
X64898082Y-90762184D01*
X64898074Y-90762182D01*
X64733771Y-90729500D01*
X64733767Y-90729500D01*
X64566233Y-90729500D01*
X64566228Y-90729500D01*
X64401925Y-90762182D01*
X64401917Y-90762184D01*
X64247139Y-90826295D01*
X64107837Y-90919373D01*
X63989373Y-91037837D01*
X63896295Y-91177139D01*
X63832184Y-91331917D01*
X63832182Y-91331925D01*
X63799500Y-91496228D01*
X50260499Y-91496228D01*
X50227816Y-91331918D01*
X50163703Y-91177137D01*
X50132537Y-91130494D01*
X50070626Y-91037837D01*
X49952162Y-90919373D01*
X49812860Y-90826295D01*
X49658082Y-90762184D01*
X49658074Y-90762182D01*
X49493771Y-90729500D01*
X49493767Y-90729500D01*
X49326233Y-90729500D01*
X49326228Y-90729500D01*
X49161925Y-90762182D01*
X49161917Y-90762184D01*
X49007139Y-90826295D01*
X48867837Y-90919373D01*
X48749373Y-91037837D01*
X48656295Y-91177139D01*
X48592184Y-91331917D01*
X48592182Y-91331925D01*
X48559500Y-91496228D01*
X45940500Y-91496228D01*
X45940500Y-53362332D01*
X74579500Y-53362332D01*
X74579500Y-53637667D01*
X74579501Y-53637684D01*
X74615438Y-53910655D01*
X74615439Y-53910660D01*
X74615440Y-53910666D01*
X74615441Y-53910668D01*
X74686704Y-54176630D01*
X74792075Y-54431017D01*
X74792080Y-54431028D01*
X74871809Y-54569121D01*
X74929751Y-54669479D01*
X74929753Y-54669482D01*
X74929754Y-54669483D01*
X75097370Y-54887926D01*
X75097376Y-54887933D01*
X75292066Y-55082623D01*
X75292072Y-55082628D01*
X75510521Y-55250249D01*
X75663778Y-55338732D01*
X75748971Y-55387919D01*
X75748976Y-55387921D01*
X75748979Y-55387923D01*
X76003368Y-55493295D01*
X76269334Y-55564560D01*
X76542326Y-55600500D01*
X76542333Y-55600500D01*
X76817667Y-55600500D01*
X76817674Y-55600500D01*
X77090666Y-55564560D01*
X77356632Y-55493295D01*
X77611021Y-55387923D01*
X77849479Y-55250249D01*
X78067928Y-55082628D01*
X78262628Y-54887928D01*
X78430249Y-54669479D01*
X78567923Y-54431021D01*
X78673295Y-54176632D01*
X78744560Y-53910666D01*
X78780500Y-53637674D01*
X78780500Y-53362332D01*
X191999500Y-53362332D01*
X191999500Y-53637667D01*
X191999501Y-53637684D01*
X192035438Y-53910655D01*
X192035439Y-53910660D01*
X192035440Y-53910666D01*
X192035441Y-53910668D01*
X192106704Y-54176630D01*
X192212075Y-54431017D01*
X192212080Y-54431028D01*
X192291809Y-54569121D01*
X192349751Y-54669479D01*
X192349753Y-54669482D01*
X192349754Y-54669483D01*
X192517370Y-54887926D01*
X192517376Y-54887933D01*
X192712066Y-55082623D01*
X192712072Y-55082628D01*
X192930521Y-55250249D01*
X193083778Y-55338732D01*
X193168971Y-55387919D01*
X193168976Y-55387921D01*
X193168979Y-55387923D01*
X193423368Y-55493295D01*
X193689334Y-55564560D01*
X193962326Y-55600500D01*
X193962333Y-55600500D01*
X194237667Y-55600500D01*
X194237674Y-55600500D01*
X194510666Y-55564560D01*
X194776632Y-55493295D01*
X195031021Y-55387923D01*
X195269479Y-55250249D01*
X195487928Y-55082628D01*
X195682628Y-54887928D01*
X195850249Y-54669479D01*
X195987923Y-54431021D01*
X196093295Y-54176632D01*
X196164560Y-53910666D01*
X196200500Y-53637674D01*
X196200500Y-53362326D01*
X196164560Y-53089334D01*
X196093295Y-52823368D01*
X195987923Y-52568979D01*
X195987921Y-52568976D01*
X195987919Y-52568971D01*
X195938732Y-52483778D01*
X195850249Y-52330521D01*
X195682628Y-52112072D01*
X195682623Y-52112066D01*
X195487933Y-51917376D01*
X195487926Y-51917370D01*
X195269483Y-51749754D01*
X195269482Y-51749753D01*
X195269479Y-51749751D01*
X195174407Y-51694861D01*
X195031028Y-51612080D01*
X195031017Y-51612075D01*
X194776630Y-51506704D01*
X194643649Y-51471072D01*
X194510666Y-51435440D01*
X194510660Y-51435439D01*
X194510655Y-51435438D01*
X194237684Y-51399501D01*
X194237679Y-51399500D01*
X194237674Y-51399500D01*
X193962326Y-51399500D01*
X193962320Y-51399500D01*
X193962315Y-51399501D01*
X193689344Y-51435438D01*
X193689337Y-51435439D01*
X193689334Y-51435440D01*
X193633125Y-51450500D01*
X193423369Y-51506704D01*
X193168982Y-51612075D01*
X193168971Y-51612080D01*
X192930516Y-51749754D01*
X192712073Y-51917370D01*
X192712066Y-51917376D01*
X192517376Y-52112066D01*
X192517370Y-52112073D01*
X192349754Y-52330516D01*
X192212080Y-52568971D01*
X192212075Y-52568982D01*
X192106704Y-52823369D01*
X192035441Y-53089331D01*
X192035438Y-53089344D01*
X191999501Y-53362315D01*
X191999500Y-53362332D01*
X78780500Y-53362332D01*
X78780500Y-53362326D01*
X78744560Y-53089334D01*
X78673295Y-52823368D01*
X78567923Y-52568979D01*
X78567921Y-52568976D01*
X78567919Y-52568971D01*
X78518732Y-52483778D01*
X78430249Y-52330521D01*
X78262628Y-52112072D01*
X78262623Y-52112066D01*
X78067933Y-51917376D01*
X78067926Y-51917370D01*
X77849483Y-51749754D01*
X77849482Y-51749753D01*
X77849479Y-51749751D01*
X77754407Y-51694861D01*
X77611028Y-51612080D01*
X77611017Y-51612075D01*
X77356630Y-51506704D01*
X77223649Y-51471072D01*
X77090666Y-51435440D01*
X77090660Y-51435439D01*
X77090655Y-51435438D01*
X76817684Y-51399501D01*
X76817679Y-51399500D01*
X76817674Y-51399500D01*
X76542326Y-51399500D01*
X76542320Y-51399500D01*
X76542315Y-51399501D01*
X76269344Y-51435438D01*
X76269337Y-51435439D01*
X76269334Y-51435440D01*
X76213125Y-51450500D01*
X76003369Y-51506704D01*
X75748982Y-51612075D01*
X75748971Y-51612080D01*
X75510516Y-51749754D01*
X75292073Y-51917370D01*
X75292066Y-51917376D01*
X75097376Y-52112066D01*
X75097370Y-52112073D01*
X74929754Y-52330516D01*
X74792080Y-52568971D01*
X74792075Y-52568982D01*
X74686704Y-52823369D01*
X74615441Y-53089331D01*
X74615438Y-53089344D01*
X74579501Y-53362315D01*
X74579500Y-53362332D01*
X45940500Y-53362332D01*
X45940500Y-44441153D01*
X52849500Y-44441153D01*
X52849500Y-44598846D01*
X52880261Y-44753489D01*
X52880264Y-44753501D01*
X52940602Y-44899172D01*
X52940609Y-44899185D01*
X53028210Y-45030288D01*
X53028213Y-45030292D01*
X53139707Y-45141786D01*
X53139711Y-45141789D01*
X53270814Y-45229390D01*
X53270827Y-45229397D01*
X53416498Y-45289735D01*
X53416503Y-45289737D01*
X53571153Y-45320499D01*
X53571156Y-45320500D01*
X53571158Y-45320500D01*
X53728844Y-45320500D01*
X53728845Y-45320499D01*
X53883497Y-45289737D01*
X54029179Y-45229394D01*
X54160289Y-45141789D01*
X54271789Y-45030289D01*
X54359394Y-44899179D01*
X54419737Y-44753497D01*
X54450500Y-44598842D01*
X54450500Y-44441158D01*
X54450500Y-44441155D01*
X54450499Y-44441153D01*
X54419738Y-44286510D01*
X54419737Y-44286503D01*
X54419735Y-44286498D01*
X54359397Y-44140827D01*
X54359390Y-44140814D01*
X54271789Y-44009711D01*
X54271786Y-44009707D01*
X54160292Y-43898213D01*
X54160288Y-43898210D01*
X54029185Y-43810609D01*
X54029172Y-43810602D01*
X53883501Y-43750264D01*
X53883489Y-43750261D01*
X53728845Y-43719500D01*
X53728842Y-43719500D01*
X53571158Y-43719500D01*
X53571155Y-43719500D01*
X53416510Y-43750261D01*
X53416498Y-43750264D01*
X53270827Y-43810602D01*
X53270814Y-43810609D01*
X53139711Y-43898210D01*
X53139707Y-43898213D01*
X53028213Y-44009707D01*
X53028210Y-44009711D01*
X52940609Y-44140814D01*
X52940602Y-44140827D01*
X52880264Y-44286498D01*
X52880261Y-44286510D01*
X52849500Y-44441153D01*
X45940500Y-44441153D01*
X45940500Y-39974675D01*
X55374500Y-39974675D01*
X55374500Y-40212824D01*
X55411756Y-40448046D01*
X55485346Y-40674537D01*
X55485347Y-40674540D01*
X55593467Y-40886735D01*
X55733449Y-41079403D01*
X55901847Y-41247801D01*
X56094515Y-41387783D01*
X56198590Y-41440811D01*
X56306709Y-41495902D01*
X56306712Y-41495903D01*
X56419957Y-41532698D01*
X56533205Y-41569494D01*
X56768424Y-41606750D01*
X56768425Y-41606750D01*
X59031575Y-41606750D01*
X59031576Y-41606750D01*
X59266795Y-41569494D01*
X59493290Y-41495902D01*
X59705485Y-41387783D01*
X59898153Y-41247801D01*
X60066551Y-41079403D01*
X60206533Y-40886735D01*
X60314652Y-40674540D01*
X60388244Y-40448045D01*
X60425500Y-40212826D01*
X60425500Y-39974674D01*
X60388244Y-39739455D01*
X60342557Y-39598844D01*
X60314653Y-39512962D01*
X60314651Y-39512959D01*
X60303647Y-39491361D01*
X60278064Y-39441153D01*
X92849500Y-39441153D01*
X92849500Y-39598846D01*
X92880261Y-39753489D01*
X92880264Y-39753501D01*
X92940602Y-39899172D01*
X92940609Y-39899185D01*
X92975304Y-39951109D01*
X92996182Y-40017786D01*
X92977698Y-40085167D01*
X92975304Y-40088891D01*
X92940609Y-40140814D01*
X92940602Y-40140827D01*
X92880264Y-40286498D01*
X92880261Y-40286510D01*
X92849500Y-40441153D01*
X92849500Y-40598846D01*
X92880261Y-40753489D01*
X92880264Y-40753501D01*
X92940602Y-40899172D01*
X92940609Y-40899185D01*
X92975304Y-40951109D01*
X92996182Y-41017786D01*
X92977698Y-41085167D01*
X92975304Y-41088891D01*
X92940609Y-41140814D01*
X92940602Y-41140827D01*
X92880264Y-41286498D01*
X92880261Y-41286510D01*
X92849500Y-41441153D01*
X92849500Y-41598846D01*
X92880261Y-41753489D01*
X92880264Y-41753501D01*
X92940602Y-41899172D01*
X92940609Y-41899185D01*
X93028210Y-42030288D01*
X93028213Y-42030292D01*
X93139707Y-42141786D01*
X93139711Y-42141789D01*
X93270814Y-42229390D01*
X93270827Y-42229397D01*
X93416498Y-42289735D01*
X93416503Y-42289737D01*
X93571153Y-42320499D01*
X93571156Y-42320500D01*
X93571158Y-42320500D01*
X93728844Y-42320500D01*
X93728845Y-42320499D01*
X93883497Y-42289737D01*
X94029179Y-42229394D01*
X94081110Y-42194694D01*
X94147785Y-42173816D01*
X94215165Y-42192300D01*
X94218863Y-42194676D01*
X94270821Y-42229394D01*
X94270823Y-42229395D01*
X94270825Y-42229396D01*
X94416498Y-42289735D01*
X94416503Y-42289737D01*
X94571153Y-42320499D01*
X94571156Y-42320500D01*
X94571158Y-42320500D01*
X94728844Y-42320500D01*
X94728845Y-42320499D01*
X94883497Y-42289737D01*
X95029179Y-42229394D01*
X95081110Y-42194694D01*
X95147785Y-42173816D01*
X95215165Y-42192300D01*
X95218863Y-42194676D01*
X95270821Y-42229394D01*
X95270823Y-42229395D01*
X95270825Y-42229396D01*
X95416498Y-42289735D01*
X95416503Y-42289737D01*
X95571153Y-42320499D01*
X95571156Y-42320500D01*
X95571158Y-42320500D01*
X95728844Y-42320500D01*
X95728845Y-42320499D01*
X95883497Y-42289737D01*
X96029179Y-42229394D01*
X96160289Y-42141789D01*
X96271789Y-42030289D01*
X96359394Y-41899179D01*
X96419737Y-41753497D01*
X96450500Y-41598842D01*
X96450500Y-41441158D01*
X96450500Y-41441155D01*
X96450499Y-41441153D01*
X96419738Y-41286510D01*
X96419737Y-41286503D01*
X96403705Y-41247798D01*
X96359396Y-41140825D01*
X96359394Y-41140822D01*
X96359394Y-41140821D01*
X96324694Y-41088889D01*
X96303816Y-41022215D01*
X96322300Y-40954835D01*
X96324676Y-40951136D01*
X96359394Y-40899179D01*
X96419737Y-40753497D01*
X96450500Y-40598842D01*
X96450500Y-40441158D01*
X96450500Y-40441155D01*
X96450499Y-40441153D01*
X96419738Y-40286510D01*
X96419737Y-40286503D01*
X96389219Y-40212826D01*
X96359396Y-40140825D01*
X96359394Y-40140822D01*
X96359394Y-40140821D01*
X96324694Y-40088889D01*
X96303816Y-40022215D01*
X96322300Y-39954835D01*
X96324676Y-39951136D01*
X96359394Y-39899179D01*
X96419737Y-39753497D01*
X96450500Y-39598842D01*
X96450500Y-39441158D01*
X96450500Y-39441155D01*
X96450499Y-39441153D01*
X96422574Y-39300765D01*
X96419737Y-39286503D01*
X96419735Y-39286498D01*
X96359397Y-39140827D01*
X96359390Y-39140814D01*
X96271789Y-39009711D01*
X96271786Y-39009707D01*
X96160292Y-38898213D01*
X96160288Y-38898210D01*
X96029185Y-38810609D01*
X96029172Y-38810602D01*
X95883501Y-38750264D01*
X95883489Y-38750261D01*
X95728845Y-38719500D01*
X95728842Y-38719500D01*
X95571158Y-38719500D01*
X95571155Y-38719500D01*
X95416510Y-38750261D01*
X95416498Y-38750264D01*
X95270827Y-38810602D01*
X95270814Y-38810609D01*
X95218891Y-38845304D01*
X95152214Y-38866182D01*
X95084833Y-38847698D01*
X95081109Y-38845304D01*
X95029185Y-38810609D01*
X95029172Y-38810602D01*
X94883501Y-38750264D01*
X94883489Y-38750261D01*
X94728845Y-38719500D01*
X94728842Y-38719500D01*
X94571158Y-38719500D01*
X94571155Y-38719500D01*
X94416510Y-38750261D01*
X94416498Y-38750264D01*
X94270827Y-38810602D01*
X94270814Y-38810609D01*
X94218891Y-38845304D01*
X94152214Y-38866182D01*
X94084833Y-38847698D01*
X94081109Y-38845304D01*
X94029185Y-38810609D01*
X94029172Y-38810602D01*
X93883501Y-38750264D01*
X93883489Y-38750261D01*
X93728845Y-38719500D01*
X93728842Y-38719500D01*
X93571158Y-38719500D01*
X93571155Y-38719500D01*
X93416510Y-38750261D01*
X93416498Y-38750264D01*
X93270827Y-38810602D01*
X93270814Y-38810609D01*
X93139711Y-38898210D01*
X93139707Y-38898213D01*
X93028213Y-39009707D01*
X93028210Y-39009711D01*
X92940609Y-39140814D01*
X92940602Y-39140827D01*
X92880264Y-39286498D01*
X92880261Y-39286510D01*
X92849500Y-39441153D01*
X60278064Y-39441153D01*
X60206532Y-39300764D01*
X60196167Y-39286498D01*
X60066551Y-39108097D01*
X59898153Y-38939699D01*
X59705485Y-38799717D01*
X59493290Y-38691597D01*
X59493287Y-38691596D01*
X59266796Y-38618006D01*
X59149185Y-38599378D01*
X59031576Y-38580750D01*
X56768424Y-38580750D01*
X56690017Y-38593168D01*
X56533203Y-38618006D01*
X56306712Y-38691596D01*
X56306709Y-38691597D01*
X56094514Y-38799717D01*
X56031770Y-38845304D01*
X55901847Y-38939699D01*
X55901845Y-38939701D01*
X55901844Y-38939701D01*
X55733451Y-39108094D01*
X55733451Y-39108095D01*
X55733449Y-39108097D01*
X55673332Y-39190840D01*
X55593467Y-39300764D01*
X55485347Y-39512959D01*
X55485346Y-39512962D01*
X55411756Y-39739453D01*
X55411756Y-39739455D01*
X55378233Y-39951109D01*
X55374500Y-39974675D01*
X45940500Y-39974675D01*
X45940500Y-34162175D01*
X53137000Y-34162175D01*
X53137000Y-36425324D01*
X53174256Y-36660546D01*
X53247846Y-36887037D01*
X53247847Y-36887040D01*
X53342982Y-37073750D01*
X53355967Y-37099235D01*
X53495949Y-37291903D01*
X53664347Y-37460301D01*
X53857015Y-37600283D01*
X53961090Y-37653311D01*
X54069209Y-37708402D01*
X54069212Y-37708403D01*
X54182457Y-37745198D01*
X54295705Y-37781994D01*
X54530924Y-37819250D01*
X54530925Y-37819250D01*
X54769075Y-37819250D01*
X54769076Y-37819250D01*
X55004295Y-37781994D01*
X55230790Y-37708402D01*
X55442985Y-37600283D01*
X55635653Y-37460301D01*
X55804051Y-37291903D01*
X55944033Y-37099235D01*
X56052152Y-36887040D01*
X56125744Y-36660545D01*
X56163000Y-36425326D01*
X56163000Y-34162174D01*
X56141221Y-34024673D01*
X59260000Y-34024673D01*
X59260000Y-35043750D01*
X60390000Y-35043750D01*
X60390000Y-35543750D01*
X59260000Y-35543750D01*
X59260000Y-36562826D01*
X59300381Y-36817780D01*
X59380154Y-37063293D01*
X59497346Y-37293297D01*
X59649080Y-37502139D01*
X59649080Y-37502140D01*
X59831609Y-37684669D01*
X60040452Y-37836403D01*
X60270454Y-37953595D01*
X60515961Y-38033366D01*
X60515967Y-38033368D01*
X60650000Y-38054596D01*
X60650000Y-37008310D01*
X60703147Y-37038995D01*
X60832857Y-37073750D01*
X60967143Y-37073750D01*
X61096853Y-37038995D01*
X61150000Y-37008310D01*
X61150000Y-38054595D01*
X61284032Y-38033368D01*
X61284038Y-38033366D01*
X61529545Y-37953595D01*
X61759547Y-37836403D01*
X61968389Y-37684669D01*
X61968390Y-37684669D01*
X62150919Y-37502140D01*
X62150919Y-37502139D01*
X62302653Y-37293297D01*
X62419845Y-37063293D01*
X62499618Y-36817780D01*
X62540000Y-36562826D01*
X62540000Y-35543750D01*
X61410000Y-35543750D01*
X61410000Y-35441153D01*
X91849500Y-35441153D01*
X91849500Y-35598846D01*
X91880261Y-35753489D01*
X91880264Y-35753501D01*
X91940602Y-35899172D01*
X91940609Y-35899185D01*
X91975304Y-35951109D01*
X91996182Y-36017786D01*
X91977698Y-36085167D01*
X91975304Y-36088891D01*
X91940609Y-36140814D01*
X91940602Y-36140827D01*
X91880264Y-36286498D01*
X91880261Y-36286510D01*
X91849500Y-36441153D01*
X91849500Y-36598846D01*
X91880261Y-36753489D01*
X91880264Y-36753501D01*
X91940602Y-36899172D01*
X91940609Y-36899185D01*
X92028210Y-37030288D01*
X92028213Y-37030292D01*
X92139707Y-37141786D01*
X92139711Y-37141789D01*
X92270814Y-37229390D01*
X92270827Y-37229397D01*
X92416498Y-37289735D01*
X92416503Y-37289737D01*
X92571153Y-37320499D01*
X92571156Y-37320500D01*
X92571158Y-37320500D01*
X92728844Y-37320500D01*
X92728845Y-37320499D01*
X92883497Y-37289737D01*
X93029179Y-37229394D01*
X93160289Y-37141789D01*
X93271789Y-37030289D01*
X93359394Y-36899179D01*
X93419737Y-36753497D01*
X93450500Y-36598842D01*
X93450500Y-36441158D01*
X93450500Y-36441155D01*
X93450499Y-36441153D01*
X93419738Y-36286510D01*
X93419737Y-36286503D01*
X93419735Y-36286498D01*
X93359396Y-36140825D01*
X93359394Y-36140822D01*
X93359394Y-36140821D01*
X93324694Y-36088889D01*
X93303816Y-36022215D01*
X93322300Y-35954835D01*
X93324676Y-35951136D01*
X93359394Y-35899179D01*
X93419737Y-35753497D01*
X93450500Y-35598842D01*
X93450500Y-35441158D01*
X93450500Y-35441155D01*
X93450499Y-35441153D01*
X118849500Y-35441153D01*
X118849500Y-35598846D01*
X118880261Y-35753489D01*
X118880264Y-35753501D01*
X118940602Y-35899172D01*
X118940609Y-35899185D01*
X118975304Y-35951109D01*
X118996182Y-36017786D01*
X118977698Y-36085167D01*
X118975304Y-36088891D01*
X118940609Y-36140814D01*
X118940602Y-36140827D01*
X118880264Y-36286498D01*
X118880261Y-36286510D01*
X118849500Y-36441153D01*
X118849500Y-36598846D01*
X118880261Y-36753489D01*
X118880264Y-36753501D01*
X118940602Y-36899172D01*
X118940609Y-36899185D01*
X119028210Y-37030288D01*
X119028213Y-37030292D01*
X119139707Y-37141786D01*
X119139711Y-37141789D01*
X119270814Y-37229390D01*
X119270827Y-37229397D01*
X119416498Y-37289735D01*
X119416503Y-37289737D01*
X119571153Y-37320499D01*
X119571156Y-37320500D01*
X119571158Y-37320500D01*
X119728844Y-37320500D01*
X119728845Y-37320499D01*
X119883497Y-37289737D01*
X120029179Y-37229394D01*
X120160289Y-37141789D01*
X120271789Y-37030289D01*
X120359394Y-36899179D01*
X120419737Y-36753497D01*
X120450500Y-36598842D01*
X120450500Y-36441158D01*
X120450500Y-36441155D01*
X120450499Y-36441153D01*
X120419738Y-36286510D01*
X120419737Y-36286503D01*
X120419735Y-36286498D01*
X120359396Y-36140825D01*
X120359394Y-36140822D01*
X120359394Y-36140821D01*
X120324694Y-36088889D01*
X120303816Y-36022215D01*
X120322300Y-35954835D01*
X120324676Y-35951136D01*
X120359394Y-35899179D01*
X120419737Y-35753497D01*
X120450500Y-35598842D01*
X120450500Y-35441158D01*
X120450500Y-35441155D01*
X120450499Y-35441153D01*
X145849500Y-35441153D01*
X145849500Y-35598846D01*
X145880261Y-35753489D01*
X145880264Y-35753501D01*
X145940602Y-35899172D01*
X145940609Y-35899185D01*
X145975304Y-35951109D01*
X145996182Y-36017786D01*
X145977698Y-36085167D01*
X145975304Y-36088891D01*
X145940609Y-36140814D01*
X145940602Y-36140827D01*
X145880264Y-36286498D01*
X145880261Y-36286510D01*
X145849500Y-36441153D01*
X145849500Y-36598846D01*
X145880261Y-36753489D01*
X145880264Y-36753501D01*
X145940602Y-36899172D01*
X145940609Y-36899185D01*
X146028210Y-37030288D01*
X146028213Y-37030292D01*
X146139707Y-37141786D01*
X146139711Y-37141789D01*
X146270814Y-37229390D01*
X146270827Y-37229397D01*
X146416498Y-37289735D01*
X146416503Y-37289737D01*
X146571153Y-37320499D01*
X146571156Y-37320500D01*
X146571158Y-37320500D01*
X146728844Y-37320500D01*
X146728845Y-37320499D01*
X146883497Y-37289737D01*
X147029179Y-37229394D01*
X147160289Y-37141789D01*
X147271789Y-37030289D01*
X147359394Y-36899179D01*
X147419737Y-36753497D01*
X147450500Y-36598842D01*
X147450500Y-36441158D01*
X147450500Y-36441155D01*
X147450499Y-36441153D01*
X147419738Y-36286510D01*
X147419737Y-36286503D01*
X147419735Y-36286498D01*
X147359396Y-36140825D01*
X147359394Y-36140822D01*
X147359394Y-36140821D01*
X147324694Y-36088889D01*
X147303816Y-36022215D01*
X147322300Y-35954835D01*
X147324676Y-35951136D01*
X147359394Y-35899179D01*
X147419737Y-35753497D01*
X147450500Y-35598842D01*
X147450500Y-35441158D01*
X147450500Y-35441155D01*
X147450499Y-35441153D01*
X172849500Y-35441153D01*
X172849500Y-35598846D01*
X172880261Y-35753489D01*
X172880264Y-35753501D01*
X172940602Y-35899172D01*
X172940609Y-35899185D01*
X172975304Y-35951109D01*
X172996182Y-36017786D01*
X172977698Y-36085167D01*
X172975304Y-36088891D01*
X172940609Y-36140814D01*
X172940602Y-36140827D01*
X172880264Y-36286498D01*
X172880261Y-36286510D01*
X172849500Y-36441153D01*
X172849500Y-36598846D01*
X172880261Y-36753489D01*
X172880264Y-36753501D01*
X172940602Y-36899172D01*
X172940609Y-36899185D01*
X173028210Y-37030288D01*
X173028213Y-37030292D01*
X173139707Y-37141786D01*
X173139711Y-37141789D01*
X173270814Y-37229390D01*
X173270827Y-37229397D01*
X173416498Y-37289735D01*
X173416503Y-37289737D01*
X173571153Y-37320499D01*
X173571156Y-37320500D01*
X173571158Y-37320500D01*
X173728844Y-37320500D01*
X173728845Y-37320499D01*
X173883497Y-37289737D01*
X174029179Y-37229394D01*
X174160289Y-37141789D01*
X174271789Y-37030289D01*
X174359394Y-36899179D01*
X174419737Y-36753497D01*
X174450500Y-36598842D01*
X174450500Y-36441158D01*
X174450500Y-36441155D01*
X174450499Y-36441153D01*
X174419738Y-36286510D01*
X174419737Y-36286503D01*
X174419735Y-36286498D01*
X174359396Y-36140825D01*
X174359394Y-36140822D01*
X174359394Y-36140821D01*
X174324694Y-36088889D01*
X174303816Y-36022215D01*
X174322300Y-35954835D01*
X174324676Y-35951136D01*
X174359394Y-35899179D01*
X174419737Y-35753497D01*
X174450500Y-35598842D01*
X174450500Y-35441158D01*
X174450500Y-35441155D01*
X174450499Y-35441153D01*
X174419738Y-35286510D01*
X174419737Y-35286503D01*
X174359794Y-35141786D01*
X174359397Y-35140827D01*
X174359390Y-35140814D01*
X174271789Y-35009711D01*
X174271786Y-35009707D01*
X174160292Y-34898213D01*
X174160288Y-34898210D01*
X174029185Y-34810609D01*
X174029172Y-34810602D01*
X173883501Y-34750264D01*
X173883489Y-34750261D01*
X173728845Y-34719500D01*
X173728842Y-34719500D01*
X173571158Y-34719500D01*
X173571155Y-34719500D01*
X173416510Y-34750261D01*
X173416498Y-34750264D01*
X173270827Y-34810602D01*
X173270814Y-34810609D01*
X173139711Y-34898210D01*
X173139707Y-34898213D01*
X173028213Y-35009707D01*
X173028210Y-35009711D01*
X172940609Y-35140814D01*
X172940602Y-35140827D01*
X172880264Y-35286498D01*
X172880261Y-35286510D01*
X172849500Y-35441153D01*
X147450499Y-35441153D01*
X147419738Y-35286510D01*
X147419737Y-35286503D01*
X147359794Y-35141786D01*
X147359397Y-35140827D01*
X147359390Y-35140814D01*
X147271789Y-35009711D01*
X147271786Y-35009707D01*
X147160292Y-34898213D01*
X147160288Y-34898210D01*
X147029185Y-34810609D01*
X147029172Y-34810602D01*
X146883501Y-34750264D01*
X146883489Y-34750261D01*
X146728845Y-34719500D01*
X146728842Y-34719500D01*
X146571158Y-34719500D01*
X146571155Y-34719500D01*
X146416510Y-34750261D01*
X146416498Y-34750264D01*
X146270827Y-34810602D01*
X146270814Y-34810609D01*
X146139711Y-34898210D01*
X146139707Y-34898213D01*
X146028213Y-35009707D01*
X146028210Y-35009711D01*
X145940609Y-35140814D01*
X145940602Y-35140827D01*
X145880264Y-35286498D01*
X145880261Y-35286510D01*
X145849500Y-35441153D01*
X120450499Y-35441153D01*
X120419738Y-35286510D01*
X120419737Y-35286503D01*
X120359794Y-35141786D01*
X120359397Y-35140827D01*
X120359390Y-35140814D01*
X120271789Y-35009711D01*
X120271786Y-35009707D01*
X120160292Y-34898213D01*
X120160288Y-34898210D01*
X120029185Y-34810609D01*
X120029172Y-34810602D01*
X119883501Y-34750264D01*
X119883489Y-34750261D01*
X119728845Y-34719500D01*
X119728842Y-34719500D01*
X119571158Y-34719500D01*
X119571155Y-34719500D01*
X119416510Y-34750261D01*
X119416498Y-34750264D01*
X119270827Y-34810602D01*
X119270814Y-34810609D01*
X119139711Y-34898210D01*
X119139707Y-34898213D01*
X119028213Y-35009707D01*
X119028210Y-35009711D01*
X118940609Y-35140814D01*
X118940602Y-35140827D01*
X118880264Y-35286498D01*
X118880261Y-35286510D01*
X118849500Y-35441153D01*
X93450499Y-35441153D01*
X93419738Y-35286510D01*
X93419737Y-35286503D01*
X93359794Y-35141786D01*
X93359397Y-35140827D01*
X93359390Y-35140814D01*
X93271789Y-35009711D01*
X93271786Y-35009707D01*
X93160292Y-34898213D01*
X93160288Y-34898210D01*
X93029185Y-34810609D01*
X93029172Y-34810602D01*
X92883501Y-34750264D01*
X92883489Y-34750261D01*
X92728845Y-34719500D01*
X92728842Y-34719500D01*
X92571158Y-34719500D01*
X92571155Y-34719500D01*
X92416510Y-34750261D01*
X92416498Y-34750264D01*
X92270827Y-34810602D01*
X92270814Y-34810609D01*
X92139711Y-34898210D01*
X92139707Y-34898213D01*
X92028213Y-35009707D01*
X92028210Y-35009711D01*
X91940609Y-35140814D01*
X91940602Y-35140827D01*
X91880264Y-35286498D01*
X91880261Y-35286510D01*
X91849500Y-35441153D01*
X61410000Y-35441153D01*
X61410000Y-35043750D01*
X62540000Y-35043750D01*
X62540000Y-34441153D01*
X97849500Y-34441153D01*
X97849500Y-34598846D01*
X97880261Y-34753489D01*
X97880264Y-34753501D01*
X97940602Y-34899172D01*
X97940609Y-34899185D01*
X98028210Y-35030288D01*
X98028213Y-35030292D01*
X98139707Y-35141786D01*
X98139711Y-35141789D01*
X98270814Y-35229390D01*
X98270827Y-35229397D01*
X98408683Y-35286498D01*
X98416503Y-35289737D01*
X98571153Y-35320499D01*
X98571156Y-35320500D01*
X98571158Y-35320500D01*
X98728844Y-35320500D01*
X98728845Y-35320499D01*
X98739179Y-35318443D01*
X98764287Y-35313450D01*
X98764292Y-35313449D01*
X98849800Y-35296439D01*
X98883497Y-35289737D01*
X99029179Y-35229394D01*
X99160289Y-35141789D01*
X99271789Y-35030289D01*
X99359394Y-34899179D01*
X99419737Y-34753497D01*
X99450500Y-34598842D01*
X99450500Y-34441158D01*
X99450500Y-34441155D01*
X99450499Y-34441153D01*
X124849500Y-34441153D01*
X124849500Y-34598846D01*
X124880261Y-34753489D01*
X124880264Y-34753501D01*
X124940602Y-34899172D01*
X124940609Y-34899185D01*
X125028210Y-35030288D01*
X125028213Y-35030292D01*
X125139707Y-35141786D01*
X125139711Y-35141789D01*
X125270814Y-35229390D01*
X125270827Y-35229397D01*
X125408683Y-35286498D01*
X125416503Y-35289737D01*
X125571153Y-35320499D01*
X125571156Y-35320500D01*
X125571158Y-35320500D01*
X125728844Y-35320500D01*
X125728845Y-35320499D01*
X125739179Y-35318443D01*
X125764287Y-35313450D01*
X125764292Y-35313449D01*
X125849800Y-35296439D01*
X125883497Y-35289737D01*
X126029179Y-35229394D01*
X126160289Y-35141789D01*
X126271789Y-35030289D01*
X126359394Y-34899179D01*
X126419737Y-34753497D01*
X126450500Y-34598842D01*
X126450500Y-34441158D01*
X126450500Y-34441155D01*
X126450499Y-34441153D01*
X151849500Y-34441153D01*
X151849500Y-34598846D01*
X151880261Y-34753489D01*
X151880264Y-34753501D01*
X151940602Y-34899172D01*
X151940609Y-34899185D01*
X152028210Y-35030288D01*
X152028213Y-35030292D01*
X152139707Y-35141786D01*
X152139711Y-35141789D01*
X152270814Y-35229390D01*
X152270827Y-35229397D01*
X152408683Y-35286498D01*
X152416503Y-35289737D01*
X152571153Y-35320499D01*
X152571156Y-35320500D01*
X152571158Y-35320500D01*
X152728844Y-35320500D01*
X152728845Y-35320499D01*
X152739179Y-35318443D01*
X152764287Y-35313450D01*
X152764292Y-35313449D01*
X152849800Y-35296439D01*
X152883497Y-35289737D01*
X153029179Y-35229394D01*
X153160289Y-35141789D01*
X153271789Y-35030289D01*
X153359394Y-34899179D01*
X153419737Y-34753497D01*
X153450500Y-34598842D01*
X153450500Y-34441158D01*
X153450500Y-34441155D01*
X153450499Y-34441153D01*
X178849500Y-34441153D01*
X178849500Y-34598846D01*
X178880261Y-34753489D01*
X178880264Y-34753501D01*
X178940602Y-34899172D01*
X178940609Y-34899185D01*
X179028210Y-35030288D01*
X179028213Y-35030292D01*
X179139707Y-35141786D01*
X179139711Y-35141789D01*
X179270814Y-35229390D01*
X179270827Y-35229397D01*
X179408683Y-35286498D01*
X179416503Y-35289737D01*
X179571153Y-35320499D01*
X179571156Y-35320500D01*
X179571158Y-35320500D01*
X179728844Y-35320500D01*
X179728845Y-35320499D01*
X179883497Y-35289737D01*
X180029179Y-35229394D01*
X180160289Y-35141789D01*
X180271789Y-35030289D01*
X180359394Y-34899179D01*
X180419737Y-34753497D01*
X180450500Y-34598842D01*
X180450500Y-34441158D01*
X180450500Y-34441155D01*
X180450499Y-34441153D01*
X180419738Y-34286510D01*
X180419737Y-34286503D01*
X180368239Y-34162174D01*
X180359397Y-34140827D01*
X180359390Y-34140814D01*
X180271789Y-34009711D01*
X180271786Y-34009707D01*
X180160292Y-33898213D01*
X180160288Y-33898210D01*
X180029185Y-33810609D01*
X180029172Y-33810602D01*
X179883501Y-33750264D01*
X179883489Y-33750261D01*
X179728845Y-33719500D01*
X179728842Y-33719500D01*
X179571158Y-33719500D01*
X179571155Y-33719500D01*
X179416510Y-33750261D01*
X179416498Y-33750264D01*
X179270827Y-33810602D01*
X179270814Y-33810609D01*
X179139711Y-33898210D01*
X179139707Y-33898213D01*
X179028213Y-34009707D01*
X179028210Y-34009711D01*
X178940609Y-34140814D01*
X178940602Y-34140827D01*
X178880264Y-34286498D01*
X178880261Y-34286510D01*
X178849500Y-34441153D01*
X153450499Y-34441153D01*
X153419738Y-34286510D01*
X153419737Y-34286503D01*
X153368239Y-34162174D01*
X153359397Y-34140827D01*
X153359390Y-34140814D01*
X153271789Y-34009711D01*
X153271786Y-34009707D01*
X153160292Y-33898213D01*
X153160288Y-33898210D01*
X153029185Y-33810609D01*
X153029172Y-33810602D01*
X152883501Y-33750264D01*
X152883489Y-33750261D01*
X152728845Y-33719500D01*
X152728842Y-33719500D01*
X152571158Y-33719500D01*
X152571155Y-33719500D01*
X152416510Y-33750261D01*
X152416498Y-33750264D01*
X152270827Y-33810602D01*
X152270814Y-33810609D01*
X152139711Y-33898210D01*
X152139707Y-33898213D01*
X152028213Y-34009707D01*
X152028210Y-34009711D01*
X151940609Y-34140814D01*
X151940602Y-34140827D01*
X151880264Y-34286498D01*
X151880261Y-34286510D01*
X151849500Y-34441153D01*
X126450499Y-34441153D01*
X126419738Y-34286510D01*
X126419737Y-34286503D01*
X126368239Y-34162174D01*
X126359397Y-34140827D01*
X126359390Y-34140814D01*
X126271789Y-34009711D01*
X126271786Y-34009707D01*
X126160292Y-33898213D01*
X126160288Y-33898210D01*
X126029185Y-33810609D01*
X126029172Y-33810602D01*
X125883501Y-33750264D01*
X125883489Y-33750261D01*
X125728845Y-33719500D01*
X125728842Y-33719500D01*
X125571158Y-33719500D01*
X125571155Y-33719500D01*
X125416510Y-33750261D01*
X125416498Y-33750264D01*
X125270827Y-33810602D01*
X125270814Y-33810609D01*
X125139711Y-33898210D01*
X125139707Y-33898213D01*
X125028213Y-34009707D01*
X125028210Y-34009711D01*
X124940609Y-34140814D01*
X124940602Y-34140827D01*
X124880264Y-34286498D01*
X124880261Y-34286510D01*
X124849500Y-34441153D01*
X99450499Y-34441153D01*
X99419738Y-34286510D01*
X99419737Y-34286503D01*
X99368239Y-34162174D01*
X99359397Y-34140827D01*
X99359390Y-34140814D01*
X99271789Y-34009711D01*
X99271786Y-34009707D01*
X99160292Y-33898213D01*
X99160288Y-33898210D01*
X99029185Y-33810609D01*
X99029172Y-33810602D01*
X98883501Y-33750264D01*
X98883489Y-33750261D01*
X98728845Y-33719500D01*
X98728842Y-33719500D01*
X98571158Y-33719500D01*
X98571155Y-33719500D01*
X98416510Y-33750261D01*
X98416498Y-33750264D01*
X98270827Y-33810602D01*
X98270814Y-33810609D01*
X98139711Y-33898210D01*
X98139707Y-33898213D01*
X98028213Y-34009707D01*
X98028210Y-34009711D01*
X97940609Y-34140814D01*
X97940602Y-34140827D01*
X97880264Y-34286498D01*
X97880261Y-34286510D01*
X97849500Y-34441153D01*
X62540000Y-34441153D01*
X62540000Y-34024673D01*
X62499618Y-33769719D01*
X62419845Y-33524206D01*
X62302653Y-33294202D01*
X62150919Y-33085360D01*
X62150919Y-33085359D01*
X61968390Y-32902830D01*
X61759547Y-32751096D01*
X61529545Y-32633905D01*
X61284029Y-32554131D01*
X61150000Y-32532902D01*
X61150000Y-33579189D01*
X61096853Y-33548505D01*
X60967143Y-33513750D01*
X60832857Y-33513750D01*
X60703147Y-33548505D01*
X60650000Y-33579189D01*
X60650000Y-32532902D01*
X60515969Y-32554131D01*
X60270456Y-32633904D01*
X60040452Y-32751096D01*
X59831610Y-32902830D01*
X59831609Y-32902830D01*
X59649080Y-33085359D01*
X59649080Y-33085360D01*
X59497346Y-33294202D01*
X59380154Y-33524206D01*
X59300381Y-33769719D01*
X59260000Y-34024673D01*
X56141221Y-34024673D01*
X56125744Y-33926955D01*
X56087939Y-33810602D01*
X56052153Y-33700462D01*
X56052152Y-33700459D01*
X55944032Y-33488264D01*
X55804051Y-33295597D01*
X55635653Y-33127199D01*
X55442985Y-32987217D01*
X55230790Y-32879097D01*
X55230787Y-32879096D01*
X55004296Y-32805506D01*
X54886685Y-32786878D01*
X54769076Y-32768250D01*
X54530924Y-32768250D01*
X54452517Y-32780668D01*
X54295703Y-32805506D01*
X54069212Y-32879096D01*
X54069209Y-32879097D01*
X53857014Y-32987217D01*
X53747090Y-33067082D01*
X53664347Y-33127199D01*
X53664345Y-33127201D01*
X53664344Y-33127201D01*
X53495951Y-33295594D01*
X53495951Y-33295595D01*
X53495949Y-33295597D01*
X53477857Y-33320499D01*
X53355967Y-33488264D01*
X53247847Y-33700459D01*
X53247846Y-33700462D01*
X53174256Y-33926953D01*
X53137000Y-34162175D01*
X45940500Y-34162175D01*
X45940500Y-32441153D01*
X96849500Y-32441153D01*
X96849500Y-32598846D01*
X96880261Y-32753489D01*
X96880264Y-32753501D01*
X96940602Y-32899172D01*
X96940609Y-32899185D01*
X97028210Y-33030288D01*
X97028213Y-33030292D01*
X97139707Y-33141786D01*
X97139711Y-33141789D01*
X97270814Y-33229390D01*
X97270827Y-33229397D01*
X97416498Y-33289735D01*
X97416503Y-33289737D01*
X97571153Y-33320499D01*
X97571156Y-33320500D01*
X97571158Y-33320500D01*
X97728844Y-33320500D01*
X97728845Y-33320499D01*
X97883497Y-33289737D01*
X98029179Y-33229394D01*
X98160289Y-33141789D01*
X98271789Y-33030289D01*
X98359394Y-32899179D01*
X98419737Y-32753497D01*
X98450500Y-32598842D01*
X98450500Y-32441158D01*
X98450500Y-32441155D01*
X98450499Y-32441153D01*
X98419738Y-32286510D01*
X98419737Y-32286503D01*
X98359794Y-32141786D01*
X98359397Y-32140827D01*
X98359390Y-32140814D01*
X98271789Y-32009711D01*
X98271786Y-32009707D01*
X98160292Y-31898213D01*
X98160288Y-31898210D01*
X98029185Y-31810609D01*
X98029172Y-31810602D01*
X97883501Y-31750264D01*
X97883489Y-31750261D01*
X97728845Y-31719500D01*
X97728842Y-31719500D01*
X97571158Y-31719500D01*
X97571155Y-31719500D01*
X97416510Y-31750261D01*
X97416498Y-31750264D01*
X97270827Y-31810602D01*
X97270814Y-31810609D01*
X97139711Y-31898210D01*
X97139707Y-31898213D01*
X97028213Y-32009707D01*
X97028210Y-32009711D01*
X96940609Y-32140814D01*
X96940602Y-32140827D01*
X96880264Y-32286498D01*
X96880261Y-32286510D01*
X96849500Y-32441153D01*
X45940500Y-32441153D01*
X45940500Y-31441153D01*
X123849500Y-31441153D01*
X123849500Y-31598846D01*
X123880261Y-31753489D01*
X123880264Y-31753501D01*
X123940602Y-31899172D01*
X123940609Y-31899185D01*
X124028210Y-32030288D01*
X124028213Y-32030292D01*
X124139707Y-32141786D01*
X124139711Y-32141789D01*
X124270814Y-32229390D01*
X124270827Y-32229397D01*
X124408683Y-32286498D01*
X124416503Y-32289737D01*
X124571153Y-32320499D01*
X124571156Y-32320500D01*
X124571158Y-32320500D01*
X124728844Y-32320500D01*
X124728845Y-32320499D01*
X124883497Y-32289737D01*
X125029179Y-32229394D01*
X125160289Y-32141789D01*
X125271789Y-32030289D01*
X125359394Y-31899179D01*
X125419737Y-31753497D01*
X125450500Y-31598842D01*
X125450500Y-31441158D01*
X125450500Y-31441155D01*
X125450499Y-31441153D01*
X150849500Y-31441153D01*
X150849500Y-31598846D01*
X150880261Y-31753489D01*
X150880264Y-31753501D01*
X150940602Y-31899172D01*
X150940609Y-31899185D01*
X151028210Y-32030288D01*
X151028213Y-32030292D01*
X151139707Y-32141786D01*
X151139711Y-32141789D01*
X151270814Y-32229390D01*
X151270827Y-32229397D01*
X151408683Y-32286498D01*
X151416503Y-32289737D01*
X151571153Y-32320499D01*
X151571156Y-32320500D01*
X151571158Y-32320500D01*
X151728844Y-32320500D01*
X151728845Y-32320499D01*
X151883497Y-32289737D01*
X152029179Y-32229394D01*
X152160289Y-32141789D01*
X152271789Y-32030289D01*
X152359394Y-31899179D01*
X152419737Y-31753497D01*
X152450500Y-31598842D01*
X152450500Y-31441158D01*
X152450500Y-31441155D01*
X152450499Y-31441153D01*
X177849500Y-31441153D01*
X177849500Y-31598846D01*
X177880261Y-31753489D01*
X177880264Y-31753501D01*
X177940602Y-31899172D01*
X177940609Y-31899185D01*
X178028210Y-32030288D01*
X178028213Y-32030292D01*
X178139707Y-32141786D01*
X178139711Y-32141789D01*
X178270814Y-32229390D01*
X178270827Y-32229397D01*
X178408683Y-32286498D01*
X178416503Y-32289737D01*
X178571153Y-32320499D01*
X178571156Y-32320500D01*
X178571158Y-32320500D01*
X178728844Y-32320500D01*
X178728845Y-32320499D01*
X178883497Y-32289737D01*
X179029179Y-32229394D01*
X179160289Y-32141789D01*
X179271789Y-32030289D01*
X179359394Y-31899179D01*
X179419737Y-31753497D01*
X179450500Y-31598842D01*
X179450500Y-31441158D01*
X179450500Y-31441155D01*
X179450499Y-31441153D01*
X179444250Y-31409737D01*
X179419737Y-31286503D01*
X179363316Y-31150289D01*
X179359397Y-31140827D01*
X179359390Y-31140814D01*
X179271789Y-31009711D01*
X179271786Y-31009707D01*
X179160292Y-30898213D01*
X179160288Y-30898210D01*
X179029185Y-30810609D01*
X179029172Y-30810602D01*
X178883501Y-30750264D01*
X178883489Y-30750261D01*
X178728845Y-30719500D01*
X178728842Y-30719500D01*
X178571158Y-30719500D01*
X178571155Y-30719500D01*
X178416510Y-30750261D01*
X178416498Y-30750264D01*
X178270827Y-30810602D01*
X178270814Y-30810609D01*
X178139711Y-30898210D01*
X178139707Y-30898213D01*
X178028213Y-31009707D01*
X178028210Y-31009711D01*
X177940609Y-31140814D01*
X177940602Y-31140827D01*
X177880264Y-31286498D01*
X177880261Y-31286510D01*
X177849500Y-31441153D01*
X152450499Y-31441153D01*
X152444250Y-31409737D01*
X152419737Y-31286503D01*
X152363316Y-31150289D01*
X152359397Y-31140827D01*
X152359390Y-31140814D01*
X152271789Y-31009711D01*
X152271786Y-31009707D01*
X152160292Y-30898213D01*
X152160288Y-30898210D01*
X152029185Y-30810609D01*
X152029172Y-30810602D01*
X151883501Y-30750264D01*
X151883489Y-30750261D01*
X151728845Y-30719500D01*
X151728842Y-30719500D01*
X151571158Y-30719500D01*
X151571155Y-30719500D01*
X151416510Y-30750261D01*
X151416498Y-30750264D01*
X151270827Y-30810602D01*
X151270814Y-30810609D01*
X151139711Y-30898210D01*
X151139707Y-30898213D01*
X151028213Y-31009707D01*
X151028210Y-31009711D01*
X150940609Y-31140814D01*
X150940602Y-31140827D01*
X150880264Y-31286498D01*
X150880261Y-31286510D01*
X150849500Y-31441153D01*
X125450499Y-31441153D01*
X125444250Y-31409737D01*
X125419737Y-31286503D01*
X125363316Y-31150289D01*
X125359397Y-31140827D01*
X125359390Y-31140814D01*
X125271789Y-31009711D01*
X125271786Y-31009707D01*
X125160292Y-30898213D01*
X125160288Y-30898210D01*
X125029185Y-30810609D01*
X125029172Y-30810602D01*
X124883501Y-30750264D01*
X124883489Y-30750261D01*
X124728845Y-30719500D01*
X124728842Y-30719500D01*
X124571158Y-30719500D01*
X124571155Y-30719500D01*
X124416510Y-30750261D01*
X124416498Y-30750264D01*
X124270827Y-30810602D01*
X124270814Y-30810609D01*
X124139711Y-30898210D01*
X124139707Y-30898213D01*
X124028213Y-31009707D01*
X124028210Y-31009711D01*
X123940609Y-31140814D01*
X123940602Y-31140827D01*
X123880264Y-31286498D01*
X123880261Y-31286510D01*
X123849500Y-31441153D01*
X45940500Y-31441153D01*
X45940500Y-30561153D01*
X92849500Y-30561153D01*
X92849500Y-30718846D01*
X92880261Y-30873489D01*
X92880264Y-30873501D01*
X92940602Y-31019172D01*
X92940609Y-31019185D01*
X93028210Y-31150288D01*
X93028213Y-31150292D01*
X93139707Y-31261786D01*
X93139711Y-31261789D01*
X93270814Y-31349390D01*
X93270827Y-31349397D01*
X93416498Y-31409735D01*
X93416503Y-31409737D01*
X93571153Y-31440499D01*
X93571156Y-31440500D01*
X93571158Y-31440500D01*
X93728844Y-31440500D01*
X93728845Y-31440499D01*
X93883497Y-31409737D01*
X94029179Y-31349394D01*
X94160289Y-31261789D01*
X94271789Y-31150289D01*
X94359394Y-31019179D01*
X94419737Y-30873497D01*
X94450500Y-30718842D01*
X94450500Y-30561158D01*
X94450500Y-30561155D01*
X94430231Y-30459258D01*
X94430231Y-30459257D01*
X94426630Y-30441153D01*
X119849500Y-30441153D01*
X119849500Y-30598846D01*
X119880261Y-30753489D01*
X119880264Y-30753501D01*
X119940602Y-30899172D01*
X119940609Y-30899185D01*
X120028210Y-31030288D01*
X120028213Y-31030292D01*
X120139707Y-31141786D01*
X120139711Y-31141789D01*
X120270814Y-31229390D01*
X120270827Y-31229397D01*
X120408683Y-31286498D01*
X120416503Y-31289737D01*
X120571153Y-31320499D01*
X120571156Y-31320500D01*
X120571158Y-31320500D01*
X120728844Y-31320500D01*
X120728845Y-31320499D01*
X120739179Y-31318443D01*
X120764287Y-31313450D01*
X120764292Y-31313449D01*
X120849800Y-31296439D01*
X120883497Y-31289737D01*
X121029179Y-31229394D01*
X121160289Y-31141789D01*
X121271789Y-31030289D01*
X121359394Y-30899179D01*
X121419737Y-30753497D01*
X121450500Y-30598842D01*
X121450500Y-30441158D01*
X121450500Y-30441155D01*
X121450499Y-30441153D01*
X146849500Y-30441153D01*
X146849500Y-30598846D01*
X146880261Y-30753489D01*
X146880264Y-30753501D01*
X146940602Y-30899172D01*
X146940609Y-30899185D01*
X147028210Y-31030288D01*
X147028213Y-31030292D01*
X147139707Y-31141786D01*
X147139711Y-31141789D01*
X147270814Y-31229390D01*
X147270827Y-31229397D01*
X147408683Y-31286498D01*
X147416503Y-31289737D01*
X147571153Y-31320499D01*
X147571156Y-31320500D01*
X147571158Y-31320500D01*
X147728844Y-31320500D01*
X147728845Y-31320499D01*
X147739179Y-31318443D01*
X147764287Y-31313450D01*
X147764292Y-31313449D01*
X147849800Y-31296439D01*
X147883497Y-31289737D01*
X148029179Y-31229394D01*
X148160289Y-31141789D01*
X148271789Y-31030289D01*
X148359394Y-30899179D01*
X148419737Y-30753497D01*
X148450500Y-30598842D01*
X148450500Y-30441158D01*
X148450500Y-30441155D01*
X148450499Y-30441153D01*
X173849500Y-30441153D01*
X173849500Y-30598846D01*
X173880261Y-30753489D01*
X173880264Y-30753501D01*
X173940602Y-30899172D01*
X173940609Y-30899185D01*
X174028210Y-31030288D01*
X174028213Y-31030292D01*
X174139707Y-31141786D01*
X174139711Y-31141789D01*
X174270814Y-31229390D01*
X174270827Y-31229397D01*
X174408683Y-31286498D01*
X174416503Y-31289737D01*
X174571153Y-31320499D01*
X174571156Y-31320500D01*
X174571158Y-31320500D01*
X174728844Y-31320500D01*
X174728845Y-31320499D01*
X174739179Y-31318443D01*
X174764287Y-31313450D01*
X174764292Y-31313449D01*
X174849800Y-31296439D01*
X174883497Y-31289737D01*
X175029179Y-31229394D01*
X175160289Y-31141789D01*
X175271789Y-31030289D01*
X175359394Y-30899179D01*
X175419737Y-30753497D01*
X175450500Y-30598842D01*
X175450500Y-30441158D01*
X175450500Y-30441155D01*
X175450499Y-30441153D01*
X175419738Y-30286510D01*
X175419737Y-30286503D01*
X175409096Y-30260814D01*
X175359397Y-30140827D01*
X175359390Y-30140814D01*
X175271789Y-30009711D01*
X175271786Y-30009707D01*
X175160292Y-29898213D01*
X175160288Y-29898210D01*
X175029185Y-29810609D01*
X175029172Y-29810602D01*
X174883501Y-29750264D01*
X174883489Y-29750261D01*
X174728845Y-29719500D01*
X174728842Y-29719500D01*
X174571158Y-29719500D01*
X174571155Y-29719500D01*
X174416510Y-29750261D01*
X174416498Y-29750264D01*
X174270827Y-29810602D01*
X174270814Y-29810609D01*
X174139711Y-29898210D01*
X174139707Y-29898213D01*
X174028213Y-30009707D01*
X174028210Y-30009711D01*
X173940609Y-30140814D01*
X173940602Y-30140827D01*
X173880264Y-30286498D01*
X173880261Y-30286510D01*
X173849500Y-30441153D01*
X148450499Y-30441153D01*
X148419738Y-30286510D01*
X148419737Y-30286503D01*
X148409096Y-30260814D01*
X148359397Y-30140827D01*
X148359390Y-30140814D01*
X148271789Y-30009711D01*
X148271786Y-30009707D01*
X148160292Y-29898213D01*
X148160288Y-29898210D01*
X148029185Y-29810609D01*
X148029172Y-29810602D01*
X147883501Y-29750264D01*
X147883489Y-29750261D01*
X147728845Y-29719500D01*
X147728842Y-29719500D01*
X147571158Y-29719500D01*
X147571155Y-29719500D01*
X147416510Y-29750261D01*
X147416498Y-29750264D01*
X147270827Y-29810602D01*
X147270814Y-29810609D01*
X147139711Y-29898210D01*
X147139707Y-29898213D01*
X147028213Y-30009707D01*
X147028210Y-30009711D01*
X146940609Y-30140814D01*
X146940602Y-30140827D01*
X146880264Y-30286498D01*
X146880261Y-30286510D01*
X146849500Y-30441153D01*
X121450499Y-30441153D01*
X121419738Y-30286510D01*
X121419737Y-30286503D01*
X121409096Y-30260814D01*
X121359397Y-30140827D01*
X121359390Y-30140814D01*
X121271789Y-30009711D01*
X121271786Y-30009707D01*
X121160292Y-29898213D01*
X121160288Y-29898210D01*
X121029185Y-29810609D01*
X121029172Y-29810602D01*
X120883501Y-29750264D01*
X120883489Y-29750261D01*
X120728845Y-29719500D01*
X120728842Y-29719500D01*
X120571158Y-29719500D01*
X120571155Y-29719500D01*
X120416510Y-29750261D01*
X120416498Y-29750264D01*
X120270827Y-29810602D01*
X120270814Y-29810609D01*
X120139711Y-29898210D01*
X120139707Y-29898213D01*
X120028213Y-30009707D01*
X120028210Y-30009711D01*
X119940609Y-30140814D01*
X119940602Y-30140827D01*
X119880264Y-30286498D01*
X119880261Y-30286510D01*
X119849500Y-30441153D01*
X94426630Y-30441153D01*
X94419738Y-30406510D01*
X94419737Y-30406503D01*
X94370030Y-30286498D01*
X94359397Y-30260827D01*
X94359390Y-30260814D01*
X94271789Y-30129711D01*
X94271786Y-30129707D01*
X94160292Y-30018213D01*
X94160288Y-30018210D01*
X94029185Y-29930609D01*
X94029172Y-29930602D01*
X93883501Y-29870264D01*
X93883489Y-29870261D01*
X93728845Y-29839500D01*
X93728842Y-29839500D01*
X93571158Y-29839500D01*
X93571155Y-29839500D01*
X93416510Y-29870261D01*
X93416498Y-29870264D01*
X93270827Y-29930602D01*
X93270814Y-29930609D01*
X93139711Y-30018210D01*
X93139707Y-30018213D01*
X93028213Y-30129707D01*
X93028210Y-30129711D01*
X92940609Y-30260814D01*
X92940602Y-30260827D01*
X92880264Y-30406498D01*
X92880261Y-30406510D01*
X92849500Y-30561153D01*
X45940500Y-30561153D01*
X45940500Y-29464500D01*
X45960185Y-29397461D01*
X46012989Y-29351706D01*
X46064500Y-29340500D01*
X201585500Y-29340500D01*
X201652539Y-29360185D01*
G37*
%TD.AperFunction*%
%TD*%
M02*
