%TF.GenerationSoftware,KiCad,Pcbnew,9.0.2*%
%TF.CreationDate,2025-06-25T20:21:35-07:00*%
%TF.ProjectId,led-plate-96-well,6c65642d-706c-4617-9465-2d39362d7765,rev?*%
%TF.SameCoordinates,Original*%
%TF.FileFunction,Copper,L2,Bot*%
%TF.FilePolarity,Positive*%
%FSLAX46Y46*%
G04 Gerber Fmt 4.6, Leading zero omitted, Abs format (unit mm)*
G04 Created by KiCad (PCBNEW 9.0.2) date 2025-06-25 20:21:35*
%MOMM*%
%LPD*%
G01*
G04 APERTURE LIST*
%TA.AperFunction,ComponentPad*%
%ADD10O,2.280000X4.560000*%
%TD*%
%TA.AperFunction,ComponentPad*%
%ADD11O,4.050000X2.025000*%
%TD*%
%TA.AperFunction,ComponentPad*%
%ADD12O,2.025000X4.050000*%
%TD*%
%TA.AperFunction,ComponentPad*%
%ADD13R,1.500000X2.300000*%
%TD*%
%TA.AperFunction,ComponentPad*%
%ADD14O,1.500000X2.300000*%
%TD*%
%TA.AperFunction,ComponentPad*%
%ADD15R,1.574800X1.574800*%
%TD*%
%TA.AperFunction,ComponentPad*%
%ADD16C,1.574800*%
%TD*%
%TA.AperFunction,ViaPad*%
%ADD17C,0.600000*%
%TD*%
%TA.AperFunction,Conductor*%
%ADD18C,0.200000*%
%TD*%
G04 APERTURE END LIST*
D10*
%TO.P,J2,PIN*%
%TO.N,+24V*%
X97350000Y-54113700D03*
D11*
%TO.P,J2,SHUNT*%
%TO.N,unconnected-(J2-PadSHUNT)*%
X94350000Y-58913700D03*
D12*
%TO.P,J2,SLEEVE*%
%TO.N,GND*%
X91100000Y-54113700D03*
%TD*%
D13*
%TO.P,U1,1,IN*%
%TO.N,+24V*%
X95367500Y-64082500D03*
D14*
%TO.P,U1,2,GND*%
%TO.N,GND*%
X92827500Y-64082500D03*
%TO.P,U1,3,OUT*%
%TO.N,Net-(U1-OUT)*%
X90287500Y-64082500D03*
%TD*%
D15*
%TO.P,U2,1,MOSI*%
%TO.N,unconnected-(U2-MOSI-Pad1)*%
X85680000Y-77350000D03*
D16*
%TO.P,U2,2,RX_LED/SS*%
%TO.N,unconnected-(U2-RX_LED{slash}SS-Pad2)*%
X85680000Y-79890000D03*
%TO.P,U2,3,1/TX*%
%TO.N,unconnected-(U2-1{slash}TX-Pad3)*%
X85680000Y-82430000D03*
%TO.P,U2,4,0/RX*%
%TO.N,unconnected-(U2-0{slash}RX-Pad4)*%
X85680000Y-84970000D03*
%TO.P,U2,5,RESET*%
%TO.N,unconnected-(U2-RESET-Pad30)*%
X85680000Y-87510000D03*
%TO.P,U2,6,GND*%
%TO.N,GND*%
X85680000Y-90050000D03*
%TO.P,U2,7,2/SDA*%
%TO.N,unconnected-(U2-2{slash}SDA-Pad7)*%
X85680000Y-92590000D03*
%TO.P,U2,8,3(PWM)/SCL*%
%TO.N,Net-(U2-3(PWM){slash}SCL)*%
X85680000Y-95130000D03*
%TO.P,U2,9,4/A6*%
%TO.N,unconnected-(U2-4{slash}A6-Pad9)*%
X85680000Y-97670000D03*
%TO.P,U2,10,5(PWM)*%
%TO.N,Net-(U2-5(PWM))*%
X85680000Y-100210000D03*
%TO.P,U2,11,6(PWM)/A7*%
%TO.N,Net-(U2-6(PWM){slash}A7)*%
X85680000Y-102750000D03*
%TO.P,U2,12,7*%
%TO.N,unconnected-(U2-7-Pad12)*%
X85680000Y-105290000D03*
%TO.P,U2,13,8/A8*%
%TO.N,unconnected-(U2-8{slash}A8-Pad13)*%
X85680000Y-107830000D03*
%TO.P,U2,14,9(PWM)/A9*%
%TO.N,Net-(U2-9(PWM){slash}A9)*%
X85680000Y-110370000D03*
%TO.P,U2,15,10(PWM)/A10*%
%TO.N,unconnected-(U2-10(PWM){slash}A10-Pad15)*%
X85680000Y-112910000D03*
%TO.P,U2,16,11(PWM)*%
%TO.N,unconnected-(U2-11(PWM)-Pad16)*%
X85680000Y-115450000D03*
%TO.P,U2,17,12/A11*%
%TO.N,unconnected-(U2-12{slash}A11-Pad17)*%
X85680000Y-117990000D03*
%TO.P,U2,18,13(PWM)*%
%TO.N,unconnected-(U2-13(PWM)-Pad18)*%
X100920000Y-117990000D03*
%TO.P,U2,19,3.3V*%
%TO.N,unconnected-(U2-3.3V-Pad19)*%
X100920000Y-115450000D03*
%TO.P,U2,20,AREF*%
%TO.N,unconnected-(U2-AREF-Pad20)*%
X100920000Y-112910000D03*
%TO.P,U2,21,A0*%
%TO.N,unconnected-(U2-A0-Pad21)*%
X100920000Y-110370000D03*
%TO.P,U2,22,A1*%
%TO.N,unconnected-(U2-A1-Pad22)*%
X100920000Y-107830000D03*
%TO.P,U2,23,A2*%
%TO.N,unconnected-(U2-A2-Pad23)*%
X100920000Y-105290000D03*
%TO.P,U2,24,A3*%
%TO.N,unconnected-(U2-A3-Pad24)*%
X100920000Y-102750000D03*
%TO.P,U2,25,A4*%
%TO.N,unconnected-(U2-A4-Pad25)*%
X100920000Y-100210000D03*
%TO.P,U2,26,A5*%
%TO.N,unconnected-(U2-A5-Pad26)*%
X100920000Y-97670000D03*
%TO.P,U2,27*%
%TO.N,N/C*%
X100920000Y-95130000D03*
%TO.P,U2,28*%
X100920000Y-92590000D03*
%TO.P,U2,29,+5V*%
%TO.N,Net-(U1-OUT)*%
X100920000Y-90050000D03*
%TO.P,U2,30,RESET*%
%TO.N,unconnected-(U2-RESET-Pad30)_1*%
X100920000Y-87510000D03*
%TO.P,U2,31,GND*%
%TO.N,GND*%
X100920000Y-84970000D03*
%TO.P,U2,32,VIN*%
%TO.N,unconnected-(U2-VIN-Pad32)*%
X100920000Y-82430000D03*
%TO.P,U2,33,MISO*%
%TO.N,unconnected-(U2-MISO-Pad33)*%
X100920000Y-79890000D03*
%TO.P,U2,34,SCK*%
%TO.N,unconnected-(U2-SCK-Pad34)*%
X100920000Y-77350000D03*
%TD*%
D17*
%TO.N,GND*%
X99347100Y-37128700D03*
X227400500Y-69207500D03*
X225145000Y-109413700D03*
X227400500Y-95556700D03*
X227766900Y-40500600D03*
X227400500Y-51735700D03*
X105651900Y-110816800D03*
X224395000Y-80949700D03*
%TO.N,Net-(U2-3(PWM){slash}SCL)*%
X90565000Y-34207300D03*
%TO.N,Net-(U2-5(PWM))*%
X97570000Y-31210000D03*
%TO.N,Net-(U2-6(PWM){slash}A7)*%
X87780500Y-118814700D03*
%TD*%
D18*
%TO.N,GND*%
X227400500Y-51735700D02*
X227400500Y-40867000D01*
X224395000Y-80949700D02*
X227400500Y-83955200D01*
X227400500Y-69207500D02*
X224395000Y-72213000D01*
X227400500Y-69207500D02*
X227400500Y-51735700D01*
X105651900Y-89701900D02*
X100920000Y-84970000D01*
X91100000Y-55277000D02*
X91100000Y-54113700D01*
X92593100Y-76643100D02*
X100920000Y-84970000D01*
X225145000Y-97812200D02*
X227400500Y-95556700D01*
X92593100Y-64082500D02*
X92593100Y-76643100D01*
X105651900Y-110816800D02*
X105651900Y-89701900D01*
X91100000Y-45375800D02*
X99347100Y-37128700D01*
X225145000Y-109413700D02*
X225145000Y-97812200D01*
X91100000Y-56440400D02*
X91775800Y-57116200D01*
X91775800Y-57116200D02*
X91775800Y-64082500D01*
X91100000Y-55277000D02*
X91100000Y-56440400D01*
X92593100Y-64082500D02*
X91775800Y-64082500D01*
X227400500Y-40867000D02*
X227766900Y-40500600D01*
X227400500Y-83955200D02*
X227400500Y-95556700D01*
X91100000Y-54113700D02*
X91100000Y-45375800D01*
X224395000Y-72213000D02*
X224395000Y-80949700D01*
X92827500Y-64082500D02*
X92593100Y-64082500D01*
%TO.N,+24V*%
X97350000Y-54113700D02*
X97350000Y-63151700D01*
X97350000Y-63151700D02*
X96419200Y-64082500D01*
X95367500Y-64082500D02*
X96419200Y-64082500D01*
%TO.N,Net-(U1-OUT)*%
X90287500Y-64082500D02*
X90287500Y-79417500D01*
X90287500Y-79417500D02*
X100920000Y-90050000D01*
%TO.N,Net-(U2-3(PWM){slash}SCL)*%
X88029900Y-36742400D02*
X88029900Y-92780100D01*
X88029900Y-92780100D02*
X85680000Y-95130000D01*
X90565000Y-34207300D02*
X88029900Y-36742400D01*
%TO.N,Net-(U2-5(PWM))*%
X94796400Y-38062200D02*
X89161700Y-43696900D01*
X89161700Y-43696900D02*
X89161700Y-96728300D01*
X94796400Y-33983600D02*
X94796400Y-38062200D01*
X89161700Y-96728300D02*
X85680000Y-100210000D01*
X97570000Y-31210000D02*
X94796400Y-33983600D01*
%TO.N,Net-(U2-6(PWM){slash}A7)*%
X85680000Y-102750000D02*
X87780500Y-104850500D01*
X87780500Y-104850500D02*
X87780500Y-118814700D01*
%TD*%
M02*
