%TF.GenerationSoftware,KiCad,Pcbnew,9.0.2*%
%TF.CreationDate,2025-06-25T20:21:35-07:00*%
%TF.ProjectId,led-plate-96-well,6c65642d-706c-4617-9465-2d39362d7765,rev?*%
%TF.SameCoordinates,Original*%
%TF.FileFunction,Soldermask,Bot*%
%TF.FilePolarity,Negative*%
%FSLAX46Y46*%
G04 Gerber Fmt 4.6, Leading zero omitted, Abs format (unit mm)*
G04 Created by KiCad (PCBNEW 9.0.2) date 2025-06-25 20:21:35*
%MOMM*%
%LPD*%
G01*
G04 APERTURE LIST*
G04 Aperture macros list*
%AMRoundRect*
0 Rectangle with rounded corners*
0 $1 Rounding radius*
0 $2 $3 $4 $5 $6 $7 $8 $9 X,Y pos of 4 corners*
0 Add a 4 corners polygon primitive as box body*
4,1,4,$2,$3,$4,$5,$6,$7,$8,$9,$2,$3,0*
0 Add four circle primitives for the rounded corners*
1,1,$1+$1,$2,$3*
1,1,$1+$1,$4,$5*
1,1,$1+$1,$6,$7*
1,1,$1+$1,$8,$9*
0 Add four rect primitives between the rounded corners*
20,1,$1+$1,$2,$3,$4,$5,0*
20,1,$1+$1,$4,$5,$6,$7,0*
20,1,$1+$1,$6,$7,$8,$9,0*
20,1,$1+$1,$8,$9,$2,$3,0*%
G04 Aperture macros list end*
%ADD10O,2.484000X4.764000*%
%ADD11O,4.254000X2.229000*%
%ADD12O,2.229000X4.254000*%
%ADD13R,1.500000X2.300000*%
%ADD14O,1.500000X2.300000*%
%ADD15C,1.200000*%
%ADD16RoundRect,0.102000X-0.787400X-0.787400X0.787400X-0.787400X0.787400X0.787400X-0.787400X0.787400X0*%
%ADD17C,1.778800*%
G04 APERTURE END LIST*
D10*
%TO.C,J2*%
X97350000Y-54113700D03*
D11*
X94350000Y-58913700D03*
D12*
X91100000Y-54113700D03*
%TD*%
D13*
%TO.C,U1*%
X95367500Y-64082500D03*
D14*
X92827500Y-64082500D03*
X90287500Y-64082500D03*
%TD*%
D15*
%TO.C,U2*%
X85680000Y-74810000D03*
X85680000Y-120530000D03*
X100920000Y-74810000D03*
X100920000Y-120530000D03*
D16*
X85680000Y-77350000D03*
D17*
X85680000Y-79890000D03*
X85680000Y-82430000D03*
X85680000Y-84970000D03*
X85680000Y-87510000D03*
X85680000Y-90050000D03*
X85680000Y-92590000D03*
X85680000Y-95130000D03*
X85680000Y-97670000D03*
X85680000Y-100210000D03*
X85680000Y-102750000D03*
X85680000Y-105290000D03*
X85680000Y-107830000D03*
X85680000Y-110370000D03*
X85680000Y-112910000D03*
X85680000Y-115450000D03*
X85680000Y-117990000D03*
X100920000Y-117990000D03*
X100920000Y-115450000D03*
X100920000Y-112910000D03*
X100920000Y-110370000D03*
X100920000Y-107830000D03*
X100920000Y-105290000D03*
X100920000Y-102750000D03*
X100920000Y-100210000D03*
X100920000Y-97670000D03*
X100920000Y-95130000D03*
X100920000Y-92590000D03*
X100920000Y-90050000D03*
X100920000Y-87510000D03*
X100920000Y-84970000D03*
X100920000Y-82430000D03*
X100920000Y-79890000D03*
X100920000Y-77350000D03*
%TD*%
M02*
